<?xml version="1.0" standalone="no"?>
<!DOCTYPE svg PUBLIC "-//W3C//DTD SVG 20010904//EN"
 "http://www.w3.org/TR/2001/REC-SVG-20010904/DTD/svg10.dtd">
<svg version="1.0" xmlns="http://www.w3.org/2000/svg"
 width="400.000000pt" height="400.000000pt" viewBox="0 0 400.000000 400.000000"
 preserveAspectRatio="xMidYMid meet">
<metadata>
Created by potrace 1.11, written by Peter Selinger 2001-2013
</metadata>
<g transform="translate(0.000000,400.000000) scale(0.100000,-0.100000)"
fill="#000000" stroke="none">
<path d="M0 3685 c0 -203 4 -315 10 -315 6 0 10 -9 10 -20 0 -10 4 -29 9 -42
22 -59 32 -121 19 -129 -9 -6 -5 -13 13 -28 19 -16 20 -20 5 -14 -13 4 -17 3
-12 -5 5 -8 0 -12 -13 -12 -12 0 -21 5 -21 10 0 6 -4 10 -10 10 -6 0 -10 -127
-10 -360 l0 -360 109 0 c59 0 129 3 154 6 l45 6 -36 70 c-32 61 -35 72 -25 98
15 39 6 43 -68 35 -51 -6 -59 -5 -59 10 0 9 9 19 20 22 11 3 20 9 20 13 0 5
13 11 30 15 33 7 35 25 5 39 -18 9 -16 10 13 14 40 4 62 -12 62 -45 0 -22 2
-23 15 -10 8 9 16 39 18 71 2 30 6 59 10 62 4 4 7 18 7 31 0 22 9 28 39 23 10
-1 12 6 8 28 -8 39 10 54 59 48 22 -2 41 -5 44 -6 3 -1 24 -1 47 0 30 1 47 -4
61 -18 20 -20 22 -32 36 -200 4 -44 -8 -62 -27 -43 -19 19 -28 12 -13 -12 16
-23 11 -71 -5 -61 -5 3 -9 0 -9 -5 0 -6 9 -11 20 -11 11 0 20 -7 20 -15 0 -27
20 -16 27 15 3 17 10 33 15 36 15 9 38 -17 38 -42 0 -19 -5 -24 -27 -24 -14 0
-23 -3 -20 -7 4 -3 -7 -14 -23 -24 -33 -20 -38 -36 -15 -45 8 -4 15 -10 15
-15 0 -5 -7 -9 -15 -9 -8 0 -15 -5 -15 -11 0 -6 14 -9 32 -7 26 2 33 9 40 33
4 17 19 43 34 58 19 21 23 32 15 40 -18 18 -12 58 15 94 14 18 33 33 43 33 10
0 24 7 31 15 7 8 18 15 24 15 6 0 23 7 39 14 17 10 27 11 27 4 0 -7 15 -9 40
-5 29 4 40 1 40 -8 0 -7 7 -15 15 -19 20 -7 20 -94 0 -132 -11 -22 -12 -30 -2
-36 8 -5 5 -8 -8 -8 -17 0 -15 -4 13 -26 17 -14 32 -32 32 -40 0 -20 6 -18 48
15 20 16 63 37 96 47 40 13 62 25 69 41 5 12 19 25 31 28 12 4 30 10 41 15 11
5 36 11 55 15 50 8 80 37 82 78 1 19 -2 39 -6 46 -9 14 2 71 13 71 14 0 22
-90 10 -112 -8 -15 -7 -24 6 -38 11 -12 13 -20 5 -25 -5 -3 -8 -10 -5 -15 3
-5 1 -27 -4 -49 -5 -23 -5 -39 0 -36 17 11 54 -86 38 -102 -4 -4 -9 -25 -11
-46 -1 -20 -5 -37 -8 -37 -13 0 -26 48 -19 73 10 36 2 60 -23 76 -25 15 -35 7
-18 -15 12 -13 11 -17 0 -24 -10 -6 -19 0 -31 19 -9 15 -29 37 -43 48 -14 12
-26 25 -26 31 0 5 -7 12 -15 15 -9 4 -2 -17 19 -58 19 -35 31 -67 28 -71 -4
-4 -2 -4 4 -1 7 4 15 0 18 -9 9 -23 8 -24 -10 -17 -14 5 -16 -1 -10 -53 4 -32
13 -93 20 -134 8 -41 12 -78 10 -82 -2 -4 -1 -9 4 -12 5 -3 8 -30 7 -60 -1
-31 1 -56 6 -56 4 0 8 -8 8 -17 0 -56 13 -238 17 -245 3 -4 1 -16 -4 -25 -20
-38 -23 -73 -7 -73 8 0 15 4 15 9 0 5 7 16 15 24 15 16 56 299 56 392 0 10 4
24 9 30 5 6 5 17 0 25 -14 22 -12 30 6 30 14 0 14 3 4 15 -7 8 -8 15 -3 15 5
0 10 8 11 18 5 48 0 191 -7 222 -4 20 -5 44 -1 55 8 23 15 -9 26 -118 4 -37
11 -70 16 -73 4 -3 6 -9 4 -13 -3 -4 4 -31 14 -59 20 -52 20 -134 0 -172 -4
-8 -11 -41 -14 -72 -4 -32 -11 -60 -16 -63 -4 -2 -11 -25 -14 -50 -4 -24 -11
-47 -16 -50 -9 -6 -8 -24 3 -41 4 -7 1 -14 -7 -17 -7 -3 -16 -30 -20 -64 -4
-32 -10 -76 -13 -98 -2 -22 -5 -100 -6 -172 -1 -73 -5 -133 -9 -133 -9 0 12
-41 27 -52 6 -5 6 -8 -1 -8 -17 0 -3 -59 18 -74 17 -12 17 -14 2 -20 -11 -4
-13 -10 -6 -19 5 -6 10 -33 10 -58 1 -40 -2 -48 -26 -60 -14 -8 -34 -22 -44
-31 -23 -23 -44 -23 -75 2 -14 11 -21 20 -14 20 6 0 11 7 11 15 0 8 8 15 17
15 12 0 14 3 7 10 -13 13 -44 2 -44 -15 0 -20 -30 -27 -46 -11 -8 8 -23 18
-35 21 -19 6 -19 8 -3 20 17 12 16 13 -4 24 -18 10 -21 9 -16 -4 7 -17 -7 -20
-23 -4 -6 6 -7 26 -3 52 5 22 6 50 3 62 -2 11 -9 101 -13 200 -5 99 -14 207
-20 240 -6 33 -14 127 -17 208 -6 137 -5 149 13 162 16 13 16 14 2 9 -20 -7
-26 20 -7 32 8 5 8 9 -1 14 -6 4 -13 27 -15 51 -2 24 -8 85 -15 134 -7 50 -13
103 -14 119 -1 16 -6 31 -11 33 -6 2 -9 -36 -8 -99 3 -105 5 -427 3 -463 0
-11 1 -33 4 -50 12 -86 26 -212 25 -230 -1 -24 -17 36 -23 85 -16 141 -132
595 -135 529 -1 -9 3 -29 9 -45 5 -16 11 -45 13 -64 2 -20 6 -40 9 -45 3 -6 8
-28 12 -50 11 -64 38 -169 46 -180 4 -5 10 -20 13 -32 7 -30 -18 -31 -33 -2
-7 11 -14 18 -17 15 -3 -2 5 -19 17 -35 12 -17 18 -31 13 -31 -4 0 -1 -4 7
-10 8 -5 11 -13 6 -17 -7 -7 -31 15 -68 64 -20 26 -73 71 -63 53 5 -8 20 -31
35 -50 50 -64 62 -150 24 -164 -20 -8 -55 16 -49 32 3 7 1 10 -5 7 -9 -6 -36
13 -71 49 -33 34 -30 11 4 -25 54 -59 87 -102 87 -116 0 -7 -9 -17 -20 -23
-11 -6 -19 -19 -18 -28 2 -12 -4 -17 -20 -16 -30 1 -28 -12 5 -20 17 -5 29 -3
34 6 7 10 9 8 9 -6 0 -16 -5 -18 -40 -12 -25 4 -40 2 -40 -4 0 -5 5 -10 11
-10 6 0 9 -9 6 -20 -3 -10 1 -24 8 -30 11 -9 10 -15 -6 -31 -23 -23 -33 -25
-25 -4 3 10 -1 15 -14 15 -31 0 -32 -17 -4 -43 24 -22 24 -25 7 -32 -16 -6
-16 -8 7 -17 24 -10 23 -11 -19 -20 -30 -7 -47 -6 -54 1 -6 6 -17 11 -25 11
-8 0 0 -12 17 -27 l31 -28 -37 -11 c-21 -7 -30 -12 -20 -13 9 -1 17 -7 17 -15
0 -10 -7 -12 -22 -8 -14 3 -19 2 -14 -6 4 -7 15 -12 24 -12 14 0 13 -2 -2 -13
-10 -8 -30 -12 -45 -10 -22 4 -24 3 -8 -7 9 -6 15 -15 13 -19 -3 -4 -69 -7
-148 -7 -79 1 -133 0 -120 -2 12 -2 20 -7 17 -11 -2 -5 26 -11 63 -13 77 -6
123 -24 115 -44 -3 -9 2 -14 17 -14 28 0 62 -18 55 -30 -3 -4 8 -11 25 -15 16
-4 30 -13 30 -21 0 -8 10 -14 25 -14 17 0 25 -5 25 -18 0 -20 51 -69 78 -74
10 -2 16 -11 14 -22 -3 -15 2 -17 32 -12 21 4 36 2 36 -4 0 -6 -8 -10 -17 -11
-25 -2 116 -28 169 -32 9 -1 15 -4 12 -8 -2 -4 11 -9 29 -12 17 -2 33 -1 35 3
2 4 33 -1 70 -10 127 -34 157 -39 222 -35 65 3 100 12 100 24 0 3 -32 4 -71 3
-39 -2 -69 0 -66 5 3 4 -6 8 -19 8 -13 0 -24 -3 -24 -7 0 -4 -17 1 -37 11 -21
10 -78 31 -126 46 -48 16 -90 32 -94 37 -21 35 135 108 228 108 44 0 170 -25
264 -53 28 -8 71 -17 97 -20 l47 -6 3 71 c3 71 4 73 46 95 2 1 -6 43 -18 93
-11 51 -30 139 -40 196 -11 58 -31 126 -45 155 -22 42 -26 60 -20 95 3 24 3
44 0 44 -14 0 -168 -146 -181 -172 -12 -23 -12 -36 -3 -71 15 -57 118 -249
165 -309 38 -48 55 -83 69 -146 6 -29 4 -32 -18 -32 -30 0 -41 13 -57 67 -7
23 -17 40 -21 37 -5 -3 -6 2 -3 11 4 8 -1 26 -10 40 -9 14 -13 25 -9 24 4 -1
14 -1 22 0 27 2 1 15 -31 15 -30 1 -36 7 -71 71 -110 200 -125 276 -70 356 38
55 226 219 251 219 17 0 32 -59 26 -103 -3 -26 0 -57 10 -82 16 -39 16 -39 10
-6 -5 28 -4 33 10 28 23 -9 29 9 11 42 -10 21 -12 32 -4 37 19 11 40 -21 48
-72 4 -27 11 -48 17 -48 5 1 21 4 37 8 23 5 27 3 27 -14 0 -11 2 -20 4 -20 14
0 105 52 109 63 3 9 7 9 20 -1 14 -12 15 -4 10 80 -5 105 -20 132 -76 141 -45
6 -80 -6 -152 -53 -34 -22 -65 -40 -69 -40 -4 0 -6 19 -4 41 3 40 5 43 75 81
60 33 82 39 128 39 31 0 63 -5 71 -12 12 -10 14 2 13 87 0 55 -4 108 -9 119
-5 11 -9 15 -9 9 -1 -6 -8 -11 -16 -11 -9 0 -14 6 -11 14 3 7 1 13 -4 13 -6 0
-10 -8 -10 -17 0 -15 -2 -14 -15 3 -8 10 -15 16 -15 12 0 -5 -9 1 -20 12 -11
11 -17 26 -14 35 4 8 -1 17 -10 21 -8 3 -25 21 -37 40 -11 19 -24 32 -28 30
-4 -3 -13 -1 -21 4 -11 7 -7 10 13 15 15 4 27 13 27 21 0 29 94 47 130 24 10
-6 20 -4 31 6 17 15 49 10 49 -8 0 -6 7 -5 15 2 9 7 18 10 21 7 10 -10 -5 -39
-16 -32 -8 5 -9 -45 -4 -162 4 -106 3 -182 -4 -205 -12 -43 11 -208 37 -270
13 -31 22 -39 51 -43 19 -3 51 -14 70 -24 39 -21 47 -42 49 -136 1 -55 3 -60
24 -60 12 -1 33 -5 46 -9 l24 -8 -7 166 -7 166 25 0 c21 0 26 -6 32 -36 8 -44
-1 -189 -14 -224 -24 -66 -23 -78 9 -115 24 -27 29 -38 20 -49 -6 -7 -8 -16
-4 -19 3 -4 1 -7 -5 -7 -6 0 -32 18 -57 40 -25 22 -52 40 -60 40 -7 0 -16 8
-18 18 -3 9 -5 -20 -6 -65 0 -46 -5 -83 -10 -83 -10 0 -21 59 -21 123 0 35 -4
47 -15 47 -10 0 -15 -10 -15 -32 0 -74 -12 -108 -42 -124 -16 -8 -34 -11 -41
-7 -16 9 -59 61 -73 86 -11 19 -12 19 -18 -10 -6 -26 -13 -32 -42 -38 -19 -3
-44 -3 -54 0 -26 8 -27 -21 -3 -48 10 -10 28 -42 40 -70 12 -29 22 -46 23 -39
0 21 16 13 18 -10 3 -32 3 -113 0 -180 l-3 -57 59 -16 c60 -17 108 -44 158
-87 30 -26 48 -71 26 -63 -9 4 -20 -5 -28 -20 -9 -17 -21 -25 -34 -23 -17 2
-21 9 -18 36 3 40 -16 40 -36 -1 -7 -15 -20 -27 -30 -27 -13 0 -14 -2 -3 -13
10 -10 15 -8 27 7 7 11 16 17 20 14 18 -18 34 -134 37 -260 1 -31 5 -54 9 -52
5 3 8 0 8 -6 0 -6 5 -16 10 -23 6 -7 17 -21 25 -32 13 -17 16 -18 25 -5 8 13
12 13 32 1 22 -13 23 -13 6 6 -10 11 -18 24 -18 29 0 5 -18 18 -40 28 -27 13
-36 22 -28 27 9 6 8 10 -5 15 -25 9 -21 27 5 19 17 -6 20 -4 15 10 -10 26 16
45 49 36 33 -9 44 -31 15 -31 -12 0 -21 5 -21 10 0 6 -5 10 -11 10 -6 0 -9 -6
-6 -14 3 -8 -3 -24 -14 -37 l-19 -22 62 -31 c52 -25 67 -39 86 -76 20 -39 23
-54 18 -112 l-6 -68 680 0 680 0 0 40 c0 47 34 83 120 129 l55 29 3 741 c2
655 0 741 -13 741 -8 0 -15 7 -15 15 0 8 -11 17 -25 21 -14 3 -25 9 -25 13 0
5 -18 14 -40 21 -22 7 -40 19 -40 25 0 7 -28 21 -62 33 -36 11 -63 26 -63 34
0 7 -7 13 -15 13 -8 0 -18 5 -22 10 -15 19 -8 -38 16 -139 14 -55 27 -119 31
-141 4 -22 10 -49 15 -60 4 -11 16 -52 26 -92 15 -60 15 -74 4 -88 -32 -38
-374 -173 -407 -161 -8 3 -11 2 -8 -3 3 -5 -5 -12 -17 -16 -13 -3 -37 -14 -55
-23 -27 -13 -34 -14 -48 -2 -9 7 -14 19 -11 27 8 20 -21 16 -44 -7 -24 -24
-31 -25 -24 -5 4 11 -1 15 -17 15 -18 0 -20 3 -10 9 8 5 20 7 28 4 7 -3 13 0
13 6 0 6 9 11 20 11 11 0 20 4 20 9 0 14 -35 19 -54 9 -20 -11 -46 -4 -46 12
0 6 5 8 10 5 6 -3 10 -2 10 3 0 6 23 18 51 28 59 22 107 63 87 75 -9 6 -2 11
19 15 18 4 30 11 27 16 -3 5 0 9 7 7 8 -1 23 -1 34 0 14 1 16 4 8 12 -9 9 -7
16 10 29 12 9 30 20 41 23 15 6 16 10 6 22 -7 8 -9 15 -4 16 29 2 113 39 90
39 -5 0 14 21 43 47 29 26 64 70 77 98 22 45 23 47 4 25 -12 -14 -27 -32 -34
-40 -18 -21 -97 -91 -130 -115 -64 -46 -76 -57 -76 -71 0 -8 -4 -12 -10 -9
-11 7 -65 -19 -94 -47 -12 -11 -36 -28 -53 -39 -18 -12 -33 -24 -33 -29 0 -12
-60 -34 -68 -25 -4 4 -1 10 5 12 7 3 29 20 50 39 21 18 42 34 47 34 22 0 216
157 216 174 0 10 -63 -34 -73 -51 -4 -7 -15 -10 -25 -7 -14 5 -14 4 -3 -4 12
-9 10 -12 -12 -17 -15 -4 -27 -10 -27 -14 0 -4 -18 -17 -40 -30 -22 -12 -55
-35 -72 -51 -17 -16 -35 -27 -40 -24 -4 3 -19 -7 -32 -23 -13 -15 -27 -25 -31
-21 -10 10 33 68 51 68 8 0 14 5 14 11 0 7 9 20 20 29 12 10 20 22 19 26 -3
21 2 28 11 14 8 -12 10 -12 10 -1 0 7 12 24 27 37 15 13 24 26 21 30 -4 3 -15
-1 -24 -10 -9 -9 -21 -15 -28 -13 -6 2 -38 -23 -70 -55 -56 -55 -76 -68 -76
-50 0 4 10 19 23 34 12 15 33 43 47 62 14 20 33 36 43 36 9 0 17 5 17 11 0 5
-5 7 -12 3 -7 -4 -8 -3 -4 4 4 7 14 12 23 12 18 0 75 55 66 64 -4 3 1 6 9 6 9
0 23 11 32 25 9 14 23 25 31 25 13 0 31 37 22 46 -3 3 -33 -20 -67 -50 -34
-31 -68 -56 -74 -56 -6 0 -44 -32 -84 -70 -40 -39 -75 -70 -78 -70 -2 0 -4 6
-4 14 0 26 68 102 152 169 73 58 140 127 124 127 -3 0 -44 -30 -93 -67 -87
-66 -107 -84 -172 -158 l-34 -39 7 39 c4 22 20 54 36 70 15 17 59 62 96 101
38 39 76 80 85 90 8 10 34 36 56 56 40 36 71 78 57 78 -18 0 -274 -254 -274
-271 0 -11 -3 -11 -11 1 -9 12 -10 11 -6 -7 3 -14 -2 -28 -14 -39 -18 -16 -19
-16 -19 5 0 14 4 20 12 15 7 -4 8 -3 4 5 -9 15 14 122 26 115 4 -3 8 -1 8 5 0
5 7 17 16 25 8 9 12 21 8 28 -5 8 -12 2 -20 -17 -8 -18 -13 -23 -14 -13 0 22
31 88 42 88 4 0 5 6 2 14 -3 8 6 31 19 53 14 21 43 70 65 108 23 39 55 86 71
105 17 19 26 36 21 38 -23 8 -97 -74 -126 -138 -10 -24 -44 -59 -44 -47 0 4
10 25 21 47 12 22 19 49 16 60 -3 11 -1 18 3 15 11 -7 30 27 30 55 0 13 4 19
12 14 7 -4 8 -3 4 4 -8 13 45 98 98 157 20 22 36 45 36 52 0 6 3 20 7 30 8 24
-40 -29 -75 -82 -15 -22 -30 -42 -33 -45 -13 -9 -79 -112 -79 -122 0 -5 -4 -7
-9 -3 -13 7 -34 -32 -25 -47 4 -7 3 -8 -4 -4 -16 10 -15 31 3 46 8 7 15 20 15
30 0 10 7 20 15 24 8 3 15 13 15 22 0 11 5 14 18 10 16 -6 16 -5 0 8 -22 17
-23 30 -2 22 12 -4 15 -2 10 9 -6 16 12 65 24 65 4 0 10 9 13 19 7 27 -17 16
-33 -15 -8 -14 -19 -23 -26 -20 -7 3 -10 -2 -7 -15 3 -10 0 -19 -6 -19 -6 0
-17 -13 -25 -28 -18 -35 -54 -41 -51 -7 5 43 17 66 38 75 18 7 18 9 5 9 -21 1
-21 3 -7 35 7 14 19 27 28 29 14 4 13 5 -1 6 -22 1 -22 -3 -2 55 22 65 11 68
-15 4 -12 -29 -25 -60 -30 -68 -5 -9 -12 -30 -16 -49 -4 -18 -13 -44 -21 -59
-8 -15 -14 -33 -14 -41 0 -8 -3 -12 -6 -8 -5 5 17 85 54 187 17 48 17 48 26
128 3 30 8 58 11 62 5 8 -21 18 -100 36 -16 4 -38 14 -48 23 -19 16 -65 16
-81 0 -6 -5 -24 -8 -40 -8 -17 1 -23 3 -13 6 17 4 24 22 10 24 -5 0 -16 2 -26
4 -13 2 -17 -1 -13 -11 3 -8 2 -14 -3 -14 -15 0 -21 43 -8 59 10 12 8 14 -10
9 -16 -4 -20 -2 -16 9 4 10 13 12 32 7 14 -4 36 -6 49 -5 13 0 36 -5 51 -13
15 -8 55 -19 88 -26 84 -15 164 -43 210 -74 21 -14 48 -26 62 -26 19 0 21 -3
12 -14 -9 -10 -7 -17 5 -27 14 -11 19 -10 35 11 10 14 19 28 19 33 0 4 4 7 8
7 16 0 11 -58 -4 -64 -13 -5 -13 -10 3 -36 16 -27 22 -30 71 -30 l54 0 -7 28
c-5 15 -16 61 -25 102 -19 83 -28 88 -70 39 l-25 -29 -32 30 c-20 18 -30 35
-27 44 5 13 1 13 -26 3 -38 -14 -50 -1 -50 59 0 44 44 125 78 143 18 9 20 26
26 183 4 95 11 259 16 363 23 488 23 455 6 455 -12 0 -16 -12 -17 -52 -1 -29
-1 -56 0 -61 1 -4 -9 -11 -21 -16 -24 -8 -258 -35 -411 -47 l-87 -7 0 92 0 91
-1415 0 -1415 0 0 -315z m614 176 c22 -6 50 -22 66 -39 15 -16 36 -33 48 -36
23 -8 29 -25 34 -86 3 -32 0 -36 -29 -45 -18 -5 -33 -14 -33 -20 -1 -13 -70
-45 -97 -45 -11 0 -32 9 -46 20 -14 11 -30 20 -35 20 -5 0 -15 6 -21 14 -7 8
-25 18 -41 21 -32 7 -37 15 -46 85 -7 50 -6 50 24 56 18 4 32 14 35 25 9 34
67 47 141 30z m583 -108 c5 -43 6 -87 2 -98 -9 -24 -9 -25 -17 88 -4 48 -4 87
-1 87 3 0 10 -35 16 -77z m-150 -15 c-3 -8 -6 -5 -6 6 -1 11 2 17 5 13 3 -3 4
-12 1 -19z m1808 -78 c3 -5 1 -10 -4 -10 -6 0 -11 5 -11 10 0 6 2 10 4 10 3 0
8 -4 11 -10z m-2515 -80 c12 -8 11 -10 -7 -10 -13 0 -23 5 -23 10 0 13 11 13
30 0z m1301 -30 c4 0 25 -10 46 -22 60 -36 120 -48 152 -32 24 13 26 12 33 -9
5 -19 6 -19 7 -3 1 20 16 13 16 -7 0 -7 11 -11 23 -10 14 2 22 -3 22 -12 0 -8
3 -16 8 -16 34 -6 60 -5 73 2 21 10 169 20 183 11 19 -11 51 -10 116 5 77 19
189 81 168 94 -11 7 -11 9 0 9 26 0 90 -81 98 -124 11 -61 11 -89 1 -103 -6
-9 -6 -13 2 -13 7 0 10 -23 8 -65 -1 -36 1 -65 5 -65 29 0 66 -381 40 -413 -7
-7 -10 -16 -7 -19 7 -6 -16 -50 -37 -71 -8 -9 -18 -13 -22 -10 -6 6 -56 -46
-56 -59 0 -22 -178 -171 -195 -164 -10 4 -15 -1 -15 -14 0 -23 -29 -27 -59 -8
-14 9 -17 17 -11 38 4 15 4 33 -1 41 -4 7 -4 18 1 24 11 13 -31 85 -74 128
-14 14 -26 31 -26 37 0 5 -4 10 -9 10 -5 0 -7 9 -4 20 7 26 32 25 116 -4 72
-26 89 -25 155 6 53 27 65 41 66 81 1 18 6 31 12 30 7 -1 20 7 29 17 10 11 28
20 39 20 14 0 26 11 36 33 24 54 21 87 -11 120 -16 16 -29 37 -29 47 0 10 -5
22 -11 26 -8 5 -7 9 1 14 20 12 3 40 -24 40 -13 0 -26 5 -28 12 -3 7 -14 9
-34 3 l-29 -8 43 -9 c23 -5 42 -13 42 -19 0 -12 -23 -12 -36 1 -6 6 -19 4 -38
-5 -16 -8 -32 -15 -37 -15 -5 0 -32 -16 -59 -35 -27 -19 -54 -35 -60 -35 -5 0
-10 -4 -10 -9 0 -5 -12 -11 -27 -14 -45 -8 -107 -34 -111 -46 -2 -6 -9 -11
-16 -11 -8 0 -11 -10 -9 -27 3 -22 -1 -30 -21 -39 -18 -8 -28 -8 -36 0 -8 8
-13 7 -19 -2 -11 -18 -22 -14 -44 15 -10 13 -23 21 -28 17 -5 -3 -12 2 -15 11
-11 27 -45 38 -130 41 -56 2 -95 9 -125 23 -24 11 -54 22 -66 24 -12 2 -25 6
-29 9 -3 4 -17 3 -30 -3 -14 -5 -30 -8 -36 -6 -16 3 -10 -116 8 -159 15 -35
65 -74 96 -74 9 0 21 -6 25 -14 4 -8 29 -25 55 -39 46 -25 52 -37 16 -37 -10
0 -18 -4 -18 -10 0 -5 20 -10 44 -10 25 0 48 -4 51 -10 13 -21 39 -8 98 51 87
86 86 86 143 87 l52 1 7 -37 c4 -20 9 -61 11 -91 4 -65 40 -149 56 -133 8 8
15 9 25 1 23 -20 15 -39 -16 -39 -18 0 -37 -9 -48 -23 -40 -48 -96 -60 -149
-33 -41 22 -50 8 -15 -26 17 -17 29 -34 26 -38 -3 -5 1 -10 7 -13 19 -6 -6
-33 -48 -53 -19 -9 -32 -19 -30 -23 2 -3 -2 -11 -9 -18 -11 -10 -15 -10 -18 0
-3 7 -6 3 -7 -8 l-1 -20 -16 20 c-15 19 -15 19 -9 -10 5 -24 4 -27 -4 -12 -6
9 -16 15 -21 11 -6 -4 -6 -11 2 -20 10 -12 21 -74 14 -74 -12 0 -56 51 -51 59
4 6 0 11 -8 11 -11 0 -16 9 -16 30 0 16 -6 33 -14 37 -9 5 -11 15 -5 28 4 11
8 14 8 8 1 -7 8 -13 16 -13 13 0 14 4 5 20 -6 11 -17 20 -26 20 -8 0 -17 7
-20 15 -4 8 -15 15 -26 15 -10 0 -17 -3 -14 -8 2 -4 -3 -16 -11 -27 -13 -17
-15 -17 -10 -2 4 11 1 20 -10 24 -9 4 -25 15 -36 26 -20 20 -21 20 -29 1 -6
-14 -7 -13 -3 8 3 15 1 30 -5 33 -5 3 -10 0 -10 -7 -1 -8 -6 -6 -15 6 -10 13
-11 23 -5 31 7 9 6 16 -4 24 -8 6 -16 24 -19 39 -2 15 -17 61 -33 102 -16 44
-31 108 -35 155 -12 131 -29 267 -39 315 -6 25 -12 69 -14 97 -3 29 -7 56 -10
61 -8 13 13 145 25 153 6 3 11 10 11 15 2 45 69 118 99 109 11 -4 19 -2 19 5
0 7 8 9 19 5 11 -3 23 0 27 6 5 9 10 6 17 -9 6 -12 14 -22 18 -22z m279 -40
c0 -5 -2 -10 -4 -10 -3 0 -8 5 -11 10 -3 6 -1 10 4 10 6 0 11 -4 11 -10z m137
-36 c-3 -3 -12 -4 -19 -1 -8 3 -5 6 6 6 11 1 17 -2 13 -5z m-757 -131 c0 -24
0 -24 -25 -6 -26 19 -33 48 -12 56 16 6 37 -21 37 -50z m-60 26 c0 -5 11 -119
24 -252 27 -262 41 -455 33 -447 -4 5 -11 61 -52 450 -24 224 -26 260 -15 260
5 0 10 -5 10 -11z m-985 -61 c27 -12 46 -54 65 -140 7 -32 16 -58 20 -58 4 0
7 -7 7 -15 0 -10 -10 -15 -29 -15 -15 0 -28 4 -28 9 0 5 -24 12 -52 16 -92 11
-110 16 -104 30 2 7 1 47 -3 90 -4 42 -3 79 1 81 5 3 5 10 2 16 -9 13 85 3
121 -14z m2859 -10 c46 6 74 -6 78 -31 4 -26 -18 -117 -31 -130 -13 -13 -34 2
-23 16 15 20 -6 77 -33 89 -19 8 -27 7 -40 -6 -9 -9 -27 -16 -40 -16 -31 0
-40 35 -14 61 10 10 19 23 19 28 0 18 25 19 40 2 9 -10 26 -15 44 -13z m220 3
c3 -5 -8 -23 -24 -41 -34 -36 -36 -34 -16 15 15 34 29 44 40 26z m-2867 -46
c34 -7 40 -19 59 -114 7 -31 6 -33 -14 -22 -15 8 -24 8 -34 -2 -7 -6 -22 -13
-33 -15 -11 -2 -28 -12 -37 -24 -10 -11 -18 -16 -18 -12 0 5 -3 20 -7 33 -4
15 -2 22 4 18 5 -3 9 2 9 11 0 117 4 143 22 138 9 -2 32 -7 49 -11z m2800 -67
c-2 -13 -4 -3 -4 22 0 25 2 35 4 23 2 -13 2 -33 0 -45z m-2483 -73 c13 -13 22
-14 57 -5 25 7 45 8 52 2 7 -5 27 -13 44 -17 18 -3 36 -11 39 -17 11 -18 -31
-45 -88 -58 -96 -21 -178 -51 -187 -68 -17 -29 -46 -2 -44 39 4 57 5 60 42 87
20 15 39 31 43 37 5 6 8 6 8 -2 0 -7 -8 -17 -17 -22 -14 -8 -15 -10 -3 -11 25
0 43 17 37 34 -8 20 -3 20 17 1z m281 -9 c35 -11 37 -13 18 -20 -14 -4 -35 0
-60 14 -43 23 -22 26 42 6z m1632 -38 c-3 -7 -5 -2 -5 12 0 14 2 19 5 13 2 -7
2 -19 0 -25z m117 7 c3 -9 0 -15 -9 -15 -8 0 -15 7 -15 15 0 8 4 15 9 15 5 0
11 -7 15 -15z m-59 -5 c-3 -5 -10 -10 -16 -10 -5 0 -9 5 -9 10 0 6 7 10 16 10
8 0 12 -4 9 -10z m-2385 -10 c0 -5 -2 -10 -4 -10 -3 0 -8 5 -11 10 -3 6 -1 10
4 10 6 0 11 -4 11 -10z m260 -55 c0 -8 -7 -15 -15 -15 -16 0 -20 12 -8 23 11
12 23 8 23 -8z m2102 -97 c17 -49 24 -58 45 -58 13 0 22 -4 19 -9 -3 -5 -15
-7 -26 -4 -14 4 -20 0 -20 -12 0 -10 -6 -15 -17 -13 -21 4 -32 56 -31 143 0
33 3 49 5 35 2 -14 13 -51 25 -82z m-1298 -3 c5 -22 4 -26 -4 -15 -5 8 -10 24
-10 34 0 26 6 18 14 -19z m219 16 c29 -1 13 -26 -16 -25 -15 0 -27 -4 -27 -8
0 -12 -38 -10 -45 2 -3 6 1 10 9 10 9 0 16 6 16 13 0 8 9 13 23 11 12 -1 30
-3 40 -3z m707 -72 c0 -10 -4 -19 -10 -19 -5 0 -10 -6 -10 -12 0 -8 -15 -14
-35 -15 -19 -2 -35 0 -35 3 0 10 59 62 65 56 3 -3 5 0 5 7 0 7 5 9 10 6 6 -3
10 -15 10 -26z m-2240 -19 c0 -5 -4 -10 -9 -10 -6 0 -13 5 -16 10 -3 6 1 10 9
10 9 0 16 -4 16 -10z m985 -70 c0 -79 -7 -101 -19 -57 -8 29 -8 101 0 121 13
34 19 13 19 -64z m676 60 c10 -6 19 -17 19 -25 0 -9 11 -15 28 -16 34 -2 33
-2 57 7 18 6 18 5 5 -9 -10 -10 -42 -18 -92 -23 -63 -5 -82 -4 -103 10 -31 20
-34 42 -4 26 23 -13 22 -14 38 18 13 25 23 27 52 12z m-381 -25 c0 -8 -4 -15
-10 -15 -5 0 -10 7 -10 15 0 8 5 15 10 15 6 0 10 -7 10 -15z m-1335 -45 c3 -5
-3 -10 -14 -10 -12 0 -21 5 -21 10 0 6 6 10 14 10 8 0 18 -4 21 -10z m70 -9
c-16 -4 -29 -12 -27 -19 1 -7 -8 -12 -19 -12 -17 0 -19 3 -10 13 6 8 8 17 4
20 -3 4 14 6 38 6 39 -1 41 -2 14 -8z m2860 -13 c6 -29 2 -78 -7 -78 -3 0 -8
23 -10 50 -3 51 8 69 17 28z m113 -29 c37 1 43 -19 16 -57 -8 -12 -12 -27 -9
-33 4 -6 -1 -16 -10 -23 -10 -7 -17 -25 -17 -39 0 -15 -3 -27 -7 -27 -4 0 -8
-12 -9 -27 -1 -15 -6 -31 -11 -36 -5 -5 -7 8 -6 30 3 49 8 66 20 75 6 4 3 21
-8 42 -9 20 -13 36 -8 36 5 0 11 -5 13 -12 7 -20 26 1 21 22 -6 22 -23 28 -23
8 0 -7 -7 -2 -16 10 -8 12 -23 22 -32 22 -15 0 -15 2 -2 10 8 6 24 7 35 4 11
-4 35 -6 53 -5z m-1631 -86 c-3 -10 -5 -4 -5 12 0 17 2 24 5 18 2 -7 2 -21 0
-30z m1520 -75 c-3 -8 -6 -5 -6 6 -1 11 2 17 5 13 3 -3 4 -12 1 -19z m-2370
-14 c-3 -3 -12 -4 -19 -1 -8 3 -5 6 6 6 11 1 17 -2 13 -5z m793 -141 c11 -14
3 -63 -10 -63 -13 0 -18 11 -25 65 -6 46 -5 48 9 30 8 -11 20 -26 26 -32z
m1607 -75 c-3 -8 -6 -5 -6 6 -1 11 2 17 5 13 3 -3 4 -12 1 -19z m-910 -24
c-14 -13 -100 -6 -91 7 3 6 23 7 45 4 33 -5 39 -3 39 12 0 15 2 16 10 3 6 -10
5 -19 -3 -26z m996 -14 c-13 -10 -23 -25 -23 -34 0 -8 -5 -18 -12 -22 -8 -5
-9 0 -5 17 4 13 7 32 7 41 0 9 10 18 23 20 32 5 35 -1 10 -22z m-1363 -12 c0
-4 -7 -8 -15 -8 -8 0 -15 4 -15 8 0 5 7 9 15 9 8 0 15 -4 15 -9z m1170 8 c0
-3 -4 -8 -10 -11 -5 -3 -10 -1 -10 4 0 6 5 11 10 11 6 0 10 -2 10 -4z m-1440
-16 c0 -5 -5 -10 -11 -10 -5 0 -7 5 -4 10 3 6 8 10 11 10 2 0 4 -4 4 -10z
m1530 -21 c0 -6 -4 -7 -10 -4 -5 3 -10 11 -10 16 0 6 5 7 10 4 6 -3 10 -11 10
-16z m-1543 -25 c-3 -3 -12 -4 -19 -1 -8 3 -5 6 6 6 11 1 17 -2 13 -5z m313
-26 c0 -13 -23 -5 -28 10 -2 7 2 10 12 6 9 -3 16 -11 16 -16z m1230 7 c0 -8
-7 -15 -16 -15 -14 0 -14 3 -4 15 7 8 14 15 16 15 2 0 4 -7 4 -15z m57 -7 c-3
-8 -6 -5 -6 6 -1 11 2 17 5 13 3 -3 4 -12 1 -19z m-167 -12 c0 -3 -4 -8 -10
-11 -5 -3 -10 -1 -10 4 0 6 5 11 10 11 6 0 10 -2 10 -4z m222 -25 c-9 -16 -18
-28 -20 -27 -5 6 21 56 29 56 5 0 0 -13 -9 -29z m-1332 15 c0 -3 -4 -8 -10
-11 -5 -3 -10 -1 -10 4 0 6 5 11 10 11 6 0 10 -2 10 -4z m1217 -33 c-3 -10 -5
-4 -5 12 0 17 2 24 5 18 2 -7 2 -21 0 -30z m-767 8 c0 -5 -13 -14 -30 -20 -33
-11 -37 -8 -17 14 13 16 47 20 47 6z m807 -13 c-3 -8 -6 -5 -6 6 -1 11 2 17 5
13 3 -3 4 -12 1 -19z m-1356 -98 c5 -4 7 -14 3 -23 -3 -9 -2 -17 4 -17 5 0 13
-12 17 -27 3 -15 14 -38 24 -52 14 -19 16 -32 10 -49 -5 -13 -13 -20 -19 -17
-5 3 -10 1 -10 -4 0 -6 -6 -11 -14 -11 -25 0 -25 -27 0 -64 15 -22 23 -44 19
-55 -6 -18 -123 -101 -144 -101 -6 0 -8 -7 -5 -15 7 -18 -7 -20 -25 -2 -11 10
-13 10 -7 0 10 -18 -4 -16 -26 4 -29 26 -24 87 9 113 25 20 28 20 33 4 6 -15
7 -15 12 -2 4 9 1 21 -5 28 -9 9 -8 11 8 8 11 -2 19 -11 17 -19 -1 -8 4 -6 13
6 13 17 17 18 25 5 6 -10 11 1 16 38 4 29 10 55 14 57 4 3 4 22 0 42 -5 21 -6
40 -2 43 9 7 9 116 -1 126 -4 4 -7 28 -6 53 l0 46 15 -55 c8 -30 19 -57 25
-60z m1399 101 c0 -6 -4 -13 -10 -16 -5 -3 -10 1 -10 9 0 9 5 16 10 16 6 0 10
-4 10 -9z m-165 -21 c-3 -4 -14 -10 -25 -13 -22 -6 -29 18 -7 26 16 5 38 -3
32 -13z m217 3 c-5 -10 -8 -31 -7 -48 2 -29 -39 -134 -56 -146 -5 -3 -13 -25
-18 -50 -23 -107 -52 -224 -58 -229 -3 -3 -2 24 2 60 4 36 9 76 10 90 1 14 7
50 14 80 7 30 14 65 17 78 2 13 9 20 13 17 5 -3 7 5 3 17 -5 23 -5 23 16 4 25
-21 28 -16 10 14 -11 17 -10 22 0 29 8 4 13 12 12 17 -1 10 39 84 46 84 3 0 1
-8 -4 -17z m-272 -12 c0 -5 -7 -11 -14 -14 -10 -4 -13 -1 -9 9 6 15 23 19 23
5z m204 -38 c-32 -47 -40 -55 -24 -23 12 24 40 60 46 60 2 0 -8 -17 -22 -37z
m-166 6 c-29 -16 -21 -29 17 -29 29 0 35 -4 35 -21 0 -17 -3 -19 -14 -10 -14
12 -100 11 -112 -2 -12 -12 -26 -8 -22 6 3 6 17 14 33 17 32 6 46 29 18 31
-13 1 -11 3 7 9 38 12 59 12 38 -1z m-10 -79 c-9 -14 -19 -18 -38 -13 -33 8
-36 11 -15 19 10 4 20 1 25 -7 7 -11 10 -10 16 4 3 9 10 17 15 17 5 0 4 -9 -3
-20z m42 5 c0 -8 -4 -15 -10 -15 -5 0 -10 7 -10 15 0 8 5 15 10 15 6 0 10 -7
10 -15z m40 -16 c0 -8 5 -8 15 1 13 11 15 8 15 -17 0 -16 -3 -33 -7 -37 -10
-9 -11 -20 -19 -171 -4 -72 -11 -123 -18 -127 -8 -5 -7 -11 2 -20 17 -17 15
-63 -3 -78 -8 -6 -23 -9 -33 -6 -22 7 -52 -2 -52 -16 0 -5 10 -6 23 -3 18 6
17 2 -12 -24 -36 -34 -54 -34 -32 0 15 25 7 37 -13 20 -10 -9 -16 -9 -21 -1
-4 7 2 14 14 17 13 3 21 12 19 22 -1 9 5 31 15 50 9 19 14 37 9 40 -13 9 -9
56 7 74 7 10 10 17 5 17 -5 0 5 11 21 25 l30 25 -30 -4 c-16 -2 -24 -1 -17 1
15 5 16 19 2 28 -6 4 -7 12 -3 18 4 7 6 22 4 35 -1 13 4 25 13 28 20 8 21 24
1 24 -20 0 -19 10 3 27 15 13 15 13 -7 3 -18 -9 -26 -9 -35 1 -8 9 -7 10 7 5
14 -4 20 -1 24 13 3 11 11 17 17 15 7 -3 19 2 26 11 15 18 30 20 30 4z m-200
-78 c0 -12 -20 -25 -27 -18 -7 7 6 27 18 27 5 0 9 -4 9 -9z m-912 -29 c3 -21
18 -27 52 -22 8 1 12 -1 8 -5 -5 -6 -67 -26 -193 -63 -35 -10 2 26 41 40 19 6
36 20 40 30 3 10 10 18 15 18 5 0 8 3 8 8 -3 17 2 23 14 20 6 -3 13 -14 15
-26z m32 14 c0 -3 -4 -8 -10 -11 -5 -3 -10 -1 -10 4 0 6 5 11 10 11 6 0 10 -2
10 -4z m770 -26 c-6 -11 -20 -20 -30 -20 -19 0 -19 1 -2 19 24 27 46 28 32 1z
m135 4 c-9 -9 -18 -14 -21 -11 -9 9 6 27 22 27 13 0 13 -2 -1 -16z m51 -35
c-29 -23 -40 -21 -30 5 3 9 17 16 31 16 l26 0 -27 -21z m-526 1 c0 -5 7 -7 15
-4 8 4 27 -1 41 -11 22 -14 33 -15 68 -6 51 14 115 17 139 7 11 -5 17 -4 17 4
0 6 5 8 11 4 8 -5 8 -9 -1 -14 -10 -6 -7 -14 9 -31 11 -12 21 -27 21 -32 0 -5
7 -6 16 -3 10 4 13 2 8 -6 -4 -6 5 -21 22 -35 16 -13 22 -21 12 -18 -15 6 -15
3 -1 -37 12 -35 14 -82 10 -248 -4 -194 -16 -270 -39 -270 -4 0 -4 -7 -1 -17
4 -11 3 -14 -5 -9 -7 4 -10 17 -6 32 4 14 2 24 -5 24 -6 0 -11 -5 -11 -12 0
-6 -3 -8 -6 -5 -4 4 -2 12 3 19 7 8 10 92 9 223 -1 227 1 217 -67 338 -20 35
-24 37 -69 37 -26 0 -64 -7 -85 -16 -35 -14 -39 -14 -59 5 -34 32 -72 42 -119
31 -57 -13 -61 -12 -47 5 7 9 20 13 28 10 10 -3 12 0 8 10 -3 8 -1 15 3 15 5
0 12 -6 14 -12 3 -7 6 -3 6 10 1 18 7 22 31 22 17 0 30 -4 30 -10z m360 0 c0
-5 -4 -10 -10 -10 -5 0 -10 5 -10 10 0 6 5 10 10 10 6 0 10 -4 10 -10z m-523
-82 c-3 -7 -5 -2 -5 12 0 14 2 19 5 13 2 -7 2 -19 0 -25z m-377 8 c0 -3 -4 -8
-10 -11 -5 -3 -10 -1 -10 4 0 6 5 11 10 11 6 0 10 -2 10 -4z m950 -20 c0 -2
-7 -6 -15 -10 -8 -3 -15 -1 -15 4 0 6 7 10 15 10 8 0 15 -2 15 -4z m87 -28
c-3 -8 -6 -5 -6 6 -1 11 2 17 5 13 3 -3 4 -12 1 -19z m-17 -4 c0 -8 -4 -12
-10 -9 -5 3 -10 10 -10 16 0 5 5 9 10 9 6 0 10 -7 10 -16z m4 -63 c-22 -21
-27 -21 -18 3 3 9 13 16 22 16 13 0 12 -3 -4 -19z m-1748 -18 c-7 -7 -26 7
-26 19 0 6 6 6 15 -2 9 -7 13 -15 11 -17z m-26 -22 c0 -5 -7 -12 -16 -15 -24
-9 -28 -7 -14 9 14 17 30 20 30 6z m525 -40 c-9 -16 -54 -18 -60 -3 -4 11 0
13 20 8 15 -4 25 -2 25 4 0 6 5 8 10 5 6 -4 8 -10 5 -14z m-555 -41 c0 -5 -4
-10 -9 -10 -6 0 -13 5 -16 10 -3 6 1 10 9 10 9 0 16 -4 16 -10z m-40 -15 c0
-8 -2 -15 -4 -15 -2 0 -6 7 -10 15 -3 8 -1 15 4 15 6 0 10 -7 10 -15z m2094
-27 c-10 -13 -20 -25 -21 -27 -2 -2 -3 1 -3 7 0 11 27 42 37 42 3 0 -2 -10
-13 -22z m-93 -31 c-13 -13 -26 -3 -16 12 3 6 11 8 17 5 6 -4 6 -10 -1 -17z
m-2011 -17 c0 -5 -4 -10 -9 -10 -6 0 -13 5 -16 10 -3 6 1 10 9 10 9 0 16 -4
16 -10z m1920 -20 c0 -5 -5 -10 -11 -10 -5 0 -7 5 -4 10 3 6 8 10 11 10 2 0 4
-4 4 -10z m357 -66 c-3 -3 -12 -4 -19 -1 -8 3 -5 6 6 6 11 1 17 -2 13 -5z
m-352 -14 c-3 -5 -13 -10 -21 -10 -8 0 -12 5 -9 10 3 6 13 10 21 10 8 0 12 -4
9 -10z m876 -102 c-5 -14 -4 -32 2 -45 11 -24 -4 -53 -28 -53 -15 0 -27 -38
-15 -45 5 -3 11 1 13 7 3 8 6 6 6 -4 1 -10 -3 -18 -8 -18 -5 0 -15 -16 -21
-34 -8 -25 -16 -33 -26 -29 -12 4 -15 0 -12 -17 3 -23 -7 -33 -54 -50 -16 -5
-28 -15 -27 -22 0 -10 2 -10 6 0 2 6 11 12 19 12 12 0 12 -4 2 -19 -7 -11 -16
-17 -21 -14 -16 10 -57 -7 -57 -25 0 -9 -3 -13 -8 -7 -12 17 -42 18 -36 0 3
-8 2 -15 -4 -15 -6 0 -8 -8 -5 -19 3 -10 0 -22 -6 -25 -6 -4 -11 -2 -11 3 0
22 -20 10 -21 -11 l-2 -23 -4 23 c-5 26 -35 31 -31 5 2 -12 -8 -23 -29 -33
-18 -8 -33 -21 -33 -29 0 -11 -3 -11 -14 -2 -12 10 -18 9 -33 -6 -10 -10 -26
-17 -35 -15 -9 2 -19 -2 -23 -7 -3 -7 3 -11 15 -11 12 0 18 -5 15 -10 -4 -6
-10 -8 -15 -5 -10 6 -73 -15 -82 -29 -5 -8 -8 -7 -8 2 0 6 -5 12 -11 12 -6 0
-8 -7 -5 -16 5 -14 1 -15 -21 -10 -16 4 -48 9 -73 10 -25 2 -35 2 -22 -1 12
-2 22 -11 22 -18 0 -11 -11 -13 -46 -9 -25 3 -51 1 -58 -5 -6 -5 -29 -8 -51
-5 -51 6 -64 6 -97 0 -67 -14 -76 -13 -81 5 -7 25 -22 24 -49 -3 -16 -16 -20
-17 -15 -5 7 20 -4 22 -21 5 -9 -9 -12 -4 -13 23 0 18 -3 28 -6 22 -2 -7 -13
-13 -24 -13 -10 0 -19 6 -19 13 0 9 -2 9 -8 -1 -6 -9 -12 -5 -20 13 -16 35
-15 39 4 20 20 -19 28 -14 19 14 -3 11 -12 18 -19 15 -7 -3 -13 1 -13 8 0 7
-4 21 -8 31 -6 15 -3 17 19 13 29 -5 34 5 11 24 -8 7 -15 17 -15 22 0 6 7 5
15 -2 13 -11 15 -8 15 14 0 14 5 26 11 26 6 0 9 9 6 20 -6 23 8 27 20 6 6 -12
15 -8 40 19 19 19 27 35 21 37 -7 3 -5 7 5 11 9 3 17 2 17 -3 0 -6 10 -10 23
-9 12 0 16 3 10 6 -22 8 -14 25 8 18 13 -4 25 -1 32 8 13 17 85 39 99 31 4 -3
8 -1 8 5 0 6 15 13 33 16 58 11 62 12 80 20 9 4 24 5 32 1 8 -3 15 -1 15 5 0
6 7 6 20 -1 15 -8 18 -8 14 3 -5 14 69 31 176 41 25 2 61 9 80 14 19 6 52 13
73 17 20 3 37 9 37 14 0 7 -122 -4 -150 -14 -13 -5 -13 -4 0 8 8 9 92 42 186
76 94 33 195 71 225 85 l54 24 7 -34 c4 -18 4 -44 -1 -56z m-666 62 c-3 -5
-11 -10 -16 -10 -6 0 -7 5 -4 10 3 6 11 10 16 10 6 0 7 -4 4 -10z m-704 -217
c11 -48 10 -55 -7 -74 l-19 -21 -5 33 c-3 19 -4 58 -2 88 5 62 15 54 33 -26z
m829 57 c-8 -5 -26 -9 -40 -9 -23 0 -23 1 -5 9 11 5 29 9 40 9 17 1 17 -1 5
-9z m-883 -22 c-3 -8 -6 -5 -6 6 -1 11 2 17 5 13 3 -3 4 -12 1 -19z m308 2 c3
-5 1 -10 -4 -10 -6 0 -11 5 -11 10 0 6 2 10 4 10 3 0 8 -4 11 -10z m-10 -80
c-10 -11 -26 -20 -36 -20 -10 0 -26 -11 -35 -25 -9 -14 -24 -25 -33 -25 -14 1
-14 2 2 11 10 6 16 17 13 27 -4 13 5 21 42 33 64 22 68 22 47 -1z m-355 -39
c0 -41 -39 -174 -57 -191 -8 -8 8 173 19 208 15 51 38 41 38 -17z m-1220 -50
c-11 -46 -36 -73 -49 -53 -3 4 -20 17 -37 27 -26 17 -30 24 -23 43 6 16 17 22
41 23 18 0 42 4 53 8 11 5 22 7 24 5 2 -1 -2 -25 -9 -53z m483 32 c-49 -9 -20
-19 42 -15 54 4 66 1 71 -13 4 -9 2 -21 -5 -28 -8 -8 -11 -7 -11 5 0 12 -17
16 -85 21 -47 3 -90 9 -96 13 -19 11 8 21 59 21 26 0 37 -2 25 -4z m724 -175
c-3 -7 -5 -2 -5 12 0 14 2 19 5 13 2 -7 2 -19 0 -25z m253 11 c0 -11 -4 -18
-10 -14 -5 3 -7 12 -3 20 7 21 13 19 13 -6z m-250 -39 c0 -5 -4 -10 -10 -10
-5 0 -10 5 -10 10 0 6 5 10 10 10 6 0 10 -4 10 -10z m1120 -20 c0 -5 -5 -10
-11 -10 -5 0 -7 5 -4 10 3 6 8 10 11 10 2 0 4 -4 4 -10z m-33 -36 c-3 -3 -12
-4 -19 -1 -8 3 -5 6 6 6 11 1 17 -2 13 -5z"/>
<path d="M2440 3336 c0 -2 11 -6 25 -8 14 -3 25 -1 25 3 0 5 -11 9 -25 9 -14
0 -25 -2 -25 -4z"/>
<path d="M2290 3261 c-64 -20 -103 -40 -80 -41 12 0 85 24 160 53 37 14 -29 5
-80 -12z"/>
<path d="M2216 3145 c-11 -8 -16 -15 -10 -15 5 0 18 7 28 15 11 8 16 15 10 15
-5 0 -18 -7 -28 -15z"/>
<path d="M1953 3143 c9 -2 25 -2 35 0 9 3 1 5 -18 5 -19 0 -27 -2 -17 -5z"/>
<path d="M2570 2710 c-8 -5 -10 -10 -5 -10 6 0 17 5 25 10 8 5 11 10 5 10 -5
0 -17 -5 -25 -10z"/>
<path d="M1912 2560 c0 -14 2 -19 5 -12 2 6 2 18 0 25 -3 6 -5 1 -5 -13z"/>
<path d="M3030 3260 c-9 -6 -10 -10 -3 -10 6 0 15 5 18 10 8 12 4 12 -15 0z"/>
<path d="M3137 3246 c20 -27 33 -25 33 5 0 14 -7 19 -25 19 -26 0 -26 0 -8
-24z"/>
<path d="M1615 1700 c-20 -13 -24 -20 -13 -20 9 0 24 -3 34 -7 12 -4 15 -3 10
5 -4 7 -1 12 8 12 9 0 16 -5 16 -12 0 -6 2 -9 5 -7 8 9 -7 49 -19 49 -6 0 -24
-9 -41 -20z"/>
<path d="M2960 1946 c0 -9 5 -16 10 -16 6 0 10 4 10 9 0 6 -4 13 -10 16 -5 3
-10 -1 -10 -9z"/>
<path d="M2991 1934 c0 -11 3 -14 6 -6 3 7 2 16 -1 19 -3 4 -6 -2 -5 -13z"/>
<path d="M2912 1668 c-15 -15 -16 -28 -2 -28 6 0 10 6 10 14 0 8 8 17 18 19
13 4 13 5 2 6 -9 0 -21 -4 -28 -11z"/>
<path d="M2910 1620 c0 -5 4 -10 9 -10 6 0 13 5 16 10 3 6 -1 10 -9 10 -9 0
-16 -4 -16 -10z"/>
<path d="M2280 1810 c0 -5 7 -7 15 -4 8 4 15 8 15 10 0 2 -7 4 -15 4 -8 0 -15
-4 -15 -10z"/>
<path d="M2681 1174 c0 -11 3 -14 6 -6 3 7 2 16 -1 19 -3 4 -6 -2 -5 -13z"/>
<path d="M3530 3978 c0 -13 -4 -81 -10 -153 -12 -159 -41 -738 -38 -739 21 -9
96 -52 107 -60 16 -12 53 -93 54 -116 0 -8 5 -19 11 -23 7 -6 6 -7 -4 -4 -8 2
-23 -5 -32 -16 -23 -26 -23 -30 5 -22 17 5 18 4 7 -4 -8 -5 -11 -13 -8 -17 9
-8 -16 -34 -32 -34 -12 0 -9 -42 6 -92 9 -32 24 -19 24 21 0 32 4 40 22 45 13
3 27 0 33 -6 7 -8 6 -9 -4 -3 -22 13 -28 -11 -19 -81 4 -37 5 -71 2 -76 -4 -5
8 -8 27 -6 27 2 33 8 36 31 2 16 -3 34 -12 43 -17 18 -20 34 -5 34 6 0 10 -4
10 -10 0 -5 5 -10 11 -10 10 0 9 40 -1 50 -27 27 -28 49 -4 84 30 43 46 42 55
-3 9 -41 16 -48 58 -54 26 -5 38 -1 56 19 l23 24 6 -25 c4 -14 3 -31 0 -38 -4
-7 5 1 19 16 15 15 26 31 26 35 -5 33 3 54 19 50 12 -4 18 1 18 13 0 12 -8 19
-21 19 -19 1 -19 1 3 19 21 19 22 25 22 199 l0 181 -32 -9 c-25 -8 -34 -6 -44
8 -12 16 -13 16 -20 -2 -4 -11 -2 -21 7 -26 11 -7 11 -10 -2 -15 -9 -3 -22
-21 -29 -40 -16 -41 -30 -45 -30 -10 0 15 5 24 12 23 29 -6 10 28 -24 45 -32
16 -36 21 -33 50 l4 32 -20 -28 c-24 -31 -59 -54 -59 -37 0 5 6 10 14 10 8 0
17 8 21 19 8 27 38 59 51 54 6 -2 19 6 29 17 10 11 24 20 32 20 7 0 13 3 13 8
0 4 14 23 31 42 17 19 29 27 26 18 -9 -25 11 -33 34 -12 18 16 19 33 19 291
l0 273 -235 0 -235 0 0 -22z m30 -678 c0 -10 -4 -22 -10 -25 -6 -4 -10 7 -10
25 0 18 4 29 10 25 6 -3 10 -15 10 -25z m410 -194 c0 -2 -7 -6 -15 -10 -8 -3
-15 -1 -15 4 0 6 7 10 15 10 8 0 15 -2 15 -4z m-263 -186 c0 -22 -4 -37 -8
-34 -5 3 -9 21 -9 40 0 19 4 34 9 34 4 0 8 -18 8 -40z"/>
<path d="M3530 2830 c0 -5 5 -10 11 -10 5 0 7 5 4 10 -3 6 -8 10 -11 10 -2 0
-4 -4 -4 -10z"/>
<path d="M3970 2765 c-7 -8 -8 -20 -4 -27 19 -30 -15 -89 -61 -108 -18 -8 -18
-9 -2 -9 10 -1 35 11 54 27 l36 27 -6 -32 c-4 -19 -2 -33 3 -33 6 0 10 36 10
85 0 84 -6 99 -30 70z"/>
<path d="M3189 2658 c5 -26 14 -35 41 -44 21 -7 45 -25 58 -45 22 -32 42 -48
42 -35 0 21 -51 78 -82 92 -21 9 -38 23 -38 29 0 7 -6 18 -14 24 -11 9 -12 6
-7 -21z"/>
<path d="M3611 2655 c-1 -24 14 -50 22 -38 3 4 -1 19 -9 33 -12 22 -13 23 -13
5z"/>
<path d="M3534 2635 c0 -14 4 -25 9 -25 10 0 9 38 -2 44 -5 3 -8 -5 -7 -19z"/>
<path d="M3581 2644 c0 -11 3 -14 6 -6 3 7 2 16 -1 19 -3 4 -6 -2 -5 -13z"/>
<path d="M1256 2531 c-4 -6 -6 -86 -6 -178 2 -173 -6 -448 -16 -588 -12 -167
-14 -279 -4 -285 15 -9 20 -74 6 -82 -7 -5 -4 -8 8 -8 12 0 16 -5 12 -15 -3
-9 0 -15 9 -15 8 0 15 -4 15 -10 0 -5 -5 -10 -11 -10 -5 0 -7 -5 -4 -10 4 -6
11 -7 17 -4 6 4 5 -3 -2 -16 -7 -13 -8 -20 -1 -16 11 7 34 -27 25 -37 -3 -3 0
-15 6 -27 8 -15 9 -25 2 -29 -12 -7 -20 -39 -9 -40 44 -4 47 -2 44 45 -2 31 2
48 10 51 8 3 10 10 5 17 -5 6 -8 32 -8 58 1 27 -3 48 -8 48 -5 0 -3 6 3 14 9
10 9 16 1 21 -6 4 -9 13 -6 21 3 7 1 16 -3 19 -5 3 -8 22 -7 42 2 21 0 42 -3
48 -3 5 -6 35 -7 65 -2 30 -5 95 -7 144 -3 49 -1 102 4 119 8 29 1 55 -8 30
-3 -7 -9 -13 -14 -13 -9 0 -6 103 7 230 6 65 6 64 3 115 -1 22 -6 50 -10 63
-6 14 -5 22 2 22 8 0 8 4 2 13 -6 6 -13 52 -16 101 -6 86 -17 120 -31 97z"/>
<path d="M3750 2520 c-80 -4 -184 -8 -232 -9 -63 -1 -88 -5 -88 -13 0 -10 34
-12 152 -7 279 12 418 22 418 31 0 9 -24 8 -250 -2z"/>
<path d="M387 2460 c-7 -25 0 -29 41 -23 l33 5 -31 19 c-38 23 -37 23 -43 -1z"/>
<path d="M735 2380 c-66 -4 -258 -13 -427 -20 -219 -10 -308 -17 -308 -25 0
-13 55 -12 425 6 452 22 468 24 473 37 2 7 -5 11 -20 10 -12 -1 -77 -4 -143
-8z"/>
<path d="M1007 2338 c-7 -21 17 -150 41 -218 8 -22 9 -28 11 -47 2 -16 3 -15
10 2 5 11 6 25 3 30 -4 6 -7 17 -9 25 -9 69 -15 96 -25 107 -6 8 -11 36 -11
63 -1 48 -9 64 -20 38z"/>
<path d="M3364 2208 c-25 -23 -80 -85 -122 -137 -42 -53 -82 -102 -89 -109
-14 -15 -16 -25 -7 -35 7 -7 85 80 160 180 30 39 69 88 88 107 46 50 25 45
-30 -6z"/>
<path d="M1941 2191 c-9 -6 -10 -11 -2 -15 6 -4 9 -11 7 -15 -3 -4 7 -8 22 -9
14 -1 36 -9 48 -17 28 -18 64 -20 64 -2 0 31 -14 58 -26 53 -7 -3 -16 -2 -18
3 -7 11 -78 12 -95 2z"/>
<path d="M1178 2133 c7 -3 16 -2 19 1 4 3 -2 6 -13 5 -11 0 -14 -3 -6 -6z"/>
<path d="M3410 2025 c-19 -19 -29 -35 -24 -35 11 0 45 34 58 58 12 21 1 14
-34 -23z"/>
<path d="M1175 1940 c-3 -5 1 -10 9 -10 9 0 16 5 16 10 0 6 -4 10 -9 10 -6 0
-13 -4 -16 -10z"/>
<path d="M3460 1888 c-56 -60 -79 -96 -45 -68 25 20 88 88 98 107 19 32 -1 18
-53 -39z"/>
<path d="M1180 1900 c0 -5 5 -10 10 -10 6 0 10 5 10 10 0 6 -4 10 -10 10 -5 0
-10 -4 -10 -10z"/>
<path d="M3122 1879 c2 -7 10 -15 17 -17 8 -3 12 1 9 9 -2 7 -10 15 -17 17 -8
3 -12 -1 -9 -9z"/>
<path d="M3270 1575 c0 -13 4 -14 20 -5 11 6 20 13 20 15 0 3 -9 5 -20 5 -11
0 -20 -7 -20 -15z"/>
<path d="M940 1550 c0 -5 5 -10 10 -10 6 0 10 5 10 10 0 6 -4 10 -10 10 -5 0
-10 -4 -10 -10z"/>
<path d="M2140 1547 c0 -7 37 -47 44 -47 4 0 -1 11 -10 25 -14 21 -34 34 -34
22z"/>
<path d="M3295 1539 c-12 -19 5 -23 22 -6 16 16 16 17 1 17 -9 0 -20 -5 -23
-11z"/>
<path d="M2112 1487 c-6 -6 -13 -24 -17 -40 -6 -21 -4 -27 10 -27 12 0 15 5
10 19 -4 13 2 27 16 40 18 16 19 21 7 21 -9 0 -20 -6 -26 -13z"/>
<path d="M2200 1485 c0 -8 4 -15 9 -15 5 0 16 -3 24 -6 12 -4 14 0 10 15 -6
24 -43 29 -43 6z"/>
<path d="M1888 1461 c7 -4 12 -12 10 -17 -4 -15 22 -55 33 -49 5 4 9 15 9 25
0 14 -5 18 -17 13 -12 -5 -15 -2 -10 9 3 10 0 19 -9 22 -22 9 -31 7 -16 -3z"/>
<path d="M1792 1437 c-13 -16 1 -42 17 -32 9 5 9 10 1 20 -8 10 -7 14 2 18 8
3 8 6 2 6 -6 1 -16 -5 -22 -12z"/>
<path d="M1361 1214 c0 -11 3 -14 6 -6 3 7 2 16 -1 19 -3 4 -6 -2 -5 -13z"/>
<path d="M653 1173 c9 -2 23 -2 30 0 6 3 -1 5 -18 5 -16 0 -22 -2 -12 -5z"/>
<path d="M1345 1130 c-3 -5 1 -10 9 -10 9 0 16 5 16 10 0 6 -4 10 -9 10 -6 0
-13 -4 -16 -10z"/>
<path d="M1295 1100 c4 -6 11 -8 16 -5 14 9 11 15 -7 15 -8 0 -12 -5 -9 -10z"/>
<path d="M1933 1050 c3 -14 10 -43 15 -65 14 -56 21 -150 11 -133 -6 8 -9 -2
-9 -29 l0 -43 51 0 c43 0 50 3 45 16 -3 9 -6 19 -6 24 0 5 -12 23 -27 41 -15
17 -28 43 -30 58 -3 29 -40 141 -49 150 -4 3 -4 -5 -1 -19z m44 -252 c-3 -8
-6 -5 -6 6 -1 11 2 17 5 13 3 -3 4 -12 1 -19z"/>
<path d="M1635 720 c-3 -5 -2 -10 4 -10 5 0 13 5 16 10 3 6 2 10 -4 10 -5 0
-13 -4 -16 -10z"/>
<path d="M2235 650 c-3 -5 -1 -10 4 -10 6 0 11 5 11 10 0 6 -2 10 -4 10 -3 0
-8 -4 -11 -10z"/>
<path d="M0 305 l0 -305 653 0 653 0 -4 35 c-3 22 4 50 17 78 12 24 21 47 21
52 0 5 9 19 20 30 l21 22 -63 13 c-34 6 -75 18 -89 26 -15 7 -29 10 -33 7 -3
-4 -16 3 -29 14 -31 28 -55 35 -76 21 -21 -13 -72 -3 -68 14 1 7 -3 12 -10 13
-6 0 -15 3 -19 8 -12 11 -36 8 -28 -4 5 -8 1 -8 -14 0 -27 14 -82 14 -82 0 0
-6 -7 -9 -15 -6 -8 4 -17 2 -20 -4 -4 -5 -13 -3 -21 6 -9 8 -20 13 -25 10 -5
-4 -9 -2 -9 3 0 5 -6 9 -13 9 -7 0 -25 3 -41 7 -16 4 -25 3 -22 -3 7 -11 -75
-2 -88 10 -6 5 -18 9 -28 9 -16 0 -17 3 -7 23 12 22 12 22 -9 4 -19 -17 -23
-18 -49 -3 -15 8 -39 21 -53 28 -34 18 -65 47 -65 61 0 7 -10 11 -22 9 -13 -2
-28 7 -41 23 -11 14 -26 25 -33 25 -8 0 -30 10 -49 22 -71 45 -82 48 -171 48
l-89 0 0 -305z"/>
<path d="M2162 397 c-34 -20 -62 -19 -196 10 -20 4 -27 3 -22 -6 4 -6 15 -11
24 -11 9 0 30 -7 45 -15 15 -8 33 -12 40 -9 8 2 38 -2 68 -10 30 -8 60 -16 68
-17 15 -4 22 35 12 62 -5 14 -10 13 -39 -4z"/>
<path d="M686 387 c3 -10 9 -15 12 -12 3 3 0 11 -7 18 -10 9 -11 8 -5 -6z"/>
<path d="M1657 323 c-10 -9 -9 -23 2 -23 5 0 11 7 15 15 5 15 -5 20 -17 8z"/>
<path d="M1945 290 c-4 -6 5 -10 20 -10 15 0 24 4 20 10 -3 6 -12 10 -20 10
-8 0 -17 -4 -20 -10z"/>
<path d="M2005 260 c3 -5 11 -10 16 -10 6 0 7 5 4 10 -3 6 -11 10 -16 10 -6 0
-7 -4 -4 -10z"/>
<path d="M1952 228 c-16 -16 -15 -70 2 -93 14 -19 15 -19 33 -2 11 9 23 14 26
10 14 -13 65 -12 77 2 19 23 30 18 30 -15 l0 -30 38 23 c20 13 38 31 40 40 3
13 -3 15 -34 10 -28 -5 -39 -2 -46 10 -6 12 -22 17 -52 17 -30 0 -48 6 -61 20
-21 23 -36 25 -53 8z"/>
<path d="M2270 197 c0 -7 9 -18 20 -25 23 -14 26 -5 6 21 -16 20 -26 22 -26 4z"/>
<path d="M1633 180 c-6 -24 -23 -27 -23 -4 0 15 -2 15 -26 -1 -15 -9 -38 -18
-52 -20 -14 -1 -36 -16 -49 -31 -32 -40 -35 -43 -57 -58 -19 -13 -19 -13 0
-39 19 -25 22 -25 139 -25 86 0 110 2 85 8 -19 5 -45 6 -56 4 -12 -3 -25 -1
-28 5 -4 6 -18 11 -30 11 -13 0 -29 6 -35 14 -9 11 -4 19 24 40 39 30 104 60
113 52 12 -12 29 15 24 39 -5 30 -22 33 -29 5z m-103 -64 c0 -2 -8 -10 -17
-17 -16 -13 -17 -12 -4 4 13 16 21 21 21 13z"/>
<path d="M2393 166 c15 -39 18 -86 6 -107 -11 -22 -11 -23 4 -10 24 19 19 131
-5 131 -6 0 -8 -6 -5 -14z"/>
<path d="M3913 133 c-7 -2 -13 -11 -13 -19 0 -9 4 -13 9 -10 4 3 18 -3 30 -13
24 -21 27 -32 9 -27 -41 13 -68 15 -68 6 0 -5 11 -10 25 -10 15 0 36 -11 51
-27 14 -15 22 -19 18 -10 -4 11 -1 17 8 17 10 0 15 13 16 40 2 36 0 40 -22 40
-14 0 -28 5 -31 10 -7 11 -13 11 -32 3z"/>
<path d="M2260 75 c0 -8 2 -15 4 -15 2 0 6 7 10 15 3 8 1 15 -4 15 -6 0 -10
-7 -10 -15z"/>
<path d="M2170 20 c0 -13 7 -20 20 -20 11 0 20 4 20 10 0 5 -9 14 -20 20 -17
9 -20 8 -20 -10z"/>
</g>
</svg>
