<?xml version="1.0" standalone="no"?>
<!DOCTYPE svg PUBLIC "-//W3C//DTD SVG 20010904//EN"
 "http://www.w3.org/TR/2001/REC-SVG-20010904/DTD/svg10.dtd">
<svg version="1.0" xmlns="http://www.w3.org/2000/svg"
 width="1000.000000pt" height="1000.000000pt" viewBox="0 0 1000.000000 1000.000000"
 preserveAspectRatio="xMidYMid meet">
<metadata>
Created by potrace 1.14, written by Peter Selinger 2001-2017
</metadata>
<g transform="translate(0.000000,1000.000000) scale(0.100000,-0.100000)"
fill="#000000" stroke="none">
<path d="M0 5000 l0 -5000 5000 0 5000 0 0 5000 0 5000 -5000 0 -5000 0 0
-5000z m5350 4015 c492 -40 920 -140 1252 -291 53 -25 134 -53 180 -63 218
-49 569 -163 798 -261 412 -175 690 -380 859 -631 48 -71 127 -252 153 -349
37 -137 26 -391 -21 -503 -35 -82 -34 -89 14 -153 102 -138 140 -263 133 -437
-3 -93 -8 -121 -30 -168 -50 -109 -143 -184 -290 -233 -106 -36 -186 -34 -355
6 -73 17 -135 30 -137 27 -2 -2 11 -49 30 -104 73 -218 31 -355 -130 -424 -24
-11 -47 -28 -50 -39 -10 -30 12 -492 29 -627 9 -66 29 -199 45 -295 47 -278
60 -394 60 -544 0 -267 -70 -619 -172 -864 -44 -107 -169 -358 -236 -477 -64
-114 -321 -512 -407 -630 -90 -125 -102 -148 -132 -259 -80 -302 -260 -505
-537 -602 -135 -48 -440 -102 -644 -115 -220 -14 -362 -7 -517 26 -66 14 -176
35 -245 46 -169 27 -821 178 -889 205 -43 18 -51 18 -51 -1 0 -9 -11 -27 -25
-40 -40 -41 -137 -30 -323 36 -47 16 -126 41 -176 55 -102 29 -123 41 -224
136 -82 77 -149 112 -233 120 -67 7 -129 37 -152 72 -35 53 -9 139 53 174 16
9 30 19 29 22 0 3 -39 34 -86 70 -144 108 -321 291 -386 397 -103 167 -145
278 -226 593 -22 85 -43 162 -46 172 -4 9 -31 26 -61 38 -106 44 -157 127
-158 263 l-1 89 -45 30 c-71 47 -96 76 -134 148 -65 123 -79 239 -51 420 8 52
22 147 32 212 l17 116 -37 110 c-40 118 -45 180 -28 327 8 61 6 81 -16 155
-30 100 -92 209 -140 246 -18 14 -42 34 -51 44 -10 11 -43 30 -74 44 -73 33
-122 76 -143 129 -41 102 -6 210 96 299 62 54 117 145 103 170 -4 7 -31 42
-59 78 -106 131 -160 239 -193 385 -31 133 -42 242 -42 405 1 256 25 391 106
590 59 145 195 343 311 450 267 249 590 469 913 623 336 160 441 205 689 296
419 155 878 256 1316 290 170 14 551 11 735 -4z"/>
<path d="M4620 8943 c-181 -11 -509 -65 -755 -123 -265 -63 -602 -181 -930
-327 -390 -173 -673 -335 -879 -502 -262 -214 -297 -245 -346 -298 -125 -137
-222 -310 -290 -518 l-43 -130 -3 -225 c-3 -247 10 -357 61 -517 33 -104 121
-240 220 -339 41 -41 75 -77 75 -79 0 -3 -6 -5 -14 -5 -24 0 -86 -78 -86 -108
0 -22 -15 -40 -75 -90 -82 -68 -108 -107 -108 -162 0 -79 54 -132 134 -132 45
0 49 -2 59 -31 18 -53 48 -77 97 -77 l43 0 0 -50 c0 -43 5 -55 35 -89 27 -29
38 -53 45 -93 4 -30 18 -71 30 -91 21 -36 22 -41 9 -100 -7 -34 -13 -112 -14
-173 0 -106 1 -114 33 -174 40 -79 42 -144 8 -350 -35 -210 -39 -268 -27 -349
23 -146 97 -243 216 -281 22 -7 43 -16 48 -19 4 -4 0 -27 -9 -52 -9 -24 -17
-73 -17 -109 -3 -110 52 -171 156 -174 l51 -1 8 -45 c19 -106 34 -166 90 -365
109 -384 207 -528 544 -797 157 -125 233 -174 434 -278 91 -48 224 -118 295
-158 245 -134 411 -195 715 -262 78 -17 196 -44 263 -61 134 -33 243 -54 327
-64 30 -4 111 -19 180 -35 198 -46 306 -54 504 -41 208 14 333 32 536 78 124
28 173 44 245 81 109 57 199 139 259 236 61 97 81 146 115 275 25 93 37 122
83 186 127 181 180 260 280 415 166 260 193 308 313 554 122 248 141 297 179
451 103 415 110 630 36 1045 -60 338 -77 498 -85 798 -4 128 -8 240 -10 250
-5 32 14 50 67 62 72 17 102 34 132 73 50 65 28 208 -57 371 -37 72 -133 186
-156 186 -11 0 -25 86 -16 100 3 5 39 -17 80 -49 94 -75 151 -102 311 -146
220 -61 311 -57 449 20 121 67 156 127 163 270 7 172 -33 286 -149 425 l-59
69 40 78 c50 96 65 194 57 363 -6 132 -30 215 -105 365 -56 113 -105 176 -224
291 -188 182 -376 299 -694 433 -212 89 -584 207 -772 246 -51 10 -124 36
-194 69 -291 138 -729 239 -1192 276 -117 9 -582 11 -716 3z m696 -153 c473
-37 870 -132 1231 -293 180 -80 493 -257 493 -278 0 -5 -17 2 -37 16 -21 14
-41 25 -45 25 -4 0 -50 21 -102 46 -53 26 -100 42 -107 38 -7 -4 -9 -3 -6 3 4
6 -58 32 -156 64 -89 29 -189 63 -222 76 -197 77 -629 162 -945 184 -228 17
-699 -1 -940 -35 -414 -59 -800 -158 -1175 -301 -38 -14 -81 -30 -95 -35 -51
-16 -416 -171 -572 -243 -75 -35 -79 -35 -164 -29 l-86 7 143 77 c371 199 899
417 1239 513 376 106 597 147 900 168 113 8 530 6 646 -3z m-2976 -874 c0 -2
-29 -21 -65 -42 -35 -21 -63 -39 -61 -41 2 -2 41 6 87 17 112 26 312 36 409
20 153 -26 316 -93 643 -265 226 -120 307 -169 307 -185 0 -13 -19 -5 -230 98
-345 167 -395 190 -482 216 -239 73 -487 69 -713 -10 -161 -56 -290 -133 -389
-230 -32 -32 -54 -49 -48 -38 45 85 258 320 298 330 13 3 24 12 24 19 0 18 86
71 151 94 57 21 69 23 69 17z m4288 -122 c81 -9 152 -19 159 -23 6 -3 -109 -6
-255 -6 -314 -1 -465 -19 -752 -91 -249 -62 -418 -119 -865 -294 -293 -114
-312 -120 -373 -120 l-57 0 75 27 c41 14 77 28 80 32 3 3 14 7 25 9 11 2 81
33 155 69 173 83 366 168 550 240 368 144 842 203 1258 157z m215 -31 c-7 -2
-19 -2 -25 0 -7 3 -2 5 12 5 14 0 19 -2 13 -5z m397 -53 c20 -6 21 -8 5 -8
-11 0 -31 4 -45 8 -20 6 -21 8 -5 8 11 0 31 -4 45 -8z m-2926 -525 c-111 -28
-289 -49 -311 -36 -12 6 -1 11 38 16 85 10 233 36 238 41 2 2 32 4 65 3 l61
-1 -91 -23z m2299 -304 c79 -21 299 -123 352 -163 57 -44 150 -146 200 -219
57 -86 79 -114 147 -188 l49 -53 -3 -71 -3 -70 -89 -24 c-49 -13 -119 -39
-155 -58 -40 -21 -79 -35 -101 -35 -57 0 -218 -30 -298 -55 -82 -26 -112 -47
-112 -80 0 -13 -7 -28 -15 -35 -8 -7 -33 -46 -56 -86 -42 -76 -64 -103 -30
-36 31 61 71 164 71 184 0 29 -29 21 -50 -14 -11 -18 -50 -90 -86 -160 -35
-71 -69 -128 -74 -128 -14 0 -15 -2 35 108 52 114 65 162 44 162 -13 0 -140
-279 -139 -305 0 -14 67 -38 81 -30 6 4 25 -9 43 -28 22 -24 39 -35 52 -32 85
19 309 48 509 65 208 18 374 36 506 55 l35 5 -4 -116 c-3 -63 0 -148 7 -187 6
-40 20 -162 31 -272 11 -110 29 -297 41 -415 22 -224 22 -400 -1 -577 -14
-102 -61 -313 -70 -308 -8 5 -65 -83 -86 -134 -9 -22 -13 -48 -10 -56 4 -11 2
-14 -6 -9 -7 5 -9 0 -6 -14 4 -14 2 -20 -4 -16 -7 5 -9 -3 -4 -22 4 -19 3 -24
-2 -15 -12 16 -18 6 -27 -42 -4 -20 -10 -37 -14 -37 -10 0 -32 -80 -25 -92 4
-7 2 -8 -4 -4 -8 4 -12 0 -12 -11 0 -10 -7 -27 -15 -37 -8 -10 -12 -23 -9 -27
3 -5 -3 -20 -12 -34 -9 -14 -13 -32 -10 -42 4 -10 4 -14 0 -10 -4 4 -20 -21
-34 -55 -15 -35 -45 -101 -67 -148 -22 -47 -51 -109 -64 -137 -13 -29 -27 -53
-31 -53 -4 0 -3 -12 2 -26 14 -35 12 -41 -4 -19 -13 18 -14 18 -22 -6 -4 -13
-9 -26 -9 -29 -1 -3 -17 -36 -35 -75 -18 -38 -34 -74 -35 -80 -1 -5 -9 -27
-19 -47 -9 -21 -16 -42 -16 -48 0 -15 -20 -12 -21 3 -1 6 -4 1 -8 -13 -4 -14
-6 21 -3 76 3 72 1 103 -7 109 -7 4 -14 5 -17 3 -2 -3 -29 -83 -59 -179 -30
-96 -59 -182 -65 -192 -6 -10 -8 -23 -4 -29 4 -6 3 -8 -3 -5 -5 3 -18 -6 -29
-20 -10 -15 -34 -44 -52 -66 -17 -21 -29 -44 -25 -49 3 -6 1 -8 -4 -5 -6 4
-71 -53 -144 -126 -131 -130 -211 -187 -262 -187 -17 0 -18 -2 -6 -17 13 -15
12 -15 -6 -4 -17 11 -33 9 -97 -13 -42 -14 -107 -30 -144 -36 -37 -6 -71 -13
-76 -16 -18 -11 -232 -33 -378 -39 -98 -4 -199 -2 -275 6 -66 6 -146 13 -178
14 -32 1 -61 6 -65 10 -4 4 4 4 18 1 18 -5 21 -4 10 3 -8 5 -44 17 -80 26 -36
9 -69 20 -75 24 -5 4 -28 13 -50 20 -47 16 -123 48 -145 61 -129 77 -210 123
-215 121 -3 -1 -13 5 -21 14 -23 22 -146 93 -177 100 -14 4 -25 12 -24 17 3
15 -101 80 -108 68 -3 -6 1 -10 9 -10 9 0 16 -5 16 -11 0 -5 -5 -7 -12 -3 -8
5 -9 2 -5 -10 9 -22 -3 -15 -73 44 -93 79 -189 150 -202 150 -7 0 -20 5 -28
11 -12 8 -10 9 8 4 21 -6 23 -5 13 12 -5 11 -17 25 -25 33 -9 7 -16 18 -16 25
0 8 -3 15 -7 17 -11 4 -93 127 -93 138 0 20 -24 59 -33 53 -5 -3 -6 3 -2 17 4
13 3 20 -2 17 -5 -3 -9 2 -10 11 -1 9 -7 47 -14 85 -13 66 -29 90 -29 42 0
-14 -4 -25 -9 -25 -4 0 -2 26 5 58 8 31 13 93 12 137 -1 44 1 121 5 170 4 55
3 82 -3 70 -8 -18 -9 -17 -9 7 -1 15 6 31 15 36 11 6 16 25 17 65 1 31 7 57
12 58 6 0 1 4 -11 9 -11 4 -35 7 -52 6 -17 -1 -29 1 -26 5 2 4 -24 10 -59 14
-34 4 -87 14 -117 22 -30 8 -65 15 -76 14 -12 0 -27 6 -34 14 -7 8 -21 15 -31
15 -10 0 -21 5 -24 10 -3 6 -15 10 -26 10 -15 0 -19 -8 -21 -42 -2 -67 -4 -82
-10 -98 -17 -44 -29 -110 -22 -122 5 -9 2 -9 -10 2 -19 15 -19 16 -1 216 2 17
6 40 9 52 4 12 1 22 -8 25 -16 6 -26 -38 -26 -115 0 -50 -9 -59 -30 -33 -7 8
-9 15 -5 15 4 0 2 6 -4 14 -9 11 -9 16 0 21 8 6 8 10 -2 16 -10 6 -12 31 -10
92 3 83 2 85 -28 116 -17 18 -32 37 -32 44 -1 7 -5 -4 -9 -23 l-7 -35 -2 32
c0 18 -13 58 -27 90 -39 87 -43 105 -60 273 -8 85 -19 198 -25 250 -29 287
-49 1100 -29 1188 10 40 29 74 116 207 18 28 42 86 54 130 22 80 23 145 3 259
-6 36 -5 39 13 31 70 -29 162 -58 244 -74 152 -31 168 -32 183 -11 11 16 33
18 217 22 189 4 212 7 295 33 134 41 136 41 55 -7 -339 -200 -540 -340 -540
-378 0 -41 22 -45 178 -32 233 19 924 27 1167 13 345 -20 555 -48 698 -93 66
-20 70 -21 98 -4 16 10 29 12 29 7 0 -47 118 59 222 197 65 87 125 209 110
224 -16 16 -35 -3 -123 -126 -40 -58 -75 -104 -76 -102 -2 1 11 40 27 87 16
46 30 90 30 97 0 20 -31 14 -66 -13 -18 -14 -35 -25 -38 -25 -3 0 -6 19 -6 43
0 24 -6 51 -12 60 -18 24 -306 112 -483 148 -204 40 -526 81 -660 83 l-110 1
51 21 c27 11 93 43 145 71 52 28 130 70 174 94 44 23 121 65 170 94 50 28 126
70 170 92 44 22 118 62 165 88 269 152 530 248 785 290 126 20 344 14 448 -14z
m-4119 -658 c-7 -16 -14 -32 -14 -36 0 -15 -109 -178 -177 -265 -77 -98 -190
-218 -198 -210 -3 3 1 13 10 21 8 9 15 18 15 22 0 3 15 22 33 41 17 20 36 43
41 52 5 10 44 64 86 122 42 58 100 141 129 185 30 44 59 83 65 87 21 14 25 8
10 -19z m144 -110 c-58 -87 -188 -243 -310 -374 -52 -56 -147 -133 -154 -126
-3 2 20 31 50 63 83 88 196 222 324 382 81 102 117 141 125 133 7 -7 -3 -30
-35 -78z m4852 79 c0 -13 -12 -22 -22 -16 -10 6 -1 24 13 24 5 0 9 -4 9 -8z
m-2605 -132 c199 -24 429 -63 400 -68 -11 -2 -24 -8 -30 -12 -12 -9 -117 -40
-158 -47 -33 -5 -58 12 -50 34 6 15 -7 15 -128 8 -143 -8 -151 -8 -244 1 -45
4 -109 -4 -254 -31 -107 -19 -202 -33 -211 -30 -9 3 -43 -6 -75 -20 -31 -14
-59 -24 -61 -22 -7 6 177 86 213 93 18 4 30 10 28 14 -6 9 126 63 208 85 73
19 165 18 362 -5z m-2113 -62 c-31 -44 -164 -178 -216 -216 -48 -36 -52 -25
-5 15 58 50 133 125 193 196 56 66 72 69 28 5z m4568 28 c0 -11 22 -15 100
-18 106 -3 133 -14 114 -46 -6 -9 -24 -19 -39 -20 -25 -3 -27 -2 -16 12 12 15
3 16 -93 15 -69 0 -112 4 -121 11 -11 10 -39 4 -132 -24 -65 -21 -139 -46
-165 -56 -56 -24 -68 -25 -68 -6 0 9 16 17 43 21 55 9 109 32 124 52 7 9 61
28 120 44 126 33 133 34 133 15z m-4403 -18 c-3 -8 -6 -5 -6 6 -1 11 2 17 5
13 3 -3 4 -12 1 -19z m-781 -86 c-26 -49 -66 -92 -110 -114 -38 -19 -40 -20
-26 -2 8 10 35 39 61 64 25 25 55 61 65 80 13 25 19 30 22 18 2 -9 -4 -30 -12
-46z m791 -9 c-3 -10 -5 -2 -5 17 0 19 2 27 5 18 2 -10 2 -26 0 -35z m3898
-28 c-36 -17 -55 -19 -55 -6 0 5 12 12 28 14 50 8 57 5 27 -8z m-3888 -62 c-2
-16 -4 -5 -4 22 0 28 2 40 4 28 2 -13 2 -35 0 -50z m3751 41 c-2 -9 -27 -30
-56 -47 l-54 -30 21 41 c15 30 28 42 48 45 16 2 32 5 36 6 5 0 7 -6 5 -15z
m-4735 -74 c-7 -26 -63 -42 -133 -38 -37 2 -55 7 -55 16 0 9 20 14 65 17 36 2
76 8 90 14 36 14 39 13 33 -9z m52 -130 c-3 -5 -12 -10 -18 -10 -7 0 -6 4 3
10 19 12 23 12 15 0z m-95 -46 c82 -9 79 -28 -3 -22 -67 6 -118 24 -125 46 -3
10 4 10 32 -2 20 -8 63 -18 96 -22z m158 0 c-9 -9 -22 -14 -30 -11 -8 3 -4 8
12 15 35 15 37 14 18 -4z m465 -149 c-27 -33 -43 -44 -43 -27 0 15 64 85 68
74 2 -6 -9 -27 -25 -47z m152 18 c-3 -10 -9 -30 -12 -45 -8 -43 -25 -33 -17
10 8 44 12 52 26 52 6 0 7 -8 3 -17z m-515 -59 c0 -16 -66 -50 -119 -60 -23
-5 -31 -3 -31 8 0 10 19 19 54 27 29 6 62 18 72 26 24 18 24 18 24 -1z m279
-44 c-37 -46 -61 -54 -29 -10 18 25 45 48 58 50 2 0 -12 -18 -29 -40z m102
-166 c-24 -41 -28 -54 -16 -54 8 0 15 -9 15 -20 0 -55 -114 -316 -164 -375
-20 -24 -15 -7 23 75 51 107 117 297 108 307 -3 3 -18 -15 -32 -39 -42 -68
-78 -118 -87 -124 -4 -3 8 21 27 53 20 32 61 112 93 177 51 106 57 115 60 87
2 -22 -7 -50 -27 -87z m-469 16 c18 0 28 -5 28 -15 0 -25 -43 -17 -64 13 -11
15 -13 21 -6 15 8 -7 27 -13 42 -13z m128 5 c0 -16 -30 -35 -57 -35 -15 0 -16
2 -3 10 13 9 13 10 0 11 -8 0 -1 7 15 14 39 18 45 18 45 0z m100 -64 c0 -6
-12 -23 -26 -38 -25 -28 -23 -19 6 25 16 24 20 27 20 13z m-254 -73 c13 -25
15 -47 10 -104 -7 -79 -6 -82 51 -94 30 -7 35 -5 42 13 8 21 8 21 14 2 28 -97
106 -519 112 -610 4 -44 11 -113 16 -153 13 -106 10 -198 -9 -272 -17 -62 -19
-65 -50 -68 -18 -2 -56 4 -83 13 -45 15 -54 23 -70 61 -34 75 -42 188 -24 326
9 67 16 153 17 192 l0 70 25 -42 c14 -23 29 -42 35 -42 11 0 5 24 -29 105 -45
108 -70 199 -77 271 -5 66 -4 72 14 77 27 7 26 19 -20 142 -38 101 -39 110
-25 132 18 28 29 23 51 -19z m564 -107 c0 -18 -42 -146 -51 -155 -18 -19 -9
62 12 113 19 45 39 67 39 42z m-84 -190 c-3 -5 -12 -40 -20 -77 -16 -76 -80
-227 -69 -164 6 35 67 222 78 240 3 6 8 10 11 10 3 0 3 -4 0 -9z m98 -137 c-2
-47 -35 -161 -51 -173 -5 -3 -9 -10 -10 -16 -1 -5 -13 -43 -27 -84 -15 -41
-26 -84 -26 -95 0 -31 -48 -128 -60 -121 -6 3 -1 26 11 58 23 58 100 321 118
407 18 78 20 82 34 77 7 -2 12 -22 11 -53z m-250 -236 c-10 -18 -19 -28 -21
-21 -5 15 15 53 28 53 5 0 2 -15 -7 -32z m306 -140 c0 -39 -59 -270 -72 -283
-7 -7 -8 -3 -4 10 14 52 56 263 56 288 0 16 4 26 10 22 6 -3 10 -20 10 -37z
m-191 -345 c-1 -10 -4 -29 -8 -43 -7 -24 -7 -24 -14 9 -4 18 -4 37 -1 42 9 15
24 10 23 -8z m-35 -178 c-8 -49 -18 -109 -23 -133 -9 -46 4 -70 15 -27 12 50
15 16 4 -43 -11 -55 -15 -60 -41 -64 -35 -5 -35 -7 -14 146 10 78 22 125 41
163 15 29 28 52 30 51 1 -2 -4 -43 -12 -93z m287 -168 c-13 -13 -15 43 -3 94
6 30 7 28 10 -25 2 -32 -2 -64 -7 -69z m4734 39 c0 -24 -3 -42 -7 -39 -10 5
-10 45 -2 67 9 23 10 21 9 -28z m-4515 -24 c0 -15 -2 -15 -10 -2 -13 20 -13
33 0 25 6 -3 10 -14 10 -23z m4502 -64 c-11 -22 -11 -21 -5 6 4 20 3 27 -6 22
-7 -4 -11 0 -11 11 0 16 1 16 17 1 13 -14 14 -21 5 -40z m-4492 -50 c0 -19 -2
-20 -10 -8 -13 19 -13 30 0 30 6 0 10 -10 10 -22z m4483 2 c-3 -12 -8 -19 -11
-16 -5 6 5 36 12 36 2 0 2 -9 -1 -20z m-25 -80 l-14 -34 0 37 c0 24 3 32 9 24
5 -7 7 -1 3 18 -5 26 -4 27 5 9 8 -15 7 -30 -3 -54z m-4391 -32 c-3 -7 -5 -2
-5 12 0 14 2 19 5 13 2 -7 2 -19 0 -25z m4360 10 c-3 -8 -6 -5 -6 6 -1 11 2
17 5 13 3 -3 4 -12 1 -19z m-30 -10 c-3 -8 -6 -5 -6 6 -1 11 2 17 5 13 3 -3 4
-12 1 -19z m38 -39 c-7 -20 -8 -20 -17 -5 -5 9 -14 13 -20 10 -7 -4 -8 -2 -4
5 6 9 11 9 22 0 11 -9 14 -8 14 6 0 10 3 16 6 12 3 -3 3 -16 -1 -28z m-4418
-11 c-3 -8 -6 -5 -6 6 -1 11 2 17 5 13 3 -3 4 -12 1 -19z m20 0 c-3 -8 -6 -5
-6 6 -1 11 2 17 5 13 3 -3 4 -12 1 -19z m4363 -33 c9 -5 10 -1 6 16 -6 19 -5
21 4 7 5 -9 7 -24 4 -32 -5 -14 -9 -13 -25 5 -11 13 -19 17 -19 9 0 -7 -2 -11
-5 -9 -2 3 -1 16 2 29 6 23 6 23 14 3 4 -12 13 -24 19 -28z m-4373 -52 c-3
-10 -5 -4 -5 12 0 17 2 24 5 18 2 -7 2 -21 0 -30z m4363 -13 c-10 -18 -14 -20
-21 -9 -5 8 -9 19 -9 24 0 6 4 4 9 -3 6 -11 10 -10 15 4 3 9 9 14 12 11 3 -3
0 -15 -6 -27z m-33 -66 c-14 -28 -15 -28 -22 -5 -4 12 -4 25 -1 28 3 4 6 -2 7
-13 0 -16 2 -15 10 5 5 13 12 21 15 18 3 -3 -1 -18 -9 -33z m-4220 -26 c-3 -7
-5 -2 -5 12 0 14 2 19 5 13 2 -7 2 -19 0 -25z m4181 -16 c-1 -15 2 -34 7 -41
5 -9 4 -12 -2 -8 -13 8 -26 -20 -16 -35 4 -7 1 -8 -6 -4 -7 5 -9 15 -5 25 7
17 12 43 13 74 1 9 3 17 6 17 3 0 4 -13 3 -28z m-4251 -54 c-3 -8 -6 -5 -6 6
-1 11 2 17 5 13 3 -3 4 -12 1 -19z m560 -30 c-3 -7 -5 -2 -5 12 0 14 2 19 5
13 2 -7 2 -19 0 -25z m-538 -15 c0 -25 -1 -26 -9 -8 -12 27 -12 35 0 35 6 0
10 -12 9 -27z m4199 -38 c-3 -3 -9 2 -12 12 -6 14 -5 15 5 6 7 -7 10 -15 7
-18z m-4181 -37 c-3 -7 -5 -2 -5 12 0 14 2 19 5 13 2 -7 2 -19 0 -25z m4159
-8 c-2 -17 -6 -33 -9 -37 -3 -3 -4 8 -2 23 2 16 4 32 4 37 1 4 3 7 6 7 2 0 3
-14 1 -30z m-49 -42 c-3 -8 -6 -5 -6 6 -1 11 2 17 5 13 3 -3 4 -12 1 -19z
m-36 -51 c-10 -9 -11 -8 -5 6 3 10 9 15 12 12 3 -3 0 -11 -7 -18z m-4025 -14
c-10 -10 -19 5 -10 18 6 11 8 11 12 0 2 -7 1 -15 -2 -18z m4047 -43 c-12 -21
-19 -26 -25 -17 -12 19 -9 30 8 23 12 -4 14 -1 9 14 -9 27 5 48 17 26 6 -11 3
-26 -9 -46z m-3566 -32 c-3 -7 -5 -2 -5 12 0 14 2 19 5 13 2 -7 2 -19 0 -25z
m3523 -32 c0 -6 -7 -2 -15 8 -8 11 -15 25 -15 30 0 6 7 2 15 -8 8 -11 15 -25
15 -30z m-3536 -25 c-4 -17 -9 -30 -11 -27 -3 2 -2 19 2 36 9 41 17 33 9 -9z
m3526 -16 c0 -5 -5 -3 -10 5 -5 8 -10 20 -10 25 0 6 5 3 10 -5 5 -8 10 -19 10
-25z m-3912 11 c-7 -8 -15 -12 -17 -11 -5 6 10 25 20 25 5 0 4 -6 -3 -14z
m3890 -43 c-6 -8 -13 -22 -14 -30 -4 -23 -9 -24 -23 -1 -7 11 -8 17 -2 13 6
-3 15 5 21 20 5 14 15 23 20 20 8 -5 7 -12 -2 -22z m-62 -68 c-9 -9 -16 -13
-16 -8 0 12 22 34 28 28 2 -2 -3 -11 -12 -20z m3 -59 c-3 -3 -11 5 -18 17 -13
21 -12 21 5 5 10 -10 16 -20 13 -22z m-3679 -21 c5 -5 22 -26 37 -45 16 -21 6
-14 -25 18 -29 29 -52 55 -52 58 0 5 23 -13 40 -31z m3627 -7 c-3 -8 -6 -5 -6
6 -1 11 2 17 5 13 3 -3 4 -12 1 -19z m11 -54 c-4 -3 -12 5 -18 18 -12 22 -12
22 6 6 10 -10 15 -20 12 -24z m-15 -29 c-3 -9 -8 -14 -10 -11 -3 3 -2 9 2 15
9 16 15 13 8 -4z m-3493 -44 c0 -5 9 -11 21 -14 11 -3 23 -15 26 -26 5 -18 14
-25 33 -23 3 0 6 -7 6 -17 0 -12 -20 1 -63 43 -35 34 -63 62 -63 64 0 1 9 -2
20 -8 11 -6 20 -15 20 -19z m270 -21 c9 -16 8 -18 -5 -14 -8 4 -15 12 -15 20
0 20 7 17 20 -6z m3188 -11 c-3 -8 -7 -3 -11 10 -4 17 -3 21 5 13 5 -5 8 -16
6 -23z m-45 -45 c4 10 12 14 18 11 7 -5 3 -14 -11 -27 -13 -12 -19 -27 -16
-37 5 -13 4 -13 -8 2 -8 10 -16 14 -18 10 -3 -4 -2 -1 0 7 3 8 5 26 5 40 l-1
25 12 -24 c11 -20 14 -21 19 -7z m-3266 -54 c18 -16 30 -30 26 -30 -4 0 -24
14 -43 30 -19 16 -31 30 -26 30 4 0 24 -13 43 -30z m3240 -32 c-3 -8 -6 -5 -6
6 -1 11 2 17 5 13 3 -3 4 -12 1 -19z m-3017 -43 c7 -8 9 -15 6 -15 -4 0 -14 7
-22 15 -9 8 -11 15 -6 15 5 0 15 -7 22 -15z m-25 -13 c-3 -3 -11 0 -18 7 -9
10 -8 11 6 5 10 -3 15 -9 12 -12z m89 -63 c-5 -9 -2 -10 9 -6 9 3 19 2 22 -3
3 -4 -6 -7 -20 -5 -16 1 -31 -5 -39 -17 -11 -16 -15 -16 -25 -4 -9 11 -8 14 6
12 21 -1 26 36 10 69 -8 15 -3 13 17 -7 17 -16 25 -32 20 -39z m-129 31 c10
-11 16 -20 13 -20 -3 0 -15 9 -28 20 -13 11 -19 20 -13 20 5 0 18 -9 28 -20z
m55 -42 c0 -6 -6 -5 -15 2 -8 7 -15 14 -15 16 0 2 7 1 15 -2 8 -4 15 -11 15
-16z m2835 -8 c-3 -5 -12 -10 -18 -10 -7 0 -6 4 3 10 19 12 23 12 15 0z
m-2694 -48 c-5 -9 -9 -20 -10 -24 -1 -5 -3 -8 -6 -8 -3 0 -10 0 -15 0 -6 0 -2
10 9 22 11 11 18 26 14 31 -3 6 -1 7 5 3 8 -5 9 -13 3 -24z m2689 -14 c0 -5
-7 -3 -15 6 -8 8 -15 18 -15 22 0 3 7 1 15 -6 8 -7 15 -17 15 -22z m-2500 12
c0 -5 -2 -10 -4 -10 -3 0 -8 5 -11 10 -3 6 -1 10 4 10 6 0 11 -4 11 -10z
m-124 -33 c5 -9 4 -9 -7 1 -15 14 -33 16 -25 3 4 -5 0 -12 -6 -14 -10 -4 -9
-8 2 -16 8 -6 10 -11 4 -11 -6 0 -17 7 -24 15 -10 12 -10 15 0 15 7 0 10 6 7
14 -3 8 -3 17 0 20 7 7 40 -10 49 -27z m159 -8 c-3 -13 6 -30 23 -46 15 -14 1
-5 -30 18 -32 24 -55 45 -52 48 2 3 10 -1 16 -7 13 -13 29 -16 27 -4 -3 16 1
23 10 17 6 -3 8 -15 6 -26z m2405 -24 c0 -5 -5 -3 -10 5 -5 8 -10 20 -10 25 0
6 5 3 10 -5 5 -8 10 -19 10 -25z m35 16 c3 -5 1 -12 -5 -16 -5 -3 -10 1 -10 9
0 18 6 21 15 7z m-2541 -62 c-3 -5 -11 -9 -17 -8 -9 0 -9 2 0 6 10 3 9 8 -2
20 -8 8 -15 19 -15 25 0 6 9 1 20 -12 11 -12 17 -27 14 -31z m2553 19 c-3 -8
-6 -5 -6 6 -1 11 2 17 5 13 3 -3 4 -12 1 -19z m-26 -21 c-10 -9 -11 -8 -5 6 3
10 9 15 12 12 3 -3 0 -11 -7 -18z m-116 3 c-3 -5 -12 -10 -18 -10 -7 0 -6 4 3
10 19 12 23 12 15 0z m129 -37 c-9 -21 -19 -46 -21 -56 -5 -15 -8 -16 -14 -5
-11 17 -11 31 0 24 5 -3 16 12 25 34 9 22 18 40 21 40 3 0 -2 -17 -11 -37z
m-2334 17 c0 -5 -5 -10 -11 -10 -5 0 -7 5 -4 10 3 6 8 10 11 10 2 0 4 -4 4
-10z m-150 -15 c20 -24 6 -28 -15 -5 -10 11 -13 20 -8 20 6 0 16 -7 23 -15z
m190 5 c0 -5 -2 -10 -4 -10 -3 0 -8 5 -11 10 -3 6 -1 10 4 10 6 0 11 -4 11
-10z m2140 -10 c0 -5 -2 -10 -4 -10 -3 0 -8 5 -11 10 -3 6 -1 10 4 10 6 0 11
-4 11 -10z m-2140 -20 c13 -11 21 -22 19 -24 -2 -2 -17 7 -32 20 -15 13 -24
24 -19 24 5 0 19 -9 32 -20z m2120 0 c0 -5 -5 -10 -11 -10 -5 0 -7 5 -4 10 3
6 8 10 11 10 2 0 4 -4 4 -10z m45 0 c3 -5 1 -10 -4 -10 -6 0 -11 5 -11 10 0 6
2 10 4 10 3 0 8 -4 11 -10z m-2045 -20 c0 -5 -5 -10 -11 -10 -5 0 -7 5 -4 10
3 6 8 10 11 10 2 0 4 -4 4 -10z m-65 -10 c-3 -5 -12 -10 -18 -10 -7 0 -6 4 3
10 19 12 23 12 15 0z m24 -26 c-6 -7 -15 -11 -21 -8 -5 3 -4 12 3 20 6 7 15
11 21 8 5 -3 4 -12 -3 -20z m121 -12 c0 -1 -9 2 -20 8 -11 6 -20 15 -20 20 0
6 9 2 20 -7 11 -10 20 -19 20 -21z m-60 8 c0 -5 -2 -10 -4 -10 -3 0 -8 5 -11
10 -3 6 -1 10 4 10 6 0 11 -4 11 -10z m1930 1 c0 -5 -7 -11 -15 -15 -15 -5
-20 5 -8 17 9 10 23 9 23 -2z m-1955 -21 c3 -5 2 -10 -4 -10 -5 0 -13 5 -16
10 -3 6 -2 10 4 10 5 0 13 -4 16 -10z m43 -8 c-2 -11 4 -27 12 -37 14 -18 13
-18 -11 0 -21 16 -24 23 -15 37 14 23 18 23 14 0z m97 -10 c-3 -3 -11 0 -18 7
-9 10 -8 11 6 5 10 -3 15 -9 12 -12z m1988 -19 c-3 -7 -9 -10 -14 -7 -14 8
-11 21 5 21 8 0 12 -6 9 -14z m-1999 -14 c-3 -6 0 -16 7 -21 10 -6 7 -7 -10
-3 -17 5 -21 4 -16 -5 6 -9 3 -9 -14 -1 -11 7 -21 14 -21 17 0 3 5 2 10 -1 6
-3 17 1 26 9 18 19 28 21 18 5z m1713 -5 c-3 -3 -12 -4 -19 -1 -8 3 -5 6 6 6
11 1 17 -2 13 -5z m240 -26 c-3 -8 -6 -5 -6 6 -1 11 2 17 5 13 3 -3 4 -12 1
-19z m-1830 6 c-3 -3 -12 -4 -19 -1 -8 3 -5 6 6 6 11 1 17 -2 13 -5z m51 -12
c9 -6 5 -12 -14 -21 -15 -6 -29 -10 -31 -7 -2 2 5 7 18 11 17 6 19 9 8 16 -8
5 -9 9 -4 9 6 0 16 -4 23 -8z m-132 -11 c-8 -12 22 -23 37 -14 7 3 9 3 5 -2
-4 -4 -2 -15 5 -24 10 -14 10 -14 -4 -4 -9 7 -19 10 -22 6 -4 -3 -7 -1 -7 5 0
7 -7 12 -15 12 -16 0 -20 12 -8 23 9 10 15 9 9 -2z m1834 -21 c0 -5 -6 -11
-12 -14 -9 -3 -6 -11 9 -24 l22 -20 -37 -25 c-37 -26 -92 -51 -92 -42 0 2 20
13 43 24 24 11 50 27 57 36 15 18 0 20 -20 3 -12 -11 -12 -10 -3 2 6 8 10 29
8 47 -1 22 2 30 12 26 7 -3 13 -9 13 -13z m38 3 c-6 -7 -12 -13 -13 -13 -2 0
-5 6 -8 13 -3 7 3 13 14 13 13 0 15 -3 7 -13z m-1773 -23 c3 -5 -4 -6 -15 -3
-11 3 -22 9 -25 13 -3 5 4 6 15 3 11 -3 22 -9 25 -13z m1342 4 c-3 -3 -12 -4
-19 -1 -8 3 -5 6 6 6 11 1 17 -2 13 -5z m-1147 -8 c0 -11 -19 -15 -25 -6 -3 5
1 10 9 10 9 0 16 -2 16 -4z m1570 -6 c0 -5 -2 -10 -4 -10 -3 0 -8 5 -11 10 -3
6 -1 10 4 10 6 0 11 -4 11 -10z m-1766 -15 c11 -8 15 -15 10 -15 -6 0 -19 7
-30 15 -10 8 -14 14 -9 14 6 0 19 -6 29 -14z m1193 -1 c-3 -3 -12 -4 -19 -1
-8 3 -5 6 6 6 11 1 17 -2 13 -5z m-1009 -16 c-2 -6 -19 -17 -37 -23 -18 -6
-29 -14 -25 -18 4 -4 2 -7 -5 -7 -7 0 -11 6 -8 14 3 7 0 20 -6 27 -10 11 -9
11 5 1 18 -14 72 -6 62 9 -3 5 0 9 6 9 7 0 10 -5 8 -12z m-107 -19 c13 -11 18
-18 11 -14 -57 29 -65 35 -51 35 9 0 27 -9 40 -21z m1589 -3 c0 -2 -7 -7 -16
-10 -8 -3 -12 -2 -9 4 6 10 25 14 25 6z m-1163 -12 c-3 -3 -12 -4 -19 -1 -8 3
-5 6 6 6 11 1 17 -2 13 -5z m346 -1 c-7 -2 -19 -2 -25 0 -7 3 -2 5 12 5 14 0
19 -2 13 -5z m-677 -29 c18 -14 18 -14 -6 -3 -31 14 -36 19 -24 19 6 0 19 -7
30 -16z m317 9 c-13 -2 -33 -2 -45 0 -13 2 -3 4 22 4 25 0 35 -2 23 -4z m410
0 c-7 -2 -19 -2 -25 0 -7 3 -2 5 12 5 14 0 19 -2 13 -5z m-446 -19 c-3 -3 -12
-4 -19 -1 -8 3 -5 6 6 6 11 1 17 -2 13 -5z m-192 -14 c-3 -5 -12 -10 -18 -10
-7 0 -6 4 3 10 19 12 23 12 15 0z m1175 0 c13 -8 13 -10 -2 -10 -9 0 -20 5
-23 10 -8 13 5 13 25 0z m140 -5 c0 -2 -6 -5 -13 -8 -8 -3 -14 1 -14 8 0 7 6
11 14 8 7 -3 13 -6 13 -8z m-1173 -1 c-3 -3 -12 -4 -19 -1 -8 3 -5 6 6 6 11 1
17 -2 13 -5z m-47 -14 c-10 -6 -8 -9 6 -13 13 -3 14 -5 3 -6 -8 0 -23 5 -32
12 -16 11 -15 12 9 14 17 1 22 -2 14 -7z m1083 -7 c-7 -2 -19 -2 -25 0 -7 3
-2 5 12 5 14 0 19 -2 13 -5z m-880 -60 c-7 -2 -19 -2 -25 0 -7 3 -2 5 12 5 14
0 19 -2 13 -5z m47 3 c0 -2 -7 -7 -16 -10 -8 -3 -12 -2 -9 4 6 10 25 14 25 6z
m707 -2 c-3 -3 -12 -4 -19 -1 -8 3 -5 6 6 6 11 1 17 -2 13 -5z m-109 -10 c-7
-6 -77 -8 -83 -2 -3 3 15 6 41 6 26 1 44 -1 42 -4z m-505 -11 c-7 -2 -19 -2
-25 0 -7 3 -2 5 12 5 14 0 19 -2 13 -5z m105 -10 c-16 -2 -40 -2 -55 0 -16 2
-3 4 27 4 30 0 43 -2 28 -4z m195 0 c-18 -2 -48 -2 -65 0 -18 2 -4 4 32 4 36
0 50 -2 33 -4z"/>
<path d="M6004 5723 c-27 -38 -93 -111 -146 -164 -54 -53 -98 -99 -98 -103 0
-20 44 1 96 46 131 116 224 228 224 270 0 35 -27 17 -76 -49z"/>
<path d="M6358 5378 c-114 -118 -159 -225 -136 -327 17 -76 216 -475 263 -526
l36 -40 -26 45 c-60 102 -155 311 -180 395 -45 156 -36 226 48 358 l35 55 74
11 c158 25 150 26 88 -10 -55 -32 -150 -107 -182 -144 -18 -21 -24 -55 -10
-55 5 0 17 10 28 21 21 24 134 109 145 109 3 0 9 -12 12 -27 3 -16 8 -35 12
-44 4 -10 -2 -19 -17 -26 -28 -13 475 -7 532 7 30 7 26 8 -31 9 l-67 1 24 58
c13 31 24 74 24 95 0 44 3 45 110 18 41 -10 93 -21 115 -24 l40 -6 -40 19
c-46 23 -36 24 72 9 50 -6 82 -16 90 -26 18 -24 26 -10 12 21 -15 32 -41 40
-209 62 -91 12 -161 15 -257 10 -144 -6 -369 -30 -475 -50 -63 -12 -66 -12
-57 5 14 27 11 49 -7 49 -8 0 -38 -24 -66 -52z m637 -35 c1 -18 -2 -33 -6 -33
-4 0 -5 -9 -2 -20 3 -12 0 -20 -6 -20 -7 0 -9 -5 -5 -11 4 -7 1 -10 -7 -7 -9
3 -15 21 -15 51 -1 26 -5 54 -8 63 -5 12 0 15 22 12 23 -3 27 -8 27 -35z m-95
7 c0 -11 -6 -20 -14 -20 -18 0 -29 16 -21 30 11 18 35 11 35 -10z m-272 -71
c3 -34 19 -70 36 -81 6 -4 -6 -6 -27 -5 -40 2 -55 21 -35 45 11 13 10 15 -5 9
-14 -5 -17 -2 -14 19 3 22 21 43 37 44 3 0 7 -14 8 -31z m242 12 c21 -39 -19
-73 -60 -51 -25 13 -26 45 -2 59 27 16 50 13 62 -8z m90 -75 c-7 -10 -29 -16
-54 -16 l-41 0 31 19 c18 11 35 25 39 31 5 9 11 8 23 -4 13 -12 13 -18 2 -30z"/>
<path d="M6600 5280 c0 -5 5 -10 11 -10 5 0 7 5 4 10 -3 6 -8 10 -11 10 -2 0
-4 -4 -4 -10z"/>
<path d="M4485 5399 c-320 -24 -537 -51 -601 -76 -24 -9 -162 -153 -147 -153
5 0 20 11 33 25 55 58 89 72 195 79 55 3 138 13 185 21 121 21 116 23 112 -30
-2 -25 1 -59 7 -77 6 -17 9 -34 6 -37 -6 -5 -182 15 -222 25 -13 4 -23 2 -23
-4 0 -21 315 -66 540 -77 137 -7 426 16 445 36 7 9 -5 10 -45 5 -100 -11 -300
-19 -300 -12 0 5 9 21 20 36 28 39 50 105 50 147 0 35 0 35 36 28 86 -16 166
-48 250 -101 92 -59 180 -104 202 -104 24 0 11 20 -25 38 -21 10 -82 47 -136
81 -56 37 -133 76 -180 92 l-82 29 164 0 c102 0 161 4 155 9 -27 27 -398 39
-639 20z m165 -62 c0 -9 3 -8 9 1 7 12 12 12 30 1 24 -15 27 -38 9 -58 -9 -10
-9 -12 -1 -7 16 9 -1 -51 -21 -73 -8 -9 -19 -28 -25 -44 -9 -22 -16 -27 -46
-27 -22 0 -34 4 -30 10 4 6 11 8 16 5 5 -4 9 0 9 8 0 16 34 49 43 42 4 -3 3 0
-2 6 -5 6 -5 25 -1 44 10 44 -4 67 -24 40 -11 -15 -17 -17 -27 -8 -20 20 -3
46 26 39 14 -4 25 -2 25 4 0 5 -6 10 -14 10 -26 0 -26 16 0 18 13 1 24 -4 24
-11z m-311 -34 c1 9 6 17 11 17 6 0 8 -11 3 -27 -12 -47 -7 -98 13 -128 18
-28 18 -29 1 -22 -10 4 -25 7 -32 7 -8 0 -20 10 -26 22 -13 24 -21 140 -8 133
4 -3 11 0 15 7 5 8 10 6 15 -8 7 -17 8 -17 8 -1z m235 -39 c20 -20 20 -33 -1
-56 -29 -32 -73 -16 -73 27 0 42 44 59 74 29z"/>
<path d="M4624 5169 c-3 -6 -2 -15 3 -20 5 -5 9 -1 9 11 0 23 -2 24 -12 9z"/>
<path d="M5323 4367 c-59 -66 -108 -161 -129 -255 -14 -64 -14 -75 0 -132 9
-34 26 -76 37 -92 17 -23 19 -32 9 -38 -7 -4 6 -8 31 -8 26 -1 77 13 133 35
101 40 223 56 250 33 9 -6 21 -8 27 -4 7 4 9 3 6 -3 -6 -10 32 -31 64 -37 8
-1 24 -8 37 -15 13 -7 33 -13 45 -15 12 -1 30 -6 40 -11 10 -4 21 -5 24 -1 3
3 12 -2 20 -12 8 -9 12 -12 10 -7 -3 6 34 -9 81 -33 138 -67 265 -77 409 -31
74 24 131 81 184 183 l33 64 55 4 c94 8 123 70 85 182 -23 67 -185 224 -184
179 0 -5 29 -44 65 -88 68 -84 88 -129 78 -176 -7 -37 -26 -52 -71 -55 -20 -1
-40 -2 -45 -3 -4 -1 -36 -29 -70 -64 -78 -77 -108 -92 -216 -107 -115 -16
-182 -6 -341 47 -129 44 -141 46 -275 50 -104 4 -164 1 -235 -12 -181 -32
-162 -34 -190 26 -48 103 -23 250 65 383 19 29 35 56 35 60 0 17 -22 1 -67
-47z m420 -474 c-7 -2 -19 -2 -25 0 -7 3 -2 5 12 5 14 0 19 -2 13 -5z m107
-32 c0 -5 -9 -7 -20 -4 -11 3 -20 7 -20 9 0 2 9 4 20 4 11 0 20 -4 20 -9z"/>
<path d="M4395 3606 c-67 -30 -124 -135 -108 -197 4 -15 3 -20 -5 -15 -9 5
-10 -6 -5 -40 4 -32 3 -45 -4 -41 -6 4 -13 -3 -15 -16 -6 -29 0 -47 16 -47 9
0 15 32 20 112 4 62 10 115 15 118 5 3 12 16 16 30 8 24 53 73 91 97 25 16 16
15 -21 -1z"/>
<path d="M7229 3518 c-7 -13 -12 -29 -10 -37 1 -7 -2 -10 -9 -6 -11 7 -50 -21
-50 -37 0 -4 7 -8 15 -8 18 0 105 77 105 93 0 6 -3 7 -7 4 -3 -4 -12 -2 -19 4
-9 8 -16 4 -25 -13z m21 -18 c0 -5 -4 -10 -10 -10 -5 0 -10 5 -10 10 0 6 5 10
10 10 6 0 10 -4 10 -10z"/>
<path d="M6600 3410 c-20 -20 -28 -70 -11 -70 5 0 8 -8 6 -17 -2 -10 -4 -20
-4 -23 -1 -3 -47 -6 -103 -7 -55 -1 -104 -6 -107 -10 -6 -10 -26 -12 -99 -15
-25 -1 -38 -4 -31 -9 7 -4 -7 -5 -32 -3 -35 5 -41 3 -29 -6 12 -10 12 -11 -5
-5 -11 4 -29 9 -40 11 l-20 4 20 -9 c15 -7 4 -9 -40 -8 -70 1 -316 -12 -325
-18 -3 -2 -58 -6 -121 -9 -63 -3 -172 -9 -244 -12 -71 -4 -145 -6 -163 -5 -19
1 -31 -2 -29 -6 6 -9 -178 -6 -253 3 -43 6 -44 6 -23 22 12 10 25 29 28 44 4
15 13 29 21 32 8 3 14 12 14 20 0 22 -49 76 -69 76 -28 0 -106 -61 -91 -70 8
-5 9 -10 2 -14 -6 -3 -12 -1 -14 5 -2 7 -19 -3 -39 -23 -18 -19 -56 -48 -84
-63 -95 -54 -106 -64 -95 -86 6 -10 16 -19 23 -19 14 0 40 28 50 53 3 9 11 17
17 17 6 0 3 -11 -6 -25 -16 -24 -16 -27 1 -45 24 -26 45 -25 106 6 l51 25 159
-31 159 -32 348 5 c282 4 371 8 477 25 188 29 373 69 452 97 38 13 98 29 133
35 60 10 70 9 130 -13 67 -25 158 -27 143 -4 -4 6 0 8 9 4 17 -6 38 10 38 29
0 10 -76 30 -107 27 -7 0 -10 3 -7 8 3 5 -1 9 -10 9 -8 0 -16 -5 -18 -10 -2
-7 -11 -4 -23 5 -20 16 -20 16 3 10 12 -4 22 -4 22 -2 0 3 -25 30 -55 61 -58
60 -83 68 -115 36z m33 -27 c-7 -3 -13 -11 -13 -20 0 -17 -23 -13 -26 5 -2 8
0 8 3 2 3 -7 11 -3 20 10 8 12 18 18 22 14 3 -4 0 -9 -6 -11z m-1650 -52 c9
-12 17 -25 17 -29 -1 -4 -9 3 -19 15 -11 14 -22 18 -31 13 -8 -5 -19 -2 -28 6
-8 9 -22 12 -31 9 -12 -5 -13 -3 -5 5 9 9 17 9 32 1 31 -17 49 -13 26 5 -19
15 -19 15 1 5 11 -5 28 -19 38 -30z m1730 22 c-4 -11 -3 -14 5 -9 7 4 12 2 12
-3 0 -15 -15 -14 -29 3 -11 13 -10 16 16 25 1 1 -1 -6 -4 -16z m-1798 -34 c4
-6 -2 -13 -14 -16 -11 -3 -19 -9 -16 -13 3 -5 2 -11 -3 -14 -12 -7 -11 26 1
42 12 15 24 15 32 1z m-59 -46 c-3 -21 -39 -41 -64 -37 -15 3 -21 1 -17 -6 3
-5 2 -10 -4 -10 -5 0 -13 5 -16 10 -3 6 -2 10 4 10 6 0 19 9 30 21 11 12 18
15 18 7 -1 -7 3 -14 8 -15 6 -1 10 5 9 15 -1 11 6 18 16 18 10 0 17 -6 16 -13z
m1697 10 c-7 -2 -19 -2 -25 0 -7 3 -2 5 12 5 14 0 19 -2 13 -5z m-488 -53
c-11 -5 -31 -8 -45 -8 -23 0 -22 1 5 8 42 11 65 11 40 0z m-1313 -25 c0 -5 -5
-10 -11 -11 -8 -2 -7 -1 0 3 8 4 7 8 -2 15 -11 8 -11 9 -1 6 8 -2 14 -8 14
-13z m1092 6 c4 -5 -3 -7 -14 -4 -23 6 -26 13 -6 13 8 0 17 -4 20 -9z m-87 -7
c-3 -3 -12 -4 -19 -1 -8 3 -5 6 6 6 11 1 17 -2 13 -5z m-339 -21 c-10 -2 -28
-2 -40 0 -13 2 -5 4 17 4 22 1 32 -1 23 -4z m289 1 c-3 -3 -12 -4 -19 -1 -8 3
-5 6 6 6 11 1 17 -2 13 -5z m-1032 -14 c-3 -5 -11 -10 -16 -10 -6 0 -7 5 -4
10 3 6 11 10 16 10 6 0 7 -4 4 -10z m878 3 c-7 -2 -19 -2 -25 0 -7 3 -2 5 12
5 14 0 19 -2 13 -5z"/>
<path d="M4003 3154 c2 -61 7 -88 17 -94 8 -5 11 -12 8 -16 -7 -7 47 -117 73
-149 43 -53 99 -108 99 -99 0 6 -13 27 -30 45 -16 19 -50 74 -74 123 -31 62
-46 84 -49 70 -2 -10 -2 3 1 30 3 34 1 47 -7 42 -6 -4 -11 -2 -11 3 0 6 5 11
10 11 14 0 1 72 -14 83 -7 5 -3 7 9 5 12 -2 21 4 23 15 3 13 -3 17 -27 17
l-30 0 2 -86z"/>
<path d="M4280 3230 c0 -5 5 -10 10 -10 6 0 10 5 10 10 0 6 -4 10 -10 10 -5 0
-10 -4 -10 -10z"/>
<path d="M6305 3010 c-245 -57 -472 -79 -880 -87 -254 -5 -309 -3 -360 10 -32
9 -61 14 -63 12 -22 -21 121 -86 194 -88 l56 -1 -68 -23 c-77 -26 -106 -48
-102 -77 2 -16 12 -22 36 -24 26 -3 32 -7 28 -19 -5 -12 -3 -13 6 -5 13 10 40
15 68 13 18 -1 -78 -71 -98 -71 -9 0 -12 6 -7 18 5 13 4 14 -6 5 -9 -9 -9 -15
0 -26 9 -12 8 -16 -5 -21 -10 -4 -20 -2 -24 4 -4 6 -7 -3 -8 -19 0 -21 6 -34
19 -41 13 -7 19 -7 19 0 0 5 12 10 28 9 l27 -1 -25 -8 c-23 -7 -23 -8 -3 -9
12 -1 25 4 28 9 3 6 13 10 21 10 8 0 13 -4 9 -9 -3 -5 -1 -12 5 -16 5 -3 10 3
10 14 0 12 4 21 9 21 12 0 2 -71 -11 -85 -7 -7 -8 -1 -3 15 6 20 5 23 -5 13
-16 -15 -5 -44 14 -37 8 3 17 0 22 -7 4 -8 3 -10 -4 -5 -7 4 -12 3 -12 -3 0
-5 25 -7 62 -4 55 4 60 3 49 -11 -7 -8 -11 -21 -8 -28 4 -8 6 -7 6 5 1 9 5 17
10 17 5 0 8 -15 6 -32 -3 -44 2 -55 31 -62 27 -7 88 19 79 34 -3 4 0 10 7 12
9 3 9 6 0 12 -7 4 -12 2 -12 -4 0 -6 -5 -8 -12 -4 -9 6 -9 3 0 -9 12 -14 11
-17 -11 -22 -44 -11 -70 -2 -73 25 -1 14 0 19 2 12 3 -6 11 -9 17 -5 7 4 6 -1
-2 -10 -12 -15 -10 -17 23 -17 20 0 36 5 36 11 0 6 -8 9 -17 5 -15 -5 -15 -4
1 7 10 7 35 26 56 43 54 44 96 60 115 44 8 -7 12 -16 9 -21 -8 -13 -34 -11
-34 2 0 6 7 8 18 4 13 -5 14 -4 5 6 -10 10 -18 8 -38 -11 -14 -14 -38 -30 -53
-37 l-27 -12 25 2 c14 1 29 7 33 12 5 6 5 -1 1 -15 -6 -22 -5 -23 9 -12 9 8
13 20 10 28 -3 9 2 14 15 14 11 0 27 3 35 6 10 3 18 -2 22 -15 3 -12 12 -21
20 -21 7 0 15 -5 17 -11 2 -6 21 -3 51 10 26 11 54 18 63 14 13 -5 13 -7 2
-14 -7 -5 -20 -6 -28 -4 -8 2 -22 0 -30 -5 -9 -6 7 -7 45 -5 71 5 100 -1 86
-18 -7 -9 2 -12 32 -13 23 0 34 1 24 3 -40 10 -2 23 48 17 60 -7 75 0 107 51
10 17 18 25 18 18 0 -6 8 -14 18 -16 14 -4 14 -5 -3 -6 -18 -1 -58 -42 -61
-62 -3 -22 -5 -23 -12 -12 -5 8 -8 -2 -9 -25 l0 -37 24 53 c24 51 43 67 43 37
0 -8 7 -15 15 -15 20 0 19 10 -2 26 -33 24 6 32 105 21 40 -4 42 -3 42 23 l0
28 50 -19 c64 -24 181 -26 204 -3 17 16 21 114 5 114 -14 0 -20 33 -7 42 7 4
29 7 48 7 29 0 31 -2 15 -9 -16 -7 -17 -9 -3 -9 9 -1 22 7 27 17 9 15 12 15
21 2 10 -13 11 -13 9 0 -3 29 1 41 12 35 6 -4 8 -14 5 -24 -5 -12 -2 -11 9 3
8 11 15 25 15 30 0 6 4 5 9 -3 6 -9 11 -10 15 -2 4 6 2 11 -3 11 -6 0 -11 8
-12 18 0 14 -2 14 -8 -3 -7 -16 -9 -17 -13 -5 -3 8 -3 4 -1 -10 3 -22 2 -23
-8 -6 -14 22 9 76 23 54 5 -10 8 -8 8 5 0 9 8 17 18 18 9 0 37 13 62 28 33 20
46 34 48 55 4 36 -14 56 -50 56 -28 0 -29 1 -14 22 29 41 21 50 -39 46 -34 -2
-51 0 -45 7 19 18 10 44 -15 51 -32 8 -137 -3 -207 -22 -82 -21 -102 -15 -23
8 76 22 105 38 65 37 -14 0 -79 -13 -145 -29z m2 -36 c-3 -3 -12 -4 -19 -1 -8
3 -5 6 6 6 11 1 17 -2 13 -5z m173 -42 c0 -16 -14 -20 -92 -30 -243 -31 -392
-51 -430 -58 -22 -4 -27 -2 -25 14 1 20 41 33 137 46 19 2 82 12 140 20 101
15 153 21 233 24 30 2 37 -2 37 -16z m55 -67 c-77 -64 -235 -126 -235 -93 0 8
17 20 38 26 20 6 73 29 117 51 92 46 124 52 80 16z m-632 -33 c-6 -24 -23 -30
-23 -9 0 13 21 39 26 34 2 -2 1 -13 -3 -25z m-168 -73 c-48 -112 -122 -219
-151 -219 -8 0 10 35 40 78 51 75 53 82 49 129 -6 55 8 93 33 93 12 0 15 -6
10 -22 -17 -65 -16 -68 8 -20 40 84 49 52 11 -39z m-175 75 c0 -4 -16 -26 -35
-50 -19 -23 -35 -54 -35 -67 0 -25 -89 -134 -90 -110 0 6 4 14 10 18 14 9 0
35 -16 28 -7 -3 -17 2 -20 11 -6 15 -9 15 -30 1 -34 -22 -41 -18 -14 10 13 13
23 35 24 48 1 28 99 112 120 104 7 -3 19 -1 27 4 16 10 59 12 59 3z m1 -143
c-65 -119 -91 -152 -91 -119 0 12 115 234 133 256 7 8 14 9 20 3 6 -6 -15 -55
-62 -140z m319 -1 c-34 -67 -94 -134 -129 -143 -14 -3 -7 10 27 52 25 31 61
81 81 111 40 63 56 48 21 -20z m372 -46 c33 -19 85 -40 115 -47 78 -17 86 -42
12 -34 -100 12 -279 118 -279 166 0 34 14 31 54 -9 21 -23 66 -57 98 -76z
m-217 68 c-6 -38 -5 -40 52 -86 32 -26 65 -53 75 -61 9 -7 19 -11 22 -8 3 4 6
1 6 -5 0 -7 -5 -12 -10 -12 -17 0 -70 30 -70 39 0 5 -8 11 -17 14 -10 3 -30
14 -45 23 -33 22 -39 17 -46 -41 -3 -28 -9 -44 -16 -42 -7 3 -10 30 -8 79 2
47 0 78 -7 82 -13 9 -15 46 -2 46 6 0 13 -5 17 -11 5 -8 10 -6 16 5 5 9 16 16
24 16 13 0 14 -8 9 -38z m585 18 c0 -5 -2 -10 -4 -10 -3 0 -8 5 -11 10 -3 6
-1 10 4 10 6 0 11 -4 11 -10z m-20 -28 c0 -15 -2 -15 -10 -2 -13 20 -13 33 0
25 6 -3 10 -14 10 -23z"/>
<path d="M4884 2979 c-10 -16 22 -43 42 -35 16 6 15 8 -4 26 -24 23 -28 24
-38 9z"/>
<path d="M4946 2931 c-3 -5 3 -11 15 -14 16 -4 18 -3 8 9 -13 16 -16 17 -23 5z"/>
<path d="M6663 2724 c-3 -8 0 -21 7 -27 10 -10 12 -7 7 10 -2 12 0 24 7 27 7
3 7 5 -2 5 -7 1 -15 -6 -19 -15z"/>
<path d="M5175 2704 c-31 -16 -54 -34 -43 -34 9 0 78 41 78 46 0 6 -2 5 -35
-12z"/>
<path d="M6495 2600 c-3 -5 -1 -10 4 -10 6 0 11 5 11 10 0 6 -2 10 -4 10 -3 0
-8 -4 -11 -10z"/>
<path d="M6582 2578 c3 -31 1 -33 -29 -36 -20 -2 -33 1 -33 8 0 6 4 9 9 6 5
-4 8 1 7 9 -1 9 -6 14 -11 13 -14 -4 -16 -33 -5 -60 6 -17 9 -19 9 -5 1 19 31
24 31 5 0 -7 12 0 26 16 19 21 22 31 13 36 -6 5 -9 15 -6 24 4 9 2 16 -4 16
-6 0 -9 -15 -7 -32z"/>
<path d="M6540 2596 c0 -2 7 -6 15 -10 8 -3 15 -1 15 4 0 6 -7 10 -15 10 -8 0
-15 -2 -15 -4z"/>
<path d="M6550 2560 c0 -5 5 -10 10 -10 6 0 10 5 10 10 0 6 -4 10 -10 10 -5 0
-10 -4 -10 -10z"/>
<path d="M6095 2430 c-18 -7 -16 -9 13 -15 33 -8 42 -20 20 -28 -7 -2 -3 -2 9
-1 12 2 25 0 28 -6 4 -7 13 -7 26 0 11 6 17 15 14 20 -3 4 1 11 7 14 7 3 4 5
-7 4 -11 -1 -33 4 -48 10 -32 14 -35 14 -62 2z m68 -17 c20 -10 27 -18 18 -21
-7 -2 -16 0 -20 6 -4 6 -18 15 -31 21 -14 5 -19 10 -12 10 7 1 27 -6 45 -16z"/>
<path d="M5564 2422 c3 -6 -2 -13 -11 -15 -10 -3 -1 -5 21 -6 31 -1 37 -4 32
-17 -6 -14 -4 -15 9 -4 13 11 13 15 3 22 -10 8 -10 9 1 6 23 -6 24 -25 4 -45
-11 -11 -17 -25 -15 -32 2 -7 15 3 29 24 22 32 23 39 11 51 -18 18 -94 32 -84
16z"/>
<path d="M5493 2413 c-20 -7 -15 -22 6 -20 11 0 17 6 14 14 -3 7 -6 13 -7 12
0 0 -7 -3 -13 -6z"/>
<path d="M5786 2395 c-7 -18 -37 -20 -54 -3 -9 9 -12 9 -12 0 0 -17 30 -30 54
-24 21 6 46 25 46 36 0 13 -28 5 -34 -9z"/>
<path d="M5500 2370 c0 -5 5 -10 10 -10 6 0 10 5 10 10 0 6 -4 10 -10 10 -5 0
-10 -4 -10 -10z"/>
<path d="M5870 2355 c7 -8 17 -15 22 -15 6 0 5 7 -2 15 -7 8 -17 15 -22 15 -6
0 -5 -7 2 -15z"/>
<path d="M5558 2313 c7 -3 16 -2 19 1 4 3 -2 6 -13 5 -11 0 -14 -3 -6 -6z"/>
<path d="M5933 2313 c9 -2 23 -2 30 0 6 3 -1 5 -18 5 -16 0 -22 -2 -12 -5z"/>
<path d="M4100 2097 c0 -7 11 -23 24 -34 l24 -21 0 24 c0 14 -9 29 -19 34 -24
13 -29 13 -29 -3z"/>
<path d="M4669 6019 c-8 -5 39 -9 115 -9 71 0 127 2 125 4 -9 9 -227 13 -240
5z"/>
<path d="M4522 6008 c-24 -5 -42 -11 -40 -12 8 -7 128 7 128 15 0 11 -31 10
-88 -3z"/>
<path d="M5108 5983 c7 -3 16 -2 19 1 4 3 -2 6 -13 5 -11 0 -14 -3 -6 -6z"/>
<path d="M3935 2110 c3 -5 8 -10 11 -10 2 0 4 5 4 10 0 6 -5 10 -11 10 -5 0
-7 -4 -4 -10z"/>
<path d="M3028 1785 c-36 -25 -58 -52 -58 -74 0 -20 68 -13 79 8 6 10 20 21
33 24 20 6 20 4 -5 -19 -31 -29 -27 -47 9 -38 17 4 26 1 30 -10 3 -9 17 -16
29 -16 13 0 25 -6 27 -14 2 -10 15 -4 43 21 26 23 30 30 13 19 -34 -20 -39
-20 -31 2 6 14 4 15 -8 5 -8 -7 -25 -9 -38 -6 -22 6 -22 7 10 21 32 14 32 16
11 20 -13 2 -32 -4 -41 -12 -10 -9 -26 -16 -37 -16 -16 1 -13 6 14 29 40 34
41 45 2 37 -27 -5 -29 -4 -21 13 21 38 -10 41 -61 6z m52 0 c0 -8 -9 -19 -19
-24 -25 -14 -38 14 -13 28 24 14 32 13 32 -4z m-50 -60 c-14 -16 -50 -21 -50
-6 0 9 20 17 49 20 11 1 11 -2 1 -14z"/>
<path d="M3239 1663 c-10 -2 -20 -12 -23 -21 -3 -9 -9 -23 -12 -29 -3 -8 1
-13 11 -13 12 0 15 -5 11 -17 -6 -16 -5 -16 11 -1 17 15 20 15 41 -2 12 -10
22 -23 22 -29 0 -6 11 -11 24 -11 13 0 27 -6 30 -12 5 -10 7 -10 12 0 10 21
24 13 24 -13 0 -30 7 -31 35 -5 18 17 26 18 58 9 l38 -10 -26 -30 c-32 -38
-31 -47 1 -59 22 -9 24 -13 14 -25 -26 -31 -2 -24 34 10 21 19 42 35 47 35 5
0 9 5 9 10 0 6 -20 9 -45 8 -44 -1 -66 -18 -24 -18 11 0 18 -4 15 -9 -8 -13
-56 0 -56 15 0 19 76 68 91 58 8 -4 9 -3 5 5 -4 7 -15 10 -24 8 -10 -2 -40 7
-69 19 l-52 23 -21 -27 -21 -27 6 38 c6 39 -4 48 -25 22 -14 -17 -55 -21 -44
-4 3 6 1 15 -6 19 -8 5 -1 11 21 19 18 6 29 14 26 18 -4 3 -25 -2 -47 -12 -49
-22 -65 -13 -21 12 37 21 43 48 9 37 -13 -3 -36 -16 -53 -27 -22 -16 -27 -17
-16 -4 11 14 11 17 0 17 -8 1 0 7 16 15 22 10 25 13 10 13 -11 0 -27 -2 -36
-5z"/>
<path d="M3615 1460 c-4 -7 3 -9 22 -5 27 5 26 4 -5 -10 -18 -9 -30 -19 -28
-24 3 -5 -1 -11 -9 -15 -25 -9 -17 -26 13 -25 23 0 24 1 7 8 -19 8 -19 8 3 15
12 4 20 11 17 16 -3 5 11 14 30 20 19 6 33 16 30 21 -8 12 -72 11 -80 -1z"/>
<path d="M3675 1420 c3 -6 -1 -13 -11 -17 -16 -6 -16 -7 0 -19 11 -8 13 -14 7
-19 -19 -11 -12 -28 9 -22 13 3 20 0 20 -9 0 -11 4 -12 19 -2 16 9 42 6 139
-20 66 -18 128 -32 138 -32 37 0 -3 18 -101 44 -55 15 -109 30 -120 33 -16 5
-12 9 20 19 l40 13 -38 -6 c-31 -4 -36 -3 -31 11 9 24 -6 19 -38 -11 -24 -23
-30 -25 -38 -13 -13 21 -12 30 3 30 7 0 22 7 33 15 18 13 17 14 -19 15 -23 0
-36 -4 -32 -10z"/>
</g>
</svg>
