<?xml version="1.0" standalone="no"?>
<!DOCTYPE svg PUBLIC "-//W3C//DTD SVG 20010904//EN"
 "http://www.w3.org/TR/2001/REC-SVG-20010904/DTD/svg10.dtd">
<svg version="1.0" xmlns="http://www.w3.org/2000/svg"
 width="400.000000pt" height="400.000000pt" viewBox="0 0 400.000000 400.000000"
 preserveAspectRatio="xMidYMid meet">
<metadata>
Created by potrace 1.11, written by Peter Selinger 2001-2013
</metadata>
<g transform="translate(0.000000,400.000000) scale(0.100000,-0.100000)"
fill="#000000" stroke="none">
<path d="M3081 3974 c0 -11 3 -14 6 -6 3 7 2 16 -1 19 -3 4 -6 -2 -5 -13z"/>
<path d="M820 3940 l-35 -7 43 -2 c27 0 41 3 37 9 -3 6 -7 9 -8 9 -1 -1 -18
-5 -37 -9z"/>
<path d="M3770 3911 c0 -5 -3 -16 -6 -25 -5 -14 9 -16 115 -16 l121 0 0 25 0
25 -115 0 c-63 0 -115 -4 -115 -9z"/>
<path d="M490 3899 c-102 -3 -254 -7 -337 -8 l-153 -1 0 -24 0 -25 348 6 c191
3 349 7 351 10 3 2 0 8 -6 14 -6 6 -9 18 -6 25 3 8 1 13 -3 12 -5 -1 -92 -5
-194 -9z"/>
<path d="M3810 3545 c0 -8 6 -15 14 -15 8 0 17 -4 20 -9 4 -5 -3 -7 -14 -4
-13 3 -20 0 -20 -8 0 -11 20 -13 97 -10 64 2 91 6 78 11 -11 5 -31 9 -45 9
-14 1 -49 10 -77 21 -45 17 -53 18 -53 5z"/>
<path d="M298 3483 c23 -2 59 -2 80 0 20 2 1 4 -43 4 -44 0 -61 -2 -37 -4z"/>
<path d="M733 3483 c9 -2 23 -2 30 0 6 3 -1 5 -18 5 -16 0 -22 -2 -12 -5z"/>
<path d="M1573 3472 c-177 -4 -138 -22 48 -22 l161 0 -16 -22 c-27 -37 -62
-120 -70 -163 -4 -22 -8 -47 -10 -55 -2 -11 -24 -17 -82 -23 -95 -10 -157 -25
-149 -37 3 -4 -1 -14 -8 -22 -8 -7 -12 -18 -10 -25 3 -7 -4 -9 -18 -6 -18 5
-21 3 -16 -10 3 -9 1 -18 -6 -21 -9 -3 -8 -8 3 -16 12 -8 9 -9 -12 -4 -24 5
-26 4 -21 -18 7 -27 1 -23 -17 11 -6 13 -8 21 -3 18 4 -3 14 1 21 9 12 13 8
18 -13 15 -5 -1 6 11 25 28 19 17 42 28 50 25 12 -4 12 -3 3 7 -18 18 -71 -9
-135 -69 l-50 -47 -190 -5 c-105 -3 -193 -3 -198 0 -4 3 -9 17 -12 33 l-5 27
94 0 c60 0 92 4 88 10 -3 6 -46 10 -96 10 l-89 0 1 90 c1 54 -2 95 -9 103 -7
8 -8 18 -4 22 4 5 -1 5 -11 2 -10 -4 -25 -7 -33 -7 -8 0 -14 -5 -14 -10 0 -6
10 -8 24 -4 15 4 25 1 29 -9 3 -9 -2 -17 -14 -20 -10 -3 -17 -1 -13 4 3 5 1 9
-5 9 -5 0 -13 -4 -16 -10 -10 -17 -75 -12 -75 5 0 8 5 15 10 15 6 0 10 -4 10
-10 0 -18 18 -11 23 9 3 12 -1 22 -10 25 -20 8 -19 8 -38 -10 -13 -14 -15 -31
-9 -110 l7 -94 -41 0 c-23 0 -44 -4 -47 -10 -4 -6 10 -10 34 -10 43 0 63 -15
31 -23 -11 -3 -20 0 -21 6 0 7 -5 1 -12 -11 -8 -19 -17 -23 -39 -20 -15 3 -28
1 -28 -3 0 -13 -184 2 -192 15 -6 7 -10 8 -15 1 -5 -6 -19 -11 -33 -11 -41 0
-90 -15 -90 -27 0 -8 -4 -7 -12 1 -8 8 -49 12 -120 12 l-108 0 0 -30 0 -30
119 0 c69 0 122 -4 126 -10 4 -6 -38 -10 -119 -10 -119 0 -126 -1 -126 -20 0
-19 7 -20 125 -20 69 0 125 -4 125 -9 0 -5 -55 -10 -122 -10 -67 -1 -124 -4
-127 -6 -2 -3 53 -5 122 -5 125 0 127 0 128 -22 0 -13 1 -37 2 -55 1 -17 -1
-29 -5 -26 -5 2 -8 -1 -8 -6 0 -6 9 -11 20 -11 22 0 27 -15 8 -26 -7 -4 -8 -3
-4 4 4 7 1 12 -8 12 -9 0 -13 -6 -10 -15 8 -21 54 -15 54 7 0 16 10 18 84 18
54 0 86 4 88 11 2 7 16 1 33 -14 l30 -26 -32 -1 c-17 0 -35 5 -38 10 -8 13
-85 13 -85 1 0 -5 -12 -14 -27 -19 l-28 -10 26 -1 c15 -1 29 -8 32 -16 3 -8
14 -12 25 -10 11 2 19 -2 19 -10 0 -8 -7 -11 -15 -7 -10 3 -13 1 -8 -6 5 -8
-1 -12 -16 -13 -13 -1 -43 -3 -68 -4 -25 -1 -56 -6 -70 -10 -19 -5 -21 -4 -10
4 10 7 -22 9 -109 8 -88 -2 -126 -6 -129 -15 -2 -8 15 -13 60 -14 113 -3 202
-1 238 6 20 4 30 4 23 -1 -8 -5 11 -9 47 -9 44 -1 60 2 60 12 0 8 6 14 14 14
18 0 29 31 20 54 -8 21 14 21 83 -1 54 -17 76 -45 28 -35 -15 2 -25 0 -25 -7
0 -6 -3 -10 -7 -10 -5 1 -19 0 -33 -1 -18 -2 -20 -4 -8 -7 10 -2 18 -9 18 -14
0 -5 25 -9 55 -9 l55 0 0 -140 0 -140 -62 -1 c-35 -1 -66 -1 -69 -1 -4 1 -6
-6 -5 -16 2 -26 -41 -28 -49 -3 -6 18 -15 21 -73 21 -37 0 -84 3 -105 6 -24 5
-37 3 -37 -5 0 -6 7 -11 15 -11 8 0 15 -4 15 -10 0 -11 -43 -14 -53 -3 -4 3
-2 12 4 20 9 10 5 13 -19 13 -17 0 -34 -4 -37 -10 -3 -5 3 -10 14 -10 12 0 21
-4 21 -10 0 -12 -19 -12 -84 -4 -30 5 -46 12 -46 21 0 10 -9 13 -27 11 -27 -3
-28 -5 -31 -76 -2 -59 0 -73 13 -78 21 -9 39 10 40 41 2 29 19 35 21 7 3 -57
48 -60 46 -3 0 17 4 31 9 31 5 0 9 -9 9 -21 0 -29 18 -59 35 -59 8 0 15 -5 15
-11 0 -8 4 -9 13 0 15 12 27 5 27 -15 0 -10 -6 -11 -26 -4 -14 6 -35 10 -47 9
-20 -1 -20 -2 3 -8 21 -7 18 -9 -25 -15 -27 -4 -61 -9 -75 -12 -19 -4 -22 -2
-10 6 8 5 11 10 5 10 -5 0 -4 4 4 9 9 6 2 10 -23 13 l-36 4 2 -38 c1 -33 4
-38 22 -36 24 4 35 -30 14 -44 -10 -8 -10 -9 2 -5 8 2 16 16 18 30 3 22 8 27
30 26 18 -1 21 -3 9 -6 -18 -5 -18 -5 0 -19 10 -7 23 -13 28 -14 6 0 3 5 -5
10 -12 7 -12 10 -1 10 7 0 11 6 8 14 -4 10 8 15 46 20 29 3 62 9 75 12 18 5
22 2 22 -15 0 -14 6 -21 19 -21 27 0 51 10 51 22 0 5 -5 6 -10 3 -6 -4 -5 4 1
19 15 32 38 41 58 21 12 -12 13 -19 4 -34 -11 -18 -9 -19 30 -14 23 3 43 7 45
8 1 1 3 17 4 36 1 54 8 80 18 74 6 -3 10 -2 10 4 0 5 -8 12 -18 14 -18 5 68
11 103 7 26 -3 23 3 33 -62 l9 -56 -31 -6 c-106 -18 -343 -59 -411 -72 -176
-33 -185 -35 -185 -50 0 -8 4 -14 8 -14 24 0 279 53 294 61 21 11 56 17 138
24 30 2 79 9 109 14 69 14 71 14 71 -4 0 -8 7 -15 15 -15 8 0 15 8 15 19 0 10
9 21 20 24 25 6 26 -8 3 -23 -14 -8 -10 -10 22 -8 30 2 40 7 39 19 -1 11 7 17
22 17 13 0 24 -3 24 -7 0 -13 56 -27 93 -23 l37 4 0 65 c0 54 3 64 15 59 10
-4 15 1 16 17 1 21 1 20 8 -3 l7 -25 8 25 c7 24 8 23 18 -15 5 -22 7 -55 4
-74 l-5 -34 51 6 c28 4 49 5 47 3 -3 -4 -200 -54 -939 -242 -74 -18 -136 -34
-137 -34 -2 0 -3 -11 -3 -25 0 -35 18 -33 206 21 87 25 181 52 209 60 27 7 51
18 53 23 2 5 12 6 24 3 16 -4 19 -2 13 8 -5 9 -4 11 4 6 6 -4 42 2 79 13 37
11 104 30 149 42 47 13 79 27 76 32 -4 6 0 8 10 4 10 -3 17 -2 17 3 0 5 17 8
37 7 28 -1 37 2 35 12 -2 10 4 12 23 7 15 -4 24 -3 21 2 -3 5 12 8 32 7 20 -1
50 2 65 6 l28 8 -3 -66 c-3 -65 -3 -66 -38 -79 -19 -7 -82 -31 -140 -54 -174
-69 -277 -108 -438 -165 -173 -62 -179 -64 -162 -75 6 -4 42 5 78 20 88 35
209 81 302 115 88 31 97 35 170 67 95 42 215 88 231 88 26 0 -1 -23 -46 -40
-28 -10 -195 -76 -372 -146 l-322 -128 42 -39 41 -38 76 35 c146 68 246 113
315 144 39 17 116 51 173 77 56 25 107 43 112 40 4 -3 7 -24 5 -48 -1 -23 -6
-85 -10 -138 -7 -95 -7 -95 24 -145 l31 -49 -28 -23 c-15 -13 -81 -65 -147
-115 l-120 -92 110 -3 c84 -2 112 -6 118 -17 4 -8 15 -15 24 -15 15 0 15 2 0
18 -10 10 -17 25 -17 34 0 20 50 67 50 47 2 -58 31 -290 40 -313 8 -21 8 -43
0 -81 -14 -66 -6 -101 25 -109 22 -6 23 -10 20 -65 -2 -34 -13 -77 -25 -101
-18 -35 -21 -53 -15 -96 4 -38 11 -54 23 -58 97 -26 137 -25 165 2 23 23 25
21 -32 38 -11 4 -9 10 8 27 13 15 21 36 21 60 0 36 20 65 20 30 1 -13 28 46
30 63 0 1 -15 4 -32 7 -36 5 -61 -4 -95 -36 -13 -11 -26 -18 -29 -14 -8 8 18
48 48 77 27 24 96 28 104 5 12 -31 23 -13 29 50 5 40 3 76 -3 93 -6 15 -13
100 -15 190 l-3 162 78 0 78 0 1 -52 c0 -29 5 -125 9 -213 5 -88 10 -202 11
-252 l2 -93 35 -6 c30 -6 101 5 151 24 10 4 12 -1 8 -19 -6 -22 -5 -22 5 2 8
19 23 29 58 38 64 17 86 34 85 67 0 25 -6 30 -52 44 -72 21 -83 33 -54 64 19
21 24 36 24 88 0 41 -6 75 -17 97 -17 32 -17 40 -2 150 9 65 16 147 16 184 0
36 5 113 11 169 l12 103 140 216 140 216 46 -56 c25 -31 53 -64 62 -74 9 -10
20 -32 23 -49 3 -18 20 -53 37 -79 26 -42 30 -54 24 -92 -7 -48 10 -77 46 -77
11 0 24 -11 31 -25 10 -21 8 -32 -11 -65 -14 -26 -25 -69 -31 -122 -5 -46 -14
-107 -20 -136 -8 -36 -9 -57 -2 -64 6 -6 8 -44 5 -92 l-6 -82 29 -12 c16 -6
37 -12 48 -14 14 -2 23 -23 41 -93 l23 -90 -23 -20 c-28 -25 -38 -74 -20 -98
8 -12 15 -14 20 -8 3 6 11 11 16 11 6 0 8 -4 5 -9 -3 -5 1 -12 9 -15 21 -8 76
4 69 15 -3 5 1 9 8 9 8 0 9 3 3 8 -6 4 -10 65 -10 147 0 136 1 140 22 143 29
4 32 -19 30 -193 -2 -132 -1 -141 20 -162 12 -12 23 -30 26 -40 4 -15 5 -14 6
3 1 13 9 24 21 27 10 3 27 21 37 41 16 35 16 39 -2 92 -21 62 -52 87 -80 64
-8 -7 -12 -17 -8 -24 4 -8 3 -8 -6 0 -10 9 -10 17 -1 34 10 18 18 21 46 17 22
-4 32 -2 28 4 -3 6 2 41 11 80 16 62 20 69 42 69 14 0 39 6 56 14 18 7 44 18
59 24 30 12 30 15 4 101 l-16 53 48 -7 c26 -4 49 -11 50 -16 2 -5 11 -9 19 -9
12 0 8 7 -11 25 -14 13 -26 32 -26 43 0 10 -17 54 -38 98 -83 171 -130 290
-135 343 -5 56 -4 56 30 4 10 -15 11 -13 2 12 -6 16 -17 37 -24 45 -19 21 -32
58 -39 115 -4 28 -12 70 -17 94 -7 30 -6 48 1 55 14 14 12 58 -5 80 -18 23
-20 40 -4 30 15 -9 2 85 -13 104 -6 7 -8 15 -4 19 3 3 6 2 6 -4 0 -6 7 -10 16
-9 11 0 18 -7 19 -21 3 -37 14 -39 21 -4 7 33 18 31 27 -4 3 -15 5 -13 6 8 1
29 25 34 27 6 1 -8 2 -21 3 -29 1 -12 4 -12 12 3 5 9 8 21 4 26 -3 5 -1 12 5
16 6 4 10 -6 10 -24 0 -17 5 -31 10 -31 6 0 10 7 10 15 0 8 5 15 11 15 6 0 10
-15 9 -32 -1 -18 -2 -50 -1 -70 1 -37 2 -37 39 -36 20 1 39 5 42 9 3 4 28 -7
55 -25 28 -19 75 -48 105 -66 53 -31 54 -31 31 -6 -29 31 -11 35 26 6 14 -11
37 -20 50 -20 24 0 214 -99 243 -126 18 -17 -1 -19 -32 -3 -26 14 -35 4 -17
-18 13 -16 12 -17 -3 -5 -10 8 -22 12 -28 10 -6 -2 58 -46 141 -98 182 -114
287 -181 373 -237 l64 -41 1 72 1 71 -83 44 c-45 25 -206 112 -357 194 -287
156 -449 243 -487 261 -24 12 -29 21 -14 30 13 8 42 -4 35 -15 -3 -5 11 -9 31
-9 19 0 43 -4 53 -9 9 -5 41 -21 70 -36 29 -15 63 -28 75 -29 12 -2 40 -15 61
-29 21 -15 43 -27 48 -27 5 0 34 -11 64 -25 30 -14 58 -25 63 -25 5 0 11 -7
15 -15 3 -9 12 -12 22 -8 11 4 15 2 11 -4 -7 -11 41 -36 59 -32 20 5 64 -14
64 -28 0 -10 7 -14 20 -10 11 3 18 2 15 -3 -6 -10 22 -24 50 -24 12 -1 19 -7
17 -16 -3 -12 -1 -12 9 -3 6 6 18 9 26 6 11 -4 11 -8 3 -13 -7 -4 15 -20 55
-39 37 -17 69 -31 71 -31 2 0 4 9 4 19 0 12 -9 23 -22 27 -13 4 -79 33 -148
64 -69 32 -147 67 -175 80 -27 13 -106 49 -174 81 -68 33 -125 59 -127 59 -2
0 -45 20 -97 44 l-94 44 4 38 c10 91 13 100 23 54 l7 -35 8 32 c9 38 35 34 35
-5 0 -31 12 -22 14 10 1 21 10 25 55 19 5 0 11 -13 13 -28 4 -28 4 -28 15 7
11 33 11 34 12 8 1 -16 6 -28 11 -28 6 0 10 12 11 28 1 25 2 24 9 -8 5 -19 7
-62 5 -95 -4 -57 -2 -61 23 -73 42 -21 60 -25 28 -6 -27 15 -28 17 -10 27 10
5 27 18 37 28 20 21 47 15 47 -11 0 -10 9 -20 20 -23 13 -3 20 0 20 9 0 8 -5
14 -12 14 -6 0 -9 3 -5 6 10 10 48 -7 41 -18 -4 -7 -2 -8 4 -4 6 4 46 -5 89
-18 138 -44 253 -74 247 -64 -8 13 37 0 51 -15 7 -7 4 -8 -8 -4 -10 4 -16 3
-13 -2 3 -5 17 -11 31 -13 20 -4 25 -1 25 16 0 19 -12 25 -77 44 -244 70 -280
84 -277 106 2 12 6 42 9 69 9 68 21 58 22 -19 2 -103 16 -99 28 9 4 31 11 57
16 57 8 0 14 -42 11 -82 -1 -14 9 -18 61 -21 l62 -3 -61 -2 c-57 -2 -61 -4
-61 -25 0 -20 10 -26 96 -50 99 -28 153 -37 69 -11 l-47 14 30 30 c25 24 35
27 50 19 11 -5 19 -14 19 -19 0 -6 7 -10 15 -10 8 0 15 6 15 13 0 8 4 7 10 -3
7 -10 10 19 10 91 0 88 -3 108 -16 113 -8 3 -12 10 -9 16 4 6 -28 10 -89 10
-86 0 -95 -2 -101 -20 -3 -11 -13 -20 -22 -20 -8 0 -17 9 -20 20 -6 22 -11 23
-97 21 l-59 -1 7 142 c3 78 8 143 10 145 2 2 32 5 67 6 35 2 73 8 84 15 16 9
-20 11 -165 10 -102 -1 -170 -3 -152 -6 17 -2 32 -7 32 -12 0 -6 26 -9 58 -7
l59 2 -4 -105 c-2 -58 -6 -124 -9 -147 l-5 -43 -74 0 c-63 0 -73 -2 -71 -17 2
-27 -44 -30 -51 -4 -5 20 -12 21 -117 20 -61 -1 -101 -4 -88 -6 29 -6 19 -23
-14 -23 -15 0 -24 6 -24 15 0 10 -9 15 -27 14 -18 -1 -22 -3 -10 -6 17 -4 21
-25 4 -24 -4 1 -32 1 -62 1 -42 0 -55 3 -55 15 0 12 -17 15 -89 15 -80 0 -89
-2 -94 -20 -7 -26 -44 -26 -52 0 -6 20 -31 25 -112 20 l-33 -2 0 150 c0 127 2
151 16 156 21 8 26 8 21 -2 -3 -4 23 -6 56 -4 34 2 69 4 77 3 8 0 147 -2 308
-4 261 -3 330 0 289 16 -6 2 -55 5 -107 5 -353 1 -455 4 -469 15 -10 8 -13 8
-8 1 5 -8 -20 -12 -89 -12 -82 -1 -95 2 -90 14 3 9 6 28 7 42 l1 27 8 -25 c5
-16 8 -19 9 -8 1 14 5 16 26 8 16 -6 34 -6 51 0 31 12 77 13 70 2 -3 -5 1 -9
9 -9 8 0 15 5 15 10 0 5 7 4 15 -3 8 -7 15 -9 15 -5 0 4 8 1 17 -6 15 -12 16
-12 10 4 -5 14 -1 17 25 17 36 0 28 16 -11 22 -26 3 -42 28 -19 28 9 0 14 9
14 23 -1 18 5 22 32 24 17 1 32 -3 32 -8 0 -5 4 -9 8 -9 5 0 9 7 9 15 0 11
-12 15 -44 15 -23 0 -43 5 -43 10 0 6 20 10 45 10 25 0 45 4 45 9 0 5 -6 9
-12 8 -49 -1 -81 4 -72 13 5 5 56 10 112 11 57 0 101 3 99 6 -3 2 -19 5 -36 5
-17 1 -31 5 -31 10 0 8 24 11 65 9 18 -1 18 0 -2 9 -13 5 -23 14 -23 20 0 6
-35 10 -90 10 -53 0 -90 4 -90 10 0 6 36 10 89 10 62 0 91 4 93 12 3 7 24 13
51 14 37 1 47 -2 47 -15 1 -14 3 -13 15 3 14 19 45 16 45 -4 0 -14 77 -13 82
2 6 16 91 19 100 4 6 -8 8 -7 8 2 0 17 29 15 36 -3 4 -11 21 -15 55 -15 27 0
49 -4 49 -10 0 -5 -22 -10 -49 -10 -28 0 -53 -6 -60 -13 -13 -16 -73 -20 -82
-6 -4 6 -9 4 -13 -6 -5 -13 0 -16 27 -15 48 3 59 1 52 -10 -3 -5 -21 -8 -40
-6 -19 1 -32 -1 -29 -6 3 -4 61 -7 130 -5 73 2 128 -1 134 -7 7 -7 10 -3 10
12 0 12 5 22 10 22 6 0 9 -5 8 -12 -4 -15 84 -20 130 -8 19 5 32 5 32 -1 0 -5
45 -9 100 -9 l100 0 0 35 0 35 -184 0 c-138 0 -186 -3 -189 -12 -3 -7 -6 -3
-6 10 l-1 23 190 -3 190 -3 0 53 c0 33 -4 51 -10 47 -5 -3 -10 -13 -10 -21 0
-8 -6 -14 -12 -14 -7 0 -80 -3 -162 -7 l-148 -6 22 42 c17 35 20 50 13 80 -8
32 -13 36 -42 39 -62 6 -81 -4 -81 -44 0 -19 -7 -50 -14 -69 -16 -38 -12 -37
-138 -35 -43 1 -78 -3 -78 -8 0 -10 -36 -9 -46 1 -12 12 -74 8 -74 -4 0 -8 -4
-8 -14 0 -10 9 -16 9 -21 1 -5 -8 -11 -8 -21 1 -11 9 -17 9 -28 0 -8 -7 -16
-8 -18 -2 -4 11 -148 18 -165 8 -7 -5 -13 -4 -13 2 0 6 -13 11 -30 11 -16 0
-30 4 -30 8 0 5 -6 9 -12 9 -7 0 -40 4 -73 7 -65 8 -195 -12 -173 -26 7 -4
-18 -7 -57 -7 -53 1 -63 3 -40 9 29 7 29 8 5 10 -14 2 -31 3 -37 3 -7 -1 -13
3 -13 8 0 12 -87 12 -95 -1 -3 -5 -12 -7 -20 -4 -7 3 -23 0 -35 -6 -13 -7 -81
-11 -181 -11 -161 -1 -189 5 -189 37 0 26 40 34 161 34 67 0 120 3 116 6 -3 3
-57 7 -119 9 -62 1 -112 5 -110 8 5 12 10 31 23 91 7 32 19 64 26 71 18 19 16
50 -7 93 -25 47 -41 67 -60 75 -8 3 18 6 58 6 58 1 72 4 72 17 0 15 -123 17
-547 6z m-783 -232 c0 -5 -2 -10 -4 -10 -3 0 -8 5 -11 10 -3 6 -1 10 4 10 6 0
11 -4 11 -10z m1018 -52 c24 -11 41 -22 39 -24 -2 -2 -33 9 -68 26 -35 17 -53
28 -39 24 14 -3 44 -15 68 -26z m-1015 -138 c2 -85 2 -137 0 -115 -2 22 -8 44
-12 48 -11 11 -59 -2 -64 -16 -3 -7 -2 2 0 18 5 34 5 79 -2 145 -3 25 -2 39 1
33 3 -7 19 -13 35 -13 26 0 29 3 29 32 0 17 2 29 4 27 2 -2 6 -74 9 -159z
m1054 -16 c-3 -3 -12 -4 -19 -1 -8 3 -5 6 6 6 11 1 17 -2 13 -5z m-51 -29
c-20 -15 -20 -15 0 -29 24 -18 17 -26 -17 -19 -21 4 -26 9 -21 26 6 25 20 37
42 37 11 -1 10 -4 -4 -15z m-481 -4 c-3 -5 -1 -12 5 -16 5 -3 10 -1 10 4 0 15
13 14 36 -4 16 -13 17 -16 4 -25 -13 -8 -13 -10 3 -10 10 0 17 -8 17 -20 0
-16 5 -19 29 -14 16 3 31 2 35 -4 8 -13 -22 -24 -45 -17 -9 3 -20 1 -24 -5 -3
-5 -1 -10 6 -10 7 0 -5 -15 -26 -34 -21 -19 -43 -34 -48 -33 -5 1 -12 -4 -14
-10 -3 -7 0 -13 6 -13 6 0 11 -9 11 -20 0 -20 11 -28 47 -35 29 -5 29 -6 10
-13 -17 -7 -16 -9 3 -30 11 -12 29 -22 40 -22 10 0 21 -4 25 -9 3 -6 39 -17
80 -26 71 -16 108 -35 68 -35 -15 0 -16 -2 -3 -10 9 -6 17 -5 21 2 4 7 27 -1
62 -23 31 -18 55 -34 54 -36 -1 -1 -41 9 -87 22 -47 14 -101 25 -120 25 -49 0
-140 25 -184 50 -44 24 -72 27 -33 2 31 -19 34 -30 11 -39 -13 -5 -13 -7 -2
-14 7 -5 20 -8 28 -8 10 0 8 3 -5 9 -16 7 -17 9 -3 9 9 1 21 -5 25 -11 4 -7
24 -19 43 -26 151 -58 157 -60 130 -41 -14 10 63 6 130 -7 22 -5 23 -4 7 6
-10 6 -44 14 -75 16 -86 7 -122 14 -122 23 0 26 272 -24 324 -60 40 -27 40
-40 0 -15 -14 10 -28 16 -30 13 -2 -2 17 -15 43 -29 29 -15 48 -31 48 -42 0
-9 6 -21 14 -25 11 -7 9 -13 -8 -30 -19 -19 -26 -19 -22 2 1 5 -3 6 -9 2 -5
-3 -22 2 -38 12 -69 48 -159 85 -254 107 -56 13 -123 32 -148 43 -113 51 -140
61 -144 55 -2 -4 30 -25 72 -47 l77 -40 -35 -5 -35 -6 40 -7 c22 -5 76 -10
120 -13 101 -7 145 -18 220 -56 104 -52 108 -55 90 -61 -8 -4 -30 2 -48 13
-17 11 -39 20 -47 19 -8 0 3 -8 25 -18 43 -19 65 -40 69 -65 1 -8 11 -25 21
-38 l20 -23 -25 21 c-31 25 -69 48 -95 57 -16 6 -15 3 5 -14 18 -15 19 -18 5
-11 -11 6 -38 15 -60 21 l-40 10 25 -19 c13 -10 27 -17 30 -15 3 2 16 -3 30
-11 30 -16 18 -19 -13 -3 -14 7 -18 7 -12 1 6 -6 34 -22 63 -37 28 -14 52 -28
52 -30 0 -12 -73 21 -122 55 -31 22 -63 40 -70 40 -7 -1 -1 -8 15 -16 15 -8
27 -17 27 -20 0 -2 -12 -2 -27 1 l-28 6 24 -14 c14 -8 30 -13 36 -10 7 2 17
-3 24 -11 11 -12 8 -14 -16 -11 -16 2 -36 -1 -44 -6 -10 -7 -5 -9 21 -8 63 2
86 -1 104 -14 16 -12 11 -13 -40 -11 -33 2 -81 5 -107 8 -31 4 -46 3 -42 -4 4
-6 -1 -7 -10 -3 -12 4 -13 8 -5 13 8 5 7 9 -4 13 -8 3 -18 2 -21 -4 -9 -14
-86 -7 -81 8 3 6 -9 16 -26 22 -38 13 -38 13 -38 1 0 -5 9 -10 20 -10 11 0 20
-4 20 -10 0 -12 -44 -7 -83 9 -47 19 -76 23 -103 17 -15 -4 -24 -9 -21 -12 2
-3 71 -18 153 -33 227 -44 227 -43 219 -32 -4 7 3 7 22 -1 27 -11 90 -23 182
-35 27 -3 46 -1 50 6 8 12 188 18 199 7 12 -13 -12 -20 -74 -22 -76 -2 -100
-14 -27 -14 30 0 55 -5 62 -14 8 -9 26 -12 62 -8 56 5 58 1 16 -45 -11 -13
-17 -23 -12 -23 4 0 -3 -9 -16 -21 -13 -12 -23 -26 -21 -31 1 -5 -2 -7 -7 -3
-6 3 -32 -21 -58 -54 -26 -33 -51 -60 -55 -60 -5 -1 -8 25 -8 58 0 58 1 59 50
102 65 57 71 109 6 58 -14 -11 -31 -17 -37 -13 -7 4 -9 3 -6 -3 9 -15 -21 -39
-33 -27 -14 14 -23 84 -11 84 6 0 11 5 11 10 0 15 -36 12 -49 -4 -13 -15 -145
-20 -135 -5 3 5 -2 6 -11 3 -9 -4 -145 15 -304 42 l-288 47 5 44 c2 24 1 43
-4 42 -28 -5 -54 3 -54 16 0 13 -15 15 -95 13 -83 -3 -95 -5 -95 -20 0 -11 -8
-18 -20 -18 -11 0 -20 6 -20 14 0 18 -14 22 -85 25 -33 1 -61 4 -64 6 -2 3 -6
68 -9 146 l-5 141 47 -3 c25 -2 46 -1 46 3 0 5 9 8 20 8 11 0 20 -6 20 -12 0
-10 3 -9 9 1 7 11 20 11 73 2 75 -13 102 -13 73 -1 -14 6 -2 9 42 9 73 1 83
-9 83 -84 0 -49 27 -185 40 -198 4 -5 10 12 12 38 3 26 25 83 51 133 54 106
62 129 86 264 11 58 26 121 35 140 9 19 18 44 21 56 4 24 13 42 21 42 3 0 3
-4 -1 -9z m-105 -40 c-12 -17 -19 -31 -16 -31 3 0 -3 -9 -14 -20 -26 -26 -25
-34 6 -55 21 -14 24 -21 18 -47 -5 -27 -57 -123 -73 -138 -4 -3 -7 -32 -9 -65
-2 -33 -8 -64 -13 -69 -5 -6 -9 -20 -9 -32 0 -26 -15 -40 -25 -23 -4 6 -8 53
-10 105 -1 52 -5 98 -9 102 -11 10 -26 -21 -20 -40 5 -16 -4 -18 -78 -20 -86
-2 -91 -2 -198 2 -36 1 -78 -1 -94 -5 -20 -6 -27 -5 -22 3 3 6 2 13 -3 16 -5
4 -12 -2 -14 -11 -3 -10 -5 3 -6 30 -1 48 6 56 27 35 9 -9 12 -9 12 0 0 7 9
12 21 12 12 0 17 -4 14 -11 -5 -7 7 -8 39 -4 31 5 46 4 46 -4 0 -6 6 -8 14 -5
7 3 31 -2 52 -11 25 -10 34 -11 27 -4 -21 21 -15 29 20 30 l32 1 -37 10 c-28
7 -39 17 -47 40 -6 17 -11 33 -11 34 0 2 23 4 50 4 30 0 50 -4 50 -11 0 -8 4
-8 13 -1 6 5 21 12 32 14 11 2 -19 8 -68 12 -48 4 -85 12 -81 17 3 5 67 10
142 11 l137 2 -135 3 c-74 2 -139 8 -144 13 -7 7 -4 10 7 10 9 0 17 6 17 13 0
9 2 9 9 -1 6 -10 32 -12 107 -8 164 8 174 9 99 16 l-70 6 72 2 c60 2 74 5 83
21 5 11 10 23 10 26 0 4 -35 6 -77 5 -119 -3 -217 -1 -211 5 3 3 73 7 157 8
140 3 153 5 173 25 30 30 35 20 8 -17z m630 29 c0 -5 -2 -10 -4 -10 -3 0 -8 5
-11 10 -3 6 -1 10 4 10 6 0 11 -4 11 -10z m194 -21 c-8 -14 32 -19 152 -19 81
0 123 -4 119 -10 -4 -6 -57 -10 -126 -10 -117 0 -119 0 -100 -19 14 -14 38
-20 88 -24 60 -3 123 -14 130 -21 1 -1 3 -30 4 -64 l2 -62 92 0 c70 0 96 -4
105 -15 11 -13 7 -15 -29 -15 -22 0 -41 5 -41 10 0 13 -77 13 -82 1 -1 -5 -19
-11 -38 -13 -31 -3 -35 -1 -32 20 1 13 -5 30 -13 38 -12 13 -14 10 -10 -20 l5
-34 -48 -4 c-61 -4 -94 1 -86 13 3 6 -5 7 -23 4 -18 -4 -24 -3 -15 3 10 7 10
11 -2 21 -11 9 -20 10 -38 1 -22 -11 -22 -10 2 9 32 25 21 37 -17 17 -17 -8
-35 -11 -42 -6 -10 6 -8 9 8 15 24 7 27 27 7 45 -8 6 -12 19 -9 28 6 15 5 15
-10 3 -10 -8 -21 -11 -24 -7 -4 4 -2 11 6 15 10 7 10 9 -1 13 -12 5 -14 23 -8
73 0 6 7 1 15 -9 8 -11 13 -27 10 -36 -3 -10 1 -16 13 -17 15 -1 17 4 14 28
-2 16 -8 32 -13 35 -17 10 -9 22 15 20 13 0 22 -4 20 -7z m1544 -8 c3 -8 -1
-12 -9 -9 -7 2 -15 10 -17 17 -3 8 1 12 9 9 7 -2 15 -10 17 -17z m-2960 -12
c-2 -6 -7 -10 -11 -10 -4 1 -38 1 -77 1 -40 0 -70 4 -70 10 0 6 34 10 81 10
53 0 79 -4 77 -11z m1222 -4 c-7 -8 -17 -15 -23 -15 -6 0 -2 7 9 15 25 19 30
19 14 0z m1007 -17 c-3 -7 -5 -2 -5 12 0 14 2 19 5 13 2 -7 2 -19 0 -25z m763
7 c0 -17 -5 -25 -17 -24 -11 0 -13 3 -5 6 6 2 10 9 6 14 -5 9 3 29 12 29 2 0
4 -11 4 -25z m-1793 -37 c64 -89 67 -95 19 -44 -25 26 -46 53 -46 58 0 6 -7 5
-15 -2 -13 -11 -8 -20 37 -67 29 -29 55 -58 57 -65 2 -6 -24 17 -58 51 -62 62
-77 69 -111 51 -15 -8 -24 -5 -44 15 -15 14 -26 28 -26 31 0 7 38 -15 45 -26
10 -16 25 -12 25 6 0 21 29 43 57 44 14 0 33 -17 60 -52z m777 36 c4 -9 4 -19
1 -22 -3 -3 -5 0 -5 6 0 8 -19 12 -50 12 -27 0 -50 5 -50 10 0 6 22 10 49 10
36 0 51 -4 55 -16z m86 6 c0 -5 -16 -10 -35 -10 -19 0 -35 5 -35 10 0 6 16 10
35 10 19 0 35 -4 35 -10z m27 -12 c-3 -8 -6 -5 -6 6 -1 11 2 17 5 13 3 -3 4
-12 1 -19z m-846 -37 c6 -14 5 -20 -1 -16 -6 3 -10 12 -10 20 0 7 -5 16 -10
18 -6 3 -5 4 1 3 7 -1 16 -12 20 -25z m81 -17 c2 -19 0 -37 -4 -40 -7 -5 -13
34 -9 65 2 8 -2 10 -10 5 -8 -4 -10 -3 -5 5 12 18 23 4 28 -35z m245 40 c-3
-3 -12 -4 -19 -1 -8 3 -5 6 6 6 11 1 17 -2 13 -5z m1280 0 c-3 -3 -12 -4 -19
-1 -8 3 -5 6 6 6 11 1 17 -2 13 -5z m46 -1 c-7 -2 -19 -2 -25 0 -7 3 -2 5 12
5 14 0 19 -2 13 -5z m-46 -29 c2 -5 -6 -10 -17 -10 -20 0 -25 7 -13 20 9 8 26
3 30 -10z m-1867 2 c0 -2 -7 -9 -15 -16 -13 -11 -14 -10 -9 4 5 14 24 23 24
12z m1400 -6 c0 -5 -7 -7 -15 -4 -8 4 -15 8 -15 10 0 2 7 4 15 4 8 0 15 -4 15
-10z m-1363 -6 c-3 -3 -12 -4 -19 -1 -8 3 -5 6 6 6 11 1 17 -2 13 -5z m128
-20 c9 -14 33 -41 52 -60 42 -41 61 -94 34 -94 -10 0 -28 12 -42 26 -13 14
-49 39 -79 55 -30 15 -50 28 -44 29 19 0 99 -42 128 -69 16 -14 27 -19 24 -12
-2 8 -37 38 -77 65 -40 28 -68 52 -62 54 6 2 16 -1 23 -7 47 -40 62 -51 71
-51 11 0 -21 39 -58 72 -17 15 -17 17 -4 18 9 0 24 -12 34 -26z m876 6 c21 0
39 -4 39 -9 0 -6 -45 -10 -100 -10 -63 0 -99 3 -95 9 3 6 26 10 50 10 24 0 47
5 51 12 6 9 9 9 12 0 2 -7 21 -12 43 -12z m-2021 -8 c0 -7 -134 -5 -155 3 -5
2 27 4 73 4 45 1 82 -2 82 -7z m930 -1 c0 -5 20 -12 44 -15 25 -4 52 -16 62
-28 11 -11 44 -33 74 -48 30 -16 67 -40 82 -54 15 -14 32 -26 38 -26 5 0 10
-4 10 -10 0 -15 -8 -13 -53 18 -23 15 -47 28 -52 29 -6 1 -23 5 -39 9 -21 5
-27 4 -22 -5 4 -6 14 -11 23 -11 29 0 83 -32 81 -48 -2 -8 3 -17 11 -20 8 -3
11 0 7 7 -10 15 9 14 22 -1 5 -7 13 -24 17 -38 7 -23 7 -23 -9 -7 -10 9 -15
21 -12 26 3 4 -9 5 -27 2 -23 -5 -32 -12 -30 -26 1 -14 -11 -6 -43 27 -24 26
-61 52 -82 59 -20 7 -57 23 -81 36 -24 12 -51 23 -60 23 -13 0 -13 2 -2 9 15
10 69 -9 111 -39 14 -9 39 -20 55 -24 17 -4 45 -21 62 -39 18 -17 36 -27 40
-23 9 9 -46 61 -76 71 -13 4 -20 12 -17 20 3 8 0 16 -7 19 -7 3 -3 4 8 1 11
-2 34 -7 50 -11 17 -3 -23 20 -87 52 -106 53 -136 74 -108 74 6 0 10 -4 10 -9z
m344 -7 c3 -8 2 -12 -4 -9 -6 3 -10 10 -10 16 0 14 7 11 14 -7z m-1275 -43
c-1 -17 -3 -20 -6 -8 -4 14 -16 17 -74 17 -42 0 -69 4 -69 11 0 6 28 9 75 8
74 -2 75 -2 74 -28z m1971 9 c0 -5 -25 -10 -55 -10 -30 0 -55 5 -55 10 0 6 25
10 55 10 30 0 55 -4 55 -10z m90 0 c0 -5 -18 -10 -40 -10 -22 0 -40 5 -40 10
0 6 18 10 40 10 22 0 40 -4 40 -10z m-1096 -35 c11 -8 29 -12 42 -9 12 3 25 0
29 -6 5 -9 1 -10 -16 -6 -21 6 -21 5 4 -9 33 -19 37 -41 5 -24 -13 6 -30 17
-38 25 -8 7 -29 20 -45 28 -17 9 -23 16 -15 16 8 -1 24 -7 34 -15z m1093 -16
c-4 -16 1 -19 40 -19 27 0 42 -4 38 -10 -11 -17 -71 -11 -99 11 -34 27 -34 48
0 41 19 -3 24 -9 21 -23z m-1262 1 c10 -11 23 -20 28 -20 15 0 198 -112 193
-117 -14 -14 -256 130 -256 152 0 11 18 3 35 -15z m-681 -25 c7 -18 -9 -19
-49 0 l-30 13 36 1 c24 1 39 -4 43 -14z m1313 -21 c-3 -3 -12 -4 -19 -1 -8 3
-5 6 6 6 11 1 17 -2 13 -5z m-426 -31 c37 -14 71 -33 74 -41 5 -13 3 -13 -12
-1 -15 12 -15 12 -7 -4 6 -10 43 -40 83 -67 41 -28 71 -50 67 -50 -15 0 -155
87 -150 93 4 3 -8 14 -25 25 -17 10 -29 21 -26 24 3 3 -13 11 -35 18 -23 8
-43 17 -46 22 -8 13 4 10 77 -19z m661 -1 c-1 -9 2 -11 10 -6 16 10 48 13 53
4 2 -3 20 -5 39 -5 33 1 41 -5 37 -28 -1 -5 3 -6 9 -2 5 3 10 15 10 25 0 16 8
18 69 17 l69 -2 4 -32 c4 -37 10 -34 -92 -35 -36 0 -53 -2 -37 -5 15 -2 25 -9
21 -15 -4 -6 13 -9 50 -6 l56 3 0 -142 0 -143 -57 0 c-50 0 -55 -2 -38 -14 17
-12 17 -13 -9 -18 -23 -5 -27 -3 -23 13 3 12 0 19 -9 19 -8 0 -14 -9 -14 -20
0 -15 -7 -20 -26 -20 -22 0 -25 4 -21 20 5 20 2 21 -66 18 -58 -2 -71 -6 -68
-18 1 -8 7 -35 11 -60 4 -25 8 -34 9 -21 1 34 14 18 18 -25 2 -23 0 -33 -7
-29 -6 3 -7 11 -4 17 4 6 3 8 -3 5 -6 -4 -9 -22 -7 -42 1 -19 0 -35 -2 -35
-10 0 -74 70 -74 80 0 6 -7 13 -16 17 -8 3 -20 15 -25 27 -12 27 -52 83 -84
119 -14 15 -25 35 -25 45 0 9 -9 28 -20 42 -11 14 -20 33 -20 42 0 10 -10 45
-21 79 -18 51 -19 63 -8 71 21 14 145 3 163 -14 11 -11 33 -15 88 -12 40 1 81
-2 91 -8 15 -7 18 -7 12 2 -6 9 0 10 22 6 22 -5 32 -3 36 7 4 12 -15 15 -115
16 -66 0 -124 3 -129 6 -5 4 -9 17 -9 31 0 13 -4 24 -10 24 -5 0 -10 4 -10 9
0 5 39 8 88 7 66 -1 86 -4 84 -14z m-394 -68 c-4 -3 -12 5 -18 18 -12 22 -12
22 6 6 10 -10 15 -20 12 -24z m-1493 6 c-27 -12 -43 -12 -25 0 8 5 22 9 30 9
10 0 8 -3 -5 -9z m1447 -54 l21 -31 -36 34 c-21 19 -37 39 -37 44 0 14 28 -11
52 -47z m179 -272 c9 -11 8 -14 -5 -14 -9 0 -16 7 -16 15 0 12 -13 15 -55 15
-30 0 -55 3 -55 8 0 4 7 28 14 54 8 25 12 49 9 52 -4 3 2 25 13 48 l19 42 32
-103 c18 -57 38 -110 44 -117z m-195 40 c-4 -9 -1 -23 5 -30 6 -8 8 -14 4 -14
-4 0 -15 10 -25 22 -13 17 -15 25 -7 30 20 13 29 9 23 -8z m-1271 -34 c-3 -5
-15 -10 -26 -10 -10 0 -19 5 -19 10 0 6 12 10 26 10 14 0 23 -4 19 -10z m225
-1 c0 -5 -11 -9 -25 -9 -14 0 -25 4 -25 9 0 5 11 9 25 9 14 0 25 -4 25 -9z
m1920 -19 c0 -5 -4 -10 -10 -10 -5 0 -10 5 -10 10 0 6 5 10 10 10 6 0 10 -4
10 -10z m30 6 c0 -3 -4 -8 -10 -11 -5 -3 -10 -1 -10 4 0 6 5 11 10 11 6 0 10
-2 10 -4z m730 -6 c0 -5 -4 -10 -10 -10 -5 0 -10 5 -10 10 0 6 5 10 10 10 6 0
10 -4 10 -10z m260 1 c0 -5 -11 -8 -25 -8 -14 0 -25 3 -25 8 0 5 11 9 25 9 14
0 25 -4 25 -9z m-1130 -26 c-19 -7 -29 -14 -22 -14 18 -1 10 -31 -37 -136 -15
-32 -19 -51 -12 -53 6 -2 11 -9 11 -15 0 -6 -8 -4 -17 6 -16 16 -16 19 -1 45
10 16 14 38 11 55 -8 39 -23 33 -23 -9 0 -20 -4 -33 -10 -29 -18 11 -23 -44
-7 -77 13 -27 13 -35 1 -52 -9 -14 -10 -23 -3 -32 7 -9 5 -16 -10 -24 -28 -14
-26 -38 5 -106 27 -59 45 -142 25 -114 -6 8 -11 25 -11 37 0 12 -5 25 -12 29
-8 5 -10 -3 -6 -27 3 -19 2 -43 -3 -54 -7 -19 -8 -19 -8 2 -2 39 -11 53 -30
43 -15 -7 -21 -2 -36 32 -10 23 -25 49 -33 59 -16 19 -32 17 -32 -4 0 -7 4 -6
10 3 6 9 10 10 10 3 0 -18 -17 -25 -26 -11 -4 7 -11 31 -14 55 l-7 42 28 -16
c34 -20 43 -14 44 35 0 20 5 43 10 51 6 11 4 13 -8 8 -11 -4 -17 -1 -17 7 0 8
-7 26 -14 42 -8 15 -12 32 -9 37 3 6 1 7 -5 3 -21 -13 -34 33 -27 95 4 32 11
59 16 59 5 0 10 -30 10 -67 l2 -68 10 68 c9 68 27 92 27 38 0 -17 5 -33 10
-36 6 -4 10 8 10 29 0 20 4 36 9 36 11 0 19 -61 16 -122 -1 -27 2 -48 6 -48
10 0 30 35 28 47 -3 13 13 46 45 92 31 44 73 71 111 70 13 0 8 -5 -15 -14z
m110 -5 c0 -5 -2 -10 -4 -10 -3 0 -8 5 -11 10 -3 6 -1 10 4 10 6 0 11 -4 11
-10z m-2511 -57 c1 -7 -5 -13 -12 -13 -9 0 -12 11 -8 38 4 34 5 35 12 12 4
-14 7 -31 8 -37z m741 37 c0 -5 -4 -10 -10 -10 -5 0 -10 5 -10 10 0 6 5 10 10
10 6 0 10 -4 10 -10z m343 3 c-7 -2 -21 -2 -30 0 -10 3 -4 5 12 5 17 0 24 -2
18 -5z m621 -38 c1 -32 -1 -35 -27 -35 -26 0 -27 2 -13 15 8 9 12 23 9 31 -3
9 0 20 8 24 18 12 22 6 23 -35z m42 0 c0 -36 -19 -48 -30 -20 -3 8 -1 15 5 15
6 0 9 6 6 14 -6 14 0 26 13 26 3 0 6 -16 6 -35z m41 -1 c1 -22 -3 -34 -10 -31
-7 2 -12 9 -11 15 1 7 2 21 3 32 2 34 17 22 18 -16z m933 26 c0 -5 -4 -10 -10
-10 -5 0 -10 5 -10 10 0 6 5 10 10 10 6 0 10 -4 10 -10z m218 -91 c-16 -11
-37 -12 -22 -1 6 4 15 30 20 57 l9 50 3 -49 c2 -33 -1 -52 -10 -57z m-439 70
c-8 -5 -17 -3 -21 4 -6 9 -8 8 -8 -2 0 -8 -3 -12 -6 -8 -12 11 6 25 27 20 15
-4 17 -8 8 -14z m-884 -19 c8 -13 -5 -13 -25 0 -13 8 -13 10 2 10 9 0 20 -4
23 -10z m215 1 c0 -6 -4 -13 -10 -16 -5 -3 -10 1 -10 9 0 9 5 16 10 16 6 0 10
-4 10 -9z m1472 -16 c-2 -14 -6 -25 -8 -25 -2 0 -4 11 -4 25 0 14 4 25 9 25 4
0 6 -11 3 -25z m-1317 5 c3 -5 2 -10 -4 -10 -5 0 -13 5 -16 10 -3 6 -2 10 4
10 5 0 13 -4 16 -10z m534 -95 c0 -26 -2 -24 -15 15 -7 25 -13 54 -13 65 1 32
27 -45 28 -80z m-925 76 c4 -5 -3 -7 -14 -4 -23 6 -26 13 -6 13 8 0 17 -4 20
-9z m-744 -11 c0 -5 -4 -10 -10 -10 -5 0 -10 5 -10 10 0 6 5 10 10 10 6 0 10
-4 10 -10z m1060 0 c0 -5 -4 -10 -9 -10 -6 0 -13 5 -16 10 -3 6 1 10 9 10 9 0
16 -4 16 -10z m-1015 -10 c3 -5 -1 -10 -10 -10 -9 0 -13 5 -10 10 3 6 8 10 10
10 2 0 7 -4 10 -10z m2004 6 c-12 -10 -59 -15 -59 -6 0 5 14 10 32 10 17 0 29
-2 27 -4z m475 -11 c3 -8 1 -15 -4 -15 -6 0 -10 7 -10 15 0 8 2 15 4 15 2 0 6
-7 10 -15z m-1444 -15 c0 -5 -4 -10 -10 -10 -5 0 -10 5 -10 10 0 6 5 10 10 10
6 0 10 -4 10 -10z m167 -12 c-3 -8 -6 -5 -6 6 -1 11 2 17 5 13 3 -3 4 -12 1
-19z m680 16 c-3 -3 -12 -4 -19 -1 -8 3 -5 6 6 6 11 1 17 -2 13 -5z m-367 -13
c0 -5 -7 -12 -16 -15 -14 -5 -15 -4 -4 9 14 17 20 19 20 6z m-43 -18 c-4 -3
-2 -12 4 -19 11 -13 5 -34 -11 -34 -14 0 -21 32 -9 46 6 8 14 14 17 14 3 0 2
-3 -1 -7z m-817 -13 c-34 -11 -80 -12 -80 -2 0 5 24 9 53 10 40 0 46 -2 27 -8z
m860 -19 c0 -11 -4 -23 -10 -26 -6 -4 -10 5 -10 19 0 14 5 26 10 26 6 0 10 -9
10 -19z m80 2 c-1 -24 -24 -53 -41 -53 -9 1 -5 8 10 20 13 12 21 26 17 35 -3
8 -1 15 4 15 6 0 10 -8 10 -17z m-610 -103 c-6 -11 -13 -20 -16 -20 -2 0 0 9
6 20 6 11 13 20 16 20 2 0 0 -9 -6 -20z m625 -8 c-3 -3 -11 0 -18 7 -9 10 -8
11 6 5 10 -3 15 -9 12 -12z m-662 -19 c-7 -3 -13 -9 -13 -14 0 -6 5 -7 11 -3
11 6 -61 -105 -85 -133 -25 -29 -32 -39 -39 -55 -3 -10 -11 -18 -17 -18 -7 0
-8 6 0 19 5 11 10 30 10 43 0 29 42 109 54 105 10 -3 46 28 46 39 0 10 34 33
40 27 3 -3 -1 -8 -7 -10z m-943 -63 c0 -17 -5 -19 -27 -14 -20 4 -24 3 -14 -4
11 -8 -1 -17 -50 -41 -35 -17 -54 -24 -41 -15 26 20 29 36 5 27 -15 -5 -14 -3
2 10 23 18 39 22 30 7 -3 -5 3 -10 14 -10 22 0 40 20 19 20 -10 1 46 37 60 40
1 0 2 -9 2 -20z m2442 -89 c28 -33 6 -24 -27 11 -20 21 -23 28 -10 20 11 -6
28 -20 37 -31z m-1167 9 c3 -5 1 -10 -4 -10 -6 0 -11 5 -11 10 0 6 2 10 4 10
3 0 8 -4 11 -10z m15 -30 c0 -5 -2 -10 -4 -10 -3 0 -8 5 -11 10 -3 6 -1 10 4
10 6 0 11 -4 11 -10z m1249 -30 c12 0 21 -4 21 -10 0 -5 7 -10 15 -10 8 0 15
-4 15 -10 0 -17 44 -51 59 -45 9 3 12 3 9 -1 -4 -3 3 -15 15 -25 27 -24 -129
69 -166 98 -15 11 -27 27 -27 34 1 9 8 5 19 -8 11 -13 29 -23 40 -23z m-1189
-20 c0 -5 -4 -10 -10 -10 -5 0 -10 5 -10 10 0 6 5 10 10 10 6 0 10 -4 10 -10z
m-870 -204 c0 -10 -32 -55 -72 -100 -40 -44 -76 -85 -80 -91 -4 -5 -8 12 -8
39 0 43 2 48 30 58 42 14 47 29 56 143 l7 98 33 -64 c18 -35 33 -72 34 -83z
m2270 109 c15 -9 19 -15 10 -15 -11 0 -9 -4 5 -13 21 -12 26 -14 48 -16 7 0
22 -9 33 -19 10 -10 28 -22 39 -26 12 -5 15 -10 8 -13 -14 -5 -93 36 -93 49 0
4 -6 5 -13 2 -7 -2 -28 11 -47 31 -36 37 -32 44 10 20z m-2280 -229 c0 -2 -8
-10 -17 -17 -16 -13 -17 -12 -4 4 13 16 21 21 21 13z m1310 -21 c7 -9 8 -15 2
-15 -5 0 -12 7 -16 15 -3 8 -4 15 -2 15 2 0 9 -7 16 -15z m-1734 -21 c-3 -9
-6 -19 -6 -22 0 -4 -9 -13 -20 -20 -18 -11 -19 -11 -11 5 5 10 12 26 15 36 3
9 10 17 17 17 6 0 8 -7 5 -16z m436 -60 c-8 -15 -10 -15 -15 0 -4 9 -2 16 3
16 6 0 11 8 11 18 1 16 2 16 6 0 2 -10 0 -25 -5 -34z m-72 22 c0 -2 -8 -10
-17 -17 -16 -13 -17 -12 -4 4 13 16 21 21 21 13z m1400 -29 c0 -5 -4 -5 -10
-2 -5 3 -10 14 -10 23 0 15 2 15 10 2 5 -8 10 -19 10 -23z m-1455 -27 c-3 -5
-12 -10 -18 -10 -7 0 -6 4 3 10 19 12 23 12 15 0z m1443 -25 c-3 -3 -9 2 -12
12 -6 14 -5 15 5 6 7 -7 10 -15 7 -18z m-341 -511 c-3 -3 -12 -4 -19 -1 -8 3
-5 6 6 6 11 1 17 -2 13 -5z m-612 -24 c-3 -5 -12 -10 -18 -10 -7 0 -6 4 3 10
19 12 23 12 15 0z m-288 -66 c-3 -3 -12 -4 -19 -1 -8 3 -5 6 6 6 11 1 17 -2
13 -5z m80 0 c-3 -3 -12 -4 -19 -1 -8 3 -5 6 6 6 11 1 17 -2 13 -5z"/>
<path d="M1330 2660 c0 -11 65 -30 100 -30 24 1 24 1 -5 14 -42 18 -95 27 -95
16z"/>
<path d="M1568 2490 c25 -11 192 -33 198 -27 6 6 -98 25 -166 31 -40 4 -49 3
-32 -4z"/>
<path d="M1390 2400 c-22 -6 -23 -8 -7 -15 10 -4 33 -5 52 -2 35 6 182 -6 225
-19 18 -5 22 -4 15 4 -22 24 -233 48 -285 32z"/>
<path d="M1050 2310 c0 -5 12 -10 26 -10 14 0 23 4 19 10 -3 6 -15 10 -26 10
-10 0 -19 -4 -19 -10z"/>
<path d="M1760 2316 c0 -2 8 -10 18 -17 15 -13 16 -12 3 4 -13 16 -21 21 -21
13z"/>
<path d="M1555 2300 c27 -12 43 -12 25 0 -8 5 -22 9 -30 9 -10 0 -8 -3 5 -9z"/>
<path d="M1488 2213 c7 -3 16 -2 19 1 4 3 -2 6 -13 5 -11 0 -14 -3 -6 -6z"/>
<path d="M1221 2196 c2 -2 18 -6 34 -10 22 -5 26 -4 15 4 -14 9 -59 15 -49 6z"/>
<path d="M1000 2796 c0 -2 9 -6 20 -9 11 -3 18 -1 14 4 -5 9 -34 13 -34 5z"/>
<path d="M857 2739 c7 -7 15 -10 18 -7 3 3 -2 9 -12 12 -14 6 -15 5 -6 -5z"/>
<path d="M975 2740 c3 -5 11 -10 16 -10 6 0 7 5 4 10 -3 6 -11 10 -16 10 -6 0
-7 -4 -4 -10z"/>
<path d="M943 2703 c9 -2 23 -2 30 0 6 3 -1 5 -18 5 -16 0 -22 -2 -12 -5z"/>
<path d="M998 2703 c7 -3 16 -2 19 1 4 3 -2 6 -13 5 -11 0 -14 -3 -6 -6z"/>
<path d="M630 2691 c0 -6 4 -13 10 -16 6 -3 7 1 4 9 -7 18 -14 21 -14 7z"/>
<path d="M2118 2863 c7 -3 16 -2 19 1 4 3 -2 6 -13 5 -11 0 -14 -3 -6 -6z"/>
<path d="M2095 2800 c3 -5 8 -10 11 -10 2 0 4 5 4 10 0 6 -5 10 -11 10 -5 0
-7 -4 -4 -10z"/>
<path d="M2240 2796 c0 -2 11 -6 25 -8 14 -3 25 -1 25 3 0 5 -11 9 -25 9 -14
0 -25 -2 -25 -4z"/>
<path d="M1760 2929 c0 -5 5 -7 10 -4 6 3 10 8 10 11 0 2 -4 4 -10 4 -5 0 -10
-5 -10 -11z"/>
<path d="M2172 2400 c7 -10 14 -18 15 -16 6 6 -9 36 -18 36 -5 0 -4 -9 3 -20z"/>
<path d="M2104 2376 c-8 -22 4 -36 32 -36 31 0 31 13 -1 34 -22 15 -26 15 -31
2z"/>
<path d="M2515 2199 c-4 -6 -5 -12 -2 -15 2 -3 7 2 10 11 7 17 1 20 -8 4z"/>
<path d="M2377 2143 c-10 -9 -9 -43 1 -43 4 0 9 11 10 25 2 26 0 29 -11 18z"/>
<path d="M2466 2123 c-6 -14 -5 -15 5 -6 7 7 10 15 7 18 -3 3 -9 -2 -12 -12z"/>
<path d="M1998 1883 c-22 -26 -30 -43 -21 -43 5 0 17 14 26 30 20 34 18 39 -5
13z"/>
<path d="M1935 1796 c-16 -13 -28 -26 -25 -28 3 -2 18 9 35 24 36 34 31 37
-10 4z"/>
<path d="M3750 3460 c0 -5 5 -10 10 -10 6 0 10 5 10 10 0 6 -4 10 -10 10 -5 0
-10 -4 -10 -10z"/>
<path d="M0 3445 c0 -13 18 -15 116 -15 88 0 115 3 112 13 -3 8 -38 13 -116
15 -95 2 -112 0 -112 -13z"/>
<path d="M655 3310 c-3 -5 -1 -10 4 -10 6 0 11 5 11 10 0 6 -2 10 -4 10 -3 0
-8 -4 -11 -10z"/>
<path d="M3180 3250 c0 -9 495 -20 520 -12 6 2 10 8 10 13 0 5 -111 9 -265 9
-164 0 -265 -4 -265 -10z"/>
<path d="M920 3240 c0 -6 93 -10 260 -10 167 0 260 4 260 10 0 6 -93 10 -260
10 -167 0 -260 -4 -260 -10z"/>
<path d="M3197 2909 c-17 -19 -17 -20 48 -18 36 1 68 6 72 12 3 6 1 7 -6 3 -6
-4 -14 0 -17 8 -9 23 -74 19 -97 -5z"/>
<path d="M3115 2900 c-2 -3 7 -7 20 -8 13 -1 26 2 29 6 2 4 -7 7 -21 7 -14 0
-26 -2 -28 -5z"/>
<path d="M8 2803 c7 -3 16 -2 19 1 4 3 -2 6 -13 5 -11 0 -14 -3 -6 -6z"/>
<path d="M3602 2713 l2 -88 5 80 c6 74 8 80 31 86 23 6 22 7 -7 8 l-33 1 2
-87z"/>
<path d="M3678 2793 c7 -3 16 -2 19 1 4 3 -2 6 -13 5 -11 0 -14 -3 -6 -6z"/>
<path d="M3743 2793 c9 -2 23 -2 30 0 6 3 -1 5 -18 5 -16 0 -22 -2 -12 -5z"/>
<path d="M3815 2770 c3 -5 8 -10 11 -10 2 0 4 5 4 10 0 6 -5 10 -11 10 -5 0
-7 -4 -4 -10z"/>
<path d="M2970 2742 c0 -12 19 -26 26 -19 2 2 -2 10 -11 17 -9 8 -15 8 -15 2z"/>
<path d="M2930 2698 c0 -9 261 -8 320 2 28 5 -25 8 -137 7 -101 -1 -183 -5
-183 -9z"/>
<path d="M3539 2697 c7 -7 18 -7 33 0 22 10 21 11 -10 10 -22 0 -30 -3 -23
-10z"/>
<path d="M3651 2706 c2 -2 26 -6 53 -9 30 -3 43 -1 35 4 -13 8 -97 13 -88 5z"/>
<path d="M3790 2706 c0 -8 61 -12 66 -4 3 4 -11 8 -30 8 -20 0 -36 -2 -36 -4z"/>
<path d="M3328 2693 c6 -2 18 -2 25 0 6 3 1 5 -13 5 -14 0 -19 -2 -12 -5z"/>
<path d="M3439 2643 c-13 -16 -12 -17 4 -4 16 13 21 21 13 21 -2 0 -10 -8 -17
-17z"/>
<path d="M3811 2611 c-17 -11 81 -26 120 -18 19 3 17 5 -11 7 -27 3 -22 5 25
10 58 6 57 7 -30 8 -49 1 -96 -2 -104 -7z"/>
<path d="M2860 2491 c0 -6 4 -13 10 -16 6 -3 7 1 4 9 -7 18 -14 21 -14 7z"/>
<path d="M2928 2393 c7 -3 16 -2 19 1 4 3 -2 6 -13 5 -11 0 -14 -3 -6 -6z"/>
<path d="M85 2320 c3 -5 17 -10 31 -10 13 0 24 5 24 10 0 6 -14 10 -31 10 -17
0 -28 -4 -24 -10z"/>
<path d="M3013 2293 c9 -2 25 -2 35 0 9 3 1 5 -18 5 -19 0 -27 -2 -17 -5z"/>
<path d="M591 2214 c0 -11 3 -14 6 -6 3 7 2 16 -1 19 -3 4 -6 -2 -5 -13z"/>
<path d="M2876 2141 c-4 -7 -5 -15 -2 -18 9 -9 19 4 14 18 -4 11 -6 11 -12 0z"/>
<path d="M3190 2134 c0 -8 5 -12 10 -9 6 4 8 11 5 16 -9 14 -15 11 -15 -7z"/>
<path d="M3241 2124 c0 -11 3 -14 6 -6 3 7 2 16 -1 19 -3 4 -6 -2 -5 -13z"/>
<path d="M3350 2130 c0 -5 5 -10 10 -10 6 0 10 5 10 10 0 6 -4 10 -10 10 -5 0
-10 -4 -10 -10z"/>
<path d="M240 2101 c0 -5 5 -13 10 -16 6 -3 10 -2 10 4 0 5 -4 13 -10 16 -5 3
-10 2 -10 -4z"/>
<path d="M155 2070 c3 -5 8 -10 11 -10 2 0 4 5 4 10 0 6 -5 10 -11 10 -5 0 -7
-4 -4 -10z"/>
<path d="M2841 2064 c0 -11 3 -14 6 -6 3 7 2 16 -1 19 -3 4 -6 -2 -5 -13z"/>
<path d="M2870 2064 c0 -8 5 -12 10 -9 6 3 10 10 10 16 0 5 -4 9 -10 9 -5 0
-10 -7 -10 -16z"/>
<path d="M3351 2064 c0 -11 3 -14 6 -6 3 7 2 16 -1 19 -3 4 -6 -2 -5 -13z"/>
<path d="M198 2063 c7 -3 16 -2 19 1 4 3 -2 6 -13 5 -11 0 -14 -3 -6 -6z"/>
<path d="M438 2043 c7 -3 16 -2 19 1 4 3 -2 6 -13 5 -11 0 -14 -3 -6 -6z"/>
<path d="M2985 1980 c3 -5 11 -10 16 -10 6 0 7 5 4 10 -3 6 -11 10 -16 10 -6
0 -7 -4 -4 -10z"/>
<path d="M3252 1915 c20 -14 40 -25 44 -25 5 0 -7 11 -26 25 -19 14 -39 25
-44 25 -6 0 6 -11 26 -25z"/>
<path d="M3297 1929 c7 -7 15 -10 18 -7 3 3 -2 9 -12 12 -14 6 -15 5 -6 -5z"/>
<path d="M2790 1894 c0 -5 43 -74 95 -153 52 -80 92 -147 89 -150 -6 -7 -20
11 -47 60 -10 17 -20 29 -23 26 -3 -3 -1 -15 6 -26 6 -12 8 -21 6 -21 -3 0
-13 14 -22 31 -8 17 -11 28 -5 25 22 -14 7 17 -40 86 -24 34 -27 35 -25 14 0
-13 5 -22 9 -19 5 3 7 -2 5 -10 -2 -9 0 -15 4 -14 8 2 37 -34 38 -46 0 -5 -4
-6 -8 -3 -13 8 -7 -46 8 -74 7 -14 21 -36 31 -49 21 -27 25 -46 7 -35 -7 4 -8
3 -4 -5 4 -6 12 -9 17 -6 5 4 9 -1 9 -9 0 -9 4 -16 8 -16 10 0 98 -171 94
-182 -1 -5 3 -8 9 -8 5 0 8 -4 5 -9 -3 -5 1 -11 9 -15 9 -3 12 -12 8 -22 -4
-11 -2 -15 4 -11 5 4 15 -6 22 -21 11 -25 10 -26 -4 -8 -16 22 -21 10 -5 -14
7 -11 33 -16 101 -19 l92 -3 -55 78 c-30 44 -104 151 -163 239 -115 169 -265
387 -271 394 -2 2 -4 0 -4 -5z m130 -285 c0 7 5 9 10 6 16 -10 12 -22 -7 -22
-18 0 -33 14 -33 32 1 6 7 1 15 -9 8 -11 15 -14 15 -7z m80 -44 c0 -12 -19
-12 -23 0 -4 9 -1 12 9 8 7 -3 14 -7 14 -8z m37 -70 c0 -8 -4 -12 -9 -9 -5 3
-6 10 -3 15 9 13 12 11 12 -6z m41 -80 c-3 -3 -9 2 -12 12 -6 14 -5 15 5 6 7
-7 10 -15 7 -18z m48 -46 c23 -46 2 -60 -24 -15 -19 32 -19 46 -1 46 5 0 16
-14 25 -31z m26 -61 c-7 -7 -12 -8 -12 -2 0 14 12 26 19 19 2 -3 -1 -11 -7
-17z"/>
<path d="M3372 1844 c10 -10 20 -16 22 -13 3 3 -5 11 -17 18 -21 13 -21 12 -5
-5z"/>
<path d="M2860 1596 c0 -11 30 -66 36 -66 2 0 -3 15 -12 33 -19 36 -24 44 -24
33z"/>
<path d="M2 1505 l1 -80 7 65 c4 36 4 72 -1 80 -5 9 -8 -16 -7 -65z"/>
<path d="M415 1494 c1 -17 6 -37 10 -45 5 -8 8 -23 7 -35 -2 -14 5 -24 23 -32
15 -7 25 -20 25 -32 0 -26 1 -31 10 -56 5 -13 4 -26 -3 -33 -8 -8 -6 -11 7
-11 16 0 17 -2 5 -17 -10 -12 -10 -15 -1 -9 10 6 12 -5 11 -46 -1 -29 0 -75 2
-103 2 -27 6 27 9 120 6 191 2 206 -71 289 l-36 40 2 -30z m20 -14 c3 -5 1
-10 -4 -10 -6 0 -11 5 -11 10 0 6 2 10 4 10 3 0 8 -4 11 -10z"/>
<path d="M2960 1442 c6 -13 14 -21 18 -18 3 4 -2 14 -12 24 -18 16 -18 16 -6
-6z"/>
<path d="M460 1300 c0 -5 5 -10 10 -10 6 0 10 5 10 10 0 6 -4 10 -10 10 -5 0
-10 -4 -10 -10z"/>
<path d="M3040 1223 c0 -25 11 -35 27 -25 8 5 9 13 3 22 -6 8 -10 11 -10 5 0
-5 -5 -3 -10 5 -8 12 -10 11 -10 -7z"/>
<path d="M414 1168 c-32 -24 -60 -42 -61 -40 -14 12 -6 -11 27 -80 l39 -83
-32 -3 c-19 -2 -62 -27 -112 -64 l-80 -61 -3 41 c-2 23 -7 42 -12 42 -5 0 -30
-11 -56 -25 -27 -14 -64 -25 -85 -25 -22 0 -39 -5 -39 -11 0 -14 106 -1 142
17 35 18 37 18 33 -3 -2 -10 -4 -26 -4 -35 -1 -9 -25 -35 -53 -57 -49 -37 -54
-39 -66 -24 -10 14 -16 15 -30 7 -14 -10 -17 -31 -20 -148 l-3 -137 86 71 c53
44 85 65 85 55 0 -8 -6 -15 -12 -15 -10 0 -9 -3 0 -9 9 -5 13 -23 11 -47 -3
-35 12 -438 17 -456 1 -5 2 -24 3 -43 1 -24 6 -35 16 -35 18 0 17 -3 5 196 -5
82 -10 216 -11 296 l-2 145 44 41 c24 23 78 70 121 104 42 35 81 73 87 86 15
32 14 67 -4 82 -9 8 -11 17 -6 28 5 10 13 51 19 92 12 92 14 103 27 112 6 5 5
8 -3 8 -7 0 -10 5 -7 10 10 17 0 12 -61 -32z m24 -40 c-17 -25 -38 -35 -38
-18 0 6 4 9 9 5 5 -3 12 4 16 15 3 11 11 20 17 20 6 0 4 -9 -4 -22z"/>
<path d="M3025 1180 c-3 -5 -1 -10 4 -10 6 0 11 5 11 10 0 6 -2 10 -4 10 -3 0
-8 -4 -11 -10z"/>
<path d="M3953 1183 c9 -2 25 -2 35 0 9 3 1 5 -18 5 -19 0 -27 -2 -17 -5z"/>
<path d="M512 985 c0 -16 2 -22 5 -12 2 9 2 23 0 30 -3 6 -5 -1 -5 -18z"/>
<path d="M511 934 c0 -11 3 -14 6 -6 3 7 2 16 -1 19 -3 4 -6 -2 -5 -13z"/>
<path d="M516 843 c-4 -9 -2 -21 4 -27 7 -7 10 -2 10 17 0 31 -5 34 -14 10z"/>
<path d="M521 774 c0 -11 3 -14 6 -6 3 7 2 16 -1 19 -3 4 -6 -2 -5 -13z"/>
<path d="M1870 630 c-13 -8 -12 -10 3 -10 9 0 17 5 17 10 0 12 -1 12 -20 0z"/>
<path d="M532 560 c0 -19 2 -27 5 -17 2 9 2 25 0 35 -3 9 -5 1 -5 -18z"/>
<path d="M18 415 c-16 -21 -18 -49 -18 -219 l0 -196 23 0 22 0 0 214 c0 118
-2 217 -5 219 -3 3 -13 -5 -22 -18z"/>
<path d="M605 252 c-6 -4 -11 -20 -12 -37 -1 -16 -7 -31 -13 -33 -5 -2 -10
-10 -10 -18 0 -9 -5 -12 -12 -8 -7 4 -8 3 -4 -5 5 -7 -1 -20 -13 -30 -12 -10
-21 -27 -22 -37 0 -11 -3 -13 -6 -6 -2 6 -9 12 -15 12 -6 0 -8 -7 -4 -15 3 -8
1 -15 -4 -15 -5 0 -7 -7 -4 -15 4 -8 1 -15 -5 -15 -6 0 -8 -7 -5 -15 5 -12 13
-6 35 22 16 21 29 43 29 50 0 6 3 13 8 15 9 4 54 75 70 112 13 29 5 51 -13 38z"/>
</g>
</svg>
