<?xml version="1.0" standalone="no"?>
<!DOCTYPE svg PUBLIC "-//W3C//DTD SVG 20010904//EN"
 "http://www.w3.org/TR/2001/REC-SVG-20010904/DTD/svg10.dtd">
<svg version="1.0" xmlns="http://www.w3.org/2000/svg"
 width="16.000000pt" height="16.000000pt" viewBox="0 0 16.000000 16.000000"
 preserveAspectRatio="xMidYMid meet">
<metadata>
Created by potrace 1.11, written by Peter Selinger 2001-2013
</metadata>
<g transform="translate(0.000000,16.000000) scale(0.004000,-0.004000)"
fill="#000000" stroke="none">
<path d="M0 3885 l0 -115 26 0 c22 0 25 -2 14 -15 -9 -10 -9 -15 -1 -15 6 0
11 -7 11 -15 0 -15 0 -15 205 -19 39 0 76 -5 83 -10 7 -4 16 -6 19 -3 2 3 -9
13 -26 22 -18 9 -29 20 -26 26 4 5 23 -4 43 -21 29 -24 38 -27 40 -15 2 8 12
15 23 15 11 0 17 4 14 10 -3 5 4 10 17 9 29 -1 121 31 130 45 5 7 46 11 108
10 55 -1 100 3 100 7 0 5 -8 9 -17 10 -13 1 -10 4 7 10 19 7 15 8 -20 4 -25
-2 -61 -7 -80 -10 l-35 -5 30 14 c17 9 53 15 81 16 45 0 52 3 63 27 10 21 9
28 -1 34 -26 16 -119 30 -187 28 -58 -2 -73 1 -97 20 -16 12 -41 25 -56 28
-16 3 -31 10 -34 14 -3 5 -102 9 -220 9 l-214 0 0 -115z m450 -70 l45 -50 -47
45 c-27 24 -48 48 -48 54 0 5 1 7 3 5 1 -2 22 -27 47 -54z m-298 -62 c-6 -2
-10 -9 -6 -14 3 -5 1 -9 -4 -9 -6 0 -12 7 -16 15 -4 11 1 15 17 14 12 0 16 -3
9 -6z m102 -18 c-4 -8 -9 -15 -13 -15 -4 0 -8 7 -8 15 0 8 6 15 13 15 8 0 11
-6 8 -15z"/>
<path d="M1638 3995 c-4 -4 -23 -7 -42 -7 -38 0 -44 -11 -22 -41 13 -16 14
-16 20 -1 6 16 8 16 23 2 15 -16 11 -38 -9 -38 -6 0 -7 8 -3 18 5 13 3 14 -6
5 -6 -6 -18 -9 -25 -6 -10 4 -13 -2 -12 -17 2 -17 -4 -25 -27 -33 -39 -13 -42
-16 -25 -27 10 -7 11 -10 3 -10 -7 0 -13 -7 -13 -15 0 -8 -11 -17 -25 -21 -14
-3 -25 -11 -25 -18 0 -6 -5 -4 -10 4 -8 13 -10 12 -10 -4 0 -12 -5 -16 -15
-12 -8 3 -15 1 -15 -4 0 -6 5 -10 10 -10 6 0 10 -5 10 -12 0 -6 -9 -3 -20 7
-11 10 -20 26 -20 37 0 10 -5 18 -11 18 -7 0 -10 -12 -7 -29 2 -17 1 -28 -4
-25 -4 3 -8 -9 -8 -27 0 -31 -1 -32 -16 -13 -15 18 -15 18 -10 -5 6 -29 -15
-52 -42 -46 -14 2 -22 -3 -26 -18 -5 -18 -8 -20 -16 -7 -8 12 -10 11 -10 -7 0
-12 8 -27 18 -32 15 -9 15 -10 0 -11 -9 0 -22 13 -29 29 -9 20 -18 27 -31 23
-10 -2 -15 -8 -12 -13 3 -5 -4 -9 -16 -9 -12 0 -18 -4 -15 -10 3 -5 0 -10 -7
-10 -9 0 -9 -3 2 -10 13 -8 13 -10 -2 -10 -9 0 -20 5 -23 10 -4 7 -13 4 -24
-9 -9 -10 -32 -26 -51 -34 -20 -9 -28 -16 -17 -16 9 -1 17 -5 17 -10 0 -5 10
-12 23 -16 14 -4 18 -8 9 -12 -8 -3 -19 0 -25 6 -13 13 -64 15 -69 2 -2 -5
-30 -11 -63 -14 -69 -6 -146 -34 -126 -47 8 -5 -1 -10 -26 -15 -33 -6 -35 -8
-17 -15 27 -11 42 -32 26 -38 -7 -2 -10 -8 -6 -13 7 -12 -3 -11 -26 1 -13 7
-19 6 -24 -6 -3 -8 -2 -12 4 -9 17 11 11 -11 -7 -27 -26 -21 -111 -51 -128
-44 -9 3 -26 1 -40 -4 -16 -6 -25 -6 -25 0 0 6 -4 10 -10 10 -16 0 -12 -17 6
-24 8 -3 25 -1 36 5 15 8 22 8 28 -1 4 -7 13 -10 19 -6 6 4 3 -6 -6 -23 -17
-29 -22 -31 -76 -32 -25 -1 -28 -4 -23 -25 4 -16 1 -30 -9 -41 -21 -20 -12
-28 15 -13 11 6 29 9 38 7 15 -4 14 -5 -2 -6 -11 -1 -16 -6 -13 -15 3 -8 0
-22 -8 -32 -11 -16 -10 -21 4 -34 19 -18 24 -52 8 -62 -7 -4 2 -8 21 -8 22 0
32 -5 32 -15 0 -8 -4 -15 -10 -15 -5 0 -10 -5 -10 -11 0 -8 5 -7 15 1 9 7 19
10 23 6 4 -4 -2 -14 -12 -22 -12 -8 -15 -14 -7 -14 10 0 12 -9 8 -30 -6 -28
-4 -30 21 -30 16 0 32 4 38 9 5 4 23 11 39 14 23 5 20 2 -14 -13 -24 -11 -54
-23 -67 -26 -13 -3 -24 -13 -24 -21 0 -8 -4 -11 -10 -8 -5 3 -10 -1 -10 -10 0
-8 -7 -18 -15 -21 -8 -4 -15 -10 -15 -15 0 -6 9 -5 21 1 31 17 34 5 6 -26 -23
-24 -28 -52 -8 -40 3 3 7 -4 7 -15 0 -10 -6 -19 -13 -19 -6 0 -15 -5 -19 -11
-4 -8 4 -9 27 -5 28 6 31 5 16 -4 -14 -9 -17 -19 -12 -40 6 -25 4 -28 -14 -23
-12 3 -21 1 -21 -6 0 -6 -4 -11 -9 -11 -4 0 -7 17 -6 38 1 20 -3 40 -8 44 -7
4 -6 12 2 22 9 10 10 16 2 16 -6 0 -18 -11 -27 -25 -9 -14 -23 -25 -31 -25
-10 0 -6 11 14 38 37 49 46 58 63 64 10 3 8 6 -8 10 -12 4 -20 2 -16 -3 3 -5
0 -9 -5 -9 -6 0 -11 10 -11 21 0 19 -2 20 -17 8 -14 -12 -16 -12 -11 1 3 8 14
14 24 13 10 -1 30 7 44 18 24 20 24 20 3 14 -13 -4 -23 -2 -23 3 0 5 10 12 22
15 17 5 19 9 10 20 -7 8 -8 17 -4 22 4 4 0 6 -8 3 -8 -3 -14 -12 -14 -20 1 -8
-8 -21 -19 -27 -18 -12 -19 -11 -14 11 6 21 4 21 -20 -7 l-26 -30 6 28 c5 16
3 27 -3 27 -6 0 -13 -13 -16 -29 -6 -31 -29 -48 -40 -30 -3 6 1 16 9 22 18 15
42 86 32 95 -4 4 -10 1 -12 -5 -3 -7 -11 -13 -19 -13 -8 0 -11 6 -8 15 4 10 0
15 -11 15 -9 0 -14 4 -10 10 3 5 12 7 20 3 15 -5 21 12 8 20 -5 2 -3 3 4 1 20
-5 23 9 6 28 -9 10 -13 18 -8 18 4 0 2 7 -5 15 -11 13 -8 15 16 15 23 0 26 2
14 11 -11 8 -12 12 -2 16 17 7 15 23 -3 23 -8 0 -15 6 -15 14 0 8 8 13 18 12
18 -1 24 34 15 86 -4 22 -13 29 -42 35 -20 4 -53 7 -74 6 -33 0 -43 5 -69 38
-34 42 -48 49 -48 23 0 -14 -2 -15 -17 -3 -15 12 -16 12 -10 -3 12 -32 -14
-20 -48 22 l-20 25 22 -18 c21 -18 22 -18 83 23 51 35 59 44 49 56 -11 13 -9
14 12 9 27 -6 90 23 98 46 3 9 -4 8 -24 -5 -15 -10 -24 -13 -20 -6 5 8 2 10
-11 7 -11 -4 -32 -9 -49 -13 -29 -6 -29 -6 -10 9 11 9 35 17 53 17 39 0 69 14
94 44 9 12 17 16 18 9 0 -6 -4 -15 -10 -18 -15 -10 -12 -35 5 -35 8 0 15 4 15
8 0 5 18 14 40 21 42 12 51 25 25 35 -8 3 -14 11 -13 18 2 8 -7 12 -25 11 -15
-1 -25 2 -22 8 4 5 13 9 21 9 13 0 13 4 0 28 -26 50 -58 68 -116 63 -13 -1
-13 -2 0 -11 12 -8 11 -10 -7 -10 -22 0 -48 32 -36 44 3 3 -1 6 -10 6 -10 0
-17 -5 -17 -11 0 -14 -170 -5 -198 10 -10 5 -27 5 -40 0 l-22 -8 0 -445 c0
-346 3 -446 13 -450 10 -5 10 -7 0 -12 -9 -4 -13 -29 -13 -76 0 -64 2 -69 19
-63 11 3 23 1 26 -6 10 -16 -16 -30 -32 -17 -10 8 -13 5 -13 -10 0 -31 27 -52
66 -52 46 0 74 16 74 40 0 11 5 20 11 20 5 0 7 -5 4 -10 -4 -6 -2 -17 4 -24 9
-10 7 -15 -9 -19 -11 -3 -20 -13 -20 -25 0 -31 -95 -47 -106 -17 -15 39 -25 9
-22 -66 l3 -80 35 6 c19 4 40 11 47 17 12 10 41 5 81 -14 31 -16 27 -24 -12
-25 -26 -1 -33 3 -29 13 3 8 0 14 -6 14 -6 0 -11 -7 -11 -15 0 -13 -7 -15 -34
-10 -64 12 -76 2 -76 -67 0 -52 2 -59 15 -48 12 10 16 10 20 -1 8 -23 0 -51
-19 -65 -18 -13 -17 -35 6 -81 8 -17 20 -23 43 -23 56 0 75 46 30 70 -31 17
-31 25 1 46 17 12 22 20 15 27 -18 18 -12 25 21 23 37 -2 51 -25 16 -27 -17
-1 -18 -3 -5 -6 21 -5 23 -23 2 -23 -9 0 -15 -9 -15 -25 0 -22 3 -25 24 -19
14 3 33 1 43 -5 16 -9 14 -10 -11 -11 -21 0 -27 -4 -22 -16 3 -9 6 -18 6 -20
0 -12 28 -1 44 17 16 19 24 21 74 13 57 -8 162 -7 170 1 3 2 -3 16 -12 30 -17
25 -17 26 18 40 43 18 44 18 62 1 18 -19 18 -36 -1 -36 -8 0 -15 5 -15 10 0 6
-9 1 -20 -10 -11 -11 -20 -24 -20 -30 0 -14 43 -13 58 2 9 9 12 9 12 0 0 -7 5
-12 11 -12 5 0 8 4 5 9 -4 5 5 4 19 -2 14 -7 25 -15 25 -19 0 -5 6 -8 14 -8 8
0 18 -5 22 -11 4 -8 -1 -9 -16 -4 -20 6 -21 5 -11 -14 10 -17 9 -21 -3 -21
-10 0 -13 6 -10 15 4 10 0 15 -10 15 -17 0 -36 -37 -29 -56 7 -18 -80 -26 -93
-9 -6 8 -23 15 -37 15 -21 0 -25 -4 -20 -17 4 -11 3 -14 -5 -9 -7 4 -12 2 -12
-4 0 -7 -8 -9 -20 -5 -31 10 -109 -5 -104 -20 3 -7 15 -10 30 -7 14 2 24 0 24
-7 0 -6 7 -11 16 -11 8 0 12 4 9 10 -7 11 6 14 128 29 62 8 93 9 107 1 18 -9
20 -8 20 15 0 30 15 33 30 5 6 -11 17 -20 25 -20 9 0 12 -6 9 -15 -4 -8 -17
-15 -29 -15 -13 0 -27 -4 -30 -10 -11 -17 18 -93 37 -98 18 -4 26 -42 9 -42
-19 0 -19 -43 0 -86 11 -24 17 -49 13 -55 -4 -6 -1 -15 6 -19 9 -6 9 -12 1
-29 -10 -17 -9 -22 4 -27 8 -3 15 -10 15 -15 0 -4 -7 -6 -15 -3 -10 4 -15 0
-15 -15 0 -12 4 -21 9 -21 5 0 7 -9 4 -20 -3 -11 0 -20 6 -20 6 0 11 -5 11
-11 0 -6 -9 -9 -20 -6 -30 8 -21 -25 9 -35 8 -2 16 -19 17 -37 1 -17 12 -48
23 -67 20 -34 20 -36 4 -59 -10 -13 -29 -29 -43 -36 -25 -12 -25 -12 14 -21
25 -5 43 -5 51 2 14 12 31 -3 21 -18 -2 -4 -7 -27 -10 -50 -2 -24 -9 -49 -15
-56 -5 -6 -8 -22 -4 -34 3 -12 1 -22 -5 -22 -16 0 -24 -33 -10 -41 9 -6 9 -11
-1 -23 -11 -14 -11 -16 4 -16 15 0 15 -3 5 -16 -12 -13 -15 -13 -29 0 -22 23
-13 107 25 237 4 15 1 15 -41 2 -24 -9 -42 -19 -39 -24 3 -5 -1 -7 -8 -4 -39
14 -123 -120 -112 -179 4 -21 1 -26 -17 -26 -20 0 -21 -1 -5 -25 16 -24 16
-25 -6 -25 -19 0 -20 -2 -8 -10 12 -8 13 -13 2 -30 -11 -18 -10 -20 10 -20 21
-1 22 -2 6 -14 -13 -10 -15 -15 -6 -24 9 -9 9 -12 0 -12 -7 0 -12 -5 -12 -10
0 -7 7 -7 21 0 16 9 25 8 39 -5 16 -15 17 -19 5 -31 -8 -8 -21 -11 -32 -7 -10
3 -15 3 -11 -2 4 -4 -3 -16 -15 -26 -22 -18 -22 -18 11 -6 25 9 37 9 52 -1 11
-6 29 -12 40 -12 11 0 20 -5 20 -11 0 -7 -11 -8 -30 -4 -26 6 -29 4 -23 -11 5
-14 2 -16 -21 -10 -20 5 -26 3 -21 -5 4 -6 2 -15 -5 -19 -15 -9 -6 -40 10 -40
6 0 8 6 4 13 -4 7 -3 8 2 4 14 -13 11 -40 -8 -61 -35 -39 -59 18 -77 189 -12
112 -1 204 37 304 4 10 1 13 -11 8 -8 -3 -18 -1 -20 6 -7 19 -19 1 -19 -28 0
-17 -6 -25 -19 -25 -22 0 -34 -16 -17 -24 11 -5 11 -7 0 -12 -6 -3 -10 -9 -7
-14 3 -5 -4 -11 -15 -15 -12 -4 -19 -14 -18 -23 2 -9 -7 -18 -22 -23 -24 -7
-24 -7 -2 -8 25 -1 30 -19 7 -27 -19 -8 -19 -20 -1 -27 11 -4 13 -1 9 10 -5
13 -2 13 20 -2 34 -22 34 -24 -4 -23 -20 1 -37 -6 -45 -17 -18 -25 -18 -35 2
-35 10 0 14 -7 12 -22 -2 -18 -10 -23 -32 -23 -16 0 -31 -5 -33 -11 -2 -6 7
-10 19 -10 17 1 22 -4 20 -16 -2 -11 3 -18 14 -18 12 0 9 -8 -15 -32 -37 -38
-40 -58 -8 -58 20 1 20 2 4 11 -14 8 -16 14 -6 25 9 11 15 12 25 3 11 -9 14
-8 14 4 0 9 8 20 18 25 20 11 45 5 36 -9 -3 -5 2 -9 10 -9 20 0 20 -6 -1 -28
-10 -10 -25 -29 -33 -41 -13 -19 -21 -21 -65 -17 -44 5 -46 4 -18 -4 22 -7 30
-15 27 -25 -8 -19 -24 -19 -24 0 0 8 -6 15 -14 15 -19 0 -30 -17 -14 -22 19
-7 -1 -28 -27 -28 -13 0 -27 -5 -30 -11 -4 -6 -14 -8 -22 -4 -24 9 -156 -44
-175 -70 -8 -10 -7 -68 0 -60 5 4 32 -20 32 -28 0 -3 -9 -7 -20 -10 -17 -4
-20 -14 -20 -56 0 -34 4 -51 13 -51 9 0 9 -2 0 -8 -6 -4 -12 -26 -11 -50 0
-34 4 -42 18 -42 10 0 21 5 23 10 3 6 4 5 3 -2 -1 -7 -12 -14 -24 -16 -14 -2
-20 -10 -19 -24 1 -17 6 -19 37 -13 19 4 55 7 78 6 24 -1 50 3 58 10 11 9 14
8 14 -5 0 -9 -8 -16 -17 -16 -10 0 -23 -4 -30 -8 -7 -4 17 -9 52 -10 50 -1 65
2 65 13 0 7 9 17 20 20 11 4 18 11 14 16 -3 6 -16 4 -31 -6 -28 -19 -47 -10
-20 9 9 7 17 17 17 21 0 4 -7 2 -15 -5 -8 -7 -23 -9 -32 -5 -17 6 -17 7 0 16
9 6 17 16 17 23 0 8 9 16 20 19 23 6 26 -3 7 -22 -10 -11 -9 -13 6 -8 9 4 17
2 17 -3 0 -6 6 -10 14 -10 9 0 12 8 8 25 -2 14 0 25 6 25 15 0 6 61 -10 71 -7
4 -9 12 -4 16 5 4 11 2 13 -4 3 -7 11 -13 19 -13 8 0 14 -9 14 -20 0 -11 4
-20 9 -20 5 0 6 10 3 23 -5 20 -4 20 9 7 18 -18 14 -93 -5 -87 -6 2 -10 14 -9
26 2 11 -1 21 -6 21 -13 0 -21 -54 -8 -62 13 -8 47 8 47 22 0 14 60 73 67 66
4 -3 -2 -14 -11 -25 -13 -15 -14 -20 -4 -23 11 -4 11 -8 0 -21 -11 -13 -10
-16 8 -22 12 -4 24 -4 27 -1 4 3 1 6 -5 6 -7 0 -12 7 -12 15 0 11 7 14 23 10
15 -4 26 0 35 15 10 17 10 20 -3 20 -8 0 -15 -4 -15 -9 0 -5 -11 -8 -25 -8
-20 0 -23 2 -14 13 6 7 14 13 17 12 4 -1 17 1 30 6 15 5 27 2 37 -8 19 -18 19
-26 1 -26 -8 0 -13 -8 -12 -17 0 -9 -8 -19 -19 -22 -11 -3 -21 -11 -22 -18 -2
-7 4 -10 12 -7 8 4 15 1 15 -6 0 -8 -10 -10 -27 -7 -20 4 -35 -1 -50 -16 -13
-11 -23 -15 -23 -9 0 7 5 12 10 12 15 0 12 19 -4 36 -22 21 -37 17 -31 -9 5
-18 0 -25 -22 -35 l-28 -12 30 5 c26 5 27 4 11 -6 -10 -6 -36 -9 -57 -6 -22 3
-42 1 -45 -4 -3 -6 40 -9 108 -8 67 1 105 5 93 10 -19 7 -19 8 2 8 12 1 23 -4
25 -11 3 -7 11 -9 24 -3 10 4 24 9 29 11 6 1 18 5 28 9 13 6 16 3 11 -9 -4
-10 -1 -16 8 -16 7 0 14 10 15 22 1 11 8 25 15 29 7 5 8 9 2 9 -5 0 -15 -5
-22 -12 -16 -16 -17 5 -2 33 10 17 13 18 26 4 20 -20 34 -19 34 3 0 9 12 29
28 43 24 22 30 24 52 12 l25 -13 -32 0 c-27 0 -34 -5 -39 -27 -4 -15 -17 -35
-28 -45 -19 -16 -19 -17 -3 -18 10 0 15 -5 12 -10 -6 -9 8 -14 28 -11 4 0 7
-3 7 -9 0 -5 16 -9 35 -8 33 1 34 2 19 20 -10 10 -23 18 -29 18 -16 0 -30 33
-16 38 6 2 11 10 11 18 0 9 5 12 11 9 7 -5 4 -14 -8 -28 -17 -19 -17 -20 -1
-14 12 4 21 0 28 -14 6 -11 15 -17 21 -14 5 4 9 0 9 -7 0 -9 2 -10 8 -1 4 6
21 14 37 18 23 5 26 4 15 -4 -13 -9 -13 -11 1 -11 9 0 19 -7 23 -15 7 -20 211
-22 220 -2 5 9 7 9 12 0 3 -7 21 -13 40 -13 20 0 33 4 29 9 -3 5 -1 12 4 16 5
3 14 -2 19 -11 6 -10 19 -14 41 -12 l32 3 -105 148 c-107 151 -166 249 -166
275 0 13 3 12 18 -1 28 -25 30 -21 17 26 -7 23 -22 74 -33 112 -12 39 -26 100
-32 137 -5 36 -17 85 -25 108 -23 66 -18 69 30 15 25 -27 45 -45 45 -39 0 5
-5 15 -12 22 -18 18 1 14 30 -7 46 -32 122 -48 122 -26 0 15 -137 287 -148
295 -5 3 -12 12 -15 20 -4 8 -16 29 -26 45 -11 17 -20 38 -20 47 -1 10 -13 31
-28 47 -44 46 -63 74 -63 91 0 8 -7 29 -16 45 -9 17 -22 64 -30 105 -30 175
-44 232 -64 257 -16 21 -18 28 -8 35 10 7 10 11 -2 21 -18 14 -21 67 -4 67 6
0 11 15 12 32 l1 33 -18 -24 -18 -24 -5 26 c-3 15 0 35 7 44 9 13 11 47 8 113
-2 52 -4 116 -4 142 1 26 -4 50 -10 54 -8 5 -8 8 0 13 5 4 11 36 12 71 1 36 5
72 10 81 4 8 8 58 8 110 1 52 2 108 2 124 1 17 2 39 2 50 0 11 6 23 11 27 7 5
6 8 -3 8 -9 0 -11 8 -7 24 3 14 2 27 -3 31 -9 5 -6 50 6 68 3 5 7 30 9 55 2
25 9 49 14 52 6 4 12 13 14 21 5 28 29 95 43 116 8 12 15 26 15 30 1 4 13 26
27 47 14 21 31 46 36 54 22 33 110 123 141 144 19 13 34 29 34 36 0 6 9 12 20
12 22 0 27 19 9 37 -7 7 3 16 34 29 25 10 44 21 41 25 -2 3 14 15 35 25 32 15
37 22 28 33 -10 12 -8 13 10 9 13 -4 25 -3 27 1 6 9 124 6 133 -3 4 -3 -5 -6
-18 -7 -20 -1 -19 -2 9 -10 18 -5 30 -14 27 -18 -2 -5 8 -11 23 -14 15 -3 29
-1 30 4 2 5 8 7 13 3 5 -3 9 -1 9 5 0 14 46 -3 67 -25 13 -13 26 -14 62 -8 71
13 172 9 182 -7 7 -11 9 -10 9 4 0 9 4 17 10 17 13 0 31 -36 22 -45 -4 -5 2
-5 12 -1 11 4 23 2 27 -6 5 -8 11 -9 21 -1 7 6 25 13 41 17 20 5 27 3 27 -8 0
-17 24 -12 50 9 22 18 90 24 90 8 0 -12 13 -17 33 -14 4 1 21 -6 37 -14 17 -9
30 -12 30 -8 0 5 5 1 10 -7 6 -9 10 -10 10 -3 0 7 -10 22 -22 34 -17 16 -18
20 -6 16 9 -3 18 -2 20 4 3 10 68 -31 68 -44 0 -5 -5 -5 -12 -1 -12 8 -7 -3
22 -46 18 -26 23 -63 8 -54 -5 3 -6 8 -4 12 2 4 -7 15 -20 25 -31 23 -31 6 1
-41 14 -20 25 -42 25 -49 0 -7 12 -19 28 -27 15 -8 38 -26 52 -41 29 -31 79
-55 112 -54 17 1 13 4 -15 13 -21 6 -34 16 -30 20 4 5 2 6 -5 2 -12 -7 -42 15
-43 31 -1 4 -5 7 -10 6 -5 -2 -9 2 -9 7 0 6 5 10 10 10 6 0 5 6 -2 14 -7 8
-16 12 -20 10 -9 -6 -41 56 -34 64 4 3 23 -11 44 -31 20 -20 39 -36 42 -36 3
1 22 -2 43 -6 26 -5 47 -2 71 9 33 15 37 15 69 -3 19 -11 38 -18 41 -15 3 2 4
1 2 -2 -3 -3 15 -34 38 -69 24 -34 56 -85 71 -113 15 -28 32 -49 36 -46 5 3 6
-1 3 -9 -3 -8 2 -22 11 -30 9 -9 15 -20 15 -24 -2 -17 36 -89 55 -106 20 -17
20 -17 0 -11 -17 5 -16 2 5 -16 25 -22 25 -23 2 -16 -23 8 -23 8 -7 -30 8 -20
13 -45 9 -56 -3 -10 -2 -18 3 -18 4 0 7 -28 6 -62 -1 -46 3 -66 13 -75 11 -8
12 -13 4 -18 -8 -5 -5 -12 7 -22 10 -8 12 -12 6 -8 -20 10 -16 -32 5 -53 10
-10 17 -32 17 -55 -1 -24 6 -44 17 -54 13 -12 15 -20 7 -34 -5 -11 -7 -24 -4
-29 4 -6 -1 -7 -11 -3 -13 5 -15 3 -7 -13 6 -10 8 -25 6 -31 -3 -7 -1 -13 4
-13 4 0 9 -28 10 -63 6 -174 13 -220 33 -234 15 -11 17 -19 10 -37 -5 -13 -6
-27 -2 -32 4 -4 2 -4 -5 0 -12 7 -25 -8 -31 -34 -2 -8 -4 -80 -6 -160 -4 -182
-27 -267 -107 -385 -40 -60 -103 -185 -96 -191 3 -4 -2 -14 -11 -24 -10 -10
-23 -40 -30 -67 -7 -26 -17 -55 -21 -63 -5 -9 -12 -31 -16 -50 -4 -19 -22 -64
-41 -98 -34 -62 -34 -65 -24 -124 6 -33 10 -90 9 -126 -1 -37 3 -90 9 -118 6
-29 8 -83 5 -123 -3 -39 -1 -96 5 -128 6 -32 17 -88 23 -126 7 -37 16 -67 20
-67 14 0 20 57 10 101 -6 24 -11 76 -11 114 l0 70 34 -78 c37 -84 85 -164 116
-192 10 -9 41 -20 67 -23 44 -5 47 -4 34 12 -8 9 -10 20 -6 24 4 4 10 1 12 -5
3 -7 14 -13 26 -13 18 0 19 -2 7 -10 -10 -7 12 -10 72 -10 101 0 118 4 111 30
-3 11 3 26 15 35 16 14 18 24 11 53 -9 40 -4 56 14 46 7 -4 0 5 -15 20 -30 29
-37 56 -14 56 7 0 19 7 27 16 10 13 10 17 0 24 -9 5 -11 17 -7 35 4 17 3 24
-3 20 -6 -3 -13 -22 -17 -43 -7 -34 -8 -35 -14 -12 -4 14 -2 31 3 38 6 8 5 12
-4 12 -9 1 -7 6 6 16 14 11 15 15 5 14 -32 -5 -40 1 -40 30 0 23 4 30 20 30
11 0 20 7 20 16 0 11 -6 14 -20 9 -12 -4 -27 -1 -35 5 -18 15 -20 53 -2 47 6
-2 11 -12 9 -22 -3 -14 -1 -15 11 -4 11 11 12 16 1 26 -7 7 -17 13 -23 13 -6
0 -11 7 -11 16 0 8 -4 12 -10 9 -5 -3 -10 1 -10 10 0 13 6 16 26 11 24 -6 25
-6 10 9 -9 9 -20 14 -25 11 -5 -3 -12 1 -15 10 -9 24 -7 31 4 14 7 -10 10 -11
10 -2 0 7 -7 15 -15 18 -23 9 -18 26 5 19 16 -5 20 -2 20 14 0 12 -4 21 -10
21 -5 0 -7 -7 -3 -16 5 -14 3 -15 -15 -5 -11 6 -24 16 -28 23 -4 6 -3 8 3 5 6
-4 18 0 29 7 17 13 15 14 -14 10 -18 -2 -32 1 -32 6 0 10 13 14 40 11 8 -1 -7
12 -33 29 -27 17 -46 36 -44 43 2 7 1 22 -4 33 -6 17 -3 23 12 27 11 3 19 14
19 27 0 13 -5 20 -12 17 -7 -2 -12 -10 -10 -16 1 -6 -7 -11 -18 -11 -22 0 -27
15 -7 23 7 4 6 6 -4 6 -18 1 -48 31 -31 31 6 0 12 -4 14 -10 2 -5 13 -7 26 -3
33 8 21 29 -15 25 -25 -3 -32 1 -37 20 -3 14 0 27 8 33 7 6 11 16 9 22 -3 7 7
17 21 23 17 6 24 15 20 24 -3 8 -12 12 -20 9 -8 -3 -11 -9 -8 -14 3 -5 -10 -9
-28 -8 -27 0 -30 2 -13 9 18 8 18 9 2 9 -10 1 -15 6 -12 12 4 6 13 8 21 5 8
-3 14 -1 14 4 0 6 -8 10 -18 10 -19 0 -42 18 -42 32 0 14 28 8 34 -7 3 -8 12
-15 21 -15 13 0 14 4 5 20 -6 11 -16 19 -22 17 -8 -1 -11 15 -9 48 3 56 8 66
21 45 7 -12 13 -13 28 -3 12 7 24 8 33 2 11 -7 10 -9 -6 -10 -16 0 -14 -3 10
-14 31 -15 75 -20 75 -9 0 4 -7 12 -15 18 -11 8 -14 20 -9 44 5 25 11 32 30
32 13 0 24 4 24 9 0 5 10 12 23 14 14 3 9 5 -15 6 -20 0 -39 -4 -42 -11 -5
-10 -7 -10 -12 0 -8 16 -74 16 -75 0 -1 -7 -2 -23 -2 -34 0 -16 -5 -20 -18
-17 -15 4 -16 9 -8 24 7 13 6 19 -1 19 -24 0 35 136 63 145 17 6 20 34 4 46
-10 7 21 109 33 109 6 0 10 16 10 36 0 21 -4 33 -10 29 -5 -3 -10 -2 -10 4 0
5 4 12 9 15 4 3 6 16 4 30 -4 21 -2 23 21 19 31 -6 43 15 26 46 -9 18 -14 19
-33 8 -12 -6 -25 -16 -29 -22 -5 -6 -8 -3 -8 7 0 9 5 20 10 23 6 4 7 11 4 17
-13 20 -13 78 -1 78 7 0 6 4 -2 9 -12 8 -12 12 -2 25 10 12 9 19 -3 39 -9 13
-13 27 -9 31 4 4 1 11 -7 16 -8 5 -11 12 -7 16 4 5 17 -2 29 -14 16 -15 19
-24 11 -34 -8 -9 -5 -18 8 -32 18 -18 18 -17 16 35 -2 46 -5 54 -22 57 -11 1
-25 14 -32 28 -13 27 -9 144 6 153 5 3 9 17 9 31 0 14 5 39 12 55 10 26 14 28
23 14 9 -14 12 -14 29 3 10 10 18 20 18 23 0 9 -28 5 -32 -4 -1 -4 -11 0 -21
9 -16 16 -16 18 -2 24 9 3 13 2 10 -3 -3 -5 -1 -12 5 -16 5 -3 10 1 10 10 0 9
5 13 10 10 24 -15 7 6 -22 26 -29 21 -31 22 -24 3 6 -17 5 -17 -7 -4 -40 44
-79 138 -40 99 7 -7 9 -3 6 15 -3 15 -12 26 -22 26 -14 0 -14 2 -1 10 8 5 11
10 5 10 -6 0 -6 3 1 8 6 4 14 21 17 38 4 23 1 35 -14 47 -21 18 -26 43 -6 31
6 -4 0 5 -15 20 -15 15 -35 29 -45 30 -11 2 -18 11 -18 27 0 13 -4 27 -10 31
-6 4 -2 8 9 8 12 0 16 -5 13 -14 -6 -15 12 -26 45 -26 11 0 31 -11 44 -25 27
-29 42 -75 25 -75 -6 0 -11 -7 -11 -15 0 -31 28 -14 34 21 6 29 10 33 21 24 8
-7 13 -16 10 -20 -3 -5 1 -11 7 -13 10 -4 10 -6 1 -6 -7 -1 -13 -10 -13 -22 0
-11 -4 -18 -10 -14 -10 6 -50 -29 -50 -46 0 -5 -4 -7 -10 -4 -5 3 -10 1 -10
-5 0 -6 8 -9 18 -6 21 7 68 -16 64 -32 -1 -7 7 -12 17 -12 11 0 23 -4 26 -10
6 -10 -21 -14 -59 -10 -17 2 -17 0 3 -28 12 -17 18 -37 15 -46 -8 -21 10 -21
27 0 12 14 14 13 21 -12 5 -17 4 -30 -2 -32 -20 -7 -9 -39 16 -51 15 -6 27
-10 28 -9 0 2 6 12 11 23 6 11 9 33 5 49 -4 26 -6 27 -19 13 -16 -20 -31 -13
-31 13 0 13 5 18 15 14 8 -4 21 -2 28 4 6 5 19 9 29 9 13 0 14 -5 7 -24 -5
-15 -5 -22 0 -18 5 3 13 -4 16 -16 5 -14 2 -25 -6 -30 -10 -6 -11 -9 -1 -9 18
0 15 -18 -5 -23 -12 -3 -8 -5 9 -6 14 0 28 4 30 10 2 7 12 7 31 0 15 -6 40 -8
57 -5 31 7 31 15 -4 59 -16 19 -16 19 -10 -8 6 -25 4 -28 -12 -25 -10 2 -21
14 -25 28 l-6 25 -8 -27 c-9 -35 -21 -36 -27 -3 -4 18 0 26 13 30 11 4 23 4
28 1 14 -9 41 4 41 20 0 8 7 14 15 14 8 0 15 7 15 15 0 8 -6 15 -13 15 -15 0
-40 57 -38 83 1 9 -3 17 -9 17 -6 0 -8 5 -5 10 5 8 11 8 20 0 18 -15 28 15 14
42 -9 17 -17 19 -49 14 -28 -4 -39 -2 -44 9 -7 18 -23 20 -29 3 -2 -7 -2 -2 0
12 3 14 9 27 14 28 5 2 6 8 3 13 -4 6 -11 6 -19 -1 -9 -8 -14 -3 -19 22 -3 17
-2 36 4 42 7 7 10 3 10 -11 0 -19 22 -34 57 -37 22 -2 26 -16 5 -16 -15 0 -20
-5 -16 -15 4 -8 14 -15 24 -15 11 0 22 -5 25 -11 4 -5 12 -8 18 -6 24 9 45
-12 39 -38 -5 -27 16 -54 52 -68 10 -4 16 -10 13 -13 -3 -3 -14 -1 -24 4 -13
6 -23 4 -35 -10 -17 -17 -17 -18 2 -18 11 0 20 -5 20 -12 0 -9 3 -9 11 -1 15
15 69 -4 69 -24 0 -13 -2 -13 -17 -2 -14 12 -16 12 -12 0 3 -8 15 -21 27 -29
20 -13 22 -13 17 0 -4 10 1 17 14 21 15 3 21 14 23 34 2 37 1 45 -4 63 -3 8
-3 12 -1 8 3 -5 16 -5 30 -1 23 5 25 3 19 -12 -4 -11 -1 -22 6 -27 11 -6 10
-10 0 -17 -8 -4 -13 -11 -13 -15 3 -18 0 -27 -6 -23 -5 3 -14 -1 -21 -9 -7 -8
-10 -14 -6 -14 4 0 0 -8 -9 -18 -10 -10 -14 -22 -10 -25 3 -4 -1 -7 -10 -7 -9
0 -17 5 -17 12 0 7 -6 6 -17 -4 -10 -8 -26 -18 -36 -21 -10 -4 -15 -12 -12
-18 4 -5 -1 -17 -11 -24 -18 -13 -17 -14 9 -15 15 0 27 5 27 11 0 5 5 7 11 3
7 -4 37 -6 67 -5 55 2 79 10 55 18 -7 3 -13 9 -13 14 0 4 7 6 15 3 8 -4 15
-12 15 -20 0 -17 16 -19 26 -3 3 6 -8 31 -25 56 -17 24 -29 48 -26 54 8 11 55
-39 55 -58 0 -8 5 -11 11 -8 6 4 17 -1 25 -11 9 -11 13 -14 10 -7 -4 6 1 18 9
27 8 8 11 17 6 20 -5 4 -12 0 -14 -6 -4 -10 -8 -9 -16 2 -7 10 -7 17 1 21 6 4
12 19 13 33 0 14 -1 23 -4 21 -2 -3 -19 12 -37 32 -27 30 -31 39 -19 46 8 4
12 14 9 22 -5 11 2 15 24 15 30 0 50 -15 37 -28 -3 -3 -10 0 -14 7 -7 11 -11
9 -21 -8 -6 -12 -9 -27 -6 -34 3 -9 5 -9 5 1 1 6 8 12 16 12 17 0 19 -12 5
-26 -14 -14 20 -15 37 -2 7 5 14 5 18 -2 3 -5 13 -10 22 -10 13 0 13 3 3 15
-10 12 -10 15 0 15 7 0 10 7 7 15 -4 8 -2 17 3 20 6 4 10 0 10 -7 0 -10 2 -10
9 1 6 9 16 11 27 7 11 -4 14 -10 8 -14 -6 -4 -13 -14 -16 -22 -4 -12 2 -15 32
-15 21 0 45 7 54 14 13 11 17 11 22 -3 3 -9 1 -23 -6 -31 -10 -12 -9 -16 2
-20 7 -3 15 -19 16 -35 2 -25 -1 -30 -21 -30 -13 0 -28 5 -35 12 -9 9 -12 5
-12 -17 0 -17 4 -25 8 -18 9 15 62 11 62 -4 0 -20 14 -15 29 8 7 13 9 24 4 28
-18 12 -23 41 -8 41 21 0 21 86 0 94 -8 3 -14 11 -13 18 2 9 -17 14 -71 16
-81 3 -102 12 -94 42 7 25 10 25 52 -1 27 -16 32 -17 28 -5 -4 9 -2 16 4 16 6
0 13 -9 16 -21 4 -16 11 -19 29 -15 12 3 25 2 29 -4 3 -5 12 -7 21 -3 12 4 15
24 13 104 -1 94 -3 99 -23 99 -16 0 -18 2 -7 9 8 5 10 14 5 22 -6 11 -5 11 9
0 17 -13 17 16 13 530 -3 299 -6 563 -7 587 l-2 42 -541 -2 c-440 -3 -540 -5
-538 -16 8 -41 -93 -132 -147 -132 -17 0 -31 -7 -35 -16 -5 -14 -8 -14 -28 0
-37 26 -46 20 -53 -39 -9 -71 1 -138 26 -167 18 -22 20 -22 33 -5 12 16 14 16
20 2 4 -10 2 -14 -6 -9 -7 5 -9 -1 -6 -19 3 -15 1 -28 -4 -29 -5 -2 12 -5 39
-6 55 -2 89 -32 72 -64 -13 -24 -12 -27 12 -21 18 5 20 3 14 -16 -4 -14 -2
-21 7 -21 11 0 11 -2 0 -9 -13 -8 -7 -61 7 -61 4 0 29 -33 54 -73 26 -40 65
-88 87 -106 22 -18 40 -37 40 -41 0 -4 -14 5 -31 21 -17 16 -35 29 -39 29 -4
0 3 -29 15 -65 13 -36 21 -65 18 -65 -3 0 -1 -6 5 -13 6 -7 14 -33 18 -57 4
-25 11 -50 16 -57 6 -7 5 -19 -1 -32 -13 -24 -9 -94 6 -113 6 -7 14 -23 17
-35 7 -23 26 -32 26 -13 0 18 25 11 38 -11 14 -22 10 -35 -7 -24 -6 3 -9 10
-6 15 3 5 1 11 -5 15 -5 3 -10 1 -10 -4 0 -20 -35 -11 -45 12 -6 14 -19 22
-33 22 -13 0 -29 8 -35 16 -7 9 -19 18 -27 22 -10 4 -11 6 -2 6 7 1 10 6 7 11
-3 6 -1 10 4 10 6 0 11 -4 11 -10 0 -5 5 -10 11 -10 6 0 9 9 6 20 -3 11 -2 20
1 20 4 0 12 17 19 37 9 29 8 41 -3 58 -8 12 -12 24 -8 27 3 3 -3 5 -13 4 -12
-1 -27 17 -48 54 -47 86 -68 120 -93 151 -25 31 -20 39 8 14 16 -15 18 -14 18
11 0 15 -4 21 -8 14 -5 -8 -12 -7 -24 6 -13 12 -14 19 -5 24 9 6 8 14 -5 31
-9 13 -16 19 -16 14 0 -5 -12 6 -26 23 -26 31 -62 45 -49 20 4 -7 -1 -4 -9 6
-14 17 -21 58 -18 106 0 8 -4 22 -9 32 -7 12 -6 18 1 18 6 0 4 7 -4 16 -9 8
-16 20 -16 25 0 6 -4 7 -10 4 -5 -3 -10 3 -10 14 0 12 -4 21 -9 21 -9 0 0 -47
13 -68 3 -5 -6 -26 -20 -48 -18 -28 -24 -32 -20 -16 5 26 -29 71 -37 49 -2 -7
-8 6 -11 28 -4 22 -12 63 -19 90 -6 28 -11 54 -12 60 0 5 -11 12 -25 16 -14 4
-20 8 -15 8 6 1 3 5 -5 11 -9 5 -19 5 -27 -2 -8 -6 -26 -7 -45 -3 -18 4 -56 8
-85 9 -28 0 -51 4 -50 7 2 8 -5 9 -35 8 -17 -1 -19 -2 -5 -6 18 -5 24 -23 7
-23 -6 0 -18 4 -28 9 -9 6 -34 13 -54 16 -51 8 -59 25 -8 19 33 -4 39 -2 34
11 -7 17 11 21 21 5 3 -5 13 -10 21 -10 12 0 12 4 -3 24 -10 12 -27 23 -38 22
-11 -1 -30 9 -41 21 -15 17 -34 23 -65 24 -30 2 -35 3 -16 6 31 5 36 23 7 30
-11 3 -17 9 -14 14 3 5 0 9 -6 9 -6 0 -9 4 -6 8 3 5 -34 16 -81 25 -48 9 -90
22 -94 28 -4 6 -16 8 -28 4 -13 -4 -28 -1 -37 5 -16 14 -185 26 -196 15z m119
-11 c-3 -3 -12 -4 -19 -1 -8 3 -5 6 6 6 11 1 17 -2 13 -5z m56 -11 c-7 -2 -19
-2 -25 0 -7 3 -2 5 12 5 14 0 19 -2 13 -5z m-74 -29 c2 -2 -12 -4 -32 -4 -19
0 -42 -3 -51 -6 -9 -3 -16 -1 -16 4 0 6 8 12 18 15 17 4 73 -2 81 -9z m131
-29 c-90 -18 -161 -27 -167 -22 -12 13 44 26 112 25 39 0 63 -2 55 -3z m167
-1 c-3 -3 -12 -4 -19 -1 -8 3 -5 6 6 6 11 1 17 -2 13 -5z m-198 -38 c-8 -8
-78 -10 -85 -3 -4 4 14 7 41 7 27 0 46 -2 44 -4z m336 -76 c-3 -5 -13 -10 -21
-10 -8 0 -14 5 -14 10 0 6 9 10 21 10 11 0 17 -4 14 -10z m705 -26 c0 -8 -4
-12 -10 -9 -5 3 -10 10 -10 16 0 5 5 9 10 9 6 0 10 -7 10 -16z m-676 -62 c27
-9 70 -36 95 -59 27 -25 56 -43 70 -43 13 0 34 -12 48 -26 l23 -25 -22 6 c-13
4 -27 12 -33 18 -7 7 -6 7 4 2 10 -6 12 -4 6 4 -5 9 -10 10 -18 2 -7 -7 -18
-6 -37 4 -15 8 -31 11 -35 7 -5 -4 -5 -2 -1 5 4 8 -3 15 -20 19 -20 5 -23 9
-12 16 10 8 10 9 -3 5 -8 -3 -26 2 -40 10 l-24 14 30 -6 c29 -5 29 -5 10 10
-11 9 -25 13 -32 11 -19 -8 -103 27 -103 42 0 14 9 13 94 -16z m1516 8 c0 -11
-4 -20 -9 -20 -6 0 -9 9 -8 20 1 11 5 20 9 20 4 0 8 -9 8 -20z m-1003 -52 c-2
-13 -4 -3 -4 22 0 25 2 35 4 23 2 -13 2 -33 0 -45z m-340 36 c-3 -3 -12 -4
-19 -1 -8 3 -5 6 6 6 11 1 17 -2 13 -5z m-73 -13 c4 -5 -3 -7 -14 -4 -23 6
-26 13 -6 13 8 0 17 -4 20 -9z m-111 -35 c10 -11 26 -21 35 -21 10 0 17 -7 17
-15 0 -15 18 -40 30 -40 3 0 3 4 0 10 -3 5 0 7 9 4 8 -3 12 -12 9 -20 -3 -8 0
-14 6 -14 6 0 11 5 11 11 0 5 5 7 12 3 9 -6 9 -9 -1 -12 -9 -3 -8 -9 5 -23 23
-25 8 -24 -20 1 -52 47 -136 110 -148 110 -10 0 -9 3 2 10 12 8 12 10 -5 10
-11 0 -27 5 -35 11 -11 7 -6 8 20 3 19 -4 43 -16 53 -28z m157 14 c-8 -5 -22
-10 -30 -10 -13 0 -13 1 0 10 8 5 22 10 30 10 13 0 13 -1 0 -10z m111 -8 c-7
-2 -18 1 -23 6 -8 8 -4 9 13 5 13 -4 18 -8 10 -11z m-404 2 c-3 -3 -12 -4 -19
-1 -8 3 -5 6 6 6 11 1 17 -2 13 -5z m362 -16 c14 -23 14 -23 -7 -5 -14 13 -28
17 -44 12 -18 -5 -20 -4 -8 4 24 17 44 13 59 -11z m69 -33 c-3 -3 -9 2 -12 12
-6 14 -5 15 5 6 7 -7 10 -15 7 -18z m-278 -10 c14 -8 21 -15 15 -15 -5 0 -3
-5 5 -10 9 -6 10 -10 3 -10 -7 0 -25 11 -40 25 -31 27 -22 32 17 10z m553 -20
c-3 -9 -8 -14 -10 -11 -3 3 -2 9 2 15 9 16 15 13 8 -4z m140 -40 c-48 -46 -62
-53 -64 -35 -5 40 -3 45 18 42 11 -2 36 6 55 18 18 11 34 20 36 20 2 0 -18
-20 -45 -45z m177 14 c0 -5 -9 -9 -20 -9 -22 0 -27 16 -7 23 15 5 27 -1 27
-14z m130 1 c0 -5 -7 -10 -16 -10 -8 0 -12 5 -9 10 3 6 10 10 16 10 5 0 9 -4
9 -10z m138 -8 c2 -7 -3 -12 -12 -12 -9 0 -16 7 -16 16 0 17 22 14 28 -4z m65
4 c1 -5 -8 -11 -20 -12 -23 -4 -30 6 -16 20 9 9 33 4 36 -8z m-1124 -27 c18
-16 31 -32 28 -36 -3 -3 -22 11 -42 31 -43 44 -33 48 14 5z m195 15 c3 -8 2
-12 -4 -9 -6 3 -10 10 -10 16 0 14 7 11 14 -7z m1373 10 c-3 -3 -12 -4 -19 -1
-8 3 -5 6 6 6 11 1 17 -2 13 -5z m-3747 -14 c0 -5 -6 -10 -14 -10 -8 0 -18 5
-21 10 -3 6 3 10 14 10 12 0 21 -4 21 -10z m1967 -16 c-3 -3 -12 -4 -19 -1 -8
3 -5 6 6 6 11 1 17 -2 13 -5z m148 -4 c3 -5 2 -10 -4 -10 -5 0 -13 5 -16 10
-3 6 -2 10 4 10 5 0 13 -4 16 -10z m240 -60 c10 -11 16 -20 13 -20 -3 0 -13 9
-23 20 -10 11 -16 20 -13 20 3 0 13 -9 23 -20z m-2270 -35 c22 -13 36 -24 30
-25 -5 0 -28 11 -50 25 -22 13 -35 24 -30 25 6 0 28 -11 50 -25z m705 15 c-20
-13 -33 -13 -25 0 3 6 14 10 23 10 15 0 15 -2 2 -10z m1440 0 c0 -5 -4 -10
-10 -10 -5 0 -10 5 -10 10 0 6 5 10 10 10 6 0 10 -4 10 -10z m67 -16 c18 -16
21 -22 8 -15 -32 15 -61 40 -48 41 7 0 25 -12 40 -26z m-1547 -31 c0 -25 -16
-48 -24 -35 -3 6 -2 13 3 17 6 3 8 12 4 20 -3 8 0 15 6 15 6 0 11 -8 11 -17z
m2825 7 c4 -6 -5 -10 -20 -10 -15 0 -24 4 -20 10 3 6 12 10 20 10 8 0 17 -4
20 -10z m-3565 -10 c0 -5 -9 -10 -20 -10 -11 0 -20 5 -20 10 0 6 9 10 20 10
11 0 20 -4 20 -10z m780 6 c0 -2 -7 -7 -16 -10 -8 -3 -12 -2 -9 4 6 10 25 14
25 6z m1608 -43 c19 -19 27 -16 11 4 -13 15 -12 15 9 4 12 -6 27 -9 32 -6 6 3
7 -1 4 -9 -3 -9 -13 -16 -21 -16 -9 0 -13 -6 -9 -15 6 -17 -29 -22 -39 -5 -3
6 1 10 10 10 9 0 13 5 10 11 -4 6 -13 8 -21 5 -8 -3 -11 0 -8 9 4 9 -4 19 -20
26 -14 7 -26 16 -26 21 0 9 45 -17 68 -39z m-71 17 c14 -11 22 -20 18 -20 -4
0 -18 9 -32 20 -14 11 -22 20 -18 20 4 0 18 -9 32 -20z m931 -41 c37 0 129 2
205 4 111 3 139 1 149 -11 16 -19 -14 -42 -54 -42 -15 0 -28 -4 -28 -9 0 -6
-12 -3 -27 5 -38 19 -53 18 -53 -6 0 -15 -7 -20 -25 -20 -14 0 -25 5 -25 10 0
6 -11 10 -25 10 -15 0 -24 -5 -22 -12 1 -7 -7 -13 -18 -13 -13 0 -20 6 -19 18
1 10 -5 17 -16 17 -10 0 -17 -7 -16 -16 2 -25 -24 -29 -31 -5 -4 16 -13 21
-36 21 -28 0 -29 -1 -12 -14 17 -12 16 -13 -10 -20 -20 -5 -33 -2 -44 9 -15
14 -14 16 6 21 13 4 20 10 17 15 -7 12 -74 11 -74 -1 0 -5 -13 -10 -29 -10
-18 0 -34 -8 -42 -21 -16 -23 -54 -17 -45 7 4 10 -3 14 -24 14 -33 0 -48 15
-24 24 9 3 41 6 73 6 31 0 61 4 67 9 9 10 92 19 107 13 5 -2 38 -4 75 -3z
m602 -4 c0 -16 -27 -32 -37 -22 -3 4 -3 13 0 22 8 20 37 20 37 0z m-3173 -27
c-3 -8 -6 -5 -6 6 -1 11 2 17 5 13 3 -3 4 -12 1 -19z m2148 12 c3 -5 1 -10 -4
-10 -6 0 -11 5 -11 10 0 6 2 10 4 10 3 0 8 -4 11 -10z m118 -55 c-4 -15 -36
-12 -41 3 -3 9 3 13 19 10 13 -1 23 -7 22 -13z m137 5 c0 -5 -12 -10 -26 -10
-14 0 -23 4 -19 10 3 6 15 10 26 10 10 0 19 -4 19 -10z m35 0 c3 -5 1 -10 -4
-10 -6 0 -11 5 -11 10 0 6 2 10 4 10 3 0 8 -4 11 -10z m440 0 c3 -5 -1 -10
-10 -10 -9 0 -13 5 -10 10 3 6 8 10 10 10 2 0 7 -4 10 -10z m-2976 -24 c-8 -6
-15 -18 -17 -26 -2 -8 -12 -23 -23 -33 -10 -10 -19 -23 -19 -30 0 -7 -4 -6
-10 3 -6 10 -3 21 12 37 27 29 10 30 -26 2 -14 -11 -26 -17 -26 -12 0 5 9 15
21 23 11 8 35 25 51 37 31 22 65 21 37 -1z m-569 -6 c0 -5 -4 -10 -9 -10 -6 0
-13 5 -16 10 -3 6 1 10 9 10 9 0 16 -4 16 -10z m3135 -90 c4 -6 -5 -10 -20
-10 -15 0 -24 4 -20 10 3 6 12 10 20 10 8 0 17 -4 20 -10z m55 0 c0 -5 -9 -10
-20 -10 -11 0 -20 5 -20 10 0 6 9 10 20 10 11 0 20 -4 20 -10z m-3000 -32 c0
-6 -6 -5 -15 2 -8 7 -15 14 -15 16 0 2 7 1 15 -2 8 -4 15 -11 15 -16z m-45
-49 c-10 -15 -25 -10 -19 6 4 8 10 12 15 9 5 -3 7 -10 4 -15z m3573 -50 c-3
-8 -7 -3 -11 10 -4 17 -3 21 5 13 5 -5 8 -16 6 -23z m-3778 5 c0 -8 -4 -12
-10 -9 -5 3 -10 10 -10 16 0 5 5 9 10 9 6 0 10 -7 10 -16z m3642 -16 c-9 -9
-15 -9 -24 0 -9 9 -7 12 12 12 19 0 21 -3 12 -12z m-372 -8 c0 -5 -7 -10 -15
-10 -8 0 -15 5 -15 10 0 6 7 10 15 10 8 0 15 -4 15 -10z m-3119 -23 c-1 -12
-15 -9 -19 4 -3 6 1 10 8 8 6 -3 11 -8 11 -12z m2919 3 c0 -5 -4 -10 -10 -10
-5 0 -10 5 -10 10 0 6 5 10 10 10 6 0 10 -4 10 -10z m680 0 c13 -8 13 -10 -2
-10 -9 0 -20 5 -23 10 -8 13 5 13 25 0z m-60 -20 c0 -5 -2 -10 -4 -10 -3 0 -8
5 -11 10 -3 6 -1 10 4 10 6 0 11 -4 11 -10z m-3555 -30 c21 -14 25 -20 13 -20
-9 0 -22 -8 -27 -17 -10 -17 -10 -17 -11 0 0 9 6 17 13 17 6 0 1 9 -13 20 -33
26 -14 26 25 0z m40 10 c3 -5 2 -10 -4 -10 -5 0 -13 5 -16 10 -3 6 -2 10 4 10
5 0 13 -4 16 -10z m3600 0 c3 -5 1 -10 -4 -10 -6 0 -11 5 -11 10 0 6 2 10 4
10 3 0 8 -4 11 -10z m-170 -10 c3 -5 -1 -10 -9 -10 -9 0 -16 5 -16 10 0 6 4
10 9 10 6 0 13 -4 16 -10z m-3365 -21 c0 -5 -10 -9 -21 -9 -18 0 -19 2 -9 15
12 15 30 12 30 -6z m2610 13 c0 -4 12 -15 28 -24 15 -10 23 -18 17 -18 -5 0
-23 11 -40 25 -16 13 -24 24 -17 25 6 0 12 -3 12 -8z m540 -6 c0 -2 -7 -6 -15
-10 -8 -3 -15 -1 -15 4 0 6 7 10 15 10 8 0 15 -2 15 -4z m-210 -35 c0 -6 -4
-13 -10 -16 -5 -3 -10 1 -10 9 0 9 5 16 10 16 6 0 10 -4 10 -9z m-100 -21 c0
-5 -4 -10 -10 -10 -5 0 -10 5 -10 10 0 6 5 10 10 10 6 0 10 -4 10 -10z m182
-14 c12 4 18 2 14 -4 -8 -14 -45 -22 -52 -11 -3 6 -2 18 2 27 7 16 7 16 11 -1
3 -13 10 -16 25 -11z m618 14 c0 -5 -5 -10 -11 -10 -5 0 -7 5 -4 10 3 6 8 10
11 10 2 0 4 -4 4 -10z m-762 -17 c-2 -11 6 -19 22 -24 14 -4 19 -7 12 -8 -7
-1 -20 -8 -29 -17 -11 -11 -19 -12 -27 -4 -8 8 -7 13 3 19 9 6 10 10 2 12 -7
3 -9 12 -6 22 9 22 27 22 23 0z m253 -24 c-9 -22 -10 -22 -10 -3 -1 11 2 24 6
27 12 12 14 0 4 -24z m249 21 c0 -5 -7 -10 -16 -10 -8 0 -12 5 -9 10 3 6 10
10 16 10 5 0 9 -4 9 -10z m-580 -10 c0 -5 -4 -10 -10 -10 -5 0 -10 5 -10 10 0
6 5 10 10 10 6 0 10 -4 10 -10z m475 0 c3 -5 -1 -10 -9 -10 -9 0 -16 5 -16 10
0 6 4 10 9 10 6 0 13 -4 16 -10z m315 6 c0 -11 -19 -15 -25 -6 -3 5 1 10 9 10
9 0 16 -2 16 -4z m-3705 -16 c3 -5 1 -10 -4 -10 -6 0 -11 5 -11 10 0 6 2 10 4
10 3 0 8 -4 11 -10z m-65 -4 c0 -3 -4 -8 -10 -11 -5 -3 -10 -1 -10 4 0 6 5 11
10 11 6 0 10 -2 10 -4z m3410 -6 c0 -5 -4 -10 -10 -10 -5 0 -10 5 -10 10 0 6
5 10 10 10 6 0 10 -4 10 -10z m-3310 -15 c0 -8 -2 -15 -4 -15 -2 0 -6 7 -10
15 -3 8 -1 15 4 15 6 0 10 -7 10 -15z m235 5 c3 -5 1 -10 -4 -10 -6 0 -11 5
-11 10 0 6 2 10 4 10 3 0 8 -4 11 -10z m2772 -6 c-3 -3 -12 -4 -19 -1 -8 3 -5
6 6 6 11 1 17 -2 13 -5z m228 -4 c3 -5 1 -10 -4 -10 -6 0 -11 5 -11 10 0 6 2
10 4 10 3 0 8 -4 11 -10z m152 -17 c-3 -3 -11 -2 -17 2 -9 6 -9 10 1 16 14 8
27 -7 16 -18z m81 15 c-2 -7 5 -12 14 -12 10 1 14 -4 11 -13 -3 -8 -12 -12
-20 -9 -8 3 -18 6 -23 6 -5 0 -8 9 -7 20 1 11 7 20 14 20 7 0 12 -6 11 -12z
m-3404 -32 c-4 -10 -16 -15 -33 -15 -24 2 -24 2 -3 6 13 3 26 11 29 19 3 8 7
13 9 11 3 -2 2 -12 -2 -21z m2926 -7 c0 -5 -7 -6 -15 -3 -8 4 -15 13 -15 21 0
13 3 13 15 3 8 -7 15 -16 15 -21z m550 16 c0 -8 -2 -15 -4 -15 -2 0 -6 7 -10
15 -3 8 -1 15 4 15 6 0 10 -7 10 -15z m50 -2 c0 -11 -3 -14 -8 -7 -4 6 -14 14
-22 17 -10 4 -8 6 8 6 15 1 22 -5 22 -16z m60 -2 c0 -6 -4 -13 -10 -16 -5 -3
-10 1 -10 9 0 9 5 16 10 16 6 0 10 -4 10 -9z m63 -5 c9 -7 17 -17 17 -22 0 -4
-5 -3 -12 4 -7 7 -23 12 -37 12 -21 0 -23 2 -11 10 19 12 21 12 43 -4z m-488
-5 c6 -11 -33 -36 -42 -27 -7 7 16 36 28 36 4 0 10 -4 14 -9z m38 -1 c7 -6 20
-17 31 -24 16 -11 16 -13 3 -13 -9 0 -27 11 -39 24 -21 23 -18 32 5 13z m127
0 c0 -5 -4 -10 -10 -10 -5 0 -10 5 -10 10 0 6 5 10 10 10 6 0 10 -4 10 -10z
m11 -23 c-10 -9 -11 -8 -5 6 3 10 9 15 12 12 3 -3 0 -11 -7 -18z m-3172 -15
c-16 -25 -47 -44 -60 -36 -14 8 9 34 31 34 10 0 21 7 24 16 4 9 9 14 12 11 3
-3 0 -14 -7 -25z m-372 12 c-3 -3 -12 -4 -19 -1 -8 3 -5 6 6 6 11 1 17 -2 13
-5z m3681 -19 c-3 -3 -9 2 -12 12 -6 14 -5 15 5 6 7 -7 10 -15 7 -18z m-60 -3
c2 -7 17 -12 32 -12 36 0 49 -19 25 -37 -18 -12 -18 -13 4 -13 12 0 19 -4 16
-10 -12 -19 -44 -11 -47 12 -2 13 -11 24 -21 26 -15 3 -17 -1 -11 -25 5 -22 4
-26 -6 -16 -7 6 -16 29 -20 51 -6 33 -4 39 9 38 8 -2 17 -8 19 -14z m137 8 c3
-5 1 -10 -4 -10 -6 0 -11 5 -11 10 0 6 2 10 4 10 3 0 8 -4 11 -10z m-3608 -6
c-3 -3 -12 -4 -19 -1 -8 3 -5 6 6 6 11 1 17 -2 13 -5z m3133 -15 c0 -5 -4 -9
-10 -9 -5 0 -10 7 -10 16 0 8 5 12 10 9 6 -3 10 -10 10 -16z m-3270 -19 c8 -1
-5 -6 -30 -10 -46 -8 -71 -3 -50 10 11 7 46 7 80 0z m3353 3 c-7 -2 -21 -2
-30 0 -10 3 -4 5 12 5 17 0 24 -2 18 -5z m60 1 c3 -4 38 -6 76 -6 75 0 72 3
62 -47 -1 -2 -8 2 -16 9 -9 8 -29 10 -50 7 -19 -3 -35 -2 -35 3 0 5 -6 7 -14
4 -7 -3 -16 2 -19 10 -4 9 -13 13 -21 10 -8 -3 -17 -1 -21 5 -7 12 27 16 38 5z
m457 -4 c-8 -5 -22 -10 -30 -10 -13 0 -13 1 0 10 8 5 22 10 30 10 13 0 13 -1
0 -10z m-3570 -20 c0 -5 -7 -10 -15 -10 -8 0 -15 -4 -15 -10 0 -5 -5 -10 -12
-10 -6 0 -8 3 -5 7 4 3 2 12 -4 20 -9 10 -5 13 20 13 17 0 31 -4 31 -10z m265
0 c-11 -5 -29 -8 -40 -8 -16 0 -15 2 5 8 34 11 60 11 35 0z m2575 2 c0 -5 -12
-14 -27 -21 l-28 -13 20 21 c21 21 35 26 35 13z m-2960 -11 c0 -12 -20 -25
-27 -18 -7 7 6 27 18 27 5 0 9 -4 9 -9z m-170 -16 c0 -8 -4 -15 -10 -15 -5 0
-10 7 -10 15 0 8 5 15 10 15 6 0 10 -7 10 -15z m3350 11 c0 -2 -7 -6 -15 -10
-8 -3 -15 -1 -15 4 0 6 7 10 15 10 8 0 15 -2 15 -4z m-3360 -48 c0 -6 -7 -5
-15 2 -8 7 -15 17 -15 22 0 6 7 5 15 -2 8 -7 15 -17 15 -22z m330 22 c0 -5 -7
-10 -15 -10 -8 0 -15 5 -15 10 0 6 7 10 15 10 8 0 15 -4 15 -10z m-126 -15 c3
-8 1 -15 -3 -15 -5 0 -11 7 -15 15 -3 8 -1 15 3 15 5 0 11 -7 15 -15z m2963 9
c-3 -3 -12 -4 -19 -1 -8 3 -5 6 6 6 11 1 17 -2 13 -5z m61 -14 c7 -12 8 -20 2
-20 -5 0 -10 4 -10 8 0 5 -10 14 -22 20 -22 10 -22 11 -3 11 11 1 26 -8 33
-19z m322 4 c0 -17 -14 -18 -28 -1 -8 10 -6 13 9 14 10 1 19 -5 19 -13z m124
-8 c-3 -9 -13 -16 -22 -16 -13 0 -12 3 4 19 22 21 27 21 18 -3z m-3169 4 c3
-6 -4 -10 -17 -10 -18 0 -20 2 -8 10 19 12 18 12 25 0z m2525 -11 c0 -5 -4 -9
-10 -9 -5 0 -10 7 -10 16 0 8 5 12 10 9 6 -3 10 -10 10 -16z m133 -23 c16 -2
33 -8 38 -13 6 -6 -1 -8 -21 -5 -29 4 -30 3 -30 -32 0 -29 -4 -36 -19 -36 -34
0 -53 42 -20 46 5 1 15 2 22 3 6 1 1 7 -12 12 -16 6 -28 6 -35 -1 -13 -13 -46
16 -46 42 0 23 18 23 43 1 18 -16 20 -16 14 -1 -9 25 4 29 22 7 9 -11 29 -22
44 -23z m177 34 c0 -5 -5 -10 -11 -10 -5 0 -7 5 -4 10 3 6 8 10 11 10 2 0 4
-4 4 -10z m35 0 c-3 -5 -12 -10 -18 -10 -7 0 -6 4 3 10 19 12 23 12 15 0z
m-3080 -38 c-3 -3 -11 1 -20 8 -9 8 -15 8 -15 2 0 -6 5 -14 10 -17 6 -3 10
-11 10 -17 0 -7 -9 -2 -20 10 -11 12 -20 28 -20 37 0 14 3 14 30 -1 16 -10 27
-20 25 -22z m3552 22 c-3 -3 -12 -4 -19 -1 -8 3 -5 6 6 6 11 1 17 -2 13 -5z
m-3457 -26 c0 -12 -1 -19 -3 -17 -1 2 -9 12 -16 22 -12 14 -11 17 3 17 10 0
16 -8 16 -22z m110 1 c0 -5 -8 -9 -17 -10 -11 0 -13 -3 -5 -6 6 -2 12 -9 12
-15 0 -6 -6 -8 -13 -5 -7 3 -19 -4 -26 -14 -6 -11 -16 -17 -21 -14 -6 3 -10 2
-10 -4 0 -5 10 -13 22 -17 20 -6 20 -7 3 -16 -12 -7 -20 -7 -24 0 -4 7 -11 4
-19 -8 -10 -17 -10 -20 5 -20 16 0 16 -1 -1 -13 -19 -14 -27 -65 -14 -83 6 -8
0 -14 -18 -18 -29 -8 -54 -28 -54 -45 0 -14 -13 -14 -28 1 -9 9 -15 8 -26 -7
-8 -11 -19 -16 -30 -12 -20 8 -20 21 -1 40 8 8 11 17 8 21 -4 3 -1 6 6 6 20 0
61 43 61 63 0 9 5 17 10 17 6 0 10 -7 10 -15 0 -17 25 -20 35 -5 3 6 1 10 -6
10 -8 0 -7 6 4 18 13 14 13 20 3 35 -15 20 -32 22 -40 5 -5 -10 -7 -10 -12 0
-8 17 -24 15 -24 -3 0 -8 5 -15 10 -15 6 0 10 -4 10 -10 0 -5 -8 -10 -17 -10
-14 0 -18 9 -20 45 -1 38 1 45 18 45 10 0 19 7 19 15 0 14 31 14 78 -1 6 -2
12 3 12 10 0 17 36 50 47 43 5 -3 15 -2 23 3 15 9 30 4 30 -11z m2940 5 c8 -8
9 -14 4 -13 -19 3 -34 -1 -34 -11 0 -6 8 -10 17 -8 10 2 19 -5 21 -15 3 -16 0
-18 -20 -12 -48 16 -53 68 -7 74 4 1 12 -6 19 -15z m347 -10 c-9 -9 -28 6 -21
18 4 6 10 6 17 -1 6 -6 8 -13 4 -17z m103 -9 c0 -8 -7 -15 -15 -15 -8 0 -15 7
-15 15 0 8 7 15 15 15 8 0 15 -7 15 -15z m-3801 -42 c-13 -15 -19 -16 -37 -4
-12 7 -12 12 -1 29 12 20 15 20 31 5 14 -12 15 -19 7 -30z m438 17 c-1 -20 -8
-25 -20 -14 -3 3 0 12 6 20 16 17 16 17 14 -6z m-377 -10 c0 -11 -6 -20 -14
-20 -18 0 -29 16 -21 30 11 18 35 11 35 -10z m100 10 c0 -5 -4 -10 -9 -10 -6
0 -13 5 -16 10 -3 6 1 10 9 10 9 0 16 -4 16 -10z m3013 -11 c3 -12 0 -22 -9
-26 -20 -7 -32 6 -15 16 7 5 10 14 7 20 -4 6 -3 11 2 11 5 0 12 -9 15 -21z
m-45 -3 c-18 -14 -25 -32 -9 -21 5 3 12 1 16 -5 3 -5 14 -10 24 -10 10 0 21
-9 24 -20 4 -17 0 -20 -30 -20 -27 0 -34 3 -29 15 4 11 -3 19 -19 25 -31 12
-32 28 -2 40 33 13 44 11 25 -4z m372 -16 c0 -5 -2 -10 -4 -10 -3 0 -8 5 -11
10 -3 6 -1 10 4 10 6 0 11 -4 11 -10z m-3622 -12 c-7 -19 -35 -21 -41 -3 -5
11 0 15 19 15 16 0 24 -5 22 -12z m3612 -14 c0 -2 -9 0 -20 6 -11 6 -20 13
-20 16 0 2 9 0 20 -6 11 -6 20 -13 20 -16z m-3365 -53 c-3 -11 -11 -21 -17
-21 -5 0 -8 6 -5 13 2 6 0 25 -4 42 l-9 29 21 -21 c15 -14 19 -27 14 -42z
m2710 22 c-2 -7 0 -13 5 -13 6 0 10 -7 10 -17 0 -14 -2 -14 -21 3 -12 11 -16
20 -9 22 7 3 5 11 -7 24 -18 20 -18 21 5 7 12 -8 20 -20 17 -26z m-2838 7 c1
-11 -2 -20 -6 -20 -5 0 -11 9 -14 20 -3 12 0 20 7 20 6 0 12 -9 13 -20z m83 5
c7 -9 10 -18 7 -21 -10 -11 -37 5 -37 21 0 19 14 19 30 0z m3344 -20 c22 -17
22 -16 -20 -37 -35 -17 -75 -19 -73 -3 0 6 7 9 14 7 8 -1 22 9 31 23 19 29 22
30 48 10z m-2951 -45 c-3 -23 -1 -40 4 -40 23 0 6 -66 -25 -100 -36 -39 -38
-37 -17 13 8 20 15 42 14 49 0 10 -2 10 -6 1 -2 -7 -9 -13 -15 -13 -6 0 -5 8
4 18 8 9 15 26 15 37 2 22 20 75 27 75 2 0 2 -18 -1 -40z m-100 16 c4 -10 0
-12 -14 -9 -10 3 -16 9 -13 14 8 13 21 11 27 -5z m-193 -6 c0 -5 -12 -10 -27
-10 -22 0 -25 2 -13 10 20 13 40 13 40 0z m-110 -30 c9 15 30 5 30 -15 0 -9
-6 -12 -17 -8 -12 5 -15 2 -10 -10 4 -10 2 -17 -5 -17 -6 0 -9 -3 -6 -6 3 -3
15 0 27 7 11 7 24 10 28 6 4 -5 1 -12 -7 -17 -8 -6 -10 -10 -4 -10 7 0 6 -20
-4 -60 l-15 -60 -35 3 c-32 4 -60 27 -33 27 6 0 11 4 11 9 0 5 -6 8 -12 7 -7
0 -15 4 -16 9 -2 6 -8 15 -13 21 -6 7 -4 16 7 25 13 10 17 10 24 -1 5 -8 7
-17 4 -21 -5 -8 37 -20 48 -13 13 8 9 21 -8 28 -10 4 -13 2 -8 -6 4 -7 3 -8
-4 -4 -7 4 -12 13 -12 21 0 7 -9 17 -20 20 -11 3 -20 13 -20 21 0 8 -5 14 -12
14 -6 0 -9 2 -6 5 3 3 17 0 32 -6 33 -16 47 -3 18 17 -31 22 -27 38 4 18 21
-14 27 -15 34 -4z m340 16 c0 -2 -7 -7 -16 -10 -8 -3 -12 -2 -9 4 6 10 25 14
25 6z m-255 -36 c3 -5 1 -10 -4 -10 -6 0 -11 5 -11 10 0 6 2 10 4 10 3 0 8 -4
11 -10z m-192 -17 c11 -6 9 -43 -3 -43 -5 0 -7 7 -4 15 6 15 -1 17 -80 19 -16
1 -31 7 -34 15 -4 11 6 12 54 6 33 -4 62 -9 67 -12z m2894 -65 c-3 -7 -5 -2
-5 12 0 14 2 19 5 13 2 -7 2 -19 0 -25z m-2553 6 c22 -21 20 -34 -4 -34 -11 0
-29 -5 -40 -12 -10 -7 -22 -10 -25 -6 -11 11 7 57 23 61 29 8 30 7 46 -9z m71
-4 c3 -5 -1 -10 -10 -10 -9 0 -13 5 -10 10 3 6 8 10 10 10 2 0 7 -4 10 -10z
m-159 -41 c14 -16 15 -23 7 -26 -7 -3 -13 -11 -13 -19 0 -8 -5 -14 -11 -14 -6
0 -9 9 -6 20 3 11 2 22 -3 25 -4 3 -11 -7 -14 -21 -4 -13 -17 -29 -29 -33 -29
-11 -45 -1 -23 15 10 7 15 17 12 23 -4 5 2 14 11 20 14 8 15 10 3 11 -13 0
-13 1 0 10 24 15 45 12 66 -11z m254 1 c0 -5 -4 -10 -10 -10 -5 0 -10 5 -10
10 0 6 5 10 10 10 6 0 10 -4 10 -10z m48 -10 c-14 -22 -24 -19 -15 5 4 8 11
15 17 15 6 0 6 -7 -2 -20z m-658 -50 c0 -5 -4 -10 -10 -10 -5 0 -10 5 -10 10
0 6 5 10 10 10 6 0 10 -4 10 -10z m10 -46 c0 -8 -4 -12 -10 -9 -5 3 -10 10
-10 16 0 5 5 9 10 9 6 0 10 -7 10 -16z m640 -51 c0 -5 -5 -15 -10 -23 -8 -12
-10 -11 -10 8 0 12 5 22 10 22 6 0 10 -3 10 -7z m-10 -182 c0 -4 -13 -8 -29
-7 -16 1 -27 4 -24 9 6 10 53 9 53 -2z m40 -91 c0 -5 -4 -10 -10 -10 -5 0 -10
5 -10 10 0 6 5 10 10 10 6 0 10 -4 10 -10z m-55 -28 c0 -18 -20 -15 -23 4 -3
10 1 15 10 12 7 -3 13 -10 13 -16z m2295 -716 c0 -3 -4 -8 -10 -11 -5 -3 -10
-1 -10 4 0 6 5 11 10 11 6 0 10 -2 10 -4z m-2279 -139 c-13 -13 -26 -3 -16 12
3 6 11 8 17 5 6 -4 6 -10 -1 -17z m-141 4 c0 -6 -4 -13 -10 -16 -5 -3 -10 1
-10 9 0 9 5 16 10 16 6 0 10 -4 10 -9z m2200 -11 c0 -5 -4 -10 -10 -10 -5 0
-10 5 -10 10 0 6 5 10 10 10 6 0 10 -4 10 -10z m8 -59 c-7 -11 -16 -17 -21
-14 -4 3 0 11 10 19 24 18 25 17 11 -5z m-2043 -1 c3 -5 -1 -10 -9 -10 -9 0
-16 5 -16 10 0 6 4 10 9 10 6 0 13 -4 16 -10z m2080 -30 c-3 -5 -14 -10 -23
-10 -15 0 -15 2 -2 10 20 13 33 13 25 0z m-2058 -67 c14 -26 13 -26 -21 -13
-20 7 -26 16 -26 40 0 30 1 31 17 14 10 -9 23 -28 30 -41z m2023 26 c0 -5 -4
-9 -10 -9 -5 0 -10 7 -10 16 0 8 5 12 10 9 6 -3 10 -10 10 -16z m300 -19 c0
-5 -2 -10 -4 -10 -3 0 -8 5 -11 10 -3 6 -1 10 4 10 6 0 11 -4 11 -10z m-260
-62 c0 -21 -26 -24 -33 -4 -3 8 -3 24 0 35 5 20 6 20 19 4 7 -10 14 -26 14
-35z m-2430 6 c0 -2 -7 -4 -15 -4 -8 0 -15 4 -15 10 0 5 7 7 15 4 8 -4 15 -8
15 -10z m370 8 c0 -5 -7 -9 -15 -9 -8 0 -15 4 -15 9 0 4 7 8 15 8 8 0 15 -4
15 -8z m-315 -12 c-3 -5 -15 -10 -26 -10 -10 0 -19 5 -19 10 0 6 12 10 26 10
14 0 23 -4 19 -10z m355 -45 c5 3 11 1 15 -5 3 -5 -3 -10 -14 -10 -11 0 -23
-5 -26 -10 -8 -14 -35 6 -35 26 0 10 6 11 26 4 14 -6 29 -8 34 -5z m1980 11
c0 -3 -4 -8 -10 -11 -5 -3 -10 -1 -10 4 0 6 5 11 10 11 6 0 10 -2 10 -4z
m-2185 -16 c-3 -5 -11 -10 -16 -10 -6 0 -7 5 -4 10 3 6 11 10 16 10 6 0 7 -4
4 -10z m45 -10 c0 -11 -7 -20 -15 -20 -13 0 -14 4 -5 20 6 11 13 20 15 20 3 0
5 -9 5 -20z m2185 -21 c0 -14 6 -33 14 -43 19 -23 5 -33 -18 -12 -14 13 -18
26 -14 49 4 28 3 30 -11 18 -18 -15 -32 -9 -21 9 4 6 17 10 28 8 16 -2 22 -10
22 -29z m-2230 -19 c3 -5 1 -10 -4 -10 -6 0 -11 5 -11 10 0 6 2 10 4 10 3 0 8
-4 11 -10z m195 0 c0 -5 -4 -10 -10 -10 -5 0 -10 5 -10 10 0 6 5 10 10 10 6 0
10 -4 10 -10z m-348 -16 c-13 -9 -26 -13 -30 -9 -8 8 17 25 38 25 9 0 6 -6 -8
-16z m440 9 c-6 -2 -10 -9 -6 -14 3 -5 -6 -9 -20 -9 -15 0 -30 -8 -36 -20 -13
-24 -30 -18 -23 8 3 11 20 23 41 29 39 11 65 15 44 6z m-252 -31 c0 -4 -5 -13
-12 -20 -7 -7 -8 -12 -2 -12 6 0 15 5 22 12 7 7 12 8 12 3 0 -6 5 -3 11 5 8
12 9 10 4 -7 -5 -17 -2 -23 9 -23 9 0 16 -4 16 -10 0 -5 10 -10 23 -11 14 0
17 -2 7 -6 -8 -3 -23 -12 -32 -21 -12 -10 -18 -11 -18 -4 0 7 5 12 10 12 18 0
10 18 -10 23 -22 6 -38 -9 -18 -16 7 -2 9 -8 5 -13 -4 -5 -11 -4 -15 1 -4 6
-22 10 -39 11 -28 1 -33 -2 -33 -22 0 -32 -35 -33 -44 -1 -12 46 -7 66 19 73
14 3 22 11 18 17 -3 6 -1 7 5 3 7 -4 20 -2 29 3 22 13 33 14 33 3z m2194 -18
c11 -28 6 -39 -9 -20 -8 11 -15 23 -15 28 0 14 18 9 24 -8z m-2407 -14 c-1
-11 -2 -20 -3 -20 -1 0 -10 3 -18 6 -13 5 -14 9 -5 20 16 20 28 17 26 -6z
m440 -22 c-9 -6 -8 -8 4 -8 9 0 22 -7 29 -15 10 -12 9 -16 -4 -21 -9 -3 -13
-10 -10 -15 3 -5 1 -9 -4 -9 -10 0 -26 29 -24 43 1 4 -8 7 -20 7 -17 0 -19 3
-9 9 11 7 11 9 0 14 -11 4 -9 9 6 22 18 14 21 14 32 -2 10 -13 10 -18 0 -25z
m1958 2 c3 -5 17 -10 31 -10 26 0 29 -7 14 -30 -7 -12 -12 -11 -32 5 -13 11
-25 23 -28 26 -3 3 -12 9 -20 12 -10 4 -8 6 7 6 12 1 25 -3 28 -9z m-2473 -26
c-12 -8 -28 -13 -35 -11 -7 3 -1 9 13 15 37 16 47 14 22 -4z m118 6 c0 -5 -7
-10 -16 -10 -8 0 -12 5 -9 10 3 6 10 10 16 10 5 0 9 -4 9 -10z m33 -4 c4 -10
1 -13 -8 -9 -8 3 -12 9 -9 14 7 12 11 11 17 -5z m2307 -6 c0 -5 -7 -10 -15
-10 -8 0 -15 5 -15 10 0 6 7 10 15 10 8 0 15 -4 15 -10z m-2446 -31 c-19 -21
-19 -22 3 -15 19 6 21 4 18 -15 -5 -28 -22 -45 -32 -35 -5 4 1 14 11 22 19 13
19 14 -6 12 -22 -2 -26 -7 -24 -28 1 -20 6 -24 26 -22 14 2 32 12 40 23 10 12
20 16 29 10 8 -5 9 -11 3 -15 -6 -3 -8 -16 -4 -28 4 -18 2 -20 -16 -16 -14 4
-19 2 -15 -7 3 -8 -8 -20 -26 -30 -17 -8 -31 -20 -31 -25 0 -5 -18 -14 -40
-20 -22 -6 -40 -14 -40 -19 0 -4 16 -13 35 -21 42 -16 38 -26 -12 -30 -80 -6
-96 -3 -114 21 -25 32 -24 39 6 39 14 0 25 -4 25 -10 0 -5 6 -10 14 -10 15 0
29 29 24 51 -2 10 7 13 30 11 23 -1 40 5 60 23 l27 25 -44 0 c-38 0 -42 2 -31
15 10 13 15 13 21 3 11 -18 23 -2 14 19 -21 47 -16 60 30 84 37 20 44 16 19
-12z m396 9 c0 -18 -2 -20 -9 -8 -6 8 -7 18 -5 22 9 14 14 9 14 -14z m-260
-20 c0 -12 -68 -10 -75 2 -3 6 5 10 19 10 14 0 28 5 32 11 6 11 23 -6 24 -23z
m2531 19 c-1 -12 -15 -9 -19 4 -3 6 1 10 8 8 6 -3 11 -8 11 -12z m-2811 -18
c0 -14 -17 -10 -23 5 -4 10 -1 13 9 9 7 -3 14 -9 14 -14z m410 11 c0 -5 -6
-10 -14 -10 -8 0 -18 5 -21 10 -3 6 3 10 14 10 12 0 21 -4 21 -10z m104 -16
c3 -8 12 -14 21 -14 8 0 15 -5 15 -11 0 -6 -9 -9 -20 -6 -15 4 -20 0 -20 -14
0 -10 -4 -19 -10 -19 -5 0 -10 -5 -10 -11 0 -5 4 -8 9 -4 5 3 13 0 16 -6 12
-19 -3 -21 -35 -4 -27 14 -37 15 -61 5 -16 -7 -29 -16 -29 -21 0 -5 -13 -9
-29 -9 -17 0 -33 -5 -36 -11 -10 -15 2 -24 17 -12 7 6 25 13 40 17 24 5 28 3
34 -19 3 -14 13 -25 23 -25 13 0 13 -2 2 -9 -19 -12 -23 -61 -5 -61 21 0 17
-15 -11 -36 -14 -10 -25 -25 -25 -33 0 -21 -9 -8 -20 28 -6 21 -5 35 3 43 13
13 17 72 6 82 -10 10 -89 -5 -103 -20 -9 -9 -17 -9 -24 -2 -13 13 -52 -7 -52
-27 0 -17 -16 -20 -25 -5 -3 6 -2 10 2 10 5 0 14 9 20 19 10 16 9 22 -5 33
-15 11 -16 11 -4 -3 10 -14 10 -18 -4 -23 -8 -3 -23 -6 -32 -5 -11 0 -12 2 -4
6 6 2 9 9 6 14 -7 12 43 52 69 54 10 1 21 -4 24 -11 4 -10 10 -8 26 6 11 11
25 20 30 20 10 0 -10 -29 -28 -42 -17 -13 6 -9 33 6 15 8 35 17 45 20 22 7 13
26 -12 26 -19 0 -21 20 -7 51 5 12 22 15 89 12 71 -3 80 -1 65 11 -10 7 -18
16 -18 19 0 12 28 -4 34 -19z m198 14 c-8 -8 -6 -16 10 -30 l21 -18 -31 0
c-26 0 -29 -3 -25 -22 3 -13 3 -20 -1 -17 -10 9 -14 69 -4 69 5 0 7 4 4 9 -4
5 0 12 6 14 23 9 32 7 20 -5z m1948 -8 c0 -5 -2 -10 -4 -10 -3 0 -8 5 -11 10
-3 6 -1 10 4 10 6 0 11 -4 11 -10z m-2625 -22 c-6 -22 -6 -23 10 -3 15 18 15
17 13 -18 -2 -20 -6 -37 -10 -37 -18 0 -38 14 -38 26 0 8 -4 13 -9 12 -5 -2
-9 2 -9 7 -1 6 6 9 14 7 8 -2 14 4 14 13 0 8 5 15 11 15 6 0 8 -9 4 -22z
m-115 2 c0 -5 -13 -10 -30 -10 -16 0 -30 -5 -30 -11 0 -6 6 -9 13 -6 6 2 20 0
29 -4 17 -9 48 12 48 32 0 5 5 9 10 9 15 0 12 -36 -5 -50 -8 -7 -25 -10 -39
-6 -14 3 -28 1 -32 -5 -5 -9 10 -10 57 -5 44 4 59 3 49 -3 -19 -13 -21 -48 -4
-55 19 -7 18 -32 -1 -40 -8 -3 -15 -1 -15 4 0 6 -9 10 -20 10 -11 0 -20 -4
-20 -10 0 -17 -20 -11 -27 8 -9 22 -63 97 -63 87 0 -5 -6 -3 -12 3 -10 10 -6
18 16 37 29 25 76 34 76 15z m317 -6 c-3 -3 -12 -4 -19 -1 -8 3 -5 6 6 6 11 1
17 -2 13 -5z m56 -1 c-7 -2 -19 -2 -25 0 -7 3 -2 5 12 5 14 0 19 -2 13 -5z
m2391 -2 c3 -5 0 -9 -7 -8 -40 1 -51 -3 -38 -15 11 -11 14 -10 18 0 3 6 9 9
15 6 6 -4 1 -12 -13 -20 l-24 -13 31 -1 c20 0 31 -5 31 -15 0 -18 -13 -20 -20
-2 -4 9 -6 9 -6 -1 -1 -8 7 -16 18 -19 17 -4 17 -7 4 -34 -16 -32 -20 -34 -43
-19 -12 8 -10 10 10 11 16 0 19 3 10 6 -8 3 -18 11 -22 17 -5 8 -8 7 -8 -1 0
-7 -7 -13 -15 -13 -8 0 -15 7 -15 15 0 8 7 15 15 15 17 0 10 29 -11 46 -11 9
-11 14 2 32 15 22 58 30 68 13z m-2408 -36 c-22 -17 -36 -19 -36 -7 0 14 12
22 34 22 21 -1 21 -1 2 -15z m462 6 c11 -6 10 -11 -3 -25 -23 -23 -33 -20 -27
9 5 27 10 29 30 16z m-168 -21 c0 -5 -8 -10 -17 -10 -15 0 -16 2 -3 10 19 12
20 12 20 0z m2407 -32 c-3 -7 -5 -2 -5 12 0 14 2 19 5 13 2 -7 2 -19 0 -25z
m-2953 -3 c-4 -8 -10 -15 -14 -15 -4 0 -10 7 -14 15 -4 10 1 15 14 15 13 0 18
-5 14 -15z m421 5 c-3 -5 -10 -10 -16 -10 -5 0 -9 5 -9 10 0 6 7 10 16 10 8 0
12 -4 9 -10z m125 0 c0 -5 -2 -10 -4 -10 -3 0 -8 5 -11 10 -3 6 -1 10 4 10 6
0 11 -4 11 -10z m-480 -10 c0 -5 -2 -10 -4 -10 -2 0 -11 -3 -19 -6 -8 -3 -17
2 -20 10 -5 12 0 16 18 16 14 0 25 -4 25 -10z m676 0 c18 -7 30 -7 39 0 9 8
14 6 18 -4 4 -10 1 -13 -9 -9 -10 4 -14 -2 -14 -21 0 -14 -6 -27 -12 -28 -43
-5 -66 -3 -60 6 9 16 10 46 0 52 -4 3 -8 -2 -8 -10 0 -20 -16 -21 -23 -2 -11
27 20 34 69 16z m-176 -31 c8 -15 7 -19 -5 -19 -8 0 -15 5 -15 10 0 6 -4 10
-10 10 -5 0 -7 -7 -4 -15 4 -10 0 -15 -14 -15 -11 0 -22 8 -25 19 -3 14 -1 18
9 14 8 -3 14 -1 14 4 0 17 40 11 50 -8z m2255 1 c-3 -5 -11 -10 -16 -10 -6 0
-7 5 -4 10 3 6 11 10 16 10 6 0 7 -4 4 -10z m147 -25 c3 -13 1 -22 -3 -19 -9
5 -13 44 -5 44 2 0 6 -11 8 -25z m-265 -1 c-3 -3 -12 -4 -19 -1 -8 3 -5 6 6 6
11 1 17 -2 13 -5z m-2244 -23 c-5 -21 -29 -35 -45 -25 -11 7 20 44 38 44 7 0
10 -8 7 -19z m2330 -1 c14 -17 14 -20 2 -20 -8 0 -15 5 -15 10 0 6 -10 15 -22
20 -21 8 -22 9 -3 9 11 1 28 -8 38 -19z m-2723 0 c0 -5 -4 -10 -10 -10 -5 0
-10 5 -10 10 0 6 5 10 10 10 6 0 10 -4 10 -10z m517 4 c-3 -3 -12 -4 -19 -1
-8 3 -5 6 6 6 11 1 17 -2 13 -5z m243 -3 c0 -6 -4 -13 -10 -16 -5 -3 -10 1
-10 9 0 9 5 16 10 16 6 0 10 -4 10 -9z m1857 2 c-10 -3 -16 -11 -13 -18 2 -7
-2 -16 -11 -19 -11 -4 -14 -2 -10 9 4 8 -1 19 -11 24 -13 8 -8 10 23 10 22 -1
32 -3 22 -6z m-2427 -18 c0 -17 -16 -20 -25 -5 -5 8 -11 7 -21 -1 -11 -9 -14
-8 -14 5 0 11 9 16 30 16 20 0 30 -5 30 -15z m60 5 c0 -5 -7 -10 -16 -10 -8 0
-12 5 -9 10 3 6 10 10 16 10 5 0 9 -4 9 -10z m460 -10 c0 -5 -8 -10 -17 -10
-15 0 -16 2 -3 10 19 12 20 12 20 0z m-280 -16 c0 -2 -7 -4 -15 -4 -8 0 -15 4
-15 10 0 5 7 7 15 4 8 -4 15 -8 15 -10z m80 2 c0 -11 -19 -15 -25 -6 -3 5 1
10 9 10 9 0 16 -2 16 -4z m2048 -10 c-7 -8 -15 -12 -17 -11 -5 6 10 25 20 25
5 0 4 -6 -3 -14z m-2168 0 c0 -3 -4 -8 -10 -11 -5 -3 -10 -1 -10 4 0 6 5 11
10 11 6 0 10 -2 10 -4z m335 -6 c-3 -5 -11 -10 -16 -10 -6 0 -7 5 -4 10 3 6
11 10 16 10 6 0 7 -4 4 -10z m75 -11 c0 -6 -4 -7 -10 -4 -5 3 -10 1 -10 -4 0
-6 -9 -11 -20 -11 -27 0 -25 19 3 29 24 9 37 6 37 -10z m1808 -8 c11 -7 10 -9
-3 -14 -9 -4 -14 -3 -10 2 3 5 -1 12 -7 14 -7 3 -8 6 -3 6 6 0 16 -3 23 -8z
m318 -70 c-15 -14 -16 -14 -16 2 0 9 5 17 11 17 8 0 8 5 -1 15 -7 8 -9 22 -5
32 6 15 9 11 17 -16 7 -27 6 -37 -6 -50z m-2986 55 c0 -16 -18 -31 -27 -22 -8
8 5 36 17 36 5 0 10 -6 10 -14z m903 0 c3 -8 3 -17 0 -20 -9 -9 -34 15 -27 25
8 13 21 11 27 -5z m-53 -16 c0 -6 -7 -13 -15 -16 -8 -4 -15 -14 -15 -23 0 -13
2 -13 9 -2 11 16 31 6 31 -16 0 -12 -7 -14 -30 -9 -23 4 -30 2 -30 -10 0 -14
-3 -14 -15 -4 -20 17 -19 27 5 35 11 4 17 11 14 17 -4 6 1 17 11 25 22 16 35
17 35 3z m-250 -19 c0 -5 -6 -12 -12 -15 -7 -3 5 -3 27 -1 30 4 35 3 20 -4
-36 -17 -71 -13 -72 9 -1 14 4 20 18 20 10 0 19 -4 19 -9z m2065 -1 c-3 -5
-12 -7 -20 -3 -21 7 -19 13 6 13 11 0 18 -4 14 -10z m-2802 -35 c-3 -8 -11
-15 -19 -15 -12 0 -12 4 -2 19 13 22 30 18 21 -4z m67 10 c0 -8 -7 -15 -15
-15 -26 0 -18 20 13 29 1 1 2 -6 2 -14z m2868 -13 c2 -7 -2 -10 -12 -6 -9 3
-16 11 -16 16 0 13 23 5 28 -10z m-1888 -2 c0 -5 -7 -10 -15 -10 -8 0 -15 5
-15 10 0 6 7 10 15 10 8 0 15 -4 15 -10z m-70 -24 c0 -3 -4 -8 -10 -11 -5 -3
-10 -1 -10 4 0 6 5 11 10 11 6 0 10 -2 10 -4z"/>
<path d="M430 2480 c0 -5 12 -10 26 -10 14 0 23 -4 19 -10 -3 -5 -1 -10 4 -10
21 0 11 21 -15 30 -32 12 -34 12 -34 0z"/>
<path d="M395 2300 c3 -5 8 -10 11 -10 2 0 4 5 4 10 0 6 -5 10 -11 10 -5 0 -7
-4 -4 -10z"/>
<path d="M605 480 c-3 -5 -2 -10 4 -10 5 0 13 5 16 10 3 6 2 10 -4 10 -5 0
-13 -4 -16 -10z"/>
<path d="M205 180 c3 -5 8 -10 11 -10 2 0 4 5 4 10 0 6 -5 10 -11 10 -5 0 -7
-4 -4 -10z"/>
<path d="M580 355 c0 -26 23 -35 36 -14 3 6 15 9 25 6 22 -6 36 10 22 24 -6 6
-20 6 -36 0 -17 -7 -27 -7 -27 -1 0 6 -4 10 -10 10 -5 0 -10 -11 -10 -25z"/>
<path d="M116 290 c-8 -16 -12 -30 -9 -30 7 0 42 43 43 53 0 18 -20 4 -34 -23z"/>
<path d="M950 240 c0 -5 7 -7 15 -4 8 4 15 8 15 10 0 2 -7 4 -15 4 -8 0 -15
-4 -15 -10z"/>
<path d="M1523 3983 c-7 -3 -13 -9 -13 -15 0 -6 7 -8 15 -4 8 3 15 1 15 -3 0
-5 -5 -11 -12 -13 -7 -3 -8 -7 -2 -11 5 -3 16 -2 23 3 11 6 11 11 0 27 -8 11
-20 18 -26 16z"/>
<path d="M941 3940 c-8 -4 -10 -13 -6 -19 5 -9 -5 -11 -34 -10 -22 2 -43 0
-46 -3 -7 -7 80 -63 113 -73 17 -5 22 -2 23 12 0 10 2 29 4 43 4 39 -6 46 -21
14 l-13 -29 5 32 c4 35 -4 46 -25 33z"/>
<path d="M1029 3923 c-13 -16 -12 -17 4 -4 9 7 17 15 17 17 0 8 -8 3 -21 -13z"/>
<path d="M1017 3882 c-18 -20 -23 -72 -8 -72 10 0 19 22 27 65 5 30 2 31 -19
7z"/>
<path d="M820 3860 c-9 -17 -8 -20 9 -20 10 0 48 -9 82 -20 35 -10 65 -18 67
-16 4 5 -124 76 -137 76 -6 0 -15 -9 -21 -20z"/>
<path d="M2531 3872 c-1 -7 10 -23 23 -35 13 -12 32 -49 42 -81 l19 -59 6 33
c5 24 1 49 -14 87 -19 46 -25 54 -44 50 -12 -2 -24 1 -27 7 -3 7 -5 6 -5 -2z"/>
<path d="M2436 3855 c4 -8 11 -15 16 -15 6 0 5 6 -2 15 -7 8 -14 15 -16 15 -2
0 -1 -7 2 -15z"/>
<path d="M2612 3839 c12 -35 18 -37 18 -5 0 13 -6 26 -14 29 -12 5 -13 1 -4
-24z"/>
<path d="M2260 3830 c0 -5 2 -10 5 -10 3 0 37 -9 75 -19 39 -11 68 -16 65 -10
-4 5 -24 12 -46 15 -29 5 -37 9 -27 16 9 6 6 7 -9 3 -12 -3 -24 -1 -28 5 -8
13 -35 13 -35 0z"/>
<path d="M796 3814 c-8 -20 27 -32 115 -38 68 -5 72 -4 44 9 -16 7 -34 11 -38
8 -5 -3 -19 -1 -30 5 -53 25 -85 31 -91 16z"/>
<path d="M2256 3795 c5 -13 35 -25 64 -25 21 0 0 15 -37 28 -26 8 -31 8 -27
-3z"/>
<path d="M0 3740 c0 -11 4 -20 9 -20 6 0 9 9 8 20 -1 11 -5 20 -9 20 -4 0 -8
-9 -8 -20z"/>
<path d="M620 3752 c0 -4 46 -13 103 -20 56 -6 116 -14 132 -17 l30 -6 -25 15
c-47 27 -240 50 -240 28z"/>
<path d="M560 3740 c0 -13 20 -13 40 0 12 8 9 10 -12 10 -16 0 -28 -4 -28 -10z"/>
<path d="M488 3643 c7 -3 16 -2 19 1 4 3 -2 6 -13 5 -11 0 -14 -3 -6 -6z"/>
<path d="M542 3643 c-31 -6 -17 -23 19 -23 16 0 29 -5 29 -11 0 -7 -14 -8 -42
-4 l-43 7 29 -31 c19 -20 33 -27 41 -21 6 5 26 5 50 0 57 -13 75 -11 40 5 -34
16 -11 20 27 6 17 -6 29 -5 43 5 17 13 16 14 -17 14 -22 0 -38 6 -41 14 -4 9
-1 13 6 11 35 -10 77 -13 77 -5 0 15 -172 42 -218 33z m91 -40 c-7 -2 -19 -2
-25 0 -7 3 -2 5 12 5 14 0 19 -2 13 -5z"/>
<path d="M765 3580 c-3 -5 1 -10 9 -10 8 0 18 5 21 10 3 6 -1 10 -9 10 -8 0
-18 -4 -21 -10z"/>
<path d="M528 3554 c17 -32 36 -44 52 -34 13 8 13 10 1 10 -8 0 -26 10 -39 23
-23 21 -24 21 -14 1z"/>
<path d="M1328 3553 c12 -2 30 -2 40 0 9 3 -1 5 -23 4 -22 0 -30 -2 -17 -4z"/>
<path d="M608 3523 c7 -3 16 -2 19 1 4 3 -2 6 -13 5 -11 0 -14 -3 -6 -6z"/>
<path d="M868 3523 c7 -3 16 -2 19 1 4 3 -2 6 -13 5 -11 0 -14 -3 -6 -6z"/>
<path d="M2255 3480 c3 -5 11 -10 16 -10 6 0 7 5 4 10 -3 6 -11 10 -16 10 -6
0 -7 -4 -4 -10z"/>
<path d="M494 3472 c3 -5 -7 -15 -23 -22 -16 -6 -32 -18 -35 -27 -4 -9 -13
-12 -24 -9 -22 7 -64 -22 -44 -30 6 -3 10 -10 6 -15 -3 -5 10 -16 28 -23 l33
-14 -49 1 c-47 2 -50 0 -57 -28 -6 -20 -5 -32 4 -37 14 -8 97 1 113 13 6 5 15
5 19 1 5 -4 5 -1 1 6 -4 6 -2 12 3 12 18 0 12 18 -6 23 -15 4 -14 5 3 6 11 0
33 15 50 33 16 18 21 26 11 19 -23 -18 -59 -20 -72 -4 -11 14 -58 6 -49 -8 3
-5 -3 -9 -12 -9 -38 0 16 37 73 49 39 9 52 16 42 22 -11 6 -8 9 9 9 12 0 22 5
22 11 0 5 5 7 10 4 6 -3 10 -1 10 5 0 7 -7 9 -16 6 -8 -3 -25 -1 -36 5 -12 6
-18 7 -14 1z"/>
<path d="M600 3383 c-8 -3 -17 -9 -20 -12 -3 -3 -14 -11 -24 -17 -28 -15 -31
-34 -7 -34 12 0 21 -4 21 -10 0 -5 -6 -10 -14 -10 -31 0 -22 -15 9 -16 19 0
32 3 30 7 -3 3 9 9 26 13 17 3 28 10 24 16 -4 6 -11 8 -16 5 -5 -4 -9 -2 -9 4
0 5 8 15 18 21 15 10 15 11 -3 7 -11 -3 -29 -8 -40 -12 -11 -3 -7 1 10 11 16
9 45 17 65 17 31 -1 32 0 10 7 -30 10 -60 11 -80 3z"/>
<path d="M2760 3385 c0 -1 11 -10 25 -19 19 -13 23 -13 19 -2 -4 12 -44 31
-44 21z"/>
<path d="M276 3344 c-9 -24 -7 -28 9 -14 17 14 20 30 6 30 -5 0 -12 -7 -15
-16z"/>
<path d="M300 3325 c0 -8 4 -15 9 -15 5 0 11 7 15 15 3 9 0 15 -9 15 -8 0 -15
-7 -15 -15z"/>
<path d="M2614 3265 c6 -13 14 -21 18 -19 13 8 9 18 -11 31 -17 11 -18 10 -7
-12z"/>
<path d="M255 3260 c9 -15 45 -32 45 -22 0 5 -12 14 -26 20 -14 7 -23 8 -19 2z"/>
<path d="M2911 3117 c2 -1 15 -11 29 -22 l25 -20 -19 23 c-11 12 -24 22 -29
22 -6 0 -8 -1 -6 -3z"/>
<path d="M2966 3097 c3 -10 9 -15 12 -12 3 3 0 11 -7 18 -10 9 -11 8 -5 -6z"/>
<path d="M2954 3059 c-3 -6 -2 -15 3 -20 5 -5 9 -1 9 11 0 23 -2 24 -12 9z"/>
<path d="M470 2879 c-7 -11 -10 -23 -7 -25 2 -2 9 7 15 21 14 30 7 33 -8 4z"/>
<path d="M555 2880 c-3 -5 -1 -10 4 -10 6 0 11 5 11 10 0 6 -2 10 -4 10 -3 0
-8 -4 -11 -10z"/>
<path d="M551 2834 c0 -11 3 -14 6 -6 3 7 2 16 -1 19 -3 4 -6 -2 -5 -13z"/>
<path d="M1156 2759 c3 -5 -16 -10 -43 -10 -84 -3 -146 -17 -137 -31 3 -5 0
-15 -6 -23 -10 -12 -9 -15 5 -15 14 0 15 -3 5 -15 -7 -8 -19 -15 -26 -15 -17
0 -18 -26 -1 -34 8 -3 5 -11 -12 -25 -13 -12 -18 -21 -11 -21 7 0 10 -8 7 -20
-6 -23 7 -35 48 -44 21 -5 26 -4 15 3 -13 9 -13 11 0 15 41 14 99 26 111 23 8
-2 11 -2 7 0 -4 2 -5 10 -2 18 4 10 30 12 107 10 108 -2 137 -9 137 -30 0 -8
14 -15 33 -17 58 -6 33 -23 -38 -26 -40 -2 -73 -8 -77 -15 -6 -9 -8 -9 -8 1 0
8 -15 5 -47 -11 -27 -13 -90 -45 -142 -70 -51 -26 -99 -47 -105 -47 -23 0 -54
-55 -51 -90 2 -26 9 -35 33 -45 41 -18 82 -20 114 -7 26 11 98 5 108 -8 8 -12
80 -22 80 -12 0 6 -7 12 -15 16 -22 8 -19 60 6 82 l21 19 -4 -42 c-2 -24 1
-43 6 -43 5 0 18 -8 29 -17 14 -14 33 -17 80 -15 34 2 80 4 102 5 53 2 109
-21 95 -38 -18 -22 -140 -40 -141 -21 0 6 -4 1 -9 -10 -5 -14 -17 -21 -33 -21
-14 0 -48 -6 -77 -13 -50 -12 -79 -16 -145 -19 -29 -2 -28 -3 15 -21 36 -15
71 -19 183 -19 75 -1 145 3 155 8 9 5 33 14 52 19 25 7 29 10 13 11 -25 1 -33
21 -9 21 8 0 17 6 19 13 4 10 6 10 6 0 1 -7 5 -13 11 -13 5 0 7 7 4 15 -5 11
2 15 26 15 43 0 109 62 90 85 -7 8 -21 15 -32 15 -32 0 -11 17 29 25 54 9 83
31 83 60 0 14 6 25 13 25 8 0 22 9 32 20 20 22 46 25 74 11 12 -7 35 -5 70 6
60 17 116 11 126 -15 4 -9 8 -36 9 -60 1 -34 8 -48 31 -67 17 -13 42 -26 58
-29 15 -3 27 -12 27 -19 0 -21 141 -87 184 -87 20 0 35 -4 32 -8 -6 -10 126 3
182 19 52 14 46 23 -16 26 -69 3 -91 6 -86 15 2 3 -16 10 -41 13 -25 4 -45 11
-45 16 0 5 -10 9 -23 9 -13 0 -27 4 -32 9 -6 5 -21 12 -34 16 -19 6 -23 4 -18
-8 5 -13 0 -16 -31 -12 -82 8 -99 34 -24 36 26 1 56 3 67 4 11 1 50 2 88 3 66
2 68 3 84 36 15 32 15 37 -1 60 -16 25 -15 26 1 26 44 0 93 -22 107 -47 12
-24 12 -28 -8 -45 -20 -17 -20 -17 -2 -18 11 0 36 11 55 24 20 13 56 27 80 30
76 10 89 35 44 84 -51 55 -123 89 -213 101 -46 6 -86 13 -89 16 -12 12 -8 35
6 35 8 0 21 6 28 14 17 17 129 30 151 18 9 -5 25 -7 35 -5 11 3 19 0 19 -6 0
-6 4 -11 10 -11 5 0 7 6 4 13 -4 10 3 12 28 8 19 -3 26 -6 16 -9 -21 -4 -24
-22 -4 -22 8 0 21 -3 29 -6 13 -5 14 -1 5 29 -8 26 -15 34 -27 30 -10 -3 -12
-2 -4 4 6 4 11 25 11 45 0 41 -33 73 -64 61 -10 -3 -15 -2 -12 3 4 5 -43 10
-110 11 -65 1 -111 0 -104 -3 6 -3 12 -9 12 -14 0 -14 -31 -20 -50 -10 -13 7
-20 6 -22 -2 -3 -8 -25 -12 -62 -11 -44 1 -56 -2 -53 -12 4 -9 -1 -11 -14 -8
-10 3 -19 0 -19 -6 0 -21 -29 -11 -32 12 -3 20 -6 18 -31 -18 -23 -33 -27 -36
-27 -17 0 12 -4 22 -10 22 -14 0 -50 -37 -50 -51 0 -6 -6 -9 -14 -6 -10 4 -16
-6 -20 -38 -4 -24 -13 -49 -21 -55 -8 -6 -11 -17 -9 -25 3 -7 -2 -15 -13 -17
-19 -5 -63 11 -63 22 0 12 -104 -2 -119 -15 -18 -17 -54 -2 -72 31 -7 13 -16
24 -21 24 -4 0 -5 18 -2 39 6 40 -2 47 -33 28 -8 -5 -15 1 -19 18 -3 14 -10
25 -15 25 -5 0 -9 6 -9 14 0 7 -6 19 -13 25 -11 8 -18 6 -31 -8 -13 -15 -14
-20 -4 -24 7 -2 10 -7 7 -11 -4 -4 -14 0 -22 9 -9 8 -20 15 -25 15 -6 0 -20
12 -31 28 -11 15 -21 21 -21 15 0 -19 -13 -16 -38 8 -12 11 -27 17 -33 13 -22
-13 -93 -12 -133 1 -23 8 -66 17 -96 21 -30 4 -57 10 -60 14 -7 10 -101 19
-94 9z m1521 -355 c42 -32 40 -44 -6 -28 -22 7 -74 14 -116 15 -83 2 -104 13
-53 28 52 16 144 8 175 -15z m-1322 -4 c33 -1 -22 -26 -75 -34 -25 -4 -58 -12
-73 -18 -45 -18 -42 -1 5 24 57 30 79 37 103 32 11 -2 29 -4 40 -4z m865 -144
c0 -9 -30 -14 -35 -6 -4 6 3 10 14 10 12 0 21 -2 21 -4z"/>
<path d="M3100 2529 c0 -5 5 -7 10 -4 6 3 10 8 10 11 0 2 -4 4 -10 4 -5 0 -10
-5 -10 -11z"/>
<path d="M3850 2513 c0 -8 -15 -13 -40 -13 -29 0 -42 -5 -50 -20 -10 -18 -8
-20 19 -20 16 0 32 6 35 13 3 9 8 8 18 -3 7 -9 26 -14 43 -13 17 2 38 3 47 4
15 0 15 3 5 20 -13 21 -23 24 -32 9 -4 -6 -14 -1 -25 12 -11 13 -19 17 -20 11z"/>
<path d="M928 2473 c7 -3 16 -2 19 1 4 3 -2 6 -13 5 -11 0 -14 -3 -6 -6z"/>
<path d="M3440 2452 c0 -4 9 -8 20 -9 11 -1 18 2 15 8 -7 11 -35 12 -35 1z"/>
<path d="M3773 2443 c-19 -7 -16 -23 5 -23 14 0 15 -2 2 -10 -11 -7 -12 -12
-3 -21 8 -8 13 -6 18 10 9 28 22 27 27 -3 6 -28 -17 -43 -38 -25 -7 6 -23 8
-35 4 -21 -7 -21 -9 -6 -20 10 -7 41 -12 69 -11 41 1 52 5 54 19 1 10 -4 21
-12 24 -8 3 -14 14 -14 24 0 12 -7 19 -18 19 -10 0 -22 4 -27 9 -6 5 -16 6
-22 4z"/>
<path d="M3361 2364 c0 -11 3 -14 6 -6 3 7 2 16 -1 19 -3 4 -6 -2 -5 -13z"/>
<path d="M80 2359 c0 -5 5 -7 10 -4 6 3 10 8 10 11 0 2 -4 4 -10 4 -5 0 -10
-5 -10 -11z"/>
<path d="M3695 2340 c3 -5 8 -10 11 -10 2 0 4 5 4 10 0 6 -5 10 -11 10 -5 0
-7 -4 -4 -10z"/>
<path d="M3150 2310 c0 -5 5 -10 11 -10 5 0 7 5 4 10 -3 6 -8 10 -11 10 -2 0
-4 -4 -4 -10z"/>
<path d="M3638 2274 c-26 -6 -49 -9 -52 -6 -4 3 -6 0 -6 -7 0 -8 8 -11 20 -8
11 3 20 1 20 -4 0 -5 21 -9 46 -9 25 0 43 4 39 9 -11 19 18 24 32 6 7 -11 13
-14 13 -8 0 6 9 9 20 6 11 -3 20 0 20 6 0 6 -9 11 -20 11 -11 0 -20 3 -20 8 0
11 -60 10 -112 -4z"/>
<path d="M3830 2271 c0 -11 4 -21 9 -21 18 0 21 18 6 30 -13 10 -15 9 -15 -9z"/>
<path d="M3935 2270 c3 -5 8 -10 11 -10 2 0 4 5 4 10 0 6 -5 10 -11 10 -5 0
-7 -4 -4 -10z"/>
<path d="M3456 2259 c3 -5 12 -9 20 -9 8 0 14 -6 14 -14 0 -7 9 -16 20 -19 21
-5 37 8 21 18 -6 3 -8 11 -5 18 3 8 -8 13 -36 13 -22 1 -37 -2 -34 -7z"/>
<path d="M3361 2238 c-1 -20 10 -28 55 -38 l33 -8 -17 26 c-9 13 -18 20 -20
13 -2 -6 -10 -11 -18 -11 -9 0 -12 5 -8 12 4 6 3 8 -4 4 -5 -3 -13 0 -15 6 -4
8 -6 7 -6 -4z"/>
<path d="M3800 2225 c0 -8 5 -15 10 -15 6 0 10 7 10 15 0 8 -4 15 -10 15 -5 0
-10 -7 -10 -15z"/>
<path d="M2495 2210 c-30 -8 -30 -8 8 -9 20 0 37 4 37 9 0 11 -2 11 -45 0z"/>
<path d="M3745 2211 c-6 -11 9 -23 19 -14 9 9 7 23 -3 23 -6 0 -12 -4 -16 -9z"/>
<path d="M2493 2183 c9 -2 23 -2 30 0 6 3 -1 5 -18 5 -16 0 -22 -2 -12 -5z"/>
<path d="M1308 2158 c13 -12 105 -14 109 -2 2 7 -17 11 -56 10 -33 -1 -57 -4
-53 -8z"/>
<path d="M3235 2150 c-3 -5 3 -10 14 -10 11 0 23 5 26 10 3 6 -3 10 -14 10
-11 0 -23 -4 -26 -10z"/>
<path d="M3685 2150 c-3 -5 3 -10 14 -10 12 0 21 5 21 10 0 6 -6 10 -14 10 -8
0 -18 -4 -21 -10z"/>
<path d="M3229 2117 c-1 -10 -3 -21 -4 -27 -1 -5 -3 -14 -4 -20 0 -5 -9 -10
-18 -11 -14 0 -13 -2 5 -9 20 -8 27 -21 23 -42 -1 -11 37 -10 43 1 3 4 -6 13
-20 20 -17 8 -24 17 -20 27 3 9 6 22 6 29 0 9 8 11 23 8 12 -3 20 -4 17 -2 -3
2 -15 13 -27 23 -21 17 -23 17 -24 3z"/>
<path d="M3810 2110 c0 -12 -4 -19 -9 -15 -5 3 -12 1 -16 -5 -4 -6 6 -10 24
-10 34 0 39 13 16 36 -13 14 -15 13 -15 -6z"/>
<path d="M3460 2112 c0 -12 19 -26 26 -19 2 2 -2 10 -11 17 -9 8 -15 8 -15 2z"/>
<path d="M3742 2090 c-16 -36 -51 -40 -71 -9 -12 20 -11 21 6 15 14 -6 15 -4
6 5 -17 17 -40 5 -38 -20 1 -11 4 -24 8 -27 3 -4 9 -33 13 -65 7 -67 24 -80
24 -19 0 36 3 40 25 40 14 0 25 4 25 9 0 5 18 0 41 -11 26 -12 39 -24 35 -33
-2 -7 2 -16 10 -19 24 -9 27 -8 22 19 -3 13 0 26 6 29 6 2 0 5 -14 5 -34 2
-52 15 -45 34 5 12 2 14 -15 10 -21 -6 -22 -3 -18 31 5 44 -3 46 -20 6z m8
-40 c0 -5 -5 -10 -11 -10 -5 0 -7 5 -4 10 3 6 8 10 11 10 2 0 4 -4 4 -10z"/>
<path d="M3380 2101 c0 -5 5 -13 10 -16 6 -3 10 -2 10 4 0 5 -4 13 -10 16 -5
3 -10 2 -10 -4z"/>
<path d="M3344 2055 c-1 -25 2 -42 5 -38 3 4 13 8 21 8 17 0 16 40 -1 62 -19
22 -25 15 -25 -32z"/>
<path d="M3910 2090 c-13 -8 -13 -11 -1 -22 11 -10 14 -10 18 0 3 6 11 12 19
12 8 0 14 5 14 10 0 13 -30 13 -50 0z"/>
<path d="M3155 2080 c-3 -6 1 -7 9 -4 18 7 21 14 7 14 -6 0 -13 -4 -16 -10z"/>
<path d="M3700 2079 c0 -5 5 -7 10 -4 6 3 10 8 10 11 0 2 -4 4 -10 4 -5 0 -10
-5 -10 -11z"/>
<path d="M3596 2065 c-9 -24 -7 -35 4 -35 5 0 7 7 4 15 -5 11 -2 13 11 9 12
-5 16 -3 13 6 -7 21 -25 23 -32 5z"/>
<path d="M3438 2063 c7 -3 16 -2 19 1 4 3 -2 6 -13 5 -11 0 -14 -3 -6 -6z"/>
<path d="M3480 2059 c0 -5 5 -7 10 -4 6 3 10 8 10 11 0 2 -4 4 -10 4 -5 0 -10
-5 -10 -11z"/>
<path d="M3134 2041 c20 -22 20 -28 -1 -49 -16 -16 -15 -17 5 -20 12 -2 22
-10 22 -18 0 -28 20 -13 21 16 1 17 2 38 2 48 1 9 -4 16 -11 15 -7 -2 -12 1
-12 6 0 5 -9 11 -21 14 -19 5 -20 4 -5 -12z"/>
<path d="M3540 2052 c0 -6 -8 -13 -17 -15 -16 -4 -16 -5 -1 -6 18 -1 34 16 24
26 -3 4 -6 1 -6 -5z"/>
<path d="M3310 2040 c0 -5 5 -10 11 -10 5 0 7 5 4 10 -3 6 -8 10 -11 10 -2 0
-4 -4 -4 -10z"/>
<path d="M3473 2033 c-7 -2 -13 -9 -13 -15 0 -6 7 -8 15 -4 12 4 15 -5 15 -50
0 -33 4 -53 10 -49 5 3 7 13 4 23 -4 11 2 8 15 -8 l21 -25 0 23 c0 12 -5 22
-10 22 -6 0 -10 6 -8 13 3 13 -24 77 -32 76 -3 0 -11 -3 -17 -6z"/>
<path d="M3899 2038 c-13 -57 -6 -74 21 -51 12 11 16 20 9 24 -6 3 -10 10 -9
15 1 8 -19 20 -21 12z"/>
<path d="M500 2015 c0 -17 9 -19 28 -6 11 7 10 10 -3 15 -23 9 -25 8 -25 -9z"/>
<path d="M3950 2016 c0 -8 5 -18 10 -21 6 -3 10 1 10 9 0 8 -4 18 -10 21 -5 3
-10 -1 -10 -9z"/>
<path d="M3980 2010 c0 -5 5 -10 11 -10 5 0 7 5 4 10 -3 6 -8 10 -11 10 -2 0
-4 -4 -4 -10z"/>
<path d="M3290 1990 c8 -5 20 -10 25 -10 6 0 3 5 -5 10 -8 5 -19 10 -25 10 -5
0 -3 -5 5 -10z"/>
<path d="M3750 1964 c0 -8 5 -12 10 -9 6 4 8 11 5 16 -9 14 -15 11 -15 -7z"/>
<path d="M3348 1962 c-10 -2 -18 -8 -18 -13 0 -13 27 -11 35 2 9 13 4 16 -17
11z"/>
<path d="M48 1952 c-34 -2 -48 -7 -48 -18 0 -16 18 -17 98 -8 30 4 52 12 52
19 0 12 -14 13 -102 7z"/>
<path d="M195 1949 c-5 -7 -4 -14 3 -17 7 -2 12 -10 12 -18 0 -15 18 -18 44
-8 20 8 11 24 -14 24 -10 0 -23 7 -28 16 -7 13 -11 14 -17 3z"/>
<path d="M3555 1930 c4 -6 11 -8 16 -5 14 9 11 15 -7 15 -8 0 -12 -5 -9 -10z"/>
<path d="M3862 1898 c4 -49 28 -66 28 -20 0 37 -9 62 -22 62 -5 0 -8 -19 -6
-42z"/>
<path d="M2317 1913 c4 -10 17 -33 30 -52 13 -19 23 -48 23 -66 0 -20 9 -42
25 -59 14 -15 25 -29 25 -32 0 -3 9 -17 20 -31 12 -16 18 -34 15 -45 -4 -11
-1 -18 7 -18 10 0 10 -2 -1 -9 -12 -8 -12 -16 -1 -55 12 -44 11 -48 -9 -70
-11 -12 -21 -27 -21 -33 0 -17 -18 -21 -180 -38 -83 -9 -125 -17 -151 -30 -19
-10 -49 -11 -124 -5 -55 5 -102 5 -105 1 -3 -5 -24 -11 -48 -14 -36 -4 -41 -3
-31 9 6 7 15 12 19 9 5 -3 10 0 12 6 2 6 19 13 38 15 57 6 70 10 82 22 7 7 20
12 29 12 9 0 22 7 29 15 7 8 19 15 26 15 8 0 14 9 14 20 0 14 13 26 43 40 27
13 47 31 56 51 19 43 52 70 81 68 33 -4 73 19 66 37 -3 8 5 21 19 30 35 23 32
50 -6 63 -33 11 -55 4 -132 -47 -32 -21 -40 -23 -47 -12 -7 11 -39 15 -139 16
-80 0 -128 -3 -124 -9 7 -12 -40 3 -48 15 -8 12 -124 -33 -123 -47 1 -5 19
-20 40 -32 22 -12 38 -25 37 -30 -1 -4 14 -8 33 -9 42 -1 64 -18 46 -36 -6 -6
-15 -8 -19 -4 -4 4 -1 11 6 16 9 5 2 8 -22 7 -20 0 -32 -4 -26 -8 7 -4 9 -12
5 -18 -4 -7 -1 -9 7 -5 8 3 18 1 22 -5 8 -14 -19 -42 -37 -38 -7 2 -10 2 -5 0
4 -3 7 -12 7 -21 0 -11 -3 -13 -8 -6 -4 6 -17 14 -29 18 -18 6 -21 4 -16 -16
3 -13 12 -31 20 -40 13 -15 12 -17 -9 -20 -18 -2 -23 -9 -23 -30 1 -29 -10
-38 -18 -15 -2 8 -30 12 -92 12 -75 0 -88 3 -91 17 -1 9 5 19 13 22 8 4 13 12
10 19 -6 16 13 93 32 125 11 21 21 33 66 83 8 9 15 34 15 57 0 23 7 62 16 87
28 83 14 87 -54 15 -34 -36 -62 -69 -62 -75 0 -10 -11 -18 -106 -78 -23 -14
-58 -46 -79 -71 -25 -31 -45 -46 -61 -46 -14 0 -47 -12 -74 -26 -48 -25 -51
-26 -84 -10 -40 19 -102 21 -109 4 -3 -9 -9 -7 -20 7 -16 20 -16 20 -36 -2
-25 -27 -26 -46 -5 -79 11 -16 15 -36 11 -59 -5 -33 6 -50 15 -23 3 9 9 8 22
-5 10 -9 12 -17 6 -17 -6 0 -4 -8 6 -17 16 -17 16 -18 1 -21 -20 -4 -22 -18
-4 -25 6 -3 -1 -6 -17 -6 -36 -1 -32 -6 12 -14 21 -4 31 -3 27 3 -4 6 7 10 24
10 17 0 31 -4 31 -10 0 -5 5 -10 11 -10 14 0 5 50 -16 93 -21 42 -20 91 1 83
9 -3 19 -6 23 -6 22 0 51 -44 51 -78 0 -56 11 -66 59 -58 31 5 41 3 41 -7 0
-9 9 -12 28 -10 41 6 92 -30 92 -65 0 -15 7 -38 16 -50 8 -12 13 -26 10 -30
-3 -5 8 -9 24 -9 17 0 28 2 26 4 -2 3 11 28 30 56 19 28 34 55 34 59 0 22 44
3 76 -31 23 -26 53 -46 87 -57 62 -20 174 -25 202 -8 11 6 61 17 112 23 106
13 126 19 116 34 -4 6 0 8 11 4 11 -4 15 -3 11 4 -8 12 31 49 52 49 18 0 16
-15 -4 -31 -14 -13 -13 -15 13 -19 33 -7 117 38 135 71 5 10 16 19 24 19 8 0
15 4 15 9 0 13 67 51 89 51 32 0 58 -47 66 -120 3 -29 17 -59 29 -63 7 -3 26
10 43 29 16 18 25 35 19 37 -7 3 -5 16 7 39 10 18 20 48 22 66 7 55 26 79 59
73 5 -1 6 5 3 13 -4 10 2 20 13 26 11 6 27 27 35 48 13 30 18 34 26 22 8 -11
9 -7 4 15 -7 30 -20 45 -42 45 -7 0 -18 9 -25 21 -13 20 -92 79 -106 79 -4 0
-33 24 -64 53 -126 116 -177 159 -203 173 -38 19 -56 18 -48 -3z m-437 -363
c0 -5 -4 -10 -10 -10 -5 0 -10 5 -10 10 0 6 5 10 10 10 6 0 10 -4 10 -10z
m-70 -120 c0 -5 -2 -10 -4 -10 -3 0 -8 5 -11 10 -3 6 -1 10 4 10 6 0 11 -4 11
-10z m-93 -66 c-3 -3 -12 -4 -19 -1 -8 3 -5 6 6 6 11 1 17 -2 13 -5z m583 -18
c0 -20 -24 -36 -39 -26 -9 5 -20 3 -29 -7 -9 -8 -26 -13 -39 -10 -15 3 -27 -1
-30 -9 -10 -26 -113 -47 -113 -22 0 6 -7 4 -18 -5 -12 -11 -36 -17 -65 -17
-37 0 -49 4 -58 21 -18 35 5 48 71 39 39 -5 61 -3 75 6 21 13 92 30 112 26 6
-2 14 2 18 8 8 13 52 13 60 0 4 -6 12 -4 21 5 17 16 34 12 34 -9z m-526 -52
c9 -3 16 -10 16 -16 0 -14 -43 -5 -48 10 -4 13 7 15 32 6z m110 -10 c5 -12 -1
-15 -26 -12 -42 4 -50 28 -10 28 18 0 32 -6 36 -16z m-11 -76 c23 -27 13 -36
-14 -12 -11 10 -33 24 -47 31 -26 12 -26 13 8 7 19 -3 43 -15 53 -26z m0 -55
c-7 -2 -19 -2 -25 0 -7 3 -2 5 12 5 14 0 19 -2 13 -5z"/>
<path d="M3742 1914 c-7 -8 -8 -14 -3 -14 10 0 25 19 20 25 -2 1 -10 -3 -17
-11z"/>
<path d="M3364 1901 c-18 -29 -11 -66 11 -66 25 0 33 48 12 69 -11 12 -15 12
-23 -3z"/>
<path d="M3593 1905 c0 -11 4 -12 14 -4 7 6 20 9 28 5 8 -3 15 -1 15 4 0 6
-13 10 -28 10 -19 0 -29 -5 -29 -15z"/>
<path d="M3685 1900 c-3 -5 1 -10 10 -10 9 0 13 5 10 10 -3 6 -8 10 -10 10 -2
0 -7 -4 -10 -10z"/>
<path d="M3765 1880 c-3 -5 -1 -10 4 -10 6 0 11 5 11 10 0 6 -2 10 -4 10 -3 0
-8 -4 -11 -10z"/>
<path d="M280 1820 c0 -5 5 -10 11 -10 8 0 8 -5 -1 -15 -16 -20 7 -20 32 -1
13 10 15 15 6 24 -15 15 -48 16 -48 2z"/>
<path d="M3401 1758 c-18 -51 -14 -68 14 -68 17 0 29 8 36 23 15 33 42 31 36
-2 -3 -14 -9 -34 -12 -43 -5 -13 0 -19 19 -24 55 -13 60 0 34 89 -10 34 -38
53 -38 25 0 -6 -3 -9 -6 -5 -3 3 -16 2 -29 -3 -19 -7 -22 -6 -18 9 3 11 -2 21
-10 24 -11 4 -19 -4 -26 -25z"/>
<path d="M3635 1760 c4 -6 11 -8 16 -5 14 9 11 15 -7 15 -8 0 -12 -5 -9 -10z"/>
<path d="M320 1753 c0 -5 5 -15 10 -23 7 -11 12 -12 21 -3 6 6 8 16 5 22 -8
12 -36 15 -36 4z"/>
<path d="M320 1600 c0 -29 4 -40 15 -40 22 0 30 27 17 56 -17 36 -32 29 -32
-16z"/>
<path d="M3200 1610 c0 -5 11 -10 25 -10 14 0 25 5 25 10 0 6 -11 10 -25 10
-14 0 -25 -4 -25 -10z"/>
<path d="M3106 1552 c-3 -6 -1 -14 5 -17 15 -10 25 3 12 16 -7 7 -13 7 -17 1z"/>
<path d="M3340 1510 c11 -21 40 -28 40 -10 0 6 -6 10 -12 10 -9 0 -8 4 2 10
12 8 9 10 -13 10 -25 0 -27 -2 -17 -20z"/>
<path d="M183 1483 c-20 -41 -16 -49 12 -23 l25 23 0 -21 c0 -13 6 -22 15 -22
15 0 20 26 9 54 -10 26 -48 19 -61 -11z"/>
<path d="M3105 1493 c-12 -22 -8 -153 5 -153 6 0 10 9 10 19 0 25 18 37 33 22
6 -6 18 -11 26 -11 11 0 9 5 -7 16 -19 13 -21 21 -15 56 5 36 4 41 -11 35 -14
-6 -16 -3 -11 13 8 25 -16 27 -30 3z"/>
<path d="M3320 1475 c0 -8 5 -15 10 -15 6 0 10 7 10 15 0 8 -4 15 -10 15 -5 0
-10 -7 -10 -15z"/>
<path d="M3390 1460 c-11 -7 -12 -10 -2 -10 7 0 11 -4 8 -8 -2 -4 4 -19 15
-32 22 -29 25 -16 6 28 -10 23 -16 29 -27 22z"/>
<path d="M1628 1443 c7 -3 16 -2 19 1 4 3 -2 6 -13 5 -11 0 -14 -3 -6 -6z"/>
<path d="M3380 1405 c7 -9 15 -13 17 -11 7 7 -7 26 -19 26 -6 0 -6 -6 2 -15z"/>
<path d="M2793 1373 c4 -6 0 -16 -8 -23 -18 -15 -20 -33 -3 -28 17 6 29 46 16
54 -6 4 -8 3 -5 -3z"/>
<path d="M3840 1365 c0 -8 5 -15 10 -15 6 0 10 7 10 15 0 8 -4 15 -10 15 -5 0
-10 -7 -10 -15z"/>
<path d="M3570 1330 c0 -5 7 -10 15 -10 8 0 15 5 15 10 0 6 -7 10 -15 10 -8 0
-15 -4 -15 -10z"/>
<path d="M3830 1330 c0 -5 9 -10 21 -10 11 0 17 5 14 10 -3 6 -13 10 -21 10
-8 0 -14 -4 -14 -10z"/>
<path d="M3216 1304 c-3 -8 -20 -15 -38 -15 -18 -1 -25 -3 -15 -6 11 -3 16
-11 13 -19 -3 -8 1 -14 9 -14 8 0 15 5 15 10 0 6 10 10 23 10 13 0 31 6 42 13
17 13 16 15 -13 25 -24 8 -32 8 -36 -4z"/>
<path d="M3406 1301 c-22 -24 -14 -87 12 -108 15 -11 15 -14 2 -23 -12 -7 -8
-10 18 -10 27 0 32 4 32 23 0 12 3 32 6 44 4 13 -1 28 -13 40 -10 10 -18 24
-18 32 0 23 -20 23 -39 2z"/>
<path d="M3800 1295 c0 -8 5 -15 10 -15 6 0 10 7 10 15 0 8 -4 15 -10 15 -5 0
-10 -7 -10 -15z"/>
<path d="M3880 1296 c0 -8 5 -18 10 -21 6 -3 10 1 10 9 0 8 -4 18 -10 21 -5 3
-10 -1 -10 -9z"/>
<path d="M3875 1249 c18 -19 18 -19 -26 -4 -42 15 -45 15 -61 -5 -9 -11 -21
-20 -27 -20 -14 0 -14 0 0 -39 8 -22 16 -30 26 -27 9 4 13 1 10 -6 -6 -20 25
-37 68 -38 29 0 44 -5 53 -20 7 -12 11 -24 8 -28 -2 -4 13 -17 33 -29 l38 -22
2 79 c1 65 -1 80 -13 80 -10 0 -13 -6 -10 -17 5 -15 4 -15 -4 -4 -9 12 -13 12
-26 2 -9 -8 -16 -9 -16 -3 0 6 6 12 12 14 21 7 -17 38 -49 39 -23 2 -24 2 -5
6 30 6 28 35 -4 50 -26 12 -26 12 -9 -8z"/>
<path d="M3582 1235 c-7 -14 -12 -33 -12 -41 0 -8 -7 -17 -17 -21 -11 -4 -3
-10 28 -19 32 -10 45 -10 50 -2 6 9 14 9 31 1 13 -5 32 -7 43 -3 18 7 18 8 -5
11 -17 3 -25 10 -25 24 0 13 -6 19 -17 17 -11 -2 -23 9 -33 28 -19 37 -28 38
-43 5z"/>
<path d="M3160 1230 c0 -6 25 -10 58 -9 43 1 51 3 32 9 -36 12 -90 12 -90 0z"/>
<path d="M3980 1213 c0 -22 2 -25 10 -13 13 20 13 40 0 40 -5 0 -10 -12 -10
-27z"/>
<path d="M1068 1208 c9 -9 15 -9 24 0 9 9 7 12 -12 12 -19 0 -21 -3 -12 -12z"/>
<path d="M3696 1211 c-3 -5 4 -15 17 -23 21 -14 22 -14 23 8 1 17 -3 24 -16
24 -11 0 -21 -4 -24 -9z"/>
<path d="M3120 1200 c0 -5 7 -6 17 -3 10 4 14 2 10 -4 -9 -15 16 -23 68 -23
34 0 44 4 48 20 6 23 -7 25 -49 10 -19 -8 -30 -8 -38 0 -13 13 -56 13 -56 0z"/>
<path d="M3365 1170 c-3 -5 -2 -10 4 -10 5 0 13 5 16 10 3 6 2 10 -4 10 -5 0
-13 -4 -16 -10z"/>
<path d="M3000 1154 c0 -19 40 -74 55 -74 21 0 20 2 -20 46 -19 21 -35 34 -35
28z"/>
<path d="M3690 1121 c0 -5 -10 -7 -22 -3 -15 3 -19 2 -14 -7 4 -7 15 -11 24
-10 10 1 30 -3 46 -10 34 -14 40 -10 31 18 -4 15 -15 21 -36 21 -16 0 -29 -4
-29 -9z"/>
<path d="M3520 1096 c-85 -30 -99 -38 -93 -52 6 -17 -1 -18 -25 -3 -14 9 -31
8 -68 0 -27 -7 -60 -12 -74 -12 -18 1 -21 -2 -11 -8 30 -19 -11 -20 -62 -1
-30 11 -62 18 -71 14 -9 -3 -16 -1 -16 5 0 6 -7 11 -16 11 -8 0 -12 5 -9 10 3
6 -1 10 -9 10 -23 0 -20 -18 4 -25 15 -5 19 -12 15 -25 -3 -10 5 -42 19 -70
20 -41 55 -141 60 -170 1 -3 4 -9 7 -15 16 -25 20 -88 7 -96 -10 -7 -9 -9 4
-9 12 0 18 -12 23 -47 4 -27 15 -70 25 -98 10 -27 21 -58 23 -67 4 -11 13 -15
29 -12 l23 5 -22 -10 c-23 -10 -32 -31 -13 -31 6 0 10 -9 10 -21 0 -11 -4 -17
-10 -14 -5 3 -10 1 -10 -4 0 -6 6 -11 14 -11 8 0 13 -6 13 -12 -1 -20 24 -78
34 -78 5 0 9 -6 9 -14 0 -8 9 -17 19 -21 13 -4 17 -12 14 -25 -4 -14 0 -19 16
-17 20 1 31 27 11 27 -5 0 -10 12 -10 26 0 25 0 25 34 -10 29 -32 35 -34 46
-21 10 12 10 21 2 40 -7 14 -16 25 -22 25 -5 0 -10 9 -10 20 0 23 4 24 31 10
11 -6 18 -7 17 -1 -2 5 2 10 7 11 10 1 29 39 27 52 -1 5 3 8 9 8 6 0 9 -7 5
-15 -7 -18 5 -20 22 -3 7 7 12 8 12 2 0 -6 -3 -14 -7 -18 -4 -4 -8 -15 -8 -24
0 -12 -9 -17 -27 -17 -35 -1 -53 -18 -43 -42 5 -12 9 -14 12 -5 3 6 9 12 15
12 6 0 6 -6 -2 -15 -7 -8 -9 -22 -6 -31 6 -16 8 -15 20 2 8 10 12 22 10 26 -7
11 11 17 26 8 12 -7 11 -12 -3 -28 -19 -21 -14 -52 9 -52 8 0 14 -4 14 -9 0
-14 -36 -7 -54 12 -20 20 -37 22 -54 5 -6 -6 -25 -11 -42 -10 -16 0 -30 -3
-30 -8 0 -18 69 -130 81 -130 8 0 13 36 12 78 -1 6 8 12 18 12 23 0 24 -4 3
-24 -9 -10 -11 -16 -4 -16 7 0 9 -8 5 -21 -5 -16 -4 -19 5 -14 9 6 11 4 6 -4
-5 -7 -18 -16 -30 -21 -20 -7 -20 -8 -2 -15 11 -5 21 -3 26 5 7 11 11 11 23 1
9 -7 18 -8 21 -3 3 6 -2 13 -11 16 -15 6 -15 8 -3 16 11 7 19 4 29 -8 9 -12
15 -14 18 -4 7 18 21 15 19 -5 -1 -14 8 -18 39 -19 43 -1 65 10 65 33 0 12 -3
12 -16 -1 -16 -17 -74 -19 -74 -3 0 5 9 6 19 2 23 -7 41 18 33 48 -3 13 -1 18
6 13 6 -3 14 -1 18 6 5 8 14 -8 24 -42 l16 -55 57 -3 c42 -2 57 1 57 10 0 9 3
9 10 -2 14 -22 21 -7 23 46 2 36 6 48 19 50 13 2 15 -3 9 -19 -4 -12 -7 -35
-7 -52 1 -26 5 -30 34 -33 32 -3 37 3 32 37 -1 13 1 13 14 2 10 -8 16 -9 16
-3 0 6 -5 14 -10 17 -6 4 -7 12 -3 18 11 18 12 56 2 62 -5 4 -9 11 -9 16 0 6
5 7 10 4 6 -3 10 -2 10 4 0 5 -6 12 -12 14 -9 4 -10 8 -2 14 14 10 17 283 2
283 -5 0 -8 -10 -6 -22 2 -15 -3 -24 -15 -26 -14 -3 -18 1 -13 15 3 10 7 33 8
51 1 17 6 32 10 32 4 0 8 7 8 16 0 8 -4 13 -9 10 -5 -4 -4 5 2 19 7 14 15 25
19 25 4 0 7 81 8 180 l0 180 -22 -1 c-13 0 -17 -3 -10 -6 6 -2 10 -9 6 -14 -3
-5 0 -9 6 -9 7 0 8 -6 0 -19 -5 -11 -10 -50 -10 -87 0 -83 -18 -194 -32 -194
-6 0 -5 -6 2 -15 8 -9 10 -33 6 -67 -3 -29 -8 -97 -12 -151 -4 -60 -12 -101
-20 -108 -16 -13 -34 -4 -34 17 0 8 -5 14 -11 14 -18 0 11 30 30 31 11 0 9 3
-6 9 -29 12 -30 30 -2 37 20 6 20 6 -2 29 -12 13 -17 24 -11 24 7 0 12 -5 12
-11 0 -5 5 -7 11 -3 16 10 -15 26 -35 18 -11 -4 -14 -14 -11 -33 5 -22 4 -23
-4 -6 -15 32 -13 44 13 57 14 7 25 16 25 21 1 4 1 12 1 19 0 9 3 9 12 0 7 -7
16 -12 22 -12 5 0 2 6 -8 13 -23 17 -17 53 7 49 16 -3 16 0 5 20 -7 13 -17 26
-23 30 -6 5 -5 8 3 8 10 0 10 5 2 20 -9 17 -8 20 10 20 11 0 20 5 20 10 0 6
-7 10 -15 10 -17 0 -20 16 -5 25 15 9 -1 37 -18 30 -12 -4 -13 -3 -2 10 7 8
16 12 21 9 5 -3 4 7 -1 21 -13 34 -13 45 1 45 6 0 9 -6 6 -14 -3 -8 1 -17 9
-20 19 -7 15 24 -5 40 -19 15 -22 54 -4 47 19 -7 16 10 -5 33 -13 13 -16 26
-11 39 11 30 11 33 -8 38 -17 4 -17 5 0 6 10 0 27 -4 38 -9 12 -7 19 -7 19 -1
0 28 -109 37 -126 10 -3 -5 -13 -5 -22 0 -27 13 -92 21 -92 10 0 -5 -11 -7
-25 -3 -15 4 -25 2 -25 -4 0 -6 16 -14 35 -18 19 -3 33 -10 30 -14 -3 -5 4
-15 15 -23 11 -7 17 -17 13 -20 -3 -4 4 -16 17 -27 14 -12 20 -26 16 -35 -3
-9 0 -22 7 -29 7 -7 13 -28 12 -47 0 -19 3 -37 7 -40 5 -3 10 -19 11 -36 2
-16 7 -35 11 -42 4 -6 9 -24 12 -39 8 -50 13 -56 29 -42 9 8 15 8 15 2 0 -6
-12 -15 -27 -20 -16 -6 -22 -11 -15 -11 6 -1 12 -6 12 -12 0 -6 -9 -9 -20 -6
-11 3 -18 1 -14 -4 3 -5 0 -9 -5 -9 -16 0 -13 21 7 43 16 19 16 20 -4 9 -20
-11 -21 -9 -21 25 1 20 -4 38 -11 41 -15 5 -15 -3 3 -113 18 -110 18 -118 3
-109 -10 6 -10 4 -2 -7 12 -15 30 -89 37 -157 4 -32 1 -45 -11 -53 -15 -10
-15 -10 1 -5 13 4 17 -1 17 -22 0 -15 3 -50 6 -78 5 -41 3 -52 -10 -57 -8 -3
-18 -2 -21 3 -4 6 -2 10 2 10 5 0 9 9 9 20 0 19 0 19 -19 0 -19 -22 -37 -26
-37 -9 0 5 5 7 11 3 8 -4 9 1 4 17 -4 13 -4 21 0 17 9 -8 49 31 40 40 -4 4
-11 -1 -16 -11 -6 -9 -17 -17 -25 -17 -11 0 -12 4 -3 18 17 27 3 72 -20 72
-11 0 -22 -6 -24 -12 -3 -7 -6 -3 -6 9 -1 24 26 37 54 27 13 -5 16 -4 11 5 -4
6 -2 19 5 27 10 12 9 16 -10 21 -16 4 -20 11 -16 24 4 11 2 19 -5 19 -6 0 -9
4 -5 9 3 5 -3 17 -12 27 -12 12 -14 19 -6 21 7 3 9 12 6 20 -5 12 -2 15 10 10
11 -4 14 -2 10 9 -3 7 -17 14 -32 14 -25 1 -25 1 -7 15 19 15 19 15 -2 15 -14
0 -20 5 -16 14 3 8 1 17 -5 21 -6 3 -11 12 -11 18 0 7 7 3 16 -8 13 -17 16
-18 24 -5 6 9 6 16 0 18 -16 6 -11 24 12 49 18 20 19 23 5 23 -9 0 -18 6 -18
13 -1 6 -2 19 -3 27 0 9 -9 14 -21 12 -13 -2 -16 0 -8 5 10 7 9 15 -2 37 -18
34 -19 44 -3 28 16 -16 25 -15 25 3 0 8 -9 15 -20 15 -16 0 -17 3 -7 15 9 10
9 15 1 15 -6 0 -11 5 -11 10 0 6 7 10 15 10 8 0 15 4 15 9 0 15 -18 23 -25 11
-3 -5 -11 -10 -18 -10 -8 0 -8 3 1 12 17 17 15 38 -3 38 -20 0 -19 9 2 32 16
18 16 19 -4 24 -13 4 -20 11 -16 20 3 8 0 14 -7 14 -6 0 -8 5 -4 11 9 15 -26
78 -47 84 -27 9 -30 33 -7 50 22 15 22 15 3 30 -23 17 -38 17 -85 1z m75 -16
c3 -5 -3 -10 -14 -10 -12 0 -21 5 -21 10 0 6 6 10 14 10 8 0 18 -4 21 -10z
m-58 -55 c-21 -20 -57 -28 -57 -13 0 4 10 8 21 8 18 0 19 2 9 15 -12 14 -15
14 -31 -1 -11 -10 -22 -14 -27 -9 -4 4 -1 10 6 12 6 3 10 9 6 14 -10 17 49 9
62 -8 12 -16 13 -15 14 12 1 26 3 27 10 10 6 -15 2 -26 -13 -40z m-290 -32
c37 -5 42 -9 41 -29 -1 -12 -6 -20 -10 -18 -5 3 -6 9 -3 14 3 5 1 11 -4 14
-12 8 -41 -3 -41 -15 0 -4 7 -6 15 -3 10 4 15 0 15 -15 0 -12 5 -19 13 -17 6
3 27 7 45 10 37 6 44 -9 8 -18 -13 -3 -27 -13 -30 -22 -4 -11 -2 -15 8 -11 7
3 23 -3 35 -14 12 -12 21 -15 21 -8 0 7 3 9 6 6 4 -4 1 -14 -6 -22 -10 -12
-10 -19 -2 -27 16 -16 15 -25 -3 -25 -9 0 -14 6 -11 14 3 8 -4 15 -19 19 -14
3 -22 10 -19 15 3 5 -2 6 -11 3 -9 -4 -25 4 -40 20 -13 14 -31 26 -40 26 -8 0
-15 4 -15 10 0 5 6 7 13 4 8 -3 20 3 28 13 12 16 12 17 -2 6 -13 -11 -19 -8
-38 17 -18 25 -19 30 -6 30 9 0 13 5 10 10 -4 6 -10 8 -15 5 -4 -3 -14 3 -21
12 -13 15 -11 16 11 9 14 -4 44 -10 67 -13z m78 7 c3 -5 -1 -10 -10 -10 -9 0
-13 5 -10 10 3 6 8 10 10 10 2 0 7 -4 10 -10z m110 -20 c3 -5 1 -10 -4 -10 -6
0 -11 5 -11 10 0 6 2 10 4 10 3 0 8 -4 11 -10z m-25 -4 c0 -2 -7 -7 -16 -10
-8 -3 -12 -2 -9 4 6 10 25 14 25 6z m470 -12 c0 -2 -9 -4 -20 -4 -11 0 -20 4
-20 9 0 5 9 7 20 4 11 -3 20 -7 20 -9z m-440 -66 c0 -4 -6 -8 -14 -8 -9 0 -13
10 -12 25 1 23 2 24 14 8 6 -9 12 -20 12 -25z m66 29 c4 -4 0 -7 -8 -7 -9 0
-18 -3 -21 -7 -2 -5 -2 -2 0 6 3 11 0 11 -11 2 -11 -9 -15 -8 -19 3 -4 10 2
13 23 12 16 -1 33 -5 36 -9z m-118 -21 c-10 -7 -15 -16 -11 -19 3 -4 -2 -7
-12 -7 -17 0 -17 1 0 20 10 11 23 20 29 20 6 0 3 -7 -6 -14z m-144 -51 c3 -8
1 -15 -4 -15 -6 0 -10 7 -10 15 0 8 2 15 4 15 2 0 6 -7 10 -15z m226 -19 c0
-2 -7 -6 -15 -10 -8 -3 -15 -1 -15 4 0 6 7 10 15 10 8 0 15 -2 15 -4z m40 -6
c0 -5 -2 -10 -4 -10 -3 0 -8 5 -11 10 -3 6 -1 10 4 10 6 0 11 -4 11 -10z
m-220 -10 c13 -9 13 -10 0 -10 -8 0 -22 5 -30 10 -13 9 -13 10 0 10 8 0 22 -5
30 -10z m390 -10 c0 -5 -5 -10 -11 -10 -5 0 -7 5 -4 10 3 6 8 10 11 10 2 0 4
-4 4 -10z m-150 -20 c0 -5 -7 -7 -15 -4 -8 4 -12 10 -9 15 6 11 24 2 24 -11z
m61 -55 c21 -7 27 -27 7 -22 -7 1 -12 -4 -10 -10 3 -18 -35 -16 -42 2 -3 8
-14 15 -25 15 -11 0 -23 5 -26 10 -3 6 -15 10 -26 10 -10 0 -19 5 -19 10 0 13
6 13 31 -1 16 -8 25 -7 40 7 10 9 19 24 19 33 0 9 8 2 16 -16 9 -18 25 -35 35
-38z m-286 45 c-4 -6 10 -10 33 -10 35 0 41 -3 47 -27 3 -15 12 -31 18 -35 8
-5 6 -8 -5 -8 -9 0 -20 -4 -23 -10 -9 -15 18 -12 40 4 16 12 17 16 6 30 -17
20 -5 21 15 1 20 -19 9 -56 -13 -48 -13 5 -15 2 -10 -12 4 -9 3 -23 -3 -30 -8
-9 -6 -17 5 -28 8 -9 15 -21 15 -27 0 -6 5 -8 10 -5 6 4 8 11 5 16 -4 5 -1 9
5 9 6 0 10 -8 8 -17 -4 -19 -7 -19 -75 -5 -41 9 -63 -1 -25 -11 9 -3 1 -5 -18
-5 -19 0 -29 2 -22 5 6 2 12 12 12 20 0 9 7 21 16 27 18 13 9 46 -12 46 -8 0
-14 5 -14 10 0 16 19 11 41 -11 11 -11 24 -18 27 -14 4 4 -1 13 -11 20 -13 9
-17 20 -12 33 4 15 0 22 -16 27 -13 4 -24 2 -29 -5 -4 -7 -13 -9 -19 -5 -9 5
-9 10 0 21 8 10 7 17 -5 29 -20 20 -20 25 0 25 8 0 12 -4 9 -10z m115 -15 c0
-8 -4 -15 -10 -15 -5 0 -10 7 -10 15 0 8 5 15 10 15 6 0 10 -7 10 -15z m-70
-66 c0 -5 -4 -9 -10 -9 -5 0 -10 7 -10 16 0 8 5 12 10 9 6 -3 10 -10 10 -16z
m200 -26 c24 6 56 -16 46 -32 -4 -6 -12 -9 -17 -5 -6 3 -5 -3 3 -15 7 -12 19
-21 27 -21 11 0 9 -4 -5 -15 -18 -14 -18 -15 -1 -26 18 -10 18 -11 0 -25 -17
-14 -17 -15 5 -9 24 7 62 -2 62 -15 0 -4 -9 -10 -19 -13 -14 -3 -18 -1 -14 9
3 8 1 14 -5 14 -17 0 -22 -28 -5 -34 11 -5 14 -16 11 -41 -2 -22 0 -34 6 -32
6 2 10 12 10 21 -2 18 11 22 21 6 4 -6 1 -17 -5 -25 -10 -12 -10 -18 -1 -29 8
-10 9 -16 1 -21 -5 -3 -10 -1 -10 6 0 7 -2 10 -5 7 -3 -3 -1 -17 4 -32 7 -17
7 -26 1 -26 -6 0 -10 -7 -10 -17 0 -14 -2 -14 -20 2 -11 10 -20 13 -20 7 0
-14 -10 -15 -30 -2 -13 9 -13 11 0 20 10 7 12 12 4 18 -14 9 -26 59 -15 64 4
2 11 21 14 43 l7 40 -17 -32 c-9 -18 -20 -33 -25 -33 -4 0 -8 -7 -8 -16 0 -28
-22 -10 -35 30 -13 36 -13 37 6 20 18 -17 19 -16 19 19 0 39 17 58 31 36 5 -8
9 -12 10 -9 6 40 6 59 -1 55 -21 -13 -40 8 -34 38 3 17 10 34 16 38 5 4 -9 13
-33 21 -23 8 -44 19 -47 26 -2 7 8 5 28 -4 17 -9 40 -14 50 -11z m-246 5 c-3
-4 -9 -8 -15 -8 -5 0 -9 4 -9 8 0 5 7 9 15 9 8 0 12 -4 9 -9z m316 -8 c0 -5
-2 -10 -4 -10 -3 0 -8 5 -11 10 -3 6 -1 10 4 10 6 0 11 -4 11 -10z m-291 -33
c8 -10 7 -14 -4 -14 -8 0 -15 6 -15 14 0 7 2 13 4 13 2 0 9 -6 15 -13z m189
-26 c-7 -11 -16 -17 -20 -14 -10 5 10 33 23 33 5 0 4 -9 -3 -19z m211 -69
c-27 -19 -35 -8 -12 15 11 12 21 15 25 9 4 -6 -2 -16 -13 -24z m-312 12 c-3
-3 -12 -4 -19 -1 -8 3 -5 6 6 6 11 1 17 -2 13 -5z m108 -14 c3 -5 1 -10 -4
-10 -6 0 -11 5 -11 10 0 6 2 10 4 10 3 0 8 -4 11 -10z m-185 -21 c0 -5 -4 -9
-10 -9 -5 0 -10 7 -10 16 0 8 5 12 10 9 6 -3 10 -10 10 -16z m136 -6 c-10 -10
-19 5 -10 18 6 11 8 11 12 0 2 -7 1 -15 -2 -18z m387 -9 c9 -9 -4 -35 -14 -28
-5 3 -9 12 -9 20 0 14 12 19 23 8z m-386 -36 c-3 -8 -6 -5 -6 6 -1 11 2 17 5
13 3 -3 4 -12 1 -19z m-130 -2 c4 -7 14 -15 21 -17 8 -3 6 -8 -8 -16 -16 -10
-18 -10 -14 1 3 7 -2 21 -11 30 -9 9 -12 16 -6 16 5 0 14 -6 18 -14z m60 -38
c-3 -7 -5 -2 -5 12 0 14 2 19 5 13 2 -7 2 -19 0 -25z m40 -20 c-3 -8 -6 -5 -6
6 -1 11 2 17 5 13 3 -3 4 -12 1 -19z m46 -28 c7 -29 1 -24 -17 11 -12 23 -12
28 -2 20 8 -7 16 -21 19 -31z m475 13 c2 -33 -8 -64 -19 -58 -7 5 -7 11 0 19
6 7 8 22 4 34 -3 12 -1 22 4 22 5 0 10 -8 11 -17z m-584 -40 c6 -19 3 -23 -13
-23 -11 0 -23 5 -26 10 -3 6 1 10 10 10 14 0 16 6 11 28 -7 31 7 12 18 -25z
m30 35 c-3 -4 -9 -8 -15 -8 -5 0 -9 4 -9 8 0 5 7 9 15 9 8 0 12 -4 9 -9z m56
-49 c0 -13 -7 -11 -30 8 -28 25 -25 37 5 17 14 -9 25 -20 25 -25z m-40 -9 c8
-5 5 -9 -9 -13 -17 -4 -21 -1 -21 21 0 19 3 23 9 13 5 -7 14 -17 21 -21z m330
-10 c0 -5 -2 -10 -4 -10 -3 0 -8 5 -11 10 -3 6 -1 10 4 10 6 0 11 -4 11 -10z
m-390 -71 c0 -5 -4 -9 -10 -9 -5 0 -7 6 -4 14 3 7 -1 20 -9 27 -7 8 -12 20 -9
28 4 13 32 -39 32 -60z m590 51 c0 -10 -9 -28 -20 -38 -13 -12 -21 -34 -23
-62 -2 -28 -8 -45 -17 -48 -13 -3 -13 -2 0 8 12 9 10 10 -12 6 -29 -7 -39 8
-13 18 18 7 20 32 3 39 -7 3 -4 6 8 6 11 1 27 12 34 26 7 14 17 25 22 25 5 0
6 9 3 20 -4 11 -2 20 4 20 6 0 11 -9 11 -20z m-254 3 c-10 -11 -37 -12 -30 -2
3 5 12 9 21 9 9 0 13 -3 9 -7z m-68 -41 c-3 -11 0 -19 8 -19 7 0 11 3 9 7 -2
3 0 12 5 20 11 17 13 12 27 -67 7 -37 6 -53 -1 -54 -6 0 -5 -3 2 -6 6 -2 12
-9 12 -15 0 -6 -7 -7 -16 -4 -11 4 -18 -1 -21 -14 -3 -11 -11 -20 -18 -20 -7
0 -18 -7 -25 -15 -9 -10 -16 -12 -25 -5 -8 6 -16 5 -25 -3 -10 -9 -11 -9 -6 1
4 6 3 12 -3 12 -5 0 -11 -6 -14 -12 -3 -10 -10 -8 -23 4 -19 19 -13 23 29 18
10 -1 17 4 16 12 -4 33 25 75 69 97 12 6 22 15 22 20 0 5 -10 8 -22 7 -18 -1
-22 4 -20 21 2 17 -1 21 -12 17 -9 -3 -13 -10 -10 -15 3 -5 -2 -9 -10 -9 -21
0 -20 10 2 26 26 20 55 18 50 -4z m-221 -14 c-3 -8 -6 -5 -6 6 -1 11 2 17 5
13 3 -3 4 -12 1 -19z m470 -4 c-9 -9 -28 6 -21 18 4 6 10 6 17 -1 6 -6 8 -13
4 -17z m-437 6 c0 -5 -2 -10 -4 -10 -3 0 -8 5 -11 10 -3 6 -1 10 4 10 6 0 11
-4 11 -10z m143 -54 c8 -20 -15 -27 -36 -11 -23 17 -21 25 7 25 13 0 26 -6 29
-14z m-73 -46 c0 -5 -4 -10 -10 -10 -5 0 -10 5 -10 10 0 6 5 10 10 10 6 0 10
-4 10 -10z m260 -10 c0 -5 -4 -10 -10 -10 -5 0 -10 5 -10 10 0 6 5 10 10 10 6
0 10 -4 10 -10z m120 -10 c0 -5 -4 -10 -10 -10 -5 0 -10 5 -10 10 0 6 5 10 10
10 6 0 10 -4 10 -10z"/>
<path d="M3320 850 c0 -5 7 -10 16 -10 8 0 12 5 9 10 -3 6 -10 10 -16 10 -5 0
-9 -4 -9 -10z"/>
<path d="M3330 746 c0 -2 9 -6 20 -9 11 -3 18 -1 14 4 -5 9 -34 13 -34 5z"/>
<path d="M3365 600 c3 -5 13 -10 21 -10 8 0 14 5 14 10 0 6 -9 10 -21 10 -11
0 -17 -4 -14 -10z"/>
<path d="M3540 460 c0 -5 5 -10 10 -10 6 0 10 5 10 10 0 6 -4 10 -10 10 -5 0
-10 -4 -10 -10z"/>
<path d="M3587 406 c-17 -13 -16 -14 3 -19 15 -4 20 0 20 14 0 22 0 22 -23 5z"/>
<path d="M3605 350 c3 -5 11 -10 16 -10 6 0 7 5 4 10 -3 6 -11 10 -16 10 -6 0
-7 -4 -4 -10z"/>
<path d="M3620 171 c0 -5 6 -12 13 -14 7 -4 5 -6 -5 -7 -10 -2 -22 -3 -28 -4
-5 0 -10 -4 -10 -8 0 -5 0 -17 0 -28 0 -24 32 -27 51 -4 11 13 9 15 -17 9 -26
-5 -26 -4 9 15 36 20 38 22 20 35 -21 17 -33 19 -33 6z"/>
<path d="M2372 1010 c-17 -28 -4 -50 15 -25 14 21 17 45 5 45 -4 0 -13 -9 -20
-20z"/>
<path d="M2290 1010 c0 -6 -7 -10 -16 -10 -14 0 -14 -3 -4 -15 8 -9 9 -15 2
-15 -6 0 -14 5 -17 10 -3 6 -13 10 -22 10 -11 0 -13 -3 -5 -13 6 -7 8 -18 3
-25 -5 -8 -19 -5 -53 13 -41 22 -47 23 -59 9 -7 -8 -18 -13 -25 -10 -9 3 -11
0 -7 -11 4 -11 2 -14 -5 -9 -8 5 -12 -1 -13 -16 -1 -17 -3 -18 -6 -5 -5 20
-19 22 -26 5 -3 -8 -6 -6 -6 5 -1 24 -15 21 -27 -5 -6 -13 -9 -18 -7 -11 3 16
-14 26 -22 13 -10 -16 -45 -12 -45 5 0 8 -9 15 -20 15 -15 0 -22 -9 -27 -32
-6 -31 -6 -31 -15 -8 -6 15 -5 26 3 30 7 5 6 9 -4 13 -31 12 -52 -1 -76 -46
-13 -26 -30 -47 -38 -47 -10 0 -13 6 -9 16 3 8 2 13 -3 9 -5 -3 -11 -2 -14 2
-2 5 -2 1 1 -7 3 -8 5 -24 6 -35 1 -11 7 -29 13 -40 12 -19 12 -19 13 3 0 13
4 20 10 17 6 -3 15 4 20 17 8 18 9 10 5 -32 -7 -70 2 -85 38 -69 15 7 27 15
27 18 0 4 8 7 18 8 13 1 18 -6 18 -25 -1 -22 4 -28 24 -30 19 -2 39 9 75 42
26 25 53 42 58 39 16 -10 111 -11 123 -1 7 5 26 10 43 13 61 7 101 29 101 54
0 6 4 11 9 11 5 0 16 18 25 41 18 44 8 73 -20 62 -9 -3 -14 2 -14 15 0 11 -7
22 -15 26 -8 3 -15 1 -15 -4z"/>
<path d="M3020 990 c-9 -6 -10 -10 -3 -10 6 0 15 5 18 10 8 12 4 12 -15 0z"/>
<path d="M3975 990 c3 -5 8 -10 11 -10 2 0 4 5 4 10 0 6 -5 10 -11 10 -5 0 -7
-4 -4 -10z"/>
<path d="M1743 947 c-21 -46 18 -60 41 -15 12 23 12 27 -1 32 -24 10 -29 7
-40 -17z"/>
<path d="M3018 963 c-16 -2 -28 -8 -28 -12 0 -11 49 -1 56 10 3 5 4 8 2 8 -2
-1 -15 -4 -30 -6z"/>
<path d="M1310 937 c0 -8 7 -21 16 -28 14 -11 15 -10 12 11 -3 26 -28 41 -28
17z"/>
<path d="M3920 940 c0 -5 5 -10 11 -10 5 0 7 5 4 10 -3 6 -8 10 -11 10 -2 0
-4 -4 -4 -10z"/>
<path d="M1360 886 c0 -2 7 -6 15 -10 8 -3 15 -1 15 4 0 6 -7 10 -15 10 -8 0
-15 -2 -15 -4z"/>
<path d="M1695 868 c1 -12 7 -24 14 -26 8 -3 12 4 9 19 -4 29 -25 36 -23 7z"/>
<path d="M3685 850 c-3 -5 1 -10 9 -10 9 0 16 5 16 10 0 6 -4 10 -9 10 -6 0
-13 -4 -16 -10z"/>
<path d="M3061 841 c-7 -5 -11 -14 -7 -20 4 -6 2 -20 -4 -31 -12 -22 3 -29 16
-8 7 11 17 68 11 68 -1 0 -8 -4 -16 -9z"/>
<path d="M25 785 c-28 -12 -28 -13 -6 -14 17 -1 21 -5 17 -17 -3 -9 -2 -12 5
-9 5 4 8 12 6 18 -2 7 3 17 12 24 21 16 3 15 -34 -2z"/>
<path d="M231 783 c-1 -13 5 -23 12 -23 18 1 65 29 47 29 -8 1 -22 -4 -30 -9
-11 -7 -17 -5 -22 8 -5 14 -7 13 -7 -5z"/>
<path d="M3135 790 c3 -5 11 -10 16 -10 6 0 7 5 4 10 -3 6 -11 10 -16 10 -6 0
-7 -4 -4 -10z"/>
<path d="M3757 793 c-11 -10 -8 -45 2 -38 6 3 9 14 8 25 -1 23 -1 22 -10 13z"/>
<path d="M3083 783 c-21 -8 -15 -23 10 -22 12 0 16 3 9 6 -6 2 -10 9 -6 14 6
10 5 10 -13 2z"/>
<path d="M3 742 c1 -14 5 -18 11 -12 7 7 6 14 -1 21 -9 9 -12 7 -10 -9z"/>
<path d="M3757 727 c-6 -18 17 -57 33 -57 11 -1 10 -4 -4 -15 -21 -16 -10 -21
12 -6 12 7 11 14 -2 39 -12 23 -13 31 -4 34 7 3 3 7 -9 10 -12 3 -24 1 -26 -5z"/>
<path d="M1498 673 c30 -55 40 -68 66 -91 11 -9 38 -34 60 -54 22 -21 55 -43
73 -49 25 -8 40 -23 58 -60 26 -51 30 -63 17 -55 -4 2 -8 -5 -9 -17 0 -12 1
-16 4 -9 7 19 26 14 21 -6 -5 -18 14 -27 105 -48 15 -3 30 -11 33 -16 4 -7
-33 -8 -107 -5 -123 6 -127 -3 -9 -22 41 -6 104 -17 139 -23 59 -11 66 -11
105 11 22 13 85 46 138 74 53 27 112 65 130 83 18 18 38 34 44 34 11 0 29 30
19 30 -2 0 -20 -9 -39 -20 -35 -19 -57 -12 -36 12 6 7 31 39 55 72 46 59 60
92 28 64 -36 -32 -96 -59 -151 -67 -31 -5 -68 -12 -82 -16 -103 -27 -327 -5
-403 40 -24 14 -52 34 -62 45 -10 11 -24 20 -31 20 -7 0 -23 14 -36 30 -12 17
-28 30 -35 30 -7 0 -13 5 -13 10 0 10 -81 50 -100 50 -5 0 3 -21 18 -47z m277
-243 c3 -5 1 -10 -4 -10 -6 0 -11 5 -11 10 0 6 2 10 4 10 3 0 8 -4 11 -10z
m340 -150 c-16 -4 -43 -8 -60 -8 -29 1 -29 1 5 8 19 4 46 7 60 8 22 0 22 -1
-5 -8z m-105 -10 c0 -5 -5 -10 -11 -10 -5 0 -7 5 -4 10 3 6 8 10 11 10 2 0 4
-4 4 -10z"/>
<path d="M512 674 c-10 -11 -10 -14 0 -14 7 0 19 4 26 9 11 7 11 9 0 13 -7 3
-19 -1 -26 -8z"/>
<path d="M165 660 c-3 -6 1 -7 9 -4 18 7 21 14 7 14 -6 0 -13 -4 -16 -10z"/>
<path d="M3738 663 c7 -3 16 -2 19 1 4 3 -2 6 -13 5 -11 0 -14 -3 -6 -6z"/>
<path d="M280 651 c0 -6 4 -12 8 -15 5 -3 9 1 9 9 0 8 -4 15 -9 15 -4 0 -8 -4
-8 -9z"/>
<path d="M2551 617 c-13 -21 -12 -21 5 -5 10 10 16 20 13 22 -3 3 -11 -5 -18
-17z"/>
<path d="M342 559 c-19 -30 -11 -32 17 -3 15 15 18 24 9 24 -7 0 -19 -9 -26
-21z"/>
<path d="M200 560 c0 -5 5 -10 11 -10 5 0 7 5 4 10 -3 6 -8 10 -11 10 -2 0 -4
-4 -4 -10z"/>
<path d="M500 560 c0 -5 5 -10 10 -10 6 0 10 5 10 10 0 6 -4 10 -10 10 -5 0
-10 -4 -10 -10z"/>
<path d="M48 553 c7 -3 16 -2 19 1 4 3 -2 6 -13 5 -11 0 -14 -3 -6 -6z"/>
<path d="M3150 526 c0 -2 9 -6 20 -9 11 -3 18 -1 14 4 -5 9 -34 13 -34 5z"/>
<path d="M2450 509 c0 -5 5 -7 10 -4 6 3 10 8 10 11 0 2 -4 4 -10 4 -5 0 -10
-5 -10 -11z"/>
<path d="M130 493 c-13 -15 -12 -16 4 -10 10 4 20 7 22 7 2 0 4 5 4 10 0 15
-13 12 -30 -7z"/>
<path d="M191 494 c0 -11 3 -14 6 -6 3 7 2 16 -1 19 -3 4 -6 -2 -5 -13z"/>
<path d="M1510 490 c0 -13 18 -22 24 -11 3 5 -1 11 -9 15 -8 3 -15 1 -15 -4z"/>
<path d="M3906 472 c-3 -5 1 -9 9 -9 8 0 12 4 9 9 -3 4 -7 8 -9 8 -2 0 -6 -4
-9 -8z"/>
<path d="M1425 430 c-3 -5 4 -11 15 -15 11 -3 20 -11 20 -17 0 -6 9 -8 20 -5
11 3 17 1 14 -4 -5 -9 110 -69 132 -69 6 0 45 -11 87 -25 42 -13 89 -23 105
-22 46 3 27 17 -23 17 -25 0 -50 6 -59 15 -8 8 -22 15 -30 15 -9 0 -16 5 -16
10 0 6 11 10 24 10 51 0 33 18 -25 24 -33 4 -80 18 -104 30 -39 21 -44 22 -50
8 -4 -10 -9 -12 -13 -6 -11 15 -91 43 -97 34z"/>
<path d="M3201 394 c0 -11 3 -14 6 -6 3 7 2 16 -1 19 -3 4 -6 -2 -5 -13z"/>
<path d="M3227 370 c3 -11 7 -20 9 -20 2 0 4 9 4 20 0 11 -4 20 -9 20 -5 0 -7
-9 -4 -20z"/>
<path d="M3790 335 c0 -8 4 -15 8 -15 5 0 9 7 9 15 0 8 -4 15 -9 15 -4 0 -8
-7 -8 -15z"/>
<path d="M3259 210 c-1 -8 0 -19 1 -25 1 -5 4 -48 5 -95 l2 -85 63 -3 62 -3
-20 33 c-35 57 -85 142 -99 168 -8 16 -13 19 -14 10z"/>
<path d="M3410 198 c0 -9 5 -20 10 -23 13 -8 13 5 0 25 -8 13 -10 13 -10 -2z"/>
<path d="M1938 143 c6 -2 18 -2 25 0 6 3 1 5 -13 5 -14 0 -19 -2 -12 -5z"/>
<path d="M1680 109 c0 -9 163 -23 182 -16 7 3 -9 6 -37 7 -27 1 -71 5 -97 9
-27 4 -48 4 -48 0z"/>
<path d="M330 60 c0 -5 5 -10 10 -10 6 0 10 5 10 10 0 6 -4 10 -10 10 -5 0
-10 -4 -10 -10z"/>
<path d="M825 10 c-3 -5 1 -10 9 -10 9 0 16 5 16 10 0 6 -4 10 -9 10 -6 0 -13
-4 -16 -10z"/>
</g>
</svg>
