<?xml version="1.0" standalone="no"?>
<!DOCTYPE svg PUBLIC "-//W3C//DTD SVG 20010904//EN"
 "http://www.w3.org/TR/2001/REC-SVG-20010904/DTD/svg10.dtd">
<svg version="1.0" xmlns="http://www.w3.org/2000/svg"
 width="400.000000pt" height="400.000000pt" viewBox="0 0 400.000000 400.000000"
 preserveAspectRatio="xMidYMid meet">
<metadata>
Created by potrace 1.14, written by Peter Selinger 2001-2017
</metadata>
<g transform="translate(0.000000,400.000000) scale(0.100000,-0.100000)"
fill="#000000" stroke="none">
<path d="M60 3988 c0 -8 5 -19 10 -24 6 -6 19 -48 29 -95 14 -60 20 -74 20
-49 1 19 6 42 11 50 6 10 4 20 -5 30 -8 9 -21 34 -28 55 -14 39 -37 59 -37 33z"/>
<path d="M736 3986 c7 -19 38 -22 32 -3 -3 6 -12 13 -21 15 -12 2 -15 -1 -11
-12z"/>
<path d="M1160 3978 c0 -31 -15 -52 -30 -43 -15 9 -6 -65 13 -123 16 -46 30
-45 40 3 12 61 12 66 3 128 -8 56 -26 79 -26 35z m20 -73 c0 -8 -7 -15 -15
-15 -8 0 -15 7 -15 15 0 8 7 15 15 15 8 0 15 -7 15 -15z"/>
<path d="M1540 3991 c0 -5 7 -12 16 -15 24 -9 28 -7 14 9 -14 17 -30 20 -30 6z"/>
<path d="M2087 3988 c-2 -7 2 -25 10 -41 10 -19 12 -45 7 -91 l-7 -64 -29 10
c-16 6 -40 8 -53 6 -13 -3 -22 -1 -19 3 3 5 1 9 -4 9 -5 0 -14 26 -20 58 l-10
57 2 -62 c2 -56 -6 -82 -16 -52 -6 17 -146 23 -166 7 -15 -11 -15 -11 -5 2 9
12 8 19 -3 34 -8 11 -14 15 -14 9 0 -6 -15 -9 -36 -6 -20 2 -43 -2 -52 -9 -8
-7 -42 -19 -76 -26 -34 -7 -70 -15 -81 -17 -11 -3 -29 -9 -40 -14 -16 -8 -107
-34 -125 -36 -3 -1 -27 -11 -55 -24 -27 -13 -54 -23 -58 -22 -5 1 -17 -9 -27
-21 -13 -16 -18 -18 -18 -8 2 37 -3 50 -21 50 -22 0 -31 -17 -24 -51 3 -16 -2
-30 -14 -40 -24 -22 -121 -89 -128 -89 -3 0 -5 12 -5 26 0 19 -5 25 -17 22
-23 -4 -28 -32 -9 -51 14 -13 13 -17 -8 -30 -13 -9 -31 -23 -40 -32 -9 -9 -23
-14 -31 -11 -9 3 -15 0 -15 -9 0 -8 -7 -15 -16 -15 -10 0 -14 -6 -11 -15 3 -7
-2 -24 -11 -36 -16 -19 -19 -20 -31 -5 -17 20 -51 21 -51 2 0 -8 12 -24 27
-36 26 -20 26 -23 15 -66 -7 -24 -12 -81 -12 -127 0 -94 19 -147 75 -209 43
-47 45 -68 7 -68 -22 0 -33 8 -50 39 -12 21 -22 46 -22 55 0 26 -29 76 -44 76
-7 0 -19 11 -26 25 -7 14 -19 25 -27 25 -7 0 -13 9 -13 20 0 11 -5 20 -10 20
-6 0 -8 -10 -4 -24 4 -17 0 -28 -13 -37 -11 -8 -23 -21 -28 -29 -6 -11 -3 -10
12 3 19 16 21 16 46 -12 45 -51 66 -136 61 -242 -2 -57 -9 -96 -16 -100 -22
-14 -72 3 -116 39 -52 41 -45 55 28 56 62 1 66 15 5 18 -25 1 -52 2 -61 2 -26
1 -60 -50 -46 -67 15 -18 3 -30 -14 -16 -10 9 -16 4 -26 -17 -15 -37 -48 -74
-65 -74 -7 0 -13 -7 -13 -15 0 -9 -11 -26 -23 -39 -17 -17 -21 -28 -15 -40 6
-10 5 -16 -2 -16 -5 0 -10 -9 -10 -19 0 -25 -10 -51 -20 -51 -4 0 -13 14 -19
30 -5 17 -14 30 -19 30 -16 0 -23 30 -12 51 6 10 18 19 28 19 12 0 6 10 -21
36 -54 50 -81 44 -85 -18 -3 -39 1 -49 17 -60 24 -15 28 -56 6 -64 -8 -4 -15
-14 -15 -23 0 -9 -7 -25 -15 -35 -13 -18 -16 -18 -40 -2 -14 9 -25 22 -25 29
0 6 -3 22 -6 35 -4 13 -2 22 5 22 6 0 11 -7 11 -15 0 -10 11 -15 35 -15 38 0
44 12 20 37 -9 9 -13 23 -10 34 5 14 2 19 -12 17 -37 -3 -63 2 -63 13 0 7 9 9
24 5 26 -6 36 7 36 50 0 16 -6 24 -18 24 -9 0 -23 9 -30 20 -16 26 -55 42
-109 45 -30 2 -43 -1 -43 -11 0 -14 61 -29 84 -21 17 7 48 -46 40 -68 -3 -7
-23 -16 -45 -20 -44 -8 -50 -19 -16 -29 21 -6 21 -7 4 -20 -21 -17 -7 -30 22
-21 27 8 41 -33 17 -50 -9 -7 -16 -25 -16 -41 0 -36 -17 -20 -22 21 -3 26 -7
30 -33 30 -39 0 -49 -39 -13 -49 l23 -6 -22 -19 -23 -19 0 -1211 0 -1211 2000
0 2000 0 0 2000 0 2000 -25 0 c-21 0 -25 -5 -25 -28 0 -15 5 -33 10 -38 16
-16 9 -236 -7 -242 -7 -2 -16 5 -20 15 -4 10 -12 24 -19 30 -15 15 -28 147
-21 209 2 24 1 46 -3 49 -4 3 -11 -27 -15 -65 -4 -39 -11 -73 -16 -76 -12 -7
-29 40 -29 82 0 63 -50 88 -66 33 -12 -41 -28 -42 -32 -1 -2 24 -8 32 -23 32
-15 0 -19 -8 -21 -37 -2 -60 0 -115 8 -151 3 -18 2 -38 -3 -45 -10 -14 -10
-76 1 -125 8 -35 8 -35 -52 -96 -12 -13 -40 -26 -62 -30 -42 -7 -51 -24 -25
-46 16 -13 20 -36 8 -43 -5 -3 -28 -1 -53 2 -31 5 -44 11 -42 21 2 7 -7 41
-19 76 -18 52 -20 66 -10 78 8 9 17 13 22 10 5 -3 9 0 9 5 0 6 -6 11 -14 11
-24 0 -64 62 -55 85 14 36 9 82 -11 108 -11 14 -20 39 -20 55 0 17 -4 34 -10
37 -5 3 -10 17 -10 30 0 48 -9 55 -70 55 l-58 0 5 -47 c3 -27 8 -73 12 -104 4
-30 3 -68 -2 -83 -6 -17 -5 -31 2 -40 7 -8 11 -68 12 -152 1 -200 -1 -248 -12
-255 -7 -4 -7 -27 0 -70 6 -35 14 -79 17 -96 4 -25 1 -33 -9 -33 -8 0 -17 -7
-21 -15 -3 -8 -12 -15 -20 -15 -32 0 -26 -41 11 -79 9 -9 13 -30 12 -60 -3
-37 0 -47 14 -49 23 -5 22 -39 -2 -52 -36 -19 -44 -13 -38 31 4 30 2 42 -10
46 -8 3 -19 0 -23 -7 -13 -21 -40 -3 -41 27 -1 20 -3 22 -6 8 -6 -28 -25 -65
-34 -65 -4 0 -10 16 -14 37 -6 36 -7 36 -19 12 -6 -13 -22 -25 -34 -27 -12 -2
-22 -8 -22 -13 0 -5 8 -8 18 -6 9 1 18 -2 19 -7 0 -5 8 -13 17 -18 25 -14 20
-40 -6 -36 -15 2 -24 11 -26 26 -2 15 -10 22 -25 22 -20 0 -22 4 -19 41 3 26
10 43 21 46 20 7 61 44 61 54 0 12 -53 37 -67 32 -7 -2 3 12 21 31 22 25 41
36 60 36 18 0 26 4 23 13 -2 7 -19 12 -41 11 -28 -1 -36 3 -36 16 0 10 9 20
20 23 14 3 20 14 20 32 0 17 5 25 14 23 14 -3 16 0 16 22 0 20 -101 110 -123
110 -12 0 -32 3 -44 6 -20 5 -23 2 -23 -19 0 -48 21 -127 34 -127 20 0 69 -47
62 -59 -11 -18 -26 -13 -26 9 0 11 -6 20 -14 20 -18 0 -30 -33 -21 -59 3 -11
-2 -28 -14 -42 -18 -22 -18 -25 -3 -42 13 -15 14 -22 4 -37 -9 -15 -9 -22 3
-34 29 -29 -15 -120 -48 -99 -6 3 -7 1 -3 -6 4 -6 11 -9 15 -7 4 3 13 1 20 -4
23 -14 2 -30 -39 -30 -30 0 -43 6 -59 26 -26 33 -29 115 -5 138 21 22 30 14
38 -34 11 -73 26 -33 21 58 -3 48 -7 121 -9 162 -3 41 -5 97 -5 123 0 45 -1
47 -24 42 -20 -5 -26 -1 -37 27 -8 18 -27 53 -44 78 -20 30 -29 54 -28 76 2
18 -2 35 -8 39 -5 3 -10 -1 -10 -10 0 -8 -7 -18 -15 -21 -20 -8 -125 43 -125
61 0 8 -4 15 -10 15 -5 0 -10 -4 -10 -10 0 -5 -16 0 -36 12 -23 13 -31 23 -24
28 8 5 7 9 -4 13 -9 4 -16 2 -16 -2 0 -12 -30 -4 -55 15 -17 13 -18 16 -5 24
13 8 13 11 -1 25 -15 15 -17 15 -23 -10 -6 -22 -9 -25 -21 -15 -8 7 -15 20
-15 29 0 13 -2 14 -9 2 -8 -12 -14 -12 -40 -1 l-31 12 -2 92 c-1 50 -2 108 -1
129 l2 37 -84 0 c-58 0 -85 -4 -88 -12z m1722 -163 c13 -81 8 -130 -14 -139
-39 -15 -51 119 -20 212 10 28 23 0 34 -73z m68 -131 c3 -74 1 -104 -6 -99 -6
3 -11 18 -11 33 0 15 -4 34 -10 42 -5 9 -5 19 1 26 7 9 6 26 -2 53 -13 44 -6
82 13 63 6 -6 13 -58 15 -118z m-1737 66 c12 -12 18 -25 14 -31 -3 -6 0 -9 7
-8 18 4 79 -29 79 -41 0 -6 6 -10 13 -10 6 0 34 -11 61 -25 27 -14 59 -25 71
-25 29 0 28 -23 -2 -37 -14 -7 -23 -7 -23 -1 0 5 -5 6 -11 3 -7 -5 -3 -14 10
-26 23 -22 35 -25 28 -6 -2 6 6 20 19 30 23 17 24 17 30 -8 4 -15 1 -32 -6
-40 -11 -13 -10 -14 5 -9 10 4 21 1 26 -7 6 -9 12 -10 17 -4 4 6 21 10 39 10
30 0 31 -1 15 -18 -16 -17 -15 -18 8 -14 14 2 19 2 12 0 -22 -8 -7 -28 18 -25
22 4 23 2 10 -13 -14 -16 -13 -17 7 -11 16 5 23 2 28 -14 3 -11 11 -20 16 -20
6 0 8 -9 4 -19 -4 -14 -1 -19 12 -17 13 1 17 -7 18 -34 0 -32 2 -35 28 -33 15
1 27 -4 28 -10 2 -32 9 -50 25 -61 10 -8 14 -18 9 -26 -6 -9 -12 -5 -22 14 -9
18 -20 26 -29 22 -17 -6 -16 24 1 36 6 5 6 8 -2 8 -6 0 -15 -4 -18 -10 -10
-16 -25 -12 -25 8 0 13 -2 14 -9 4 -7 -11 -9 -11 -14 2 -4 9 -12 13 -19 11 -9
-4 -14 2 -14 15 0 11 6 20 13 20 10 0 9 6 -3 25 -12 18 -20 23 -29 15 -8 -7
-17 -4 -31 11 -13 15 -15 23 -7 26 7 2 10 10 7 18 -3 8 -12 11 -20 8 -8 -3
-11 -9 -8 -14 3 -5 -1 -9 -8 -9 -11 0 -11 -2 0 -9 8 -5 0 -7 -22 -7 -35 2 -65
16 -32 16 9 0 14 5 11 10 -4 6 -15 8 -26 5 -11 -4 -19 -2 -19 4 0 17 -18 13
-22 -5 -3 -14 -6 -13 -27 5 -18 16 -28 18 -43 10 -27 -15 -32 -7 -10 17 10 11
17 25 14 32 -2 6 2 12 9 12 7 0 10 3 7 6 -4 3 -20 -2 -37 -11 -17 -9 -31 -11
-31 -5 0 5 5 10 11 10 5 0 7 5 4 11 -5 6 -11 4 -19 -7 -8 -10 -25 -17 -45 -16
-17 0 -31 -4 -31 -9 0 -5 6 -9 13 -9 6 0 24 -11 40 -24 25 -22 26 -24 7 -29
-10 -3 -19 -2 -18 2 2 19 -5 29 -27 39 -31 14 -32 35 -2 62 20 19 20 21 2 14
-11 -5 -28 -18 -38 -31 -23 -28 -42 -31 -27 -4 16 30 12 36 -11 15 -17 -16
-22 -16 -29 -4 -6 8 -10 11 -10 6 0 -5 8 -18 18 -29 16 -19 16 -19 -5 -13 -14
5 -23 3 -23 -3 0 -6 -5 -11 -11 -11 -6 0 -9 9 -6 20 3 11 0 23 -5 27 -6 3 -8
2 -5 -4 4 -6 -7 -22 -23 -36 -19 -18 -30 -22 -34 -14 -4 7 -8 8 -11 2 -15 -28
-25 -39 -31 -33 -10 11 25 60 38 52 7 -5 8 -2 3 6 -6 10 -18 3 -45 -28 -28
-33 -42 -42 -68 -42 -17 0 -32 5 -32 10 0 6 6 10 13 9 39 -5 49 1 43 27 -4 15
-3 23 3 20 5 -3 23 13 40 36 32 43 40 65 20 52 -7 -4 -10 -1 -7 6 3 11 -35 60
-47 60 -2 0 -10 -10 -16 -22 -11 -21 -11 -22 4 -9 20 16 23 1 7 -30 -13 -23
-32 -26 -23 -2 4 11 3 14 -5 9 -7 -4 -12 -13 -12 -21 0 -29 23 -26 50 6 37 43
38 31 3 -24 -30 -47 -51 -67 -70 -67 -23 0 -14 20 10 21 21 0 21 1 2 9 -11 5
-15 9 -8 9 15 1 6 28 -18 52 -14 14 -20 15 -28 5 -6 -7 -9 -16 -6 -20 3 -3 0
-2 -6 3 -9 7 -7 14 5 26 22 23 20 26 -11 20 -16 -3 -22 -2 -15 1 18 8 15 41
-5 53 -10 5 -15 12 -12 16 4 3 14 -1 22 -10 15 -14 17 -13 28 7 8 14 14 18 17
10 2 -6 8 -10 13 -7 5 4 6 -2 2 -12 -6 -16 -5 -17 12 -3 16 13 16 9 -4 -22
-12 -21 -18 -38 -12 -38 6 0 11 3 11 8 0 22 49 64 78 68 21 2 31 0 27 -7 -4
-5 -15 -7 -25 -4 -12 4 -26 -4 -44 -26 -15 -17 -24 -34 -22 -37 3 -3 15 7 27
22 12 15 26 25 33 23 6 -2 20 -1 31 3 11 4 25 4 30 -1 7 -5 11 -1 11 10 0 13
-5 17 -16 13 -11 -4 -10 0 4 16 20 23 9 31 -13 10 -11 -11 -12 -10 -6 1 6 11
4 13 -8 8 -12 -5 -17 -1 -17 12 0 21 15 35 47 45 18 6 22 4 17 -9 -4 -11 -13
-14 -28 -9 -18 6 -19 5 -8 -9 11 -12 19 -14 40 -6 21 8 29 7 39 -7 12 -16 13
-15 13 9 0 15 5 27 10 27 6 0 10 -7 10 -15 0 -8 5 -15 10 -15 6 0 10 -7 10
-15 0 -9 -9 -15 -24 -15 -14 0 -28 -4 -31 -10 -10 -17 -25 -11 -18 7 4 10 2
14 -4 10 -6 -4 -10 -18 -10 -32 0 -23 1 -24 16 -11 9 8 28 18 44 21 15 4 34
17 42 28 13 18 12 22 -5 34 -11 8 -20 18 -20 24 0 14 8 11 30 -11z m-235 0 c3
-6 -5 -10 -19 -10 -14 0 -28 5 -31 10 -3 6 5 10 19 10 14 0 28 -4 31 -10z
m-321 -25 c3 -8 1 -15 -4 -15 -6 0 -10 7 -10 15 0 8 2 15 4 15 2 0 6 -7 10
-15z m103 9 c-3 -3 -12 -4 -19 -1 -8 3 -5 6 6 6 11 1 17 -2 13 -5z m67 -12 c2
-4 -4 -8 -14 -8 -10 0 -16 4 -14 8 3 4 9 8 14 8 5 0 11 -4 14 -8z m-304 -22
c0 -5 -2 -10 -4 -10 -3 0 -8 5 -11 10 -3 6 -1 10 4 10 6 0 11 -4 11 -10z m456
-3 c4 -4 -8 -7 -27 -7 -23 0 -30 3 -20 9 15 10 37 9 47 -2z m-221 -16 c3 -5 2
-12 -3 -15 -5 -3 -9 1 -9 9 0 17 3 19 12 6z m-145 -10 c0 -13 -39 -58 -40 -46
0 10 31 55 38 55 1 0 2 -4 2 -9z m61 -18 c-5 -10 -23 -35 -40 -57 -33 -42 -35
-46 -23 -46 5 0 15 11 22 25 7 13 17 22 22 19 4 -3 6 -10 3 -15 -14 -21 15 -7
34 17 12 15 21 24 21 20 0 -14 -31 -66 -39 -66 -5 0 -11 -9 -14 -21 -4 -15 -2
-18 7 -10 7 6 23 8 37 5 21 -5 22 -4 8 8 -16 14 -15 38 3 38 6 0 8 -6 5 -14
-3 -8 -1 -17 6 -19 8 -3 4 -15 -11 -36 -31 -42 -22 -51 11 -11 14 16 34 29 44
29 16 -1 16 -2 1 -6 -19 -5 -54 -53 -39 -53 6 0 14 7 19 16 10 18 32 11 32
-11 0 -7 6 -16 13 -18 9 -4 9 -6 -1 -6 -7 -1 -17 9 -22 22 -5 12 -10 18 -11
12 -6 -30 -2 -51 11 -57 13 -6 13 -7 -1 -7 -10 -1 -27 -24 -43 -56 -14 -30
-30 -55 -36 -55 -7 0 -8 6 0 19 19 36 10 33 -25 -9 -21 -25 -35 -36 -35 -26 0
9 5 16 11 16 5 0 7 5 4 10 -3 6 -2 10 3 10 6 0 15 12 20 28 5 15 13 36 17 47
7 19 6 19 -8 -1 -12 -15 -24 -20 -44 -17 l-28 4 28 -16 c16 -9 26 -19 23 -22
-3 -3 -12 -1 -19 5 -8 7 -17 8 -23 2 -6 -6 -9 6 -9 33 0 38 -3 42 -30 48 l-30
7 28 1 c17 1 26 5 22 11 -4 6 -12 10 -18 9 -7 -1 -25 -1 -42 0 -22 1 -26 4
-15 10 8 6 28 8 45 5 24 -4 26 -3 10 5 -11 5 -36 11 -55 12 l-35 2 35 7 c19 4
29 8 22 9 -7 0 -11 5 -7 10 3 5 1 12 -4 15 -5 4 -12 2 -16 -4 -9 -15 -64 -9
-58 6 9 24 -20 27 -39 5 l-18 -23 6 31 c4 21 3 31 -5 31 -7 0 -9 -5 -6 -10 10
-16 -24 -45 -37 -32 -8 8 -7 13 5 18 9 3 17 15 17 25 0 13 7 19 21 19 11 0 17
5 14 10 -3 6 -1 10 5 10 7 0 10 7 7 15 -4 8 -1 17 5 21 7 5 8 2 3 -6 -6 -10
-3 -12 13 -8 12 4 20 2 16 -3 -3 -5 -1 -9 5 -9 5 0 13 5 16 11 4 6 13 8 20 5
7 -2 18 1 25 7 10 9 11 9 5 -3 -4 -8 -15 -23 -23 -32 -10 -13 -11 -18 -3 -18
7 0 9 -5 5 -11 -5 -8 -10 -6 -16 5 -6 12 -5 23 3 34 7 9 2 7 -11 -5 -24 -22
-24 -23 -5 -37 18 -13 23 -13 45 1 l25 16 -18 -26 c-27 -42 -6 -31 28 14 34
44 85 78 85 57 0 -8 5 -6 11 5 5 9 12 17 15 17 3 0 0 -8 -5 -17z m-268 1 c11
-11 -3 -24 -18 -18 -8 4 -12 10 -9 15 6 11 18 12 27 3z m2625 -60 c-2 -27 -7
-49 -13 -49 -11 0 -19 79 -10 103 11 30 26 -5 23 -54z m-2474 45 c-3 -6 0 -15
7 -20 7 -4 10 -12 5 -16 -5 -4 -11 -2 -13 5 -4 10 -8 10 -19 1 -19 -16 -18 0
3 23 18 20 28 24 17 7z m186 -39 c-6 -12 -14 -20 -17 -17 -2 3 1 14 8 26 17
26 24 19 9 -9z m-60 16 c0 -3 -4 -8 -10 -11 -5 -3 -10 -1 -10 4 0 6 5 11 10
11 6 0 10 -2 10 -4z m80 -37 c-7 -11 -14 -18 -17 -15 -8 8 5 36 17 36 7 0 7
-6 0 -21z m-412 -14 c-6 -14 -18 -25 -26 -25 -10 0 -7 7 9 25 30 31 31 31 17
0z m2562 -9 c0 -8 -7 -16 -15 -20 -8 -3 -15 -13 -16 -23 0 -13 -3 -11 -10 7
-8 19 -6 27 7 37 23 17 34 16 34 -1z m-1973 -22 c-3 -3 -12 -4 -19 -1 -8 3 -5
6 6 6 11 1 17 -2 13 -5z m-14 -17 c4 3 7 1 7 -5 0 -7 -10 -12 -23 -12 -16 0
-27 -9 -34 -27 l-12 -28 6 30 c8 41 22 58 38 45 6 -5 15 -7 18 -3z m95 -17
c-14 -22 -24 -19 -15 5 4 8 11 15 17 15 6 0 6 -7 -2 -20z m-894 -31 c-11 -5
-13 -8 -5 -8 8 -1 11 -4 8 -7 -4 -4 -14 -1 -23 7 -15 12 -14 14 3 20 25 9 42
-2 17 -12z m84 -6 c13 -21 13 -23 -2 -23 -9 0 -16 7 -16 15 0 8 -6 15 -14 15
-8 0 -18 5 -22 11 -13 22 39 4 54 -18z m707 17 c-3 -5 -10 -10 -16 -10 -5 0
-9 5 -9 10 0 6 7 10 16 10 8 0 12 -4 9 -10z m-438 -42 c-3 -7 -5 -2 -5 12 0
14 2 19 5 13 2 -7 2 -19 0 -25z m898 18 c-20 -14 -35 -12 -35 5 0 5 12 9 27 9
26 0 26 -1 8 -14z m-405 -12 c0 -8 -4 -13 -9 -9 -12 7 -61 -15 -61 -27 0 -5
10 -13 23 -18 22 -9 22 -9 -4 -9 -18 -1 -29 6 -37 24 -15 33 -15 36 1 34 6 -1
21 -1 32 0 17 1 18 3 5 11 -11 7 -7 10 18 10 22 0 32 -5 32 -16z m313 -4 c11
-14 13 -20 4 -20 -7 0 -18 9 -25 20 -7 11 -9 20 -4 20 4 0 15 -9 25 -20z m-50
-10 c17 -20 11 -25 -17 -14 -16 6 -23 34 -8 34 4 0 15 -9 25 -20z m-63 -5 c0
-8 -3 -15 -6 -15 -3 0 -12 7 -20 15 -14 13 -13 15 5 15 12 0 21 -6 21 -15z
m-39 -11 c11 -14 10 -15 -11 -12 -13 1 -25 9 -28 16 -5 17 23 15 39 -4z m-681
-4 c0 -5 -4 -10 -10 -10 -5 0 -10 5 -10 10 0 6 5 10 10 10 6 0 10 -4 10 -10z
m140 -6 c0 -2 -7 -4 -15 -4 -8 0 -15 4 -15 10 0 5 7 7 15 4 8 -4 15 -8 15 -10z
m800 5 c0 -6 6 -9 13 -6 6 2 29 -2 51 -9 21 -8 51 -14 67 -14 16 0 29 -4 29
-10 0 -6 9 -6 26 1 22 8 29 6 41 -11 8 -11 21 -20 29 -20 8 0 14 -4 14 -10 0
-5 -2 -10 -4 -10 -2 0 -11 -3 -20 -6 -11 -4 -16 -1 -16 11 0 12 -5 15 -16 11
-10 -4 -22 1 -30 11 -13 17 -13 17 -14 -2 -1 -11 -4 -15 -6 -8 -3 7 -13 9 -21
6 -13 -5 -15 -2 -9 13 6 15 5 17 -5 7 -16 -16 -46 -17 -51 -1 -3 7 -10 8 -17
3 -7 -4 -41 -8 -75 -8 -33 0 -65 -2 -71 -6 -11 -6 -8 -6 -87 -15 -32 -4 -58
-12 -58 -17 0 -5 -7 -9 -16 -9 -11 0 -14 6 -9 20 11 35 -12 21 -29 -17 l-16
-38 5 33 c6 42 -10 33 -25 -14 -8 -25 -16 -34 -27 -30 -8 3 -20 6 -25 6 -6 0
-8 3 -4 7 4 4 15 8 24 8 10 0 18 9 20 22 3 23 22 43 44 47 7 2 21 6 30 10 9 4
26 2 38 -4 15 -8 20 -8 16 -1 -5 7 2 11 18 11 14 0 26 5 26 10 0 6 26 10 59
10 40 0 63 5 71 15 15 18 30 20 30 4z m-606 -21 c-3 -4 -9 -8 -15 -8 -5 0 -9
4 -9 8 0 5 7 9 15 9 8 0 12 -4 9 -9z m48 -7 c-4 -10 -7 -11 -10 -3 -2 7 -9 9
-14 6 -6 -4 -8 -3 -5 3 10 16 36 11 29 -6z m38 -1 c0 -5 -5 -10 -11 -10 -5 0
-7 5 -4 10 3 6 8 10 11 10 2 0 4 -4 4 -10z m-125 -49 c-14 -29 -35 -49 -35
-36 0 13 34 65 42 65 5 0 2 -13 -7 -29z m1951 17 c12 -20 15 -106 3 -113 -17
-11 -43 3 -31 18 6 7 7 31 3 60 -6 35 -5 47 5 47 7 0 16 -5 20 -12z m-916 -17
c0 -11 -15 -26 -27 -28 -15 -3 -17 13 -3 22 6 4 8 11 5 16 -3 5 1 6 9 3 9 -3
16 -9 16 -13z m-730 -15 c0 -3 -4 -8 -10 -11 -5 -3 -10 -1 -10 4 0 6 5 11 10
11 6 0 10 -2 10 -4z m1015 -5 c3 -6 -2 -14 -11 -19 -13 -7 -14 -13 -5 -30 6
-12 7 -23 2 -26 -16 -10 -40 5 -43 27 -6 35 40 74 57 48z m-169 -89 c2 -87 -4
-96 -42 -64 -16 13 -20 22 -14 37 l9 20 1 -20 c1 -20 1 -20 12 -1 8 15 8 21 0
24 -16 5 -15 47 0 72 23 36 33 15 34 -68z m-1202 46 c-3 -4 -9 -8 -15 -8 -5 0
-9 4 -9 8 0 5 7 9 15 9 8 0 12 -4 9 -9z m273 6 c-3 -3 -12 -4 -19 -1 -8 3 -5
6 6 6 11 1 17 -2 13 -5z m-12 -34 c3 -5 -1 -10 -10 -10 -9 0 -13 5 -10 10 3 6
8 10 10 10 2 0 7 -4 10 -10z m-48 -22 c-3 -8 -6 -5 -6 6 -1 11 2 17 5 13 3 -3
4 -12 1 -19z m1921 -43 c11 -52 6 -92 -14 -99 -20 -8 -37 29 -25 53 6 10 8 21
5 24 -8 8 6 67 16 67 5 0 13 -20 18 -45z m-186 -27 c-15 -15 -26 -4 -18 18 5
13 9 15 18 6 9 -9 9 -15 0 -24z m88 -22 c0 -24 -1 -24 -30 -10 -34 18 -40 29
-10 21 11 -3 23 -1 26 4 9 15 14 10 14 -15z m209 -68 l-1 -43 -14 33 c-14 33
-12 52 7 52 5 0 9 -19 8 -42z m-1251 -26 c32 -25 45 -72 20 -72 -10 0 -10 -2
0 -9 18 -11 11 -55 -8 -59 -11 -2 -25 17 -43 59 -30 68 -32 79 -15 79 9 0 9 3
0 12 -7 7 -12 16 -12 21 0 10 12 3 58 -31z m1146 -8 c3 -9 6 -23 5 -32 0 -11
-2 -12 -6 -4 -2 6 -13 12 -23 12 -18 0 -34 23 -23 34 12 12 41 6 47 -10z
m-1074 -70 c-6 -14 -10 -57 -10 -95 0 -38 -4 -69 -10 -69 -6 0 -9 42 -8 104 2
96 4 104 20 95 14 -8 15 -14 8 -35z m1180 14 c0 -19 -2 -20 -10 -8 -13 19 -13
30 0 30 6 0 10 -10 10 -22z m-1895 -77 c10 -6 17 -8 36 -10 5 0 7 -5 4 -11 -3
-5 0 -7 9 -4 20 8 95 -44 102 -71 3 -13 17 -33 30 -46 13 -12 24 -34 24 -48 0
-25 55 -81 79 -81 6 0 11 -4 11 -10 0 -5 14 -17 32 -26 30 -16 37 -16 105 1
50 11 78 23 88 38 14 20 14 22 0 25 -21 5 -19 19 4 27 28 9 70 -12 75 -37 3
-13 8 -72 12 -133 11 -182 7 -215 -30 -215 -14 0 -26 -6 -28 -12 -8 -24 -74
23 -104 74 -15 26 -35 50 -44 53 -8 3 -32 21 -54 40 -58 52 -79 43 -31 -13 14
-17 25 -43 25 -58 0 -16 11 -47 23 -69 28 -49 23 -87 -13 -95 -14 -3 -30 -17
-37 -30 -7 -14 -13 -19 -13 -12 0 6 -7 12 -16 12 -14 0 -14 -3 -4 -15 10 -12
9 -15 -8 -15 -11 0 -23 5 -25 10 -3 6 -4 5 -3 -2 1 -7 13 -15 27 -18 20 -5 16
-8 -27 -19 -29 -7 -58 -13 -65 -14 -8 -2 -20 -6 -27 -11 -13 -8 -88 -1 -118
11 -8 3 -14 15 -14 28 0 18 -4 22 -20 18 -11 -3 -20 0 -20 6 0 6 5 11 12 11
21 0 133 58 172 89 21 17 49 31 62 31 34 0 38 17 6 23 -15 3 -45 19 -66 36
-21 17 -47 31 -58 31 -11 0 -16 5 -13 10 3 6 1 10 -4 10 -6 0 -11 11 -11 25 0
14 4 25 10 25 5 0 3 17 -6 40 -13 32 -14 46 -4 74 9 29 8 47 -6 97 -16 58 -16
62 1 92 17 29 17 31 0 44 -11 7 -22 13 -27 13 -4 0 -5 7 -2 15 4 9 0 15 -9 15
-8 0 -17 5 -19 12 -2 6 -11 13 -19 14 -7 2 -22 5 -31 7 -10 2 -20 6 -24 9 -3
4 -12 4 -20 1 -8 -3 -14 0 -14 7 0 11 64 12 85 1z m675 -36 c0 -19 -20 -29
-32 -17 -8 8 -7 16 2 26 14 17 30 12 30 -9z m-960 -82 c0 -10 -6 -13 -16 -9
-9 3 -27 6 -40 6 -30 0 -32 17 -1 22 33 5 57 -3 57 -19z m137 -108 c40 -12 53
-20 49 -31 -7 -18 8 -18 24 1 7 8 19 15 27 15 19 0 67 -48 80 -81 10 -24 9
-28 -13 -38 -14 -6 -30 -11 -37 -11 -21 0 -122 -111 -162 -178 -36 -59 -38
-65 -26 -97 9 -26 9 -44 1 -75 -10 -36 -14 -40 -43 -40 -18 0 -38 -5 -45 -12
-9 -9 -12 -8 -12 4 0 24 -49 33 -65 12 -10 -14 -9 -23 3 -46 12 -24 19 -29 40
-25 14 3 41 -2 60 -10 29 -12 50 -13 111 -4 42 5 123 13 181 16 106 6 226 28
268 48 15 7 29 7 45 0 52 -25 78 -33 72 -23 -3 5 -1 10 5 10 7 0 10 12 8 27
-2 15 2 28 10 31 7 2 11 -2 10 -10 -3 -13 32 -13 42 0 8 12 32 13 25 2 -3 -5
-2 -10 4 -10 6 0 15 9 21 20 6 11 16 20 23 20 7 0 17 10 22 22 18 39 34 33 28
-10 -5 -39 -5 -39 33 -47 95 -17 150 -70 198 -191 30 -74 28 -104 -10 -191
-40 -93 -83 -144 -286 -343 -109 -107 -198 -194 -198 -192 0 1 11 30 25 64 14
34 25 68 25 75 0 22 47 115 72 143 13 14 56 52 97 85 40 33 94 77 120 98 57
48 121 150 121 195 0 17 5 32 11 32 19 0 -20 51 -100 130 -87 86 -119 105
-140 83 -8 -9 -22 -12 -36 -9 -16 4 -25 1 -29 -10 -9 -23 -7 -34 4 -34 6 0 10
7 10 15 0 8 7 15 15 15 8 0 15 -4 15 -8 0 -15 -38 -44 -49 -37 -6 3 -11 0 -11
-8 0 -16 -65 -89 -73 -81 -2 3 -7 -10 -11 -28 -3 -18 -13 -46 -21 -62 -8 -15
-13 -32 -10 -36 3 -5 1 -10 -5 -12 -5 -1 -12 -21 -16 -43 -3 -22 -10 -44 -15
-50 -5 -5 -9 -20 -9 -33 0 -17 -4 -22 -14 -19 -8 3 -20 -1 -26 -8 -7 -8 -16
-12 -21 -9 -5 3 -6 -2 -2 -11 5 -15 3 -15 -15 -4 -17 11 -23 10 -37 -1 -24
-20 -55 -22 -61 -5 -4 8 -10 12 -15 9 -5 -3 -9 0 -9 5 0 6 -4 11 -10 11 -5 0
-10 -7 -10 -16 0 -8 -5 -12 -10 -9 -6 4 -8 11 -5 16 4 5 -3 9 -14 9 -12 0 -30
9 -41 20 -11 11 -26 17 -35 14 -19 -8 -75 14 -75 29 0 6 -3 7 -7 3 -4 -3 -12
6 -19 21 -10 24 -13 25 -14 8 -1 -11 -1 -27 0 -35 1 -9 -7 -5 -20 10 -14 16
-20 19 -16 8 3 -11 1 -15 -9 -12 -7 3 -17 17 -21 32 -5 20 -8 23 -11 10 -5
-21 -19 -23 -30 -5 -13 23 -71 38 -93 25 -14 -9 -21 -8 -35 5 -9 9 -11 17 -5
17 7 0 6 5 -2 14 -7 7 -19 11 -26 9 -19 -8 -42 17 -42 44 0 22 -2 24 -15 13
-19 -15 -30 -7 -21 15 4 11 12 14 27 10 18 -6 19 -4 11 12 -49 95 -53 153 -11
163 13 3 24 11 23 18 -1 7 -2 22 -2 35 -3 41 -65 111 -91 102 -19 -6 -45 32
-46 68 0 11 -6 22 -13 24 -7 3 -10 -1 -6 -11 3 -9 3 -23 0 -32 -6 -15 -8 -15
-27 2 -17 15 -18 19 -4 26 8 5 15 19 15 30 0 17 -3 19 -12 10 -8 -8 -15 -9
-25 -1 -10 9 -13 6 -13 -16 0 -18 -6 -28 -19 -32 -11 -3 -21 -13 -24 -24 -10
-38 -24 -18 -19 27 3 33 1 49 -9 55 -23 15 10 30 50 22 30 -5 33 -3 28 11 -4
10 -7 22 -7 27 0 5 -9 9 -19 9 -15 0 -20 9 -24 43 -2 23 -8 52 -12 64 -6 19
-2 25 21 33 16 6 48 12 71 13 24 1 43 5 43 9 0 9 43 -3 60 -17 35 -30 200 -50
200 -24 0 5 -4 7 -10 4 -5 -3 -10 -1 -10 4 0 6 -10 11 -21 11 -31 0 -103 22
-111 34 -12 18 1 24 34 17 41 -9 68 -3 62 12 -7 19 129 21 193 2z m430 -1 c-3
-3 -12 -4 -19 -1 -8 3 -5 6 6 6 11 1 17 -2 13 -5z m211 -23 c-2 -5 -14 -4 -28
2 l-25 10 25 6 c24 7 35 0 28 -18z m-1498 -199 c0 -10 -9 -28 -20 -40 -22 -23
-27 -40 -7 -25 22 17 46 22 53 11 4 -7 3 -8 -4 -4 -7 4 -12 1 -12 -8 0 -8 4
-16 9 -18 5 -2 5 -13 0 -27 -9 -23 -10 -24 -24 -5 -14 19 -14 19 -15 -1 -1
-19 -2 -19 -14 -3 -7 10 -16 15 -19 11 -4 -3 -7 8 -7 26 0 22 10 45 28 66 32
40 32 40 32 17z m90 -3 c0 -6 -4 -7 -10 -4 -5 3 -10 11 -10 16 0 6 5 7 10 4 6
-3 10 -11 10 -16z m933 -23 c18 -14 25 -42 7 -31 -5 3 -10 1 -10 -4 0 -14 -33
-14 -47 0 -15 15 -4 49 16 49 9 0 24 -7 34 -14z m397 -232 c0 -9 -5 -14 -12
-12 -18 6 -21 28 -4 28 9 0 16 -7 16 -16z m-442 -35 c-2 -6 -8 -10 -13 -10 -5
0 -11 4 -13 10 -2 6 4 11 13 11 9 0 15 -5 13 -11z m-504 -100 c9 -17 13 -36
10 -41 -3 -5 3 -12 15 -15 12 -3 21 -11 21 -19 0 -7 8 -17 18 -23 16 -9 16
-11 -4 -31 l-22 -22 4 28 4 29 -13 -27 c-10 -21 -16 -24 -30 -17 -9 6 -17 17
-17 26 0 9 -6 13 -15 9 -10 -4 -15 1 -15 15 0 12 -9 33 -20 49 -19 27 -19 27
0 45 20 18 20 18 0 32 -11 8 -20 25 -20 39 0 24 1 24 34 -11 19 -20 42 -49 50
-66z m1291 -143 c6 -40 4 -51 -23 -91 -16 -24 -56 -65 -88 -89 -33 -25 -89
-74 -126 -110 -69 -66 -76 -68 -58 -22 5 15 6 26 0 26 -14 0 -20 -14 -31 -76
-6 -31 -15 -68 -20 -83 -10 -25 -11 -25 -24 -8 -8 11 -17 49 -20 85 -4 37 -11
87 -16 111 -11 50 3 80 97 208 29 39 67 99 84 132 16 34 35 61 41 61 5 0 8 3
6 8 -3 4 0 18 5 32 9 24 11 22 88 -57 68 -71 79 -88 85 -127z m-2214 161 c-13
-13 -26 -3 -16 12 3 6 11 8 17 5 6 -4 6 -10 -1 -17z m831 -19 c-6 -6 -15 -8
-19 -4 -4 4 -1 11 7 16 19 12 27 3 12 -12z m1125 -48 c-1 -12 -5 -16 -10 -11
-5 5 -6 14 -3 20 11 16 15 13 13 -9z m1393 -70 c0 -5 -4 -10 -10 -10 -5 0 -10
5 -10 10 0 6 5 10 10 10 6 0 10 -4 10 -10z m-3620 -14 c0 -17 -27 -29 -35 -16
-4 6 -3 15 0 20 9 15 35 12 35 -4z m2765 -6 c21 -8 26 -16 23 -37 -4 -37 -38
-45 -38 -9 0 14 -4 28 -10 31 -10 6 -14 25 -6 25 3 0 17 -5 31 -10z m-5 -182
c0 -13 -13 -9 -38 10 -16 13 -21 23 -16 36 7 17 9 17 31 -10 12 -16 23 -32 23
-36z m-1608 -103 c0 -5 -5 -11 -11 -13 -6 -2 -11 4 -11 13 0 9 5 15 11 13 6
-2 11 -8 11 -13z m-13 -47 c-11 -21 -39 -24 -39 -5 0 18 6 23 29 23 16 0 18
-4 10 -18z m-79 -8 c0 -11 -7 -20 -15 -20 -18 0 -19 12 -3 28 16 16 18 15 18
-8z m187 -51 c-40 -21 -68 -20 -66 3 0 10 2 10 6 1 7 -18 30 -16 37 2 3 9 17
15 33 15 27 -1 27 -1 -10 -21z m-101 -21 c-25 -14 -19 -28 13 -28 37 0 48 -15
22 -30 -16 -8 -25 -6 -41 7 -11 10 -24 18 -28 18 -15 0 -32 17 -32 30 0 16 25
23 59 16 20 -3 21 -5 7 -13z m784 -44 c-6 -26 -17 -62 -24 -79 -8 -16 -26 -66
-41 -110 -49 -142 -89 -211 -194 -333 -43 -51 -51 -66 -40 -73 26 -16 38 -9
81 49 54 73 60 80 77 74 9 -3 11 1 7 16 -5 13 -1 22 10 26 9 4 18 5 20 4 2 -2
-32 -160 -36 -163 0 -1 8 -1 19 -1 12 0 17 6 14 16 -3 10 0 9 7 -3 6 -10 9
-26 5 -35 -5 -14 -7 -14 -15 -2 -6 8 -10 11 -10 5 0 -5 5 -17 10 -25 8 -13 11
-13 19 -1 7 11 10 10 15 -5 9 -29 16 -194 10 -220 -7 -29 -29 -31 -44 -5 -13
26 -13 34 3 25 9 -5 9 -4 1 5 -6 6 -18 9 -28 5 -16 -6 -16 -8 2 -28 46 -51 30
-46 -29 10 -35 34 -75 65 -89 69 -23 7 -23 8 -5 21 10 8 15 14 9 15 -5 0 -17
2 -27 4 -13 2 -17 -1 -13 -11 3 -8 0 -14 -7 -14 -18 0 -107 49 -140 76 -16 13
-33 24 -39 24 -6 0 -41 25 -79 55 -38 31 -74 52 -82 49 -15 -5 -53 28 -99 85
-18 22 -28 29 -28 19 0 -8 7 -21 15 -28 8 -7 12 -16 10 -20 -3 -5 4 -28 16
-53 20 -40 26 -45 83 -60 75 -20 140 -46 133 -53 -3 -3 -38 0 -79 6 -40 7
-156 15 -258 19 -175 6 -188 8 -230 32 -25 15 -63 32 -85 39 -53 17 -65 27
-88 79 -13 30 -19 66 -19 116 0 64 5 85 46 181 26 60 50 128 53 151 3 24 8 43
10 43 6 0 38 -34 127 -135 78 -87 150 -155 166 -155 5 0 28 -21 52 -47 125
-136 179 -190 238 -237 91 -72 190 -117 190 -85 0 7 10 9 24 7 17 -3 23 0 22
11 -1 12 7 15 27 13 l28 -3 -21 21 c-17 17 -182 110 -196 110 -2 0 3 -11 12
-25 22 -34 6 -31 -53 8 -53 35 -75 54 -126 104 -35 35 -39 40 -81 95 l-28 37
29 7 c39 9 141 43 183 62 35 15 105 42 230 86 89 32 214 96 280 144 30 22 56
39 58 37 1 -1 -2 -24 -8 -51z m712 -328 c43 -28 115 -165 133 -253 19 -86 19
-204 1 -247 -42 -100 -160 -110 -255 -21 -89 83 -170 228 -171 305 0 37 26
186 36 201 3 5 15 9 27 9 12 0 29 6 39 13 9 7 47 13 87 14 57 1 77 -3 103 -21z
m-807 -60 c-15 -20 -30 -35 -32 -33 -6 6 31 67 40 67 5 0 5 6 1 13 -5 9 -4 9
6 0 10 -9 7 -19 -15 -47z m-341 -172 c23 -22 20 -37 -4 -24 -11 6 -20 17 -20
25 0 19 5 19 24 -1z m1991 -245 c4 -6 5 -12 4 -14 -7 -7 -59 8 -59 16 0 13 47
11 55 -2z m150 -9 c3 -5 1 -10 -4 -10 -6 0 -11 5 -11 10 0 6 2 10 4 10 3 0 8
-4 11 -10z m-1727 -187 c1 -15 7 -32 12 -37 13 -13 13 -29 -1 -24 -6 2 -10 6
-9 8 1 3 -3 18 -9 33 -6 16 -9 33 -5 38 8 14 9 11 12 -18z"/>
<path d="M2079 3663 c-13 -17 -13 -17 6 -3 11 8 22 16 24 17 2 2 0 3 -6 3 -6
0 -17 -8 -24 -17z"/>
<path d="M1830 3655 c-7 -9 -11 -18 -8 -20 3 -3 11 1 18 10 7 9 11 18 8 20 -3
3 -11 -1 -18 -10z"/>
<path d="M2130 3643 c-17 -12 -25 -14 -28 -4 -3 9 -7 9 -19 0 -11 -10 -16 -10
-23 0 -6 11 -8 11 -12 0 -2 -7 -19 -12 -37 -12 -29 0 -31 -2 -17 -13 10 -7 17
-16 16 -21 0 -4 11 -9 25 -11 14 -2 25 -8 25 -13 0 -5 7 -9 15 -9 8 0 14 5 13
11 -2 6 3 14 11 17 10 3 12 0 8 -12 -5 -14 -1 -12 22 6 15 13 26 27 23 32 -3
5 -11 1 -18 -9 -8 -10 -17 -15 -21 -11 -4 3 5 18 20 32 39 36 38 45 -3 17z
m-56 -35 c4 7 12 12 19 12 6 0 4 -7 -5 -17 -14 -13 -20 -14 -32 -4 -9 8 -13
18 -9 24 4 6 9 3 13 -8 5 -13 9 -15 14 -7z"/>
<path d="M2239 3643 c-10 -11 -10 -14 -1 -9 6 4 12 3 12 -1 0 -5 -9 -14 -20
-21 -29 -18 -25 -34 5 -20 14 6 25 17 25 24 0 7 3 19 6 28 8 21 -10 20 -27 -1z"/>
<path d="M2165 3640 c-7 -12 2 -12 30 0 19 8 19 9 -2 9 -12 1 -25 -3 -28 -9z"/>
<path d="M2280 3633 c0 -10 52 -34 59 -28 6 7 -31 34 -46 35 -7 0 -13 -3 -13
-7z"/>
<path d="M2186 3614 c-5 -13 -4 -14 7 -6 8 7 17 9 20 5 4 -3 7 -1 7 5 0 18
-27 14 -34 -4z"/>
<path d="M2158 3583 c7 -3 16 -2 19 1 4 3 -2 6 -13 5 -11 0 -14 -3 -6 -6z"/>
<path d="M2034 3563 c5 -9 1 -13 -11 -13 -10 0 -24 -9 -31 -20 -11 -17 -10
-20 7 -17 10 2 26 11 36 21 14 14 15 20 5 29 -10 9 -11 9 -6 0z"/>
<path d="M2360 3485 c0 -8 6 -15 13 -15 8 0 14 7 14 15 0 8 -6 15 -14 15 -7 0
-13 -7 -13 -15z"/>
<path d="M2400 3470 c-12 -23 2 -27 19 -6 8 9 8 16 2 20 -6 4 -15 -3 -21 -14z"/>
<path d="M2436 3474 c-9 -22 -8 -26 6 -22 13 5 20 38 8 38 -4 0 -11 -7 -14
-16z"/>
<path d="M2474 3469 c-4 -7 1 -18 12 -26 23 -17 32 1 10 22 -11 11 -17 12 -22
4z"/>
<path d="M2590 3410 c0 -5 5 -10 11 -10 5 0 7 5 4 10 -3 6 -8 10 -11 10 -2 0
-4 -4 -4 -10z"/>
<path d="M1548 3633 c7 -3 16 -2 19 1 4 3 -2 6 -13 5 -11 0 -14 -3 -6 -6z"/>
<path d="M1355 3602 c-3 -9 -3 -13 1 -9 4 4 12 2 19 -3 8 -7 12 -5 12 5 0 21
-24 27 -32 7z"/>
<path d="M1487 3574 c-8 -8 15 -44 27 -44 6 0 5 5 -1 11 -6 6 -9 18 -6 25 5
14 -8 19 -20 8z"/>
<path d="M1545 3540 c-10 -11 -15 -23 -12 -26 4 -4 9 1 13 10 3 9 12 16 20 16
8 0 14 5 14 10 0 16 -15 12 -35 -10z"/>
<path d="M1543 3495 c-9 -24 1 -27 15 -5 8 13 8 20 2 20 -6 0 -13 -7 -17 -15z"/>
<path d="M1572 3477 c-12 -13 -22 -30 -22 -38 1 -10 5 -8 16 6 8 11 21 28 29
38 22 26 2 21 -23 -6z"/>
<path d="M1591 3448 c-6 -16 -15 -28 -21 -28 -5 0 -10 -4 -10 -10 0 -18 17
-10 34 16 10 14 15 31 13 37 -3 7 -10 0 -16 -15z"/>
<path d="M1653 3429 c-6 -8 -14 -25 -18 -39 l-7 -25 22 28 c12 15 20 32 18 38
-2 7 -7 7 -15 -2z"/>
<path d="M2620 2920 c0 -5 5 -10 11 -10 5 0 7 5 4 10 -3 6 -8 10 -11 10 -2 0
-4 -4 -4 -10z"/>
<path d="M2277 2363 c-4 -3 -7 -13 -7 -21 0 -12 3 -12 15 -2 8 7 15 16 15 21
0 11 -14 12 -23 2z"/>
<path d="M1375 2430 c-3 -5 -1 -10 4 -10 6 0 11 5 11 10 0 6 -2 10 -4 10 -3 0
-8 -4 -11 -10z"/>
<path d="M2230 2016 c-5 -14 -14 -26 -20 -26 -13 0 -13 -37 0 -45 6 -3 10 -2
10 4 0 5 9 8 20 6 26 -5 49 38 34 63 -17 26 -33 25 -44 -2z"/>
<path d="M1860 2023 c-61 -5 -79 -11 -61 -22 19 -12 6 -46 -36 -92 -31 -34
-33 -39 -15 -39 11 0 22 7 26 15 6 17 36 21 36 5 0 -5 7 -10 15 -10 8 0 15 4
15 8 0 7 86 7 189 0 42 -4 53 17 14 26 -20 6 -23 10 -13 16 7 4 19 6 27 3 7
-3 13 0 13 6 0 6 -7 11 -15 11 -8 0 -15 4 -15 10 0 5 -7 6 -17 3 -11 -4 -14
-3 -9 5 5 8 -3 12 -23 12 -17 0 -31 -5 -31 -11 0 -5 -5 -7 -10 -4 -15 9 17 38
32 29 10 -5 10 -4 1 6 -10 11 -18 11 -38 2 -22 -10 -25 -9 -25 8 0 11 -3 19
-7 18 -5 -1 -28 -3 -53 -5z"/>
<path d="M2033 2013 c-10 -3 -10 -7 0 -18 13 -14 41 0 31 16 -6 10 -12 10 -31
2z"/>
<path d="M2092 1928 c-7 -7 -12 -19 -12 -29 0 -26 57 -19 69 9 10 21 9 22 -9
12 -15 -8 -20 -8 -18 1 4 17 -16 21 -30 7z"/>
<path d="M2580 1969 c14 -6 38 -22 54 -37 16 -15 27 -20 24 -12 -6 19 -66 60
-87 59 -9 0 -6 -4 9 -10z"/>
<path d="M2475 1841 c-3 -6 -11 -9 -16 -6 -5 4 -9 -8 -9 -25 0 -17 -5 -51 -11
-76 -9 -33 -9 -48 -1 -56 14 -14 27 16 42 100 11 62 9 85 -5 63z"/>
<path d="M1645 980 c3 -5 11 -10 16 -10 6 0 7 5 4 10 -3 6 -11 10 -16 10 -6 0
-7 -4 -4 -10z"/>
<path d="M1030 956 c0 -2 9 -6 20 -9 11 -3 20 -1 20 4 0 5 -9 9 -20 9 -11 0
-20 -2 -20 -4z"/>
<path d="M1144 953 c10 -11 36 -12 36 -2 0 5 -10 9 -22 9 -12 0 -18 -3 -14 -7z"/>
<path d="M2015 839 c-11 -17 1 -21 15 -4 8 9 8 15 2 15 -6 0 -14 -5 -17 -11z"/>
<path d="M2050 823 c0 -6 8 -17 18 -24 16 -13 16 -13 2 6 -8 11 -16 22 -17 24
-2 2 -3 0 -3 -6z"/>
<path d="M1971 769 c-13 -17 -21 -32 -18 -35 7 -8 47 37 47 53 0 17 -1 17 -29
-18z"/>
<path d="M2040 769 c0 -5 5 -7 10 -4 6 3 10 8 10 11 0 2 -4 4 -10 4 -5 0 -10
-5 -10 -11z"/>
<path d="M2060 710 c0 -5 5 -10 10 -10 6 0 10 5 10 10 0 6 -4 10 -10 10 -5 0
-10 -4 -10 -10z"/>
<path d="M2091 604 c0 -11 3 -14 6 -6 3 7 2 16 -1 19 -3 4 -6 -2 -5 -13z"/>
<path d="M2806 1132 c-4 -6 -22 -8 -41 -5 -22 4 -41 1 -51 -8 -9 -8 -27 -12
-39 -11 -30 4 -32 -1 -51 -98 -14 -74 -14 -86 1 -138 20 -69 88 -174 149 -230
107 -99 229 -72 244 55 14 127 -89 248 -193 229 -39 -8 -75 -47 -75 -82 0 -13
-4 -24 -8 -24 -27 0 -102 123 -102 168 0 51 17 46 36 -10 9 -29 23 -66 31 -81
l14 -28 25 37 25 37 -26 55 c-14 30 -24 62 -22 71 2 9 16 -10 35 -49 31 -64
32 -64 69 -61 21 1 39 4 41 6 2 2 -9 27 -25 57 -15 29 -29 56 -31 61 -2 4 3 7
11 7 8 0 28 -31 46 -70 23 -48 42 -75 61 -85 15 -8 39 -28 54 -45 l26 -31 -7
33 c-9 48 -79 191 -106 216 -26 25 -81 39 -91 24z m117 -296 c28 -26 51 -94
41 -122 -12 -33 -36 -54 -62 -54 -84 0 -143 128 -85 185 23 23 76 19 106 -9z"/>
<path d="M2803 3988 c2 -7 10 -13 17 -13 7 0 15 6 18 13 2 7 -5 12 -18 12 -13
0 -20 -5 -17 -12z"/>
<path d="M2889 3998 c-1 -2 -7 -74 -13 -160 -6 -86 -15 -160 -19 -164 -15 -15
-20 9 -21 101 -1 84 -3 95 -18 95 -18 0 -22 -13 -19 -60 1 -14 3 -59 6 -100 2
-41 7 -96 11 -123 5 -37 3 -51 -10 -66 -15 -16 -15 -19 -1 -31 11 -9 12 -16 5
-25 -11 -13 13 -85 29 -85 10 0 33 134 26 153 -3 7 -1 34 5 58 28 112 50 409
30 409 -5 0 -11 -1 -11 -2z"/>
<path d="M2699 3948 c-5 -15 -2 -233 3 -241 10 -16 21 16 21 61 -1 142 -4 182
-13 182 -5 0 -10 -1 -11 -2z"/>
<path d="M2797 3944 c-4 -4 -7 -19 -6 -33 l0 -26 10 24 c10 26 8 47 -4 35z"/>
<path d="M756 3932 c-2 -4 -1 -14 4 -22 7 -11 14 -12 27 -4 27 17 27 34 -1 34
-13 0 -27 -4 -30 -8z"/>
<path d="M3564 3875 c9 -30 12 -32 14 -15 2 13 -3 29 -11 37 -13 13 -13 10 -3
-22z"/>
<path d="M803 3873 c-7 -3 -13 -17 -12 -31 1 -26 1 -26 7 -4 6 21 9 22 27 8
22 -17 35 -20 35 -8 -1 12 -44 39 -57 35z"/>
<path d="M917 3864 c-8 -8 3 -34 14 -34 11 0 12 27 0 34 -4 3 -11 3 -14 0z"/>
<path d="M1330 3829 c0 -5 5 -7 10 -4 6 3 10 8 10 11 0 2 -4 4 -10 4 -5 0 -10
-5 -10 -11z"/>
<path d="M2580 3824 c0 -8 5 -12 10 -9 6 3 10 10 10 16 0 5 -4 9 -10 9 -5 0
-10 -7 -10 -16z"/>
<path d="M189 3809 c5 -15 6 -31 0 -40 -14 -22 -10 -66 6 -73 8 -3 21 -20 29
-38 11 -27 15 -30 21 -16 5 12 -2 28 -20 49 -16 20 -24 38 -19 48 15 37 14 48
-5 72 l-21 24 9 -26z"/>
<path d="M3610 3790 c-8 -15 -6 -28 6 -52 11 -20 16 -52 15 -80 -2 -38 1 -48
14 -48 21 0 29 24 16 48 -7 13 -7 22 2 31 9 9 9 16 -1 32 -8 12 -10 25 -4 32
5 8 0 20 -15 34 -22 22 -23 22 -33 3z"/>
<path d="M97 3753 c-3 -16 -2 -32 3 -38 14 -19 29 -140 35 -285 3 -80 8 -176
12 -215 4 -38 6 -82 6 -97 0 -15 3 -25 8 -23 7 5 13 111 11 215 0 25 -5 92
-12 150 -6 58 -13 147 -15 199 -4 85 -14 121 -35 121 -4 0 -10 -12 -13 -27z"/>
<path d="M940 3758 c0 -29 -15 -45 -25 -28 -3 5 -11 10 -18 10 -8 0 -8 -3 1
-12 20 -20 14 -36 -15 -40 -14 -2 -28 -8 -30 -14 -2 -6 10 -8 32 -6 24 3 42
-1 55 -13 17 -15 19 -15 28 0 5 10 6 36 0 63 -10 54 -28 80 -28 40z"/>
<path d="M1230 3745 c0 -17 2 -18 24 -9 23 9 20 24 -4 24 -11 0 -20 -7 -20
-15z"/>
<path d="M2557 3744 c-3 -3 -3 -13 0 -21 3 -8 0 -25 -7 -39 -19 -35 -7 -39 18
-5 25 35 16 92 -11 65z"/>
<path d="M786 3715 c5 -20 2 -25 -13 -25 -36 0 -70 -58 -43 -75 5 -3 7 -12 4
-19 -6 -16 0 -21 37 -30 25 -5 27 -3 31 30 4 34 3 36 -23 30 -26 -5 -39 7 -39
34 0 14 32 21 46 9 11 -9 14 -7 14 7 0 11 3 29 6 42 5 16 2 22 -10 22 -12 0
-15 -6 -10 -25z"/>
<path d="M270 3632 c0 -10 5 -23 11 -29 7 -7 12 -38 12 -69 0 -31 6 -69 13
-83 l14 -26 0 24 c0 41 -33 201 -42 201 -4 0 -8 -8 -8 -18z"/>
<path d="M3211 3594 c0 -11 3 -14 6 -6 3 7 2 16 -1 19 -3 4 -6 -2 -5 -13z"/>
<path d="M916 3534 c-24 -17 -16 -27 12 -17 13 5 18 13 14 20 -5 8 -12 8 -26
-3z"/>
<path d="M232 3500 c0 -14 2 -19 5 -12 2 6 2 18 0 25 -3 6 -5 1 -5 -13z"/>
<path d="M421 3504 c0 -11 3 -14 6 -6 3 7 2 16 -1 19 -3 4 -6 -2 -5 -13z"/>
<path d="M3020 3500 c4 -8 7 -39 6 -67 -1 -29 1 -53 6 -53 4 0 8 6 8 14 0 21
17 28 38 17 13 -7 22 -7 30 1 17 17 15 38 -3 38 -8 0 -15 5 -15 11 0 6 8 9 18
7 13 -4 17 2 19 23 2 27 1 27 -57 26 -49 -1 -57 -4 -50 -17z"/>
<path d="M586 3491 c-4 -7 -5 -15 -2 -18 9 -9 19 4 14 18 -4 11 -6 11 -12 0z"/>
<path d="M787 3473 c-12 -11 -8 -23 8 -23 8 0 15 7 15 15 0 16 -12 20 -23 8z"/>
<path d="M2960 3456 c0 -9 5 -16 10 -16 6 0 10 4 10 9 0 6 -4 13 -10 16 -5 3
-10 -1 -10 -9z"/>
<path d="M480 3416 c0 -8 5 -18 10 -21 6 -3 10 1 10 9 0 8 -4 18 -10 21 -5 3
-10 -1 -10 -9z"/>
<path d="M3179 3408 c-23 -19 -30 -45 -14 -52 16 -6 38 27 33 50 -2 12 -6 13
-19 2z"/>
<path d="M320 3377 c0 -10 -9 -36 -21 -58 -16 -33 -19 -51 -13 -95 5 -44 10
-54 25 -54 22 0 27 -17 33 -120 3 -41 15 -125 27 -185 20 -98 21 -114 8 -140
-8 -18 -23 -31 -37 -33 -12 -2 -22 -6 -22 -10 0 -11 60 -42 81 -42 20 0 24 29
19 145 -1 25 8 58 24 90 34 65 36 139 5 156 -18 9 -21 17 -16 54 4 27 2 48 -7
60 -16 23 -36 11 -36 -21 0 -13 -4 -24 -10 -24 -5 0 -10 26 -10 58 0 31 -5 75
-11 97 -6 22 -12 54 -13 70 -3 37 -25 82 -26 52z"/>
<path d="M655 3360 c-4 -6 3 -10 14 -10 25 0 27 6 6 13 -8 4 -17 2 -20 -3z"/>
<path d="M707 3303 c-12 -11 -8 -23 8 -23 8 0 15 7 15 15 0 16 -12 20 -23 8z"/>
<path d="M3177 3303 c-2 -4 0 -19 6 -33 l10 -25 5 24 c4 24 -12 50 -21 34z"/>
<path d="M560 3286 c0 -21 21 -31 31 -15 14 22 11 29 -11 29 -11 0 -20 -6 -20
-14z"/>
<path d="M222 3210 c0 -14 2 -19 5 -12 2 6 2 18 0 25 -3 6 -5 1 -5 -13z"/>
<path d="M0 3170 c0 -5 5 -10 10 -10 6 0 10 5 10 10 0 6 -4 10 -10 10 -5 0
-10 -4 -10 -10z"/>
<path d="M3156 3151 c-3 -4 1 -17 9 -27 14 -18 14 -18 15 9 0 26 -13 36 -24
18z"/>
<path d="M73 3143 c-24 -9 -14 -33 13 -33 18 0 25 5 22 17 -3 18 -16 24 -35
16z"/>
<path d="M228 3028 c-2 -35 -6 -42 -20 -40 -20 3 -23 -14 -8 -38 8 -12 10 -12
15 2 4 9 12 15 18 12 8 -3 13 13 14 51 2 64 -14 75 -19 13z"/>
<path d="M160 3046 c0 -8 5 -18 10 -21 6 -3 10 1 10 9 0 8 -4 18 -10 21 -5 3
-10 -1 -10 -9z"/>
<path d="M492 3033 c4 -21 33 -25 33 -3 0 8 -8 16 -18 18 -14 3 -18 -1 -15
-15z"/>
<path d="M3130 3025 c0 -8 7 -15 15 -15 8 0 15 7 15 15 0 8 -7 15 -15 15 -8 0
-15 -7 -15 -15z"/>
<path d="M140 3000 c0 -5 5 -10 10 -10 6 0 10 5 10 10 0 6 -4 10 -10 10 -5 0
-10 -4 -10 -10z"/>
<path d="M225 2931 c-3 -5 -1 -12 5 -16 5 -3 10 1 10 9 0 18 -6 21 -15 7z"/>
</g>
</svg>
