<?xml version="1.0" standalone="no"?>
<!DOCTYPE svg PUBLIC "-//W3C//DTD SVG 20010904//EN"
 "http://www.w3.org/TR/2001/REC-SVG-20010904/DTD/svg10.dtd">
<svg version="1.0" xmlns="http://www.w3.org/2000/svg"
 width="400.000000pt" height="400.000000pt" viewBox="0 0 400.000000 400.000000"
 preserveAspectRatio="xMidYMid meet">
<metadata>
Created by potrace 1.11, written by Peter Selinger 2001-2013
</metadata>
<g transform="translate(0.000000,400.000000) scale(0.100000,-0.100000)"
fill="#000000" stroke="none">
<path d="M1652 3664 c-23 -14 -47 -22 -52 -19 -12 7 -120 -63 -120 -77 0 -5 4
-6 10 -3 14 8 1 -24 -22 -57 -22 -33 -43 -37 -35 -8 3 12 -11 2 -39 -28 -24
-26 -43 -56 -44 -67 0 -11 -11 -31 -25 -43 -14 -13 -30 -43 -36 -65 -20 -77
-52 -157 -63 -159 -6 0 -15 -2 -21 -2 -5 -1 -25 -8 -42 -16 -28 -13 -33 -20
-33 -50 0 -19 5 -42 10 -50 9 -13 12 -13 21 3 13 22 36 22 48 -2 8 -14 5 -24
-12 -42 -16 -17 -22 -37 -23 -76 -1 -29 -4 -60 -8 -68 -9 -25 -45 -17 -82 20
-19 20 -40 32 -46 29 -8 -5 -9 -1 -5 10 8 21 -9 56 -27 56 -9 0 -12 8 -9 24 3
13 0 27 -6 30 -7 4 -11 -1 -11 -13 0 -28 -21 -26 -49 3 -16 17 -20 30 -15 50
9 37 -10 32 -23 -6 -13 -40 -11 -95 6 -126 7 -13 10 -30 7 -38 -8 -22 -67 -44
-88 -33 -11 6 -18 5 -20 -3 -5 -15 -84 -14 -103 2 -13 11 -18 8 -36 -14 -16
-20 -29 -26 -60 -26 -38 0 -41 2 -63 49 -20 45 -23 47 -34 30 -8 -12 -24 -19
-43 -19 -28 0 -31 -3 -27 -24 3 -14 2 -30 -2 -37 -11 -17 -58 -3 -65 21 -4 11
-10 18 -15 15 -5 -3 -7 -12 -4 -20 8 -19 -22 -31 -40 -16 -7 6 -21 8 -31 5
-21 -8 -40 17 -22 28 9 6 8 10 -3 17 -8 5 -18 7 -23 4 -4 -3 -17 3 -27 12 -28
25 -79 30 -94 9 -11 -14 -22 -16 -60 -11 l-46 7 0 -406 0 -407 36 6 c37 6 104
-14 104 -31 0 -5 9 -19 20 -32 11 -13 20 -26 20 -29 0 -7 -87 -4 -142 5 l-38
6 0 -86 0 -86 46 0 c40 0 78 -7 144 -27 12 -3 12 -6 1 -12 -7 -5 -53 -6 -102
-3 l-89 5 0 -47 0 -46 49 0 c31 0 53 -5 61 -15 11 -13 7 -15 -29 -15 -56 0
-52 -17 7 -25 26 -3 61 -10 77 -15 28 -8 27 -9 -15 -9 -123 2 -150 -1 -150
-15 0 -21 91 -26 494 -26 l371 0 28 29 c33 35 33 38 5 35 -13 -1 -31 -3 -40
-3 -12 -1 -15 -6 -11 -17 5 -13 2 -15 -17 -9 -14 5 -20 3 -16 -3 4 -7 -4 -8
-26 -2 -18 5 -40 9 -48 8 -39 -3 -71 3 -65 12 3 6 0 10 -8 10 -8 0 -17 -7 -21
-15 -7 -20 -26 -19 -26 0 0 28 -47 37 -126 24 -66 -12 -76 -11 -119 8 -48 21
-48 21 -19 26 16 4 157 3 312 -1 l284 -7 81 74 c45 40 115 100 157 133 42 34
64 57 50 53 -32 -11 -69 -11 -94 0 -13 6 -17 5 -12 -3 11 -18 -13 -25 -45 -12
-23 10 -32 10 -44 0 -25 -21 -165 15 -165 42 0 4 -10 8 -22 8 -13 0 -32 7 -42
15 -11 8 -29 15 -40 14 -15 0 -11 -5 17 -18 31 -15 35 -20 24 -30 -19 -15
-115 9 -133 34 -18 24 -8 38 23 32 16 -3 27 1 30 10 4 10 14 12 30 8 13 -3 70
-12 126 -20 56 -8 122 -19 147 -24 27 -6 46 -6 48 0 6 16 37 10 86 -16 26 -14
49 -25 50 -25 10 0 12 40 2 44 -6 3 5 4 24 2 20 -1 42 -6 49 -10 16 -10 59 12
65 33 3 9 10 43 16 76 20 100 53 142 103 132 l22 -4 -22 -8 c-16 -5 -22 -17
-26 -48 -10 -93 -39 -254 -53 -291 -23 -60 -51 -210 -46 -244 4 -28 2 -29 -25
-25 -45 8 -16 -11 57 -38 54 -20 86 -24 195 -26 127 -2 130 -3 200 -38 50 -26
80 -35 107 -33 33 3 45 18 14 18 -15 0 -42 28 -34 36 11 10 56 -16 61 -35 8
-30 -15 -48 -77 -61 -34 -7 -75 -26 -115 -55 -35 -24 -88 -53 -119 -66 -31
-12 -70 -28 -87 -35 -16 -7 -82 -34 -145 -59 -63 -26 -135 -62 -160 -80 -25
-19 -85 -63 -135 -99 -112 -80 -148 -118 -172 -179 l-19 -49 -44 114 c-24 62
-60 151 -80 198 -49 111 -70 183 -70 240 l0 46 -80 -4 c-51 -3 -80 0 -80 6 0
6 34 12 80 14 44 2 80 0 80 -4 0 -26 36 13 67 72 2 3 -173 5 -387 6 l-390 1 0
-43 c0 -32 4 -44 18 -47 16 -4 16 -5 0 -6 -14 -1 -18 -10 -18 -36 0 -30 3 -35
24 -35 38 0 41 -19 7 -31 l-31 -11 0 -512 0 -512 41 -18 c22 -10 38 -23 36
-29 -4 -13 -32 -14 -59 -2 -17 7 -18 -2 -18 -94 l0 -101 1783 0 c1498 1 1777
3 1751 14 -17 8 -48 29 -69 47 -22 19 -36 28 -31 22 4 -7 3 -13 -2 -13 -5 0
-12 -9 -15 -20 -5 -21 -27 -28 -27 -9 0 6 -8 8 -18 5 -11 -4 -28 2 -42 14 -13
11 -26 20 -31 20 -4 0 -12 14 -18 30 -6 18 -6 28 -1 25 6 -4 10 -11 10 -16 0
-11 25 -39 34 -39 3 0 -2 12 -10 28 -7 15 -14 33 -14 40 0 6 -5 12 -11 12 -5
0 -7 5 -3 11 3 6 3 14 -2 18 -5 3 -15 18 -21 32 -19 43 1 51 55 23 25 -13 54
-24 66 -24 29 0 38 -8 82 -65 20 -27 55 -68 76 -90 21 -22 38 -46 38 -52 0
-10 49 -13 210 -13 l210 0 0 618 c0 505 -3 627 -14 666 -8 26 -53 106 -101
179 -47 73 -115 181 -150 240 -54 91 -98 154 -148 212 -4 6 6 -21 24 -60 50
-110 107 -315 97 -346 -5 -15 -50 110 -78 213 -11 42 -29 100 -40 129 -24 59
-87 159 -101 159 -12 0 7 -38 33 -66 10 -11 23 -45 27 -75 5 -30 21 -99 34
-154 30 -120 80 -382 75 -396 -2 -6 -19 52 -37 128 -72 291 -110 439 -125 478
-15 38 -16 29 -13 -170 2 -199 1 -210 -16 -207 -14 2 -17 -1 -13 -15 3 -10 13
-49 21 -88 9 -38 21 -75 26 -81 32 -39 121 -326 105 -341 -3 -4 -6 -1 -6 5 0
6 -24 24 -52 40 -41 22 -65 28 -103 27 -28 -1 -56 -4 -62 -8 -6 -4 -19 -4 -29
0 -16 6 -17 5 -4 -9 8 -9 18 -14 22 -12 3 2 23 -16 43 -41 21 -25 45 -45 55
-45 9 0 25 -8 34 -19 9 -10 29 -21 44 -25 52 -11 59 -22 34 -49 -19 -20 -22
-32 -17 -63 4 -31 3 -35 -5 -16 -5 12 -28 30 -49 40 -22 9 -60 40 -83 68 -24
28 -48 49 -54 47 -6 -2 -17 4 -25 14 -13 16 -12 17 4 4 10 -8 17 -9 17 -3 0 6
-9 17 -20 25 -11 8 -31 35 -45 61 -24 45 -24 46 -4 35 15 -8 19 -8 15 0 -4 6
-20 18 -36 26 -25 13 -29 13 -34 -1 -12 -30 -7 -84 8 -84 8 0 28 -14 46 -30
27 -25 31 -35 25 -58 -3 -15 -10 -31 -15 -36 -12 -13 -130 64 -152 99 -16 27
-18 28 -18 8 0 -28 -13 -29 -88 -7 -36 11 -69 29 -90 50 l-34 34 7 182 c4 101
10 187 13 192 8 13 136 -1 171 -19 26 -13 31 -21 31 -52 0 -34 -1 -35 -30 -29
-100 21 -90 24 -90 -25 0 -44 0 -44 48 -59 46 -15 47 -16 50 -59 3 -43 3 -43
-24 -37 -81 21 -79 22 -80 -27 -1 -44 -1 -45 35 -52 20 -4 47 -13 59 -22 13
-8 25 -13 26 -11 2 3 28 182 42 296 6 47 15 50 75 29 51 -17 108 -58 115 -82
9 -26 53 -84 128 -165 67 -74 76 -80 76 -52 0 30 -66 209 -99 267 -38 67 -68
139 -46 111 11 -15 15 -16 15 -5 0 22 -30 122 -41 135 -5 6 -6 14 -2 17 7 8
-2 9 -117 15 -177 8 -380 3 -513 -12 -88 -10 -167 -14 -222 -10 -84 7 -84 7
-96 -19 -9 -21 -15 -24 -25 -16 -11 9 -10 17 8 43 12 17 25 33 28 36 4 3 22
28 41 57 47 69 86 100 109 86 9 -6 23 -8 30 -3 7 4 24 1 39 -6 49 -26 138 -15
174 21 19 18 23 80 7 90 -13 8 -13 25 -1 25 5 0 13 -9 16 -20 9 -30 25 -24 25
9 0 37 -22 57 -40 36 -15 -18 -30 -11 -30 15 0 10 -16 31 -36 47 -20 15 -75
65 -123 111 -54 51 -87 76 -86 65 1 -10 5 -37 9 -60 6 -35 3 -52 -19 -100
l-27 -57 -24 50 c-13 28 -31 86 -39 129 -20 98 -53 203 -67 211 -11 7 -11 5
12 -131 14 -89 4 -243 -21 -310 -10 -28 -23 -75 -29 -105 -15 -81 -37 -122
-61 -115 -11 4 -19 2 -19 -5 0 -6 -18 -1 -42 11 -24 12 -61 22 -85 22 -39 0
-41 1 -32 19 6 11 27 38 47 61 20 22 30 38 22 35 -8 -4 -42 -18 -75 -31 -33
-14 -93 -33 -133 -42 -73 -18 -74 -18 -143 5 -41 14 -69 29 -69 37 0 8 4 12 8
9 5 -3 7 7 4 22 l-4 28 99 1 c103 1 210 16 226 32 5 5 2 23 -8 45 -10 20 -15
42 -12 51 4 8 2 17 -4 20 -5 4 -7 11 -4 16 4 5 -1 9 -10 9 -12 0 -15 5 -11 17
4 9 1 20 -6 24 -10 7 -10 13 -1 28 12 19 8 57 -10 79 -8 10 -5 15 12 19 15 4
21 12 19 25 -2 10 -7 18 -13 18 -5 -1 -12 7 -16 18 -4 11 -20 23 -36 26 -15 4
-35 14 -45 22 -11 10 -18 12 -23 5 -8 -14 -25 -14 -25 0 0 6 -7 17 -15 25 -8
9 -15 12 -15 7 0 -5 -17 -9 -38 -9 -33 -1 -38 1 -37 20 2 22 7 23 39 10 15 -6
17 -4 11 6 -5 8 -4 11 1 7 5 -3 32 5 59 19 28 13 55 24 61 24 13 0 50 41 49
55 0 5 -8 11 -17 12 -12 2 -15 -2 -12 -12 7 -17 -11 -21 -21 -5 -5 8 -11 7
-21 -1 -9 -7 -14 -8 -14 -1 0 6 -28 8 -80 5 -59 -4 -80 -3 -80 6 0 8 -7 10
-19 6 -11 -3 -22 -1 -26 5 -4 6 9 10 34 10 26 0 62 11 101 32 50 26 71 31 123
30 49 0 69 4 98 23 35 22 38 23 52 7 8 -9 18 -27 21 -39 12 -38 21 -26 39 51
16 67 16 76 2 107 -21 46 -64 103 -96 128 -28 22 -119 64 -119 55 0 -2 11 -22
25 -44 14 -22 25 -42 25 -44 0 -3 11 -16 25 -30 14 -14 25 -32 25 -41 0 -8 5
-15 10 -15 6 0 10 -7 10 -16 0 -9 5 -12 12 -8 7 4 8 3 4 -5 -4 -6 -12 -8 -18
-5 -7 5 -9 -2 -4 -20 7 -29 -5 -33 -62 -17 -39 12 -41 6 -7 -21 37 -29 26 -43
-36 -44 -91 -1 -194 -14 -197 -24 -7 -19 -22 -10 -22 12 0 12 3 18 7 15 3 -4
15 0 25 10 10 9 18 13 18 9 0 -3 11 1 25 10 13 8 28 13 33 10 5 -3 17 3 27 14
18 20 17 20 -28 20 -26 0 -47 4 -47 10 0 15 39 32 60 25 14 -4 19 0 22 17 4
27 -13 68 -27 67 -25 -3 -35 2 -35 16 0 8 5 15 10 15 21 0 9 30 -17 43 -31 15
-63 10 -91 -14 -25 -21 -52 -31 -52 -18 0 6 13 23 29 39 32 32 51 97 44 150
-7 52 11 67 74 62 l51 -4 -5 -32 c-7 -42 27 -70 101 -86 46 -9 59 -8 91 7 l38
18 -38 5 c-78 10 -42 47 50 52 25 2 45 6 45 9 0 13 -81 39 -120 39 -22 0 -40
5 -40 10 0 6 -8 10 -17 10 -27 0 2 17 52 31 54 15 68 27 51 44 -9 10 -38 13
-102 11 -94 -3 -164 -20 -177 -43 -5 -7 -12 -11 -17 -8 -5 3 -12 -6 -16 -20
-5 -20 -9 -23 -20 -14 -8 6 -14 9 -14 6 0 -4 -16 5 -36 18 -27 18 -50 25 -85
25 -63 0 -149 -19 -167 -36 -7 -8 -21 -14 -31 -14 -10 0 -25 -8 -34 -18 -20
-22 -49 -102 -43 -118 2 -6 -1 -17 -7 -23 -8 -8 -8 -11 2 -11 9 0 10 -12 5
-45 -7 -50 1 -55 42 -29 23 16 24 16 17 -2 -5 -16 -4 -17 8 -8 8 7 49 12 93
13 54 1 91 8 117 21 38 18 39 18 39 -1 0 -11 -7 -22 -15 -25 -8 -4 -15 -11
-15 -18 0 -6 -13 -26 -29 -44 -16 -17 -32 -40 -36 -51 -7 -22 -27 -31 -79 -36
-37 -3 -96 -31 -96 -45 0 -6 -7 -10 -15 -10 -8 0 -15 -7 -15 -16 0 -9 -8 -23
-17 -30 -10 -7 -13 -14 -7 -14 6 0 11 -18 11 -41 0 -27 -3 -37 -10 -30 -9 9
-18 60 -18 101 0 19 -18 98 -30 130 -13 37 -30 166 -30 237 0 53 -3 61 -17 56
-9 -4 -20 -11 -24 -17 -5 -8 -8 -8 -8 0 0 5 7 19 15 30 8 10 15 37 15 59 0 65
52 182 112 253 59 70 82 86 154 102 27 7 58 15 69 20 11 5 35 14 53 22 17 7
32 17 32 21 0 5 9 6 19 2 21 -6 33 16 26 50 -2 11 -4 28 -4 38 -1 10 -5 16
-10 13 -5 -4 -11 -2 -13 3 -8 21 -45 19 -86 -5z m481 -571 c-7 -2 -19 -2 -25
0 -7 3 -2 5 12 5 14 0 19 -2 13 -5z m-870 -62 c-4 -3 -11 -10 -15 -15 -5 -5
-8 0 -8 12 0 15 4 20 16 15 9 -3 12 -9 7 -12z m23 -88 c-11 -11 -17 4 -9 23 7
18 8 18 11 1 2 -10 1 -21 -2 -24z m474 -18 c-7 -8 -17 -15 -23 -15 -5 0 -2 9
8 20 21 23 35 19 15 -5z m-1277 -88 c7 -19 -8 -41 -22 -33 -16 10 -14 46 3 46
8 0 16 -6 19 -13z m-318 -45 c-2 -9 -4 -21 -5 -27 -1 -5 -7 6 -14 25 -7 19
-10 39 -8 44 8 14 31 -23 27 -42z m1115 -11 c0 -5 -7 -14 -15 -21 -12 -10 -15
-10 -15 2 0 8 3 18 7 21 9 10 23 9 23 -2z m46 -198 c-15 -15 -24 15 -18 57 l6
45 9 -48 c5 -26 6 -51 3 -54z m320 -43 c8 0 14 -10 14 -25 0 -15 6 -25 14 -25
13 0 30 -39 21 -48 -6 -7 -64 42 -64 54 -1 6 -8 17 -16 24 -8 7 -15 24 -15 38
l0 26 16 -22 c8 -12 22 -22 30 -22z m-286 -50 c-1 -8 -7 -24 -15 -34 -14 -19
-15 -17 -15 20 0 21 -3 50 -6 64 -6 24 -5 23 15 -5 11 -16 21 -37 21 -45z
m210 -415 c5 -30 16 -67 24 -83 8 -15 21 -38 28 -52 20 -38 88 -98 138 -121
25 -11 53 -25 62 -30 10 -5 23 -9 30 -9 14 0 168 -96 168 -104 0 -3 -36 -4
-80 -3 -63 2 -80 5 -81 17 -1 11 -3 10 -6 -2 -2 -10 -12 -18 -21 -18 -15 0
-15 2 -2 10 10 6 11 10 3 10 -7 0 -13 11 -13 24 0 21 -4 23 -45 22 -25 0 -45
-3 -45 -6 0 -12 40 -29 59 -25 12 2 21 0 21 -6 0 -5 -4 -9 -10 -9 -5 0 -7 -7
-4 -15 8 -19 -6 -19 -34 1 -20 14 -61 90 -76 141 -4 11 -17 28 -30 37 -14 8
-30 32 -37 53 -6 20 -20 45 -29 56 -10 10 -26 47 -36 83 -10 35 -22 64 -26 64
-4 0 -4 7 -1 17 4 11 3 14 -5 9 -13 -8 -15 4 -6 28 11 28 44 -27 54 -89z
m-1050 -60 c41 -9 120 -46 120 -56 0 -13 -95 -15 -130 -2 -19 7 -49 12 -67 13
-18 0 -43 5 -57 11 -14 7 -32 9 -42 5 -16 -6 -16 -8 1 -26 18 -19 17 -20 -6
-19 -38 2 -66 12 -94 37 -15 13 -37 28 -51 34 -13 6 -24 15 -24 19 0 11 110 8
133 -3 11 -5 17 -5 17 2 0 6 15 8 39 4 21 -3 47 -2 57 4 13 7 26 7 44 -3 14
-7 41 -16 60 -20z m1143 -38 c3 -8 -1 -14 -8 -14 -7 0 -11 6 -8 14 3 7 6 13 8
13 2 0 5 -6 8 -13z m-1118 -57 c11 -5 14 -9 8 -9 -18 -1 -16 -21 2 -21 8 0 15
-4 15 -10 0 -18 -26 -11 -53 14 -35 32 -20 47 28 26z m-515 -4 c0 -3 -4 -8
-10 -11 -5 -3 -10 -1 -10 4 0 6 5 11 10 11 6 0 10 -2 10 -4z m1164 -31 c-4 -8
-11 -15 -16 -15 -6 0 -19 -11 -29 -24 -18 -23 -24 -24 -96 -20 -43 2 -120 6
-171 7 -53 2 -98 9 -104 15 -7 7 -27 12 -46 12 -23 0 -32 4 -29 13 2 6 11 10
18 8 8 -2 48 -7 89 -12 41 -4 104 -12 140 -17 52 -6 149 -8 192 -3 4 1 9 10
13 20 3 11 14 22 23 24 9 3 18 5 19 6 1 0 0 -6 -3 -14z m1625 -20 c-17 -16
-59 -29 -59 -18 0 13 65 51 69 41 2 -6 -3 -16 -10 -23z m-2363 18 c-4 -5 -21
-8 -37 -8 -16 0 -29 3 -29 8 0 4 17 7 37 7 20 0 33 -3 29 -7z m604 -109 c0 -8
-19 -13 -24 -6 -3 5 1 9 9 9 8 0 15 -2 15 -3z m1041 -82 c-21 -40 -3 -96 20
-61 6 10 9 3 10 -21 1 -20 3 -27 6 -16 4 15 7 16 14 5 6 -10 9 -3 9 21 0 46
18 27 22 -25 3 -41 22 -52 24 -15 2 31 14 37 14 7 0 -17 5 -27 15 -27 8 0 15
-5 15 -11 0 -5 -4 -7 -10 -4 -13 8 -13 -6 0 -39 10 -29 30 -35 30 -10 0 8 -3
13 -8 11 -4 -3 -7 17 -7 44 0 27 3 49 7 49 9 0 26 -82 32 -160 5 -62 5 -63 -6
-22 -6 23 -15 42 -20 42 -4 0 -6 -11 -2 -25 3 -14 2 -25 -2 -25 -5 0 -8 -21
-7 -47 2 -43 1 -45 -6 -16 -5 18 -14 39 -20 47 -7 8 -11 22 -9 32 2 9 -3 19
-10 21 -7 3 -10 -1 -7 -9 7 -19 34 -242 30 -247 -2 -2 -6 8 -10 23 -14 68 -18
80 -22 69 -3 -7 -8 -13 -13 -13 -10 0 -43 51 -43 67 0 7 -6 13 -14 13 -7 0
-13 4 -13 10 0 11 -74 85 -107 107 -27 18 -28 29 -8 108 12 45 26 71 57 102
43 44 57 49 39 15z m-1786 -32 c8 -13 -20 -24 -42 -16 -15 6 -15 8 -3 16 20
13 37 12 45 0z m1624 -105 c0 -11 -7 0 -15 25 -17 56 -17 64 1 25 8 -16 14
-39 14 -50z m41 42 c0 -18 -2 -19 -10 -7 -13 20 -13 43 0 35 6 -3 10 -16 10
-28z m-1605 13 c3 -5 -1 -10 -10 -10 -9 0 -13 5 -10 10 3 6 8 10 10 10 2 0 7
-4 10 -10z m95 -10 c11 -8 7 -9 -15 -4 -37 8 -45 14 -19 14 10 0 26 -5 34 -10z
m1853 -65 c5 -28 4 -34 -3 -20 -8 19 -14 73 -6 64 2 -2 6 -22 9 -44z m-336 13
c-3 -8 -6 -5 -6 6 -1 11 2 17 5 13 3 -3 4 -12 1 -19z m905 -61 c4 -6 5 -19 2
-27 -4 -8 -19 -52 -35 -96 l-29 -82 45 -107 c25 -59 42 -111 39 -116 -9 -15
-61 -10 -78 6 -8 9 -25 44 -38 78 l-23 62 -5 -70 c-5 -70 -5 -70 -36 -73 -17
-2 -35 3 -41 10 -6 7 -14 103 -18 221 l-7 207 35 0 c44 0 50 -10 57 -80 l5
-55 19 55 c30 89 34 93 69 86 17 -4 35 -12 39 -19z m-267 4 c6 -11 45 -329 45
-372 0 -47 -28 -68 -103 -78 -38 -5 -75 -7 -83 -4 -30 11 -45 66 -59 211 -20
204 -20 206 11 223 23 12 27 11 38 -3 7 -10 18 -70 25 -135 20 -199 19 -196
49 -188 15 4 29 8 31 10 2 2 -4 74 -14 160 -9 85 -14 162 -11 170 6 17 61 21
71 6z m-261 -123 c-7 -72 11 -158 58 -278 28 -70 28 -75 12 -87 -31 -23 -50
-14 -78 35 -15 26 -25 37 -23 25 10 -44 -12 -22 -26 26 -12 42 -12 57 -1 102
7 28 16 84 18 125 5 68 20 114 39 114 4 0 5 -28 1 -62z m-1884 22 c0 -5 -5
-10 -11 -10 -5 0 -7 5 -4 10 3 6 8 10 11 10 2 0 4 -4 4 -10z m1652 -78 c20
-31 47 -79 59 -107 12 -27 28 -54 35 -60 24 -18 45 -93 22 -79 -8 5 -9 0 -4
-17 3 -13 9 -43 12 -66 6 -40 5 -43 -21 -53 -38 -14 -45 -5 -61 77 -17 91 -36
153 -73 242 -35 82 -35 85 -21 76 7 -4 9 2 4 19 -10 42 8 30 48 -32z m-1496
-6 c22 -17 11 -24 -46 -27 -64 -4 -90 0 -90 16 0 17 21 20 37 4 8 -8 19 -6 39
5 36 19 36 19 60 2z m1361 2 c5 -7 17 -32 26 -56 10 -23 28 -60 41 -80 31 -49
84 -175 95 -223 7 -30 5 -41 -8 -51 -33 -27 -57 -15 -106 49 -25 35 -50 65
-55 68 -4 2 3 -32 16 -77 13 -45 24 -87 24 -94 0 -13 -53 -38 -68 -33 -5 2
-39 48 -76 102 -36 55 -87 124 -113 155 -63 79 -72 100 -48 118 32 24 48 15
99 -52 27 -35 50 -63 52 -61 3 2 -5 34 -17 71 -22 75 -21 91 10 99 17 4 34 -9
81 -61 33 -37 60 -64 60 -60 0 3 -18 37 -40 76 -44 77 -48 96 -22 111 23 14
38 13 49 -1z m-1553 -13 c64 -10 25 -20 -80 -20 -66 0 -99 4 -101 12 -7 20 82
23 181 8z m1823 -7 c-3 -8 -6 -5 -6 6 -1 11 2 17 5 13 3 -3 4 -12 1 -19z
m-1592 2 c3 -5 1 -10 -4 -10 -6 0 -11 5 -11 10 0 6 2 10 4 10 3 0 8 -4 11 -10z
m1609 -162 c9 -35 7 -41 -8 -29 -19 16 -27 51 -11 51 7 0 15 -10 19 -22z
m-591 -154 c48 -76 92 -140 97 -142 5 -2 22 6 38 18 39 29 63 23 87 -23 l20
-38 -22 -17 c-13 -9 -44 -28 -69 -41 -42 -23 -48 -24 -72 -10 -26 14 -232 330
-232 355 0 16 41 45 55 41 5 -2 50 -66 98 -143z m1597 69 l25 -27 -32 19 c-18
11 -33 23 -33 27 0 15 15 8 40 -19z m-1679 -165 c67 -90 127 -176 133 -191 10
-25 8 -31 -13 -48 -24 -19 -25 -19 -42 -2 -48 49 -249 331 -249 349 0 17 28
49 47 53 1 1 57 -72 124 -161z m-1286 82 c3 -5 2 -10 -4 -10 -5 0 -13 5 -16
10 -3 6 -2 10 4 10 5 0 13 -4 16 -10z m1082 -54 c15 -19 73 -85 129 -148 102
-115 134 -158 114 -158 -5 0 -10 -9 -10 -20 0 -56 -59 -14 -150 106 -14 18
-28 33 -31 34 -4 0 2 -25 12 -56 10 -31 16 -60 14 -65 -7 -10 -35 -4 -74 15
-17 9 -31 13 -31 8 0 -5 32 -43 70 -86 39 -42 70 -84 70 -93 0 -9 -3 -13 -7
-10 -3 4 -11 -1 -18 -10 -10 -14 -21 -7 -86 58 -90 90 -163 175 -183 214 -13
25 -13 30 2 51 21 29 42 30 92 4 22 -11 41 -20 44 -20 2 0 -8 36 -22 80 l-26
79 24 26 c13 14 27 25 31 25 4 0 20 -15 36 -34z m1843 -27 c17 -28 40 -61 52
-72 30 -33 48 -62 53 -88 3 -13 10 -26 17 -28 6 -2 27 -18 46 -36 38 -34 39
-65 2 -65 -31 0 -25 -28 30 -123 28 -48 50 -95 50 -105 0 -9 7 -30 16 -47 20
-38 85 -217 80 -222 -2 -2 -8 9 -14 24 -30 81 -191 423 -247 524 -35 64 -75
141 -89 172 -24 56 -42 117 -33 117 3 0 19 -23 37 -51z m-172 -1 c7 -7 12 -29
12 -51 0 -21 4 -47 10 -57 5 -10 12 -55 15 -99 2 -45 9 -89 14 -99 15 -29 113
-122 128 -122 7 0 13 7 13 15 0 8 -5 15 -12 15 -9 0 -9 3 0 12 9 9 16 8 30 -6
12 -14 14 -20 5 -23 -25 -9 -12 -48 28 -91 22 -23 39 -48 36 -55 -2 -7 -18 3
-40 27 -19 21 -41 36 -49 33 -7 -2 -25 7 -39 20 -43 39 -41 12 2 -51 46 -66
46 -83 0 -35 -17 17 -31 29 -31 25 0 -4 -11 5 -24 21 -13 15 -21 32 -18 38 12
19 11 39 -3 49 -7 6 -23 36 -35 66 -12 30 -25 62 -29 70 -10 18 -99 26 -114
11 -19 -19 -76 -13 -89 9 -15 23 -28 26 -28 7 0 -7 -10 -24 -21 -36 -19 -20
-29 -22 -65 -17 -30 4 -45 1 -54 -9 -7 -8 -19 -15 -26 -15 -8 0 -14 -5 -14
-12 0 -9 -3 -9 -12 0 -9 9 -16 8 -29 -4 -9 -8 -33 -16 -53 -17 -21 -2 -40 -7
-44 -13 -4 -6 -22 -16 -40 -22 -29 -10 -34 -9 -49 14 -29 45 -2 223 38 244 11
6 25 7 32 3 6 -4 28 -8 48 -8 28 0 35 4 37 20 0 11 9 25 18 32 15 11 21 10 40
-8 l22 -21 7 21 c7 23 53 51 84 51 10 0 28 -12 40 -27 l20 -28 -2 43 c-2 35 2
47 20 59 17 12 23 12 32 1 59 -71 81 -102 82 -116 1 -30 27 52 28 89 1 40 16
59 46 59 12 0 26 -5 33 -12z m-1049 -174 c31 -40 29 -123 -4 -162 -23 -27 -24
-35 -16 -72 5 -23 11 -44 14 -46 8 -8 47 126 47 160 0 79 35 88 93 24 37 -41
38 -45 33 -95 -5 -43 -4 -51 8 -47 10 4 15 22 15 60 0 74 23 113 80 132 43 14
45 14 64 -9 15 -19 18 -34 13 -73 -3 -27 -10 -52 -16 -56 -6 -4 -6 -16 2 -37
18 -49 6 -66 -47 -61 -25 2 -45 0 -45 -3 0 -12 -80 -39 -115 -39 -25 0 -37 6
-46 21 -11 21 -11 21 -29 -7 -21 -31 -65 -58 -80 -49 -6 4 -24 -3 -41 -15 -22
-16 -41 -21 -69 -18 -31 3 -40 0 -43 -14 -6 -20 -43 -37 -68 -31 -24 7 -39 47
-39 106 0 57 48 173 95 229 14 16 25 40 25 53 0 22 22 54 38 56 4 0 17 2 29 3
13 2 26 6 30 9 15 16 53 5 72 -19z m-1809 -144 c0 -5 -2 -10 -4 -10 -3 0 -8 5
-11 10 -3 6 -1 10 4 10 6 0 11 -4 11 -10z m199 -16 c11 -15 19 -29 17 -33 -3
-5 -88 -6 -117 -2 -3 1 -11 12 -17 25 -13 29 -6 34 55 35 33 1 46 -4 62 -25z
m-299 -19 c7 -8 20 -15 30 -15 10 0 23 -6 29 -14 7 -8 22 -17 35 -20 14 -3 29
-19 36 -36 7 -16 15 -30 19 -30 9 0 31 -61 31 -86 1 -26 34 -64 57 -64 34 -1
53 -25 52 -66 0 -21 -3 -33 -6 -26 -2 6 -9 12 -14 12 -17 0 -69 43 -69 57 0
16 -10 16 -45 3 -36 -14 -51 -3 -29 21 14 15 15 23 5 47 -7 16 -9 41 -5 55 5
21 2 27 -9 27 -9 0 -20 -7 -25 -16 -15 -27 -62 -10 -62 22 0 29 -24 42 -45 24
-8 -7 -21 -10 -29 -7 -16 6 -27 55 -15 63 5 3 9 13 9 23 0 17 18 41 31 41 4 0
12 -7 19 -15z m305 -107 c-4 -35 -11 -72 -15 -84 -4 -11 -6 -32 -3 -47 6 -29
4 -31 -22 -21 -18 7 -45 55 -45 81 0 10 -11 39 -25 66 -21 38 -22 47 -10 47 8
0 15 -4 15 -10 0 -16 23 -11 50 10 14 11 33 20 43 20 17 0 18 -6 12 -62z
m-335 -34 c0 -2 -7 -4 -15 -4 -8 0 -15 4 -15 10 0 5 7 7 15 4 8 -4 15 -8 15
-10z m0 -54 c0 -5 -5 -10 -11 -10 -5 0 -7 5 -4 10 3 6 8 10 11 10 2 0 4 -4 4
-10z m65 -101 c9 -26 44 -44 58 -30 21 21 40 13 33 -13 -3 -14 -2 -27 3 -31 6
-3 44 -6 85 -7 56 -1 76 -5 76 -15 0 -8 -12 -13 -33 -13 -21 0 -41 -8 -52 -20
-10 -11 -29 -20 -43 -20 -21 0 -24 4 -20 29 l4 28 -31 -18 c-30 -18 -81 -16
-69 2 3 5 -6 14 -20 21 -14 6 -26 19 -26 28 0 10 -7 23 -15 30 -20 17 -19 47
2 59 20 11 39 0 48 -30z"/>
<path d="M1720 1769 c0 -8 18 -13 48 -12 6 1 12 -3 12 -8 0 -5 7 -6 16 -2 8 3
12 9 7 14 -12 12 -83 19 -83 8z"/>
<path d="M2190 1530 c0 -5 5 -10 11 -10 5 0 7 5 4 10 -3 6 -8 10 -11 10 -2 0
-4 -4 -4 -10z"/>
<path d="M2110 1265 c0 -5 5 -17 10 -25 5 -8 10 -10 10 -5 0 6 -5 17 -10 25
-5 8 -10 11 -10 5z"/>
<path d="M2605 649 c-4 -6 -5 -12 -2 -15 2 -3 7 2 10 11 7 17 1 20 -8 4z"/>
<path d="M1947 624 c-4 -4 -7 -14 -7 -23 0 -11 3 -12 11 -4 6 6 10 16 7 23 -2
6 -7 8 -11 4z"/>
<path d="M1916 455 c-9 -26 -7 -32 5 -12 6 10 9 21 6 23 -2 3 -7 -2 -11 -11z"/>
<path d="M197 173 c-12 -12 -7 -33 8 -33 17 0 19 9 7 28 -5 7 -11 9 -15 5z"/>
<path d="M1786 3621 c-4 -7 -5 -15 -2 -18 9 -9 19 4 14 18 -4 11 -6 11 -12 0z"/>
<path d="M1806 3596 l-15 -24 49 1 c26 1 52 6 57 11 4 5 -3 6 -17 2 -24 -7
-25 -7 -5 9 20 16 20 17 -5 14 -14 -2 -30 0 -36 4 -7 4 -19 -3 -28 -17z"/>
<path d="M2967 3333 c-12 -11 -8 -23 8 -23 8 0 15 7 15 15 0 16 -12 20 -23 8z"/>
<path d="M2765 3240 c3 -5 10 -10 16 -10 5 0 9 5 9 10 0 6 -7 10 -16 10 -8 0
-12 -4 -9 -10z"/>
<path d="M2835 3229 c-6 -9 56 -79 70 -79 3 0 -8 20 -26 45 -36 50 -35 49 -44
34z"/>
<path d="M851 3191 c-8 -14 -7 -20 4 -24 7 -3 15 -20 17 -38 4 -44 24 -48 32
-6 12 65 -28 116 -53 68z"/>
<path d="M3191 3180 c0 -33 1 -34 11 -12 8 17 8 26 0 34 -9 9 -12 4 -11 -22z"/>
<path d="M2380 3190 c0 -6 -12 -23 -26 -37 l-26 -26 22 -41 c12 -23 33 -88 46
-146 13 -58 30 -121 38 -140 26 -65 38 -137 27 -157 -6 -10 -16 -68 -23 -130
l-14 -112 26 -29 c14 -17 41 -37 60 -45 36 -16 49 -18 190 -36 47 -6 123 -16
170 -22 111 -15 385 -92 477 -134 80 -37 188 -136 298 -275 33 -41 87 -107
120 -147 33 -39 69 -83 79 -96 12 -14 26 -23 35 -20 14 4 14 4 1 -6 -13 -9
-13 -12 0 -24 16 -14 120 -12 120 3 0 4 -19 11 -42 15 -27 5 -36 9 -23 12 65
13 65 13 65 43 0 24 -4 30 -21 30 -12 0 -19 5 -16 13 2 6 12 11 21 11 15 -2
16 51 16 638 0 505 -3 639 -12 637 -41 -5 -49 12 -22 42 24 26 11 46 -33 52
-32 4 -43 0 -71 -27 -26 -25 -36 -28 -50 -19 -9 6 -16 18 -14 27 2 10 -4 16
-16 16 -19 0 -46 -40 -47 -70 0 -10 -9 -14 -25 -13 -14 1 -42 -5 -63 -13 -39
-15 -59 -12 -56 9 3 28 -2 37 -25 37 -25 0 -39 20 -30 45 12 31 -8 37 -37 9
-23 -22 -34 -26 -63 -21 -20 3 -36 2 -36 -4 0 -5 -20 -9 -45 -9 -25 0 -45 5
-45 10 0 6 -19 19 -42 29 -39 17 -45 17 -60 3 -14 -12 -20 -12 -33 -2 -12 10
-18 9 -33 -10 l-18 -22 -37 22 c-33 19 -37 27 -37 61 0 28 -4 39 -15 39 -25 0
-27 -25 -7 -61 19 -33 24 -100 9 -115 -8 -9 -58 36 -52 46 3 4 -5 16 -18 26
-12 11 -17 12 -10 4 6 -8 14 -36 18 -62 7 -45 6 -48 -15 -48 -12 0 -35 14 -51
31 -16 17 -32 28 -36 26 -5 -3 -19 -1 -32 4 -18 7 -22 15 -19 34 4 19 1 25
-13 25 -33 0 -50 12 -70 51 -24 48 -47 51 -51 7 -3 -28 -8 -34 -40 -41 -31 -7
-42 -5 -67 14 -35 26 -61 19 -61 -16 0 -24 -23 -35 -34 -16 -3 5 -25 19 -48
31 -52 27 -60 37 -52 73 3 15 3 27 0 27 -3 0 -6 -5 -6 -10z m35 -139 c10 -17
-12 -21 -25 -6 -10 12 -10 15 3 15 9 0 18 -4 22 -9z m1274 -370 c23 -19 32
-33 28 -45 -20 -52 -197 -45 -197 8 0 26 48 49 130 65 3 0 20 -12 39 -28z
m-139 -115 c0 -18 -3 -54 -6 -80 -9 -66 -24 -38 -24 47 0 53 3 67 15 67 10 0
15 -10 15 -34z m278 -868 c6 9 15 10 33 3 l24 -10 -27 0 c-16 -1 -28 -6 -28
-11 0 -6 -8 -5 -19 2 -11 7 -17 16 -14 21 3 5 9 3 14 -4 7 -11 11 -12 17 -1z
m95 -46 c45 -3 30 -22 -17 -22 -46 0 -76 7 -76 19 0 6 24 6 93 3z"/>
<path d="M3605 3189 c-4 -6 -5 -12 -2 -15 2 -3 7 2 10 11 7 17 1 20 -8 4z"/>
<path d="M2831 3125 c0 -35 4 -43 35 -62 36 -23 64 -30 64 -15 0 4 -13 13 -29
19 -20 7 -36 25 -49 54 l-20 44 -1 -40z"/>
<path d="M530 3135 c0 -8 5 -15 10 -15 6 0 10 7 10 15 0 8 -4 15 -10 15 -5 0
-10 -7 -10 -15z"/>
<path d="M0 3105 c0 -33 2 -35 34 -35 18 0 39 -7 46 -15 14 -17 50 -21 50 -5
0 27 -26 57 -63 73 -60 24 -67 22 -67 -18z"/>
<path d="M3165 3130 c-3 -5 1 -10 9 -10 9 0 16 5 16 10 0 6 -4 10 -9 10 -6 0
-13 -4 -16 -10z"/>
<path d="M500 2989 c0 -28 13 -59 21 -53 14 8 10 40 -6 54 -12 10 -15 10 -15
-1z"/>
<path d="M150 2943 c0 -4 5 -15 10 -23 8 -13 10 -13 10 2 0 9 -4 20 -10 23 -5
3 -10 3 -10 -2z"/>
<path d="M1950 2858 l-25 -11 30 -7 c53 -13 65 -11 65 10 0 23 -29 26 -70 8z"/>
<path d="M2393 2103 c-7 -28 -27 -82 -45 -120 -18 -37 -31 -72 -30 -77 2 -5
-5 -5 -15 -2 -15 6 -15 5 -2 -11 9 -10 14 -33 13 -53 l-3 -35 15 40 c8 21 23
49 34 60 11 12 20 29 20 39 0 9 7 30 15 47 11 20 15 51 13 97 l-3 67 -12 -52z"/>
<path d="M2840 2058 c0 -2 14 -16 32 -33 25 -24 29 -25 19 -8 -9 18 -51 51
-51 41z"/>
<path d="M2355 1801 c-3 -5 -1 -12 5 -16 5 -3 10 1 10 9 0 18 -6 21 -15 7z"/>
<path d="M3950 1477 c0 -2 11 -18 25 -37 l25 -34 0 37 c0 33 -3 37 -25 37 -14
0 -25 -1 -25 -3z"/>
<path d="M3260 1271 c0 -36 4 -43 44 -70 l45 -30 -10 25 c-12 32 -11 37 2 29
5 -4 14 -18 19 -31 9 -22 86 -71 97 -61 8 9 -14 41 -51 75 -20 18 -33 38 -30
44 4 6 3 8 -4 4 -6 -3 -13 -2 -17 4 -6 10 -78 50 -90 50 -3 0 -5 -18 -5 -39z"/>
<path d="M3340 1136 c0 -15 4 -25 9 -22 10 7 9 31 -2 42 -4 4 -7 -5 -7 -20z"/>
</g>
</svg>
