<?xml version="1.0" standalone="no"?>
<!DOCTYPE svg PUBLIC "-//W3C//DTD SVG 20010904//EN"
 "http://www.w3.org/TR/2001/REC-SVG-20010904/DTD/svg10.dtd">
<svg version="1.0" xmlns="http://www.w3.org/2000/svg"
 width="260.000000pt" height="260.000000pt" viewBox="0 0 260.000000 260.000000"
 preserveAspectRatio="xMidYMid meet">
<metadata>
Created by potrace 1.14, written by Peter Selinger 2001-2017
</metadata>
<g transform="translate(0.000000,260.000000) scale(0.100000,-0.100000)"
fill="#000000" stroke="none">
<path d="M0 1300 l0 -1300 1300 0 1300 0 0 1300 0 1300 -1300 0 -1300 0 0
-1300z m809 590 c149 -19 227 -62 277 -152 25 -47 29 -63 29 -138 0 -128 -45
-208 -146 -258 -35 -18 -39 -22 -23 -27 139 -46 214 -143 214 -281 0 -164 -89
-277 -265 -335 -63 -20 -94 -23 -302 -27 l-233 -4 0 616 0 616 183 0 c100 0
220 -5 266 -10z m661 -26 c0 -66 50 -908 56 -954 l7 -45 23 70 c12 39 57 177
99 308 l77 238 60 -3 61 -3 102 -290 c134 -379 124 -357 124 -257 1 86 36 772
47 900 l6 72 74 0 c41 0 74 -4 74 -9 0 -5 -18 -273 -40 -597 -22 -324 -40
-597 -40 -607 0 -16 -10 -17 -112 -15 l-111 3 -69 195 c-37 107 -80 233 -95
278 l-26 84 -91 -279 -92 -278 -107 -3 c-59 -1 -107 -1 -107 2 0 2 -18 264
-40 582 -22 319 -40 594 -40 612 l0 32 80 0 80 0 0 -36z"/>
<path d="M530 1561 l0 -191 98 0 c221 1 312 61 312 208 0 71 -25 115 -85 146
-34 18 -62 21 -182 24 l-143 3 0 -190z"/>
<path d="M530 1019 l0 -212 143 5 c157 6 208 20 259 74 36 39 48 74 48 142 0
138 -105 202 -332 202 l-118 0 0 -211z"/>
</g>
</svg>
