<?xml version="1.0" standalone="no"?>
<!DOCTYPE svg PUBLIC "-//W3C//DTD SVG 20010904//EN"
 "http://www.w3.org/TR/2001/REC-SVG-20010904/DTD/svg10.dtd">
<svg version="1.0" xmlns="http://www.w3.org/2000/svg"
 width="400.000000pt" height="400.000000pt" viewBox="0 0 400.000000 400.000000"
 preserveAspectRatio="xMidYMid meet">
<metadata>
Created by potrace 1.11, written by Peter Selinger 2001-2013
</metadata>
<g transform="translate(0.000000,400.000000) scale(0.100000,-0.100000)"
fill="#000000" stroke="none">
<path d="M0 2000 l0 -2000 2000 0 2000 0 0 818 0 817 -99 -3 c-54 -2 -114 1
-132 6 -27 8 -5 10 99 11 l132 1 0 105 c0 99 -1 105 -21 105 -39 0 -59 -19
-59 -55 0 -31 3 -35 28 -36 23 -2 24 -2 5 -6 -13 -2 -23 -12 -23 -21 0 -13 -2
-14 -9 -4 -4 7 -19 19 -33 26 -21 11 -31 11 -58 0 -18 -8 -42 -14 -55 -14 -12
0 -30 -9 -40 -20 -10 -11 -28 -20 -39 -20 -32 0 -54 -46 -48 -99 l4 -44 -36 6
c-20 3 -36 2 -36 -3 0 -4 -9 -6 -20 -3 -11 3 -20 1 -20 -4 0 -5 30 -20 66 -33
65 -23 89 -45 64 -60 -7 -4 -9 -13 -6 -19 4 -6 2 -11 -4 -11 -7 0 -9 -8 -5
-19 6 -21 -21 -98 -32 -88 -3 4 0 13 6 21 12 14 0 32 -16 23 -5 -2 -18 15 -29
38 l-21 41 21 0 c16 -1 22 6 24 28 3 28 2 29 -32 23 -20 -3 -35 -3 -34 1 2 12
-15 47 -29 57 -10 8 -9 16 4 43 13 28 21 32 54 32 28 0 42 6 58 26 11 14 18
31 15 39 -3 7 -1 16 5 20 8 4 8 12 1 25 -5 10 -7 26 -4 34 4 11 0 16 -12 16
-44 -1 -52 -23 -28 -84 4 -11 0 -16 -14 -16 -15 0 -22 9 -28 33 l-7 32 -10
-38 c-7 -30 -13 -37 -30 -35 -15 2 -43 48 -111 178 -93 178 -211 375 -251 420
-13 14 -30 39 -39 57 -22 44 -96 130 -210 245 -53 54 -96 103 -96 108 0 6 -9
30 -19 53 -10 23 -27 69 -37 101 -12 38 -25 61 -36 64 -16 4 -22 19 -19 48 0
6 -15 28 -34 50 -19 21 -35 44 -35 50 0 7 -9 14 -20 17 -23 6 -26 35 -6 51 27
20 29 59 6 86 -16 19 -20 32 -15 55 3 16 6 38 6 48 0 9 -1 25 -1 35 0 9 0 55
1 101 0 67 -3 86 -15 93 -9 5 -16 19 -16 32 0 93 -114 202 -221 210 -19 2 -45
9 -57 15 -27 14 -100 4 -125 -17 -13 -12 -20 -13 -29 -4 -14 14 -42 16 -34 3
3 -5 -4 -11 -17 -15 -36 -9 -76 -58 -81 -99 -4 -28 -2 -37 9 -37 8 0 15 -4 15
-10 0 -5 7 -10 15 -10 11 0 14 -7 9 -24 -4 -19 -1 -26 16 -31 25 -8 22 -9 43
30 18 34 22 17 8 -33 -5 -17 -6 -32 -2 -32 10 0 47 41 54 60 4 12 6 11 6 -3 1
-10 -11 -40 -25 -68 -30 -61 -26 -76 7 -22 13 21 29 44 36 51 7 7 13 18 13 23
0 5 5 9 11 9 7 0 8 -7 4 -17 -4 -10 -6 -55 -6 -101 1 -62 -2 -87 -13 -98 -9
-8 -21 -34 -27 -57 -6 -23 -18 -51 -26 -62 -14 -18 -14 -16 -8 29 4 33 3 46
-4 41 -6 -3 -11 -2 -11 4 0 6 -7 8 -16 4 -14 -5 -16 0 -12 33 3 21 3 31 1 22
-7 -30 -23 -20 -24 15 0 26 -2 28 -9 12 -6 -17 -9 -14 -15 18 -4 20 -5 50 -3
67 4 25 1 30 -24 35 -30 7 -38 32 -13 41 8 4 12 10 9 15 -9 15 -24 10 -24 -7
0 -11 -6 -14 -20 -9 -16 5 -20 2 -20 -14 0 -30 -26 -26 -69 9 -57 48 -60 50
-71 50 -5 0 -10 4 -10 9 0 5 -14 13 -31 16 l-32 7 39 18 c49 23 42 24 -23 5
-36 -11 -59 -12 -76 -6 -17 7 -39 5 -73 -5 -54 -16 -98 -18 -89 -4 3 5 28 12
55 16 33 4 50 11 50 20 0 16 -16 19 -25 4 -3 -5 -11 -10 -16 -10 -6 0 -3 7 6
16 10 10 24 14 39 10 15 -4 26 -1 28 6 2 6 15 13 27 15 20 3 22 1 12 -11 -10
-12 -7 -13 21 -6 18 4 55 15 81 24 26 9 56 16 66 16 10 0 24 7 31 15 7 8 27
15 45 15 17 0 58 9 91 21 32 11 74 21 92 21 17 0 32 3 32 8 0 4 21 13 48 20
26 7 65 18 87 26 22 7 74 22 115 33 118 31 252 71 269 81 10 6 -170 10 -487 9
-377 0 -509 -3 -524 -12 -16 -9 -22 -9 -25 1 -6 15 -33 16 -33 0 0 -9 -3 -9
-12 0 -9 9 -202 12 -805 12 l-793 0 0 -2000z m1600 1950 c0 -5 -7 -10 -15 -10
-8 0 -15 5 -15 10 0 6 7 10 15 10 8 0 15 -4 15 -10z m255 -180 c3 -5 1 -10 -4
-10 -6 0 -11 5 -11 10 0 6 2 10 4 10 3 0 8 -4 11 -10z m515 -10 c0 -4 9 -10
20 -13 11 -3 20 -10 20 -16 0 -6 -8 -7 -17 -4 -16 6 -16 5 -4 -10 8 -10 11
-20 8 -23 -7 -8 -50 16 -60 32 -4 8 -15 14 -22 14 -14 0 -20 12 -11 21 8 7 66
6 66 -1z m-557 -7 c-7 -2 -19 -2 -25 0 -7 3 -2 5 12 5 14 0 19 -2 13 -5z m-66
-19 c-3 -3 -12 -4 -19 -1 -8 3 -5 6 6 6 11 1 17 -2 13 -5z m-607 -24 c0 -5 -4
-10 -10 -10 -5 0 -10 -4 -10 -8 0 -4 16 -8 35 -8 35 0 75 -27 75 -50 0 -8 12
-17 27 -21 l28 -6 -30 -10 c-40 -13 -55 -26 -49 -41 3 -8 -4 -16 -15 -19 -17
-4 -19 -10 -14 -43 5 -31 4 -36 -10 -31 -9 3 -18 0 -21 -8 -3 -8 -12 -12 -21
-9 -11 5 -14 2 -9 -11 5 -12 -1 -24 -17 -36 l-24 -19 23 0 c28 0 29 -17 1 -25
-15 -5 -18 -9 -9 -15 9 -5 7 -11 -7 -21 -12 -10 -19 -29 -21 -63 -2 -27 -10
-65 -18 -84 -17 -42 -17 -42 0 -42 15 0 26 -21 26 -50 0 -23 82 -90 88 -72 6
18 42 -15 42 -37 0 -22 42 -124 57 -136 6 -5 13 -28 16 -50 9 -71 58 -194 88
-225 27 -26 28 -30 12 -38 -10 -5 -43 -12 -73 -16 -74 -9 -121 -24 -147 -49
-19 -17 -23 -18 -23 -5 0 9 -3 23 -6 32 -4 10 5 19 30 30 24 10 34 20 33 34
-1 17 -5 18 -24 11 -15 -5 -23 -5 -23 2 0 5 9 13 20 17 14 5 17 11 10 22 -8
12 -14 10 -33 -14 -17 -21 -26 -26 -31 -17 -10 16 1 44 14 36 5 -3 10 -2 10 3
0 6 -7 13 -16 16 -12 5 -15 14 -11 36 4 16 2 32 -3 35 -6 3 -10 -3 -10 -14 0
-11 -5 -23 -11 -26 -11 -7 -8 44 6 98 5 18 2 35 -9 52 -9 14 -14 30 -11 35 10
16 -35 87 -63 99 -31 15 -43 0 -35 -41 5 -23 3 -27 -11 -22 -9 4 -16 1 -16 -6
0 -7 -8 -10 -20 -7 -16 4 -20 0 -20 -23 0 -15 7 -33 15 -40 10 -9 15 -9 15 -1
0 6 -4 11 -10 11 -5 0 -10 5 -10 10 0 16 14 12 38 -10 l22 -21 -26 -51 c-28
-55 -46 -78 -62 -78 -19 0 -20 -28 -1 -70 10 -23 19 -48 19 -56 0 -18 -28 -33
-51 -27 -11 3 -19 0 -19 -6 0 -6 12 -11 26 -11 14 0 33 -4 43 -10 13 -6 24 -5
36 4 15 11 16 16 5 36 -16 30 3 78 24 60 8 -6 27 -12 43 -13 26 -3 28 -6 25
-37 -2 -19 -10 -48 -17 -65 -8 -16 -15 -41 -17 -54 -3 -23 -5 -22 -31 16 -21
31 -33 40 -48 36 -11 -3 -18 -8 -16 -12 1 -3 13 -27 25 -53 12 -27 28 -48 35
-48 24 0 87 -67 87 -92 0 -13 -12 -46 -26 -73 -26 -48 -53 -119 -95 -253 -15
-47 -32 -75 -63 -105 -23 -23 -52 -58 -64 -78 -35 -59 -44 -63 -101 -49 -54
13 -86 36 -126 89 -36 50 -32 75 23 142 45 57 49 59 94 59 43 0 49 4 85 45 49
57 82 148 65 176 -15 24 -15 56 -1 65 7 4 -11 17 -42 30 -39 16 -58 19 -67 12
-10 -9 -10 -14 2 -27 13 -15 8 -16 -62 -17 -150 -2 -222 -28 -207 -75 3 -9 -6
-34 -20 -54 -14 -21 -25 -48 -25 -61 0 -12 -4 -34 -10 -48 -8 -21 -16 -26 -43
-26 -41 0 -51 8 -34 28 9 12 9 16 0 19 -7 3 -13 12 -13 20 0 8 -8 32 -19 52
-10 20 -23 48 -30 64 -6 15 -16 38 -22 51 -7 14 -9 60 -6 119 2 52 1 101 -4
108 -4 7 -5 17 -2 23 9 14 9 66 1 66 -5 0 -8 12 -8 26 0 14 4 23 10 19 6 -3
11 -3 11 2 1 4 3 17 4 28 2 11 13 42 25 69 16 35 19 51 11 59 -6 6 -11 17 -11
24 0 11 4 11 20 1 15 -10 22 -10 32 0 9 9 8 12 -6 12 -13 0 -16 5 -10 23 3 12
11 24 15 25 5 2 9 8 9 14 0 6 7 16 16 22 12 9 13 17 4 40 -11 31 0 56 26 56 8
0 14 7 14 16 0 10 -6 14 -15 10 -9 -3 -15 0 -15 10 0 10 6 14 14 11 9 -4 17 2
21 14 4 11 18 24 32 30 24 9 28 33 5 35 -7 1 -14 2 -17 3 -3 0 2 13 11 27 12
17 23 24 36 20 28 -7 61 30 54 60 -5 20 -3 24 14 24 14 0 21 6 19 18 -3 34 1
42 22 42 18 0 19 2 9 15 -19 23 1 40 29 26 24 -13 46 -4 46 19 0 8 19 21 43
30 l43 16 -28 14 -28 14 35 4 c19 2 39 10 43 18 5 9 17 12 34 8 18 -5 24 -4
19 5 -4 6 -12 9 -17 6 -5 -4 -9 0 -9 8 0 8 12 18 28 22 l27 8 -25 7 c-23 6
-21 8 20 20 25 7 54 22 66 32 11 10 27 18 35 19 8 0 6 4 -6 8 -18 7 -18 9 9
23 18 10 25 18 17 22 -6 4 -11 14 -11 22 0 12 8 13 38 8 20 -4 41 -12 45 -18
5 -7 6 -3 3 8 -5 15 -2 17 14 13 11 -3 18 0 17 6 -1 6 8 13 21 15 12 2 22 8
22 13 0 5 5 9 10 9 6 0 10 -4 10 -10z m1225 -77 c6 -11 19 -41 30 -67 11 -25
25 -44 31 -42 15 6 44 -27 77 -84 30 -55 50 -163 38 -205 -5 -16 -10 -26 -10
-21 -1 5 -7 3 -15 -3 -12 -10 -15 -3 -21 46 -4 32 -13 74 -21 93 l-15 35 5
-40 c2 -22 1 -60 -4 -85 -4 -25 -8 -35 -9 -22 -1 24 -21 31 -21 7 0 -8 -7 -15
-15 -15 -14 0 -19 -17 -16 -46 1 -6 -9 -19 -21 -30 -12 -10 -18 -14 -15 -8 4
7 -2 14 -13 17 -11 3 -20 13 -20 22 0 9 -4 13 -10 10 -5 -3 -10 2 -10 12 0 15
-2 16 -10 3 -8 -12 -10 -10 -10 8 0 15 -4 21 -12 16 -8 -5 -9 0 -4 17 33 112
34 122 20 136 -16 17 -18 39 -4 48 6 3 10 1 10 -4 0 -6 5 -11 10 -11 23 0 1
110 -36 182 -18 35 -18 42 4 33 9 -4 30 -11 46 -16 23 -7 27 -6 18 3 -16 16
-15 41 1 36 6 -3 17 -14 22 -25z m-1070 -61 c-3 -3 -11 0 -18 7 -9 10 -8 11 6
5 10 -3 15 -9 12 -12z m942 -204 c-3 -8 -6 -5 -6 6 -1 11 2 17 5 13 3 -3 4
-12 1 -19z m23 -18 c0 -5 -8 -10 -17 -10 -15 0 -16 2 -3 10 19 12 20 12 20 0z
m-772 -166 c15 -4 38 -15 52 -24 14 -10 41 -20 60 -24 64 -13 158 -21 154 -14
-3 4 15 6 40 5 24 -1 42 -5 39 -9 -2 -5 5 -8 15 -8 14 0 21 -9 26 -31 10 -52
8 -54 -54 -68 -33 -8 -84 -28 -113 -46 -28 -19 -71 -43 -95 -54 -23 -11 -45
-27 -48 -35 -3 -9 -14 -16 -24 -16 -11 0 -21 -4 -25 -9 -3 -6 -19 -2 -38 9
-26 15 -41 17 -82 10 -27 -4 -59 -4 -70 0 -11 4 -30 4 -42 -1 -28 -10 -37 2
-54 71 -17 73 -17 191 0 224 12 21 22 26 65 29 62 4 157 0 194 -9z m1082 -24
c0 -5 -4 -10 -10 -10 -5 0 -10 5 -10 10 0 6 5 10 10 10 6 0 10 -4 10 -10z
m-240 -4 c0 -11 -19 -15 -25 -6 -3 5 1 10 9 10 9 0 16 -2 16 -4z m-3 -32 c-4
-4 7 -24 24 -46 17 -21 29 -42 25 -45 -11 -11 -106 -16 -106 -5 0 6 -7 18 -16
27 -20 20 -3 45 31 45 13 0 25 7 29 15 3 8 9 15 12 15 4 0 4 -3 1 -6z m206
-28 c9 -22 -10 -49 -29 -42 -7 3 -18 -2 -24 -10 -7 -8 -19 -14 -27 -14 -19 0
-74 51 -67 62 3 4 25 8 49 8 24 0 46 4 49 9 10 15 41 7 49 -13z m-2133 -27 c0
-18 -2 -19 -15 -9 -15 12 -12 30 6 30 5 0 9 -10 9 -21z m1570 -4 c7 -8 10 -21
7 -30 -4 -8 -2 -17 3 -20 5 -3 11 3 13 12 4 15 5 15 6 -2 1 -11 8 -33 16 -49
8 -15 13 -32 10 -36 -3 -4 2 -10 10 -14 8 -3 15 -14 15 -25 0 -11 6 -24 13
-28 7 -4 22 -39 34 -76 l22 -69 -34 -34 c-35 -34 -39 -45 -49 -118 -3 -22 -9
-42 -14 -45 -4 -3 -19 -32 -31 -63 -13 -32 -29 -62 -37 -69 -8 -6 -14 -17 -14
-24 0 -27 -78 -93 -130 -110 -49 -16 -62 -16 -120 1 -25 7 -25 6 6 -27 17 -19
39 -45 49 -59 14 -20 16 -21 12 -5 -2 11 -8 28 -12 38 -6 15 -4 16 20 7 69
-26 120 1 182 97 18 29 41 53 49 53 29 0 112 -52 118 -73 3 -11 1 -28 -4 -38
-13 -24 -121 -119 -136 -119 -6 0 -28 -16 -48 -35 -32 -30 -44 -35 -86 -35
-27 0 -50 -3 -52 -7 -1 -5 -24 -19 -49 -31 -45 -23 -47 -23 -80 -7 -23 12 -34
14 -37 6 -7 -20 -40 -12 -61 15 -11 15 -19 30 -16 34 3 4 -1 10 -8 13 -7 3
-28 34 -47 70 -32 64 -33 66 -16 92 32 49 77 55 159 20 27 -12 20 7 -22 52
-21 23 -36 44 -34 47 7 7 -30 46 -44 46 -7 0 -13 4 -13 9 0 5 -9 11 -20 14
-11 3 -20 10 -20 16 0 6 7 8 15 5 8 -4 15 -1 15 4 0 6 11 9 25 6 14 -2 34 0
44 5 12 7 26 6 45 -4 24 -13 35 -12 89 1 34 9 75 18 90 21 16 3 40 21 55 39
15 19 32 34 38 34 6 0 18 10 27 23 13 18 18 20 34 10 29 -17 40 -4 42 53 2 72
-15 83 -64 44 -47 -37 -67 -37 -146 0 -61 29 -85 32 -61 8 7 -7 12 -15 12 -20
0 -13 -43 -48 -60 -48 -9 0 -27 -11 -40 -25 -13 -14 -34 -25 -47 -25 -13 0
-23 -4 -23 -9 0 -13 47 -41 69 -41 33 0 33 -17 0 -24 -45 -9 -61 -7 -54 4 4 6
-5 10 -19 10 -18 0 -26 6 -27 18 -1 9 -3 24 -4 32 -1 8 -3 32 -4 52 -1 29 -4
36 -16 32 -8 -4 -15 -12 -15 -19 0 -6 -14 -31 -30 -53 -52 -72 -92 -51 -130
66 -13 40 -21 75 -17 78 3 4 28 3 54 -2 38 -6 43 -9 20 -12 -39 -5 -23 -22 21
-22 53 0 122 51 122 90 0 13 9 22 25 26 29 7 55 -10 55 -36 0 -28 12 -31 25
-7 9 18 20 22 60 23 28 1 63 2 79 3 21 1 46 19 97 71 38 38 69 76 69 84 0 8 8
20 18 25 16 10 15 12 -8 31 -14 11 -30 18 -36 16 -7 -3 -11 6 -11 20 0 13 3
21 8 19 4 -3 10 -1 14 5 9 14 20 12 35 -5z m357 -91 c-3 -3 -12 -4 -19 -1 -8
3 -5 6 6 6 11 1 17 -2 13 -5z m301 -13 c3 -8 -1 -12 -9 -9 -7 2 -15 10 -17 17
-3 8 1 12 9 9 7 -2 15 -10 17 -17z m52 -7 c0 -8 -4 -12 -10 -9 -5 3 -10 10
-10 16 0 5 5 9 10 9 6 0 10 -7 10 -16z m-143 -5 c-14 -8 -22 -8 -30 0 -8 8 -3
11 19 11 25 -1 27 -2 11 -11z m-317 -35 c0 -8 -4 -14 -10 -14 -5 0 -10 9 -10
21 0 11 5 17 10 14 6 -3 10 -13 10 -21z m140 12 c0 -2 -7 -6 -15 -10 -8 -3
-15 -1 -15 4 0 6 7 10 15 10 8 0 15 -2 15 -4z m84 -11 c-4 -8 -15 -15 -25 -15
-21 0 -26 16 -6 23 24 10 36 7 31 -8z m-51 -22 c9 -9 -22 -43 -40 -43 -18 0
-16 10 5 31 19 20 26 22 35 12z m137 3 c0 -11 -19 -15 -25 -6 -3 5 1 10 9 10
9 0 16 -2 16 -4z m90 -16 c0 -11 -2 -20 -5 -20 -2 0 -9 9 -15 20 -9 16 -8 20
5 20 8 0 15 -9 15 -20z m-800 -30 c0 -5 -7 -10 -16 -10 -8 0 -12 5 -9 10 3 6
10 10 16 10 5 0 9 -4 9 -10z m850 -12 c0 -16 -3 -19 -11 -11 -6 6 -8 16 -5 22
11 17 16 13 16 -11z m-216 6 c28 -11 18 -34 -14 -34 -18 0 -30 5 -30 13 0 25
15 32 44 21z m110 -20 c4 -9 4 -19 2 -22 -10 -9 -36 8 -36 23 0 20 26 19 34
-1z m-228 -19 c-27 -21 -53 -20 -36 0 7 8 22 15 34 15 21 -1 21 -1 2 -15z
m384 -26 c0 -7 -6 -4 -15 7 -19 25 -19 40 0 20 8 -8 15 -20 15 -27z m-103 -11
c-3 -7 -5 -2 -5 12 0 14 2 19 5 13 2 -7 2 -19 0 -25z m-117 -23 c0 -21 -49
-19 -57 1 -3 9 0 20 8 24 17 11 49 -6 49 -25z m-131 16 c21 -13 4 -31 -30 -31
-27 0 -39 17 -22 33 9 10 35 8 52 -2z m381 -5 c0 -3 -4 -8 -10 -11 -5 -3 -10
-1 -10 4 0 6 5 11 10 11 6 0 10 -2 10 -4z m-193 -48 c-3 -7 -5 -2 -5 12 0 14
2 19 5 13 2 -7 2 -19 0 -25z m-317 2 c0 -5 -9 -14 -20 -20 -15 -8 -20 -8 -20
3 0 8 3 17 7 20 10 10 33 8 33 -3z m560 -10 c0 -5 -2 -10 -4 -10 -3 0 -8 5
-11 10 -3 6 -1 10 4 10 6 0 11 -4 11 -10z m-404 -46 c-8 -21 -60 -14 -64 7 -4
23 49 42 61 22 5 -8 6 -21 3 -29z m-580 -10 c-4 -10 2 -14 19 -14 13 0 27 -4
30 -10 4 -6 -10 -10 -34 -10 -30 0 -39 3 -35 14 3 8 1 17 -5 21 -6 3 -11 13
-11 21 0 12 4 13 21 4 12 -7 18 -18 15 -26z m454 12 c0 -19 -22 -36 -46 -36
-32 0 -38 16 -15 39 21 21 61 19 61 -3z m220 -7 c0 -10 -7 -19 -15 -19 -15 0
-21 31 -9 43 11 10 24 -3 24 -24z m-700 -74 c0 -8 -4 -15 -9 -15 -5 0 -17 -3
-26 -6 -15 -6 -15 -4 -4 15 16 24 39 28 39 6z m478 -14 c23 -14 10 -46 -18
-46 -16 0 -26 6 -28 19 -3 16 12 36 28 36 3 0 11 -4 18 -9z m117 -1 c10 -16
-5 -50 -21 -50 -17 0 -28 24 -20 45 6 17 32 20 41 5z m-233 -43 c4 -19 0 -23
-23 -25 -18 -1 -32 4 -38 15 -7 13 -10 14 -11 4 0 -8 -3 -11 -7 -7 -4 3 4 17
18 30 28 27 54 20 61 -17z m-402 -6 c0 -12 -25 -21 -58 -21 -42 0 -4 24 46 29
6 0 12 -3 12 -8z m-300 -61 c0 -21 -20 -29 -20 -7 0 6 -5 4 -11 -6 -6 -10 -8
-25 -5 -33 7 -18 2 -18 -34 1 -17 9 -30 21 -30 28 0 16 37 34 73 36 21 1 27
-4 27 -19z m818 -33 c2 -10 -4 -20 -13 -23 -21 -9 -28 0 -20 26 8 24 28 22 33
-3z m92 15 c0 -11 -22 -32 -32 -32 -5 0 -4 9 2 20 11 20 30 28 30 12z m-937
-71 c2 -10 1 -25 -4 -32 -6 -10 -9 -4 -9 19 0 36 5 42 13 13z m847 -423 c0
-46 -4 -87 -8 -93 -4 -5 -24 -10 -45 -11 -21 0 -42 -5 -45 -10 -4 -5 -17 -10
-29 -12 -22 -3 -23 -1 -23 80 l0 83 53 22 c28 12 62 22 75 22 21 1 22 -2 22
-81z m-585 62 c8 -13 -5 -13 -25 0 -13 8 -13 10 2 10 9 0 20 -4 23 -10z
m-1278 -6 c-6 -6 15 -70 34 -106 12 -23 0 -51 -18 -44 -12 5 -13 0 -8 -24 3
-16 2 -37 -4 -47 -8 -14 -10 -7 -11 34 0 38 4 54 16 61 11 6 13 11 5 16 -6 4
-11 2 -11 -4 0 -8 -6 -8 -21 0 -16 9 -18 14 -8 26 9 11 7 14 -15 14 -23 0 -25
3 -19 30 3 19 1 30 -6 30 -6 0 -11 5 -11 10 0 6 19 10 42 10 23 0 39 -3 35 -6z
m1678 -125 c0 -63 -3 -85 -12 -82 -17 7 -123 -17 -123 -27 0 -5 -3 -15 -6 -24
-5 -12 0 -16 20 -16 26 0 26 0 26 -84 l0 -84 -29 -7 c-18 -4 -31 -14 -35 -28
-3 -11 -4 -22 -2 -24 1 -1 22 1 47 5 38 7 44 11 44 32 0 13 6 25 12 27 8 3 9
29 6 84 -6 87 -1 99 45 99 13 0 36 7 52 15 29 15 29 15 34 -17 3 -18 7 -69 8
-113 2 -55 7 -79 15 -78 6 2 29 5 51 9 l39 6 7 -68 c4 -38 9 -79 12 -90 6 -25
-8 -33 -75 -40 -26 -2 -56 -7 -68 -9 -16 -4 -26 3 -42 28 l-21 32 -1 -35 c-1
-19 -1 -37 -1 -40 0 -3 -25 -5 -56 -5 l-57 0 -9 43 c-9 45 -32 57 -39 20 -4
-23 -4 -23 -15 2 l-11 25 -1 -30 c-1 -16 -5 -39 -10 -50 -8 -18 -9 -17 -9 8
-1 16 -5 26 -11 22 -5 -3 -10 0 -10 8 0 8 -6 17 -14 20 -9 4 -12 14 -9 25 6
26 -15 65 -32 59 -7 -3 -17 5 -23 18 -7 15 -7 25 -1 27 5 2 7 17 3 36 -5 23
-12 32 -28 33 -17 1 -17 2 -3 6 21 5 21 13 2 83 -8 30 -15 55 -15 56 0 1 22
15 48 31 42 26 49 35 50 63 1 30 34 80 53 80 19 0 39 -35 41 -68 1 -29 3 -24
7 18 l6 55 50 17 c86 30 90 27 90 -73z m-1700 -19 c3 -5 -1 -10 -10 -10 -9 0
-13 5 -10 10 3 6 8 10 10 10 2 0 7 -4 10 -10z m105 -32 c0 -10 4 -18 8 -18 4
0 34 -24 66 -53 54 -49 93 -117 80 -139 -3 -4 0 -8 5 -8 11 0 16 -52 6 -62 -3
-3 -8 -57 -11 -121 -3 -64 -11 -145 -19 -179 l-13 -63 -2 55 c-2 47 -3 51 -10
25 -6 -24 -8 -26 -9 -7 0 12 -1 25 0 28 1 12 -26 24 -43 18 -13 -4 -18 0 -18
17 0 18 2 19 15 9 13 -11 15 -7 15 30 0 37 -2 41 -15 30 -12 -10 -13 -15 -4
-20 6 -4 7 -10 2 -13 -17 -11 -38 19 -39 56 -1 30 2 37 17 37 23 0 24 9 4 24
-20 15 -8 54 19 59 19 3 18 5 -9 16 -16 7 -40 10 -52 6 -13 -3 -23 -3 -23 1 0
14 30 33 64 39 48 9 46 22 -4 27 -22 2 -40 0 -40 -4 0 -5 -5 -8 -11 -8 -11 0
-9 28 6 63 5 12 3 17 -9 17 -9 0 -16 -4 -16 -10 0 -5 -5 -10 -11 -10 -6 0 -9
6 -6 14 3 8 0 22 -7 32 -14 19 -10 54 6 54 5 0 6 9 3 21 -4 11 -1 33 5 49 10
25 14 27 31 17 10 -6 19 -20 19 -29z m1737 6 c-3 -3 -12 -4 -19 -1 -8 3 -5 6
6 6 11 1 17 -2 13 -5z m63 -128 c0 -76 -3 -95 -16 -100 -8 -3 -12 -2 -9 4 3 6
-1 10 -9 10 -9 0 -16 -6 -16 -12 0 -10 -2 -10 -9 0 -4 7 -14 12 -22 10 -11 -2
-15 15 -17 81 -3 94 1 101 61 101 l37 0 0 -94z m1408 -94 c3 -16 -1 -20 -12
-16 -19 7 -22 48 -3 42 6 -3 13 -14 15 -26z m-198 -164 c23 -3 25 -7 23 -52
-2 -28 3 -56 10 -65 10 -12 9 -14 -5 -8 -22 8 -36 -36 -19 -57 9 -11 9 -16 1
-21 -7 -4 -9 -17 -6 -28 3 -12 1 -26 -5 -33 -5 -6 -10 -29 -11 -50 -1 -22 -8
-44 -17 -51 -14 -12 -14 -14 3 -28 18 -14 18 -16 3 -33 -23 -25 -21 -41 6 -52
l22 -9 -22 -6 c-27 -9 -38 -46 -17 -62 14 -10 13 -12 -3 -17 -14 -4 -19 -16
-19 -41 0 -40 -2 -43 -34 -48 -13 -2 -31 -14 -41 -26 l-18 -22 -11 22 c-7 11
-9 32 -6 45 5 19 1 26 -21 38 -50 26 -61 49 -63 123 -1 37 2 83 6 101 4 23 2
38 -8 50 -8 9 -21 32 -28 50 -7 19 -25 41 -39 50 -36 22 -61 49 -61 65 0 19
43 57 127 111 39 25 75 51 78 57 6 9 89 8 175 -3z m-2022 -39 c-10 -6 -18 -21
-18 -34 0 -18 -5 -25 -20 -25 -11 0 -20 -4 -20 -10 0 -5 7 -7 15 -4 11 5 13 2
8 -11 -6 -16 -9 -15 -29 9 -28 31 -24 42 23 79 26 19 40 24 47 17 8 -8 6 -14
-6 -21z m182 -40 c0 -15 -5 -19 -15 -15 -12 4 -14 0 -9 -21 5 -19 3 -24 -7
-21 -13 4 -15 51 -2 71 9 16 33 6 33 -14z m-130 -61 c-6 -7 -20 -28 -31 -46
-11 -18 -33 -41 -49 -50 -16 -9 -30 -24 -30 -32 0 -9 -11 -32 -25 -52 -14 -20
-25 -46 -25 -57 0 -12 -3 -21 -6 -21 -16 0 -44 23 -44 35 0 21 61 101 88 116
12 7 25 23 28 35 7 28 96 112 102 96 2 -6 -2 -17 -8 -24z m795 12 c4 -12 2
-26 -4 -33 -10 -13 -80 -41 -86 -35 -2 1 -6 20 -10 40 -6 33 -5 37 17 41 56
10 77 7 83 -13z m-145 -35 c10 -50 1 -62 -63 -86 -34 -13 -66 -25 -70 -27 -4
-2 -7 25 -5 59 l3 64 50 12 c68 15 79 13 85 -22z m1720 -35 c0 -5 -10 -10 -22
-10 -13 0 -36 -7 -52 -15 -15 -8 -32 -15 -36 -15 -10 0 -20 37 -12 44 10 10
122 6 122 -4z m-2210 -20 c0 -5 -7 -7 -15 -4 -8 4 -12 10 -9 15 6 11 24 2 24
-11z m306 -11 c-3 -17 -6 -39 -6 -49 0 -16 -55 -40 -93 -40 -24 0 -30 31 -7
37 14 4 20 14 20 33 0 22 6 31 28 38 53 20 65 16 58 -19z m1686 19 c-9 -9 -15
-9 -24 0 -9 9 -7 12 12 12 19 0 21 -3 12 -12z m-2154 -68 c-7 -10 -14 -18 -15
-16 -6 6 9 36 18 36 5 0 4 -9 -3 -20z m877 -38 c0 -18 -20 -15 -23 4 -3 10 1
15 10 12 7 -3 13 -10 13 -16z m-45 -26 c0 -30 -43 -55 -65 -36 -19 16 -10 30
21 30 22 0 29 10 25 33 -1 5 3 6 9 2 5 -3 10 -16 10 -29z m-252 -28 c-3 -7
-13 -15 -24 -16 -10 -2 -23 -9 -29 -14 -7 -8 -6 -9 1 -5 7 4 15 -4 19 -20 4
-19 9 -23 14 -14 5 8 11 9 15 3 3 -5 -1 -12 -9 -16 -8 -3 -19 3 -24 12 -9 15
-11 15 -12 -3 -1 -14 -4 -10 -9 10 -4 17 -11 37 -14 47 -8 17 7 25 52 27 15 1
22 -4 20 -11z m1139 -20 c-3 -7 -5 -2 -5 12 0 14 2 19 5 13 2 -7 2 -19 0 -25z
m-858 -10 c0 -33 0 -33 -12 -8 l-11 25 -4 -33 c-3 -29 -5 -32 -19 -20 -14 11
-15 11 -11 -2 5 -15 -18 -39 -39 -40 -6 0 -13 6 -16 13 -2 6 -3 5 -2 -4 3 -17
-38 -43 -49 -32 -3 4 -6 15 -6 26 0 13 5 17 15 13 8 -3 15 0 15 6 0 11 29 37
43 38 5 0 5 -4 2 -10 -3 -5 -1 -10 5 -10 6 0 8 -4 5 -10 -3 -5 -1 -10 6 -10 7
0 9 10 7 25 -3 14 -1 25 4 25 5 0 18 9 30 20 30 28 38 25 37 -12z m-373 -12
c3 -14 3 -34 -1 -47 -5 -14 -4 -19 4 -15 6 4 11 2 11 -4 0 -7 -8 -9 -20 -5
-10 3 -28 1 -40 -5 -19 -10 -20 -8 -20 39 0 39 4 51 18 54 34 9 42 7 48 -17z
m107 4 c-3 -12 -8 -19 -11 -16 -5 6 5 36 12 36 2 0 2 -9 -1 -20z m-243 -35 c0
-12 -19 -12 -23 0 -4 9 -1 12 9 8 7 -3 14 -7 14 -8z m205 -34 c3 -5 2 -12 -3
-15 -5 -3 -9 1 -9 9 0 17 3 19 12 6z m135 -34 c0 -5 -10 -5 -21 -2 -16 5 -19
4 -14 -5 5 -9 4 -11 -3 -6 -18 11 -15 39 3 32 8 -3 15 0 15 7 0 13 20 -12 20
-26z m-310 13 c0 -5 -7 -10 -15 -10 -8 0 -15 5 -15 10 0 6 7 10 15 10 8 0 15
-4 15 -10z m390 6 c0 -3 -4 -8 -10 -11 -5 -3 -10 -1 -10 4 0 6 5 11 10 11 6 0
10 -2 10 -4z m-957 -17 c9 -6 17 -16 17 -24 0 -8 6 -15 14 -15 23 0 26 -26 19
-131 -3 -58 -2 -99 3 -98 5 1 32 -8 59 -21 36 -17 70 -24 121 -25 49 -2 81 -8
103 -21 25 -15 36 -16 60 -7 21 8 32 8 40 0 16 -16 13 -27 -6 -20 -12 5 -15 2
-11 -9 5 -12 -3 -17 -39 -22 -71 -9 -138 -7 -150 5 -6 6 -31 13 -54 15 -58 5
-79 13 -79 30 0 13 -4 12 -30 -1 -27 -14 -30 -14 -39 2 -7 15 -25 19 -93 21
-68 3 -97 -2 -162 -23 -83 -27 -136 -30 -81 -4 17 7 32 16 35 20 3 3 12 9 20
13 8 3 2 4 -14 0 -26 -5 -28 -3 -17 10 8 9 21 16 31 16 11 0 17 7 16 18 -1 13
5 16 27 14 15 -2 27 1 27 7 0 6 9 11 20 11 11 0 20 4 20 9 0 5 -9 11 -20 14
-14 4 -20 14 -20 34 0 26 -3 30 -30 30 -16 0 -30 -4 -30 -9 0 -4 6 -7 12 -5 7
1 14 -8 16 -20 3 -18 -1 -20 -19 -16 -15 4 -20 3 -15 -5 4 -7 0 -15 -10 -19
-10 -4 -19 -2 -22 5 -2 7 -10 12 -18 12 -8 0 -11 6 -8 15 4 10 0 15 -15 15
-21 0 -21 1 -5 25 9 14 24 25 33 25 24 0 61 37 61 60 0 11 10 25 23 31 12 7
27 18 32 25 16 20 146 29 178 13z m827 -22 c0 -5 -4 -5 -10 -2 -5 3 -10 1 -10
-4 0 -6 4 -11 8 -11 4 0 9 -12 10 -27 1 -19 -1 -24 -9 -16 -6 6 -12 19 -14 29
-2 11 -4 21 -4 23 -1 2 -8 -2 -16 -9 -13 -10 -15 -9 -15 9 0 18 4 21 20 16 15
-5 20 -2 20 12 0 15 2 16 10 3 5 -8 10 -19 10 -23z m104 -2 c4 -16 4 -27 0
-22 -4 4 -15 0 -24 -8 -27 -24 -64 -24 -68 1 -2 12 4 24 12 27 10 4 14 0 11
-14 -2 -11 2 -19 9 -19 9 0 12 9 8 25 -2 15 0 25 7 25 6 0 11 -6 12 -12 0 -7
5 -2 10 11 11 28 14 26 23 -14z m-175 -2 c-3 -21 3 -33 17 -33 8 0 12 -4 9
-10 -3 -5 -1 -10 4 -10 6 0 11 -7 11 -15 0 -8 -8 -15 -17 -14 -10 0 -13 3 -6
5 8 4 7 11 -5 24 -34 37 -41 48 -35 54 9 8 23 7 22 -1z m-33 -31 c1 -7 0 -8
-3 -2 -8 16 -26 12 -19 -5 3 -8 1 -15 -4 -15 -6 0 -10 9 -10 21 0 23 31 24 36
1z m-61 -11 c-3 -14 5 -24 26 -33 33 -15 39 -29 9 -21 -11 3 -20 9 -20 14 0 5
-6 9 -14 9 -17 0 -28 37 -12 44 6 2 12 5 13 5 1 1 0 -8 -2 -18z m-35 -13 c0
-19 -2 -20 -10 -8 -13 19 -13 30 0 30 6 0 10 -10 10 -22z m-33 -10 c-3 -8 -6
-5 -6 6 -1 11 2 17 5 13 3 -3 4 -12 1 -19z m-53 -4 c4 -10 1 -14 -6 -12 -15 5
-23 28 -10 28 5 0 13 -7 16 -16z m36 1 c0 -8 -2 -15 -4 -15 -2 0 -6 7 -10 15
-3 8 -1 15 4 15 6 0 10 -7 10 -15z m170 -5 c0 -17 -2 -19 -14 -8 -10 9 -11 15
-2 20 16 11 16 10 16 -12z m-1100 -90 c0 -5 -10 -10 -22 -9 -22 0 -22 1 -3 9
11 5 21 9 23 9 1 1 2 -3 2 -9z m770 -50 c0 -6 15 -17 33 -25 27 -12 29 -14 9
-15 -20 0 -21 -3 -12 -20 8 -15 8 -20 -3 -20 -7 0 -21 17 -30 38 -20 45 -21
52 -7 52 6 0 10 -5 10 -10z m653 3 c-13 -2 -35 -2 -50 0 -16 2 -5 4 22 4 28 0
40 -2 28 -4z m-119 -23 c-26 -13 -46 -33 -58 -56 -9 -20 -19 -34 -22 -31 -14
14 42 87 76 100 38 14 41 5 4 -13z m176 5 c7 -8 8 -15 2 -15 -5 0 -15 7 -22
15 -7 8 -8 15 -2 15 5 0 15 -7 22 -15z m40 -102 c-11 -17 -11 -17 -6 0 3 10 6
24 7 30 0 9 2 9 5 0 3 -7 0 -20 -6 -30z m-1582 -48 c-26 -14 -51 -25 -55 -25
-15 0 72 49 87 50 8 0 -6 -11 -32 -25z m1309 -7 c-3 -8 -6 -5 -6 6 -1 11 2 17
5 13 3 -3 4 -12 1 -19z m-708 -251 c-2 -1 -12 -9 -21 -16 -15 -12 -18 -11 -18
3 0 10 8 16 22 16 12 0 19 -1 17 -3z"/>
<path d="M1130 3580 c0 -5 10 -10 23 -10 18 0 19 2 7 10 -19 13 -30 13 -30 0z"/>
<path d="M1000 3470 c0 -5 5 -10 10 -10 6 0 10 5 10 10 0 6 -4 10 -10 10 -5 0
-10 -4 -10 -10z"/>
<path d="M728 3069 c-32 -4 -68 -14 -80 -21 -22 -12 -20 -13 27 -19 40 -5 46
-8 28 -14 -33 -11 -30 -45 2 -45 23 0 25 -2 14 -21 -7 -14 -7 -19 0 -15 6 4
21 0 34 -9 26 -17 56 -11 58 11 2 23 4 28 12 41 4 6 2 15 -4 19 -7 4 1 12 22
19 27 9 40 9 64 -3 l30 -15 -24 27 c-14 14 -34 26 -45 26 -12 1 -32 7 -46 15
-14 8 -27 14 -30 13 -3 0 -31 -4 -62 -9z"/>
<path d="M836 2964 c-4 -9 -4 -19 -1 -22 3 -3 5 0 5 6 0 7 7 9 18 5 15 -6 15
-5 3 10 -17 21 -17 21 -25 1z"/>
<path d="M896 2936 c21 -28 46 -43 38 -21 -3 8 -17 21 -31 30 l-26 17 19 -26z"/>
<path d="M810 2901 c0 -5 7 -11 14 -14 10 -4 13 -1 9 9 -6 15 -23 19 -23 5z"/>
<path d="M433 2842 c-17 -10 -27 -59 -14 -66 6 -4 11 -17 11 -29 0 -13 16 -35
40 -55 22 -18 40 -28 40 -23 0 15 30 14 31 -1 1 -16 27 100 28 124 1 17 -2 17
-39 2 -35 -14 -41 -14 -55 -1 -8 9 -15 22 -15 31 0 19 -12 27 -27 18z"/>
<path d="M743 2656 c4 -9 -4 -16 -21 -20 -15 -3 -34 -10 -42 -16 -13 -9 -13
-11 0 -20 8 -5 21 -8 28 -5 7 3 15 -2 18 -9 8 -21 34 -28 48 -13 20 19 26 58
11 63 -8 3 -11 12 -8 20 3 9 -2 14 -17 14 -15 0 -20 -5 -17 -14z"/>
<path d="M475 2640 c-3 -5 -1 -10 4 -10 6 0 11 5 11 10 0 6 -2 10 -4 10 -3 0
-8 -4 -11 -10z"/>
<path d="M420 2620 c0 -20 24 -60 34 -57 16 5 19 36 6 52 -14 17 -40 20 -40 5z"/>
<path d="M486 2601 c-4 -5 -2 -12 3 -15 5 -4 12 -2 15 3 4 5 2 12 -3 15 -5 4
-12 2 -15 -3z"/>
<path d="M580 2436 c0 -2 7 -9 15 -16 12 -10 15 -10 15 4 0 9 -7 16 -15 16 -8
0 -15 -2 -15 -4z"/>
<path d="M833 2425 c-18 -8 -33 -10 -33 -5 0 25 -28 7 -34 -21 -10 -50 -7 -54
17 -31 14 13 36 22 55 22 27 0 32 4 32 25 0 14 -1 25 -2 25 -2 -1 -18 -7 -35
-15z"/>
<path d="M860 2355 c0 -8 5 -15 10 -15 6 0 10 7 10 15 0 8 -4 15 -10 15 -5 0
-10 -7 -10 -15z"/>
<path d="M2360 3445 c0 -16 7 -52 15 -79 8 -28 13 -58 9 -68 -7 -22 0 -23 20
-2 28 28 15 105 -28 159 -15 19 -15 19 -16 -10z"/>
<path d="M2348 3274 c-12 -11 -9 -82 3 -89 14 -10 15 -7 9 48 -3 27 -8 45 -12
41z"/>
<path d="M1840 2440 c0 -5 -6 -10 -12 -10 -7 0 -24 -9 -38 -20 -14 -11 -36
-20 -50 -20 -36 0 -70 -11 -70 -21 0 -5 11 -14 24 -20 29 -14 118 12 154 44
25 23 29 57 7 57 -8 0 -15 -4 -15 -10z"/>
<path d="M1744 2115 c-15 -11 -16 -14 -4 -15 21 0 44 16 33 23 -6 4 -19 0 -29
-8z"/>
<path d="M1870 1870 c0 -5 3 -16 6 -24 5 -13 9 -14 20 -5 19 16 17 26 -6 32
-11 3 -20 1 -20 -3z"/>
<path d="M1830 1670 c0 -5 5 -10 10 -10 6 0 10 5 10 10 0 6 -4 10 -10 10 -5 0
-10 -4 -10 -10z"/>
<path d="M2133 1555 c-3 -9 -3 -18 0 -21 9 -9 27 6 27 22 0 19 -19 18 -27 -1z"/>
<path d="M585 1690 c3 -5 11 -10 16 -10 6 0 7 5 4 10 -3 6 -11 10 -16 10 -6 0
-7 -4 -4 -10z"/>
<path d="M480 1644 c0 -14 3 -14 15 -4 8 7 15 14 15 16 0 2 -7 4 -15 4 -8 0
-15 -7 -15 -16z"/>
<path d="M3410 830 c-12 -8 -11 -10 8 -10 12 0 22 5 22 10 0 13 -11 13 -30 0z"/>
<path d="M1970 994 c0 -31 23 -28 28 4 2 15 -2 22 -12 22 -11 0 -16 -9 -16
-26z"/>
<path d="M1128 613 c6 -2 18 -2 25 0 6 3 1 5 -13 5 -14 0 -19 -2 -12 -5z"/>
<path d="M2940 3991 c0 -5 7 -11 15 -15 9 -3 15 0 15 9 0 8 -7 15 -15 15 -8 0
-15 -4 -15 -9z"/>
<path d="M3026 3985 c4 -10 0 -15 -14 -15 -11 0 -27 -6 -34 -12 -21 -20 -56
-38 -73 -38 -8 0 -15 -4 -15 -9 0 -5 -16 -12 -35 -15 -19 -4 -35 -11 -35 -16
0 -6 -11 -10 -24 -10 -14 0 -31 -7 -40 -15 -8 -8 -20 -15 -26 -15 -7 0 -5 -7
5 -16 14 -15 17 -15 28 -1 7 8 30 20 52 26 58 16 75 13 38 -5 -18 -9 -33 -20
-33 -25 0 -14 18 -11 46 8 25 16 27 16 36 0 5 -9 16 -17 23 -17 8 0 15 -4 15
-10 0 -5 5 -10 10 -10 6 0 10 7 10 15 0 9 9 15 21 15 19 0 19 -1 5 -16 -24
-24 -20 -27 30 -19 61 9 74 14 74 31 0 8 7 14 15 14 8 0 15 -5 15 -10 0 -13
99 -2 119 14 17 13 73 8 83 -7 24 -39 28 -42 36 -30 6 9 17 9 47 -2 22 -8 50
-14 63 -15 13 0 20 -4 17 -10 -3 -5 3 -10 14 -10 10 0 21 3 24 8 2 4 2 1 1 -5
-2 -7 2 -13 9 -13 7 0 44 -13 82 -30 62 -26 71 -27 82 -14 7 10 13 12 18 4 3
-6 16 -10 28 -9 49 4 79 -1 74 -13 -8 -25 13 -48 44 -48 17 0 38 -4 47 -9 9
-4 34 -11 55 -14 l37 -6 0 195 0 194 -490 0 c-431 0 -489 -2 -484 -15z m34 -9
c0 -3 -4 -8 -10 -11 -5 -3 -10 -1 -10 4 0 6 5 11 10 11 6 0 10 -2 10 -4z m-80
-86 c0 -5 -7 -10 -15 -10 -8 0 -15 5 -15 10 0 6 7 10 15 10 8 0 15 -4 15 -10z
m-40 -30 c0 -5 -9 -10 -21 -10 -11 0 -17 5 -14 10 3 6 13 10 21 10 8 0 14 -4
14 -10z m210 -10 c0 -5 -4 -10 -10 -10 -5 0 -10 5 -10 10 0 6 5 10 10 10 6 0
10 -4 10 -10z m207 -22 c-3 -8 -6 -5 -6 6 -1 11 2 17 5 13 3 -3 4 -12 1 -19z"/>
<path d="M2678 3833 c7 -3 16 -2 19 1 4 3 -2 6 -13 5 -11 0 -14 -3 -6 -6z"/>
<path d="M2685 3790 c-3 -5 -1 -10 4 -10 6 0 11 5 11 10 0 6 -2 10 -4 10 -3 0
-8 -4 -11 -10z"/>
<path d="M3740 3680 c-9 -6 -10 -10 -3 -10 6 0 15 5 18 10 8 12 4 12 -15 0z"/>
<path d="M2156 3395 c-3 -9 -6 -26 -5 -38 1 -16 4 -12 10 12 10 34 6 55 -5 26z"/>
<path d="M3963 2573 c9 -2 23 -2 30 0 6 3 -1 5 -18 5 -16 0 -22 -2 -12 -5z"/>
<path d="M3908 2563 c6 -2 18 -2 25 0 6 3 1 5 -13 5 -14 0 -19 -2 -12 -5z"/>
<path d="M3751 2539 c-46 -9 -66 -19 -37 -19 9 0 15 -4 12 -9 -4 -5 12 0 34
10 22 11 45 17 50 14 5 -3 11 -1 15 5 7 12 -12 11 -74 -1z"/>
<path d="M3668 2513 c7 -3 16 -2 19 1 4 3 -2 6 -13 5 -11 0 -14 -3 -6 -6z"/>
<path d="M3824 2415 c4 -24 16 -30 16 -7 0 12 -4 22 -9 22 -5 0 -8 -7 -7 -15z"/>
<path d="M3816 2355 c-3 -8 -1 -15 4 -15 6 0 10 7 10 15 0 8 -2 15 -4 15 -2 0
-6 -7 -10 -15z"/>
<path d="M3814 2302 c-9 -5 -8 -11 2 -20 12 -11 14 -9 14 8 0 22 0 23 -16 12z"/>
<path d="M3620 1939 c0 -6 -9 -9 -20 -6 -13 3 -20 0 -20 -9 0 -15 44 -19 74
-8 13 5 14 9 5 20 -14 17 -39 18 -39 3z"/>
<path d="M3555 1909 c-4 -6 -5 -12 -2 -15 2 -3 7 2 10 11 7 17 1 20 -8 4z"/>
<path d="M3775 1823 c-44 -10 -50 -16 -20 -22 31 -7 85 7 85 21 0 8 -31 9 -65
1z"/>
<path d="M3608 1423 c6 -2 18 -2 25 0 6 3 1 5 -13 5 -14 0 -19 -2 -12 -5z"/>
</g>
</svg>
